<svg width="22" height="22" viewBox="0 0 22 22" fill="none" xmlns="http://www.w3.org/2000/svg">
<path d="M3.87721 2.05732C3.60953 2.12513 3.4475 2.39711 3.51531 2.6648C3.58313 2.93248 3.8551 3.09451 4.12279 3.0267L3.87721 2.05732ZM7.78571 5.25629C7.78571 5.53244 8.00957 5.75629 8.28571 5.75629C8.56186 5.75629 8.78571 5.53244 8.78571 5.25629H7.78571ZM10.5781 4.93956C10.4027 5.15284 10.4334 5.46793 10.6467 5.64333C10.86 5.81873 11.1751 5.78801 11.3505 5.57473L10.5781 4.93956ZM13.3216 2.39066L12.9354 2.07307V2.07307L13.3216 2.39066ZM17.4286 5.8C17.4286 6.07614 17.6524 6.3 17.9286 6.3C18.2047 6.3 18.4286 6.07614 18.4286 5.8H17.4286ZM8.6416 9.2488C8.44764 9.05224 8.13106 9.05015 7.93451 9.24411C7.73796 9.43808 7.73586 9.75465 7.92983 9.9512L8.6416 9.2488ZM14.8941 17.0083C15.0881 17.2049 15.4047 17.207 15.6012 17.013C15.7978 16.8191 15.7999 16.5025 15.6059 16.3059L14.8941 17.0083ZM7.92983 16.3059C7.73586 16.5025 7.73796 16.8191 7.93451 17.013C8.13106 17.207 8.44764 17.2049 8.6416 17.0083L7.92983 16.3059ZM15.6059 9.9512C15.7999 9.75465 15.7978 9.43808 15.6012 9.24411C15.4047 9.05015 15.0881 9.05224 14.8941 9.2488L15.6059 9.9512ZM4.12279 3.0267C4.78109 2.85993 5.73787 2.79699 6.4989 3.09004C6.8689 3.23251 7.18114 3.45409 7.40396 3.78062C7.62681 4.1072 7.78571 4.57613 7.78571 5.25629H8.78571C8.78571 4.41646 8.58748 3.74087 8.22997 3.21696C7.87243 2.69302 7.3811 2.35817 6.85824 2.15684C5.83356 1.76226 4.64748 1.86219 3.87721 2.05732L4.12279 3.0267ZM11.3505 5.57473L13.7078 2.70824L12.9354 2.07307L10.5781 4.93956L11.3505 5.57473ZM14.1447 2.5H16.8571V1.5H14.1447V2.5ZM17.4286 3.08571V5.8H18.4286V3.08571H17.4286ZM16.8571 2.5C17.1665 2.5 17.4286 2.75597 17.4286 3.08571H18.4286C18.4286 2.21621 17.7312 1.5 16.8571 1.5V2.5ZM13.7078 2.70824C13.8172 2.57514 13.9776 2.5 14.1447 2.5V1.5C13.6758 1.5 13.2331 1.7111 12.9354 2.07307L13.7078 2.70824ZM4.5 18.8286V7.97143H3.5V18.8286H4.5ZM6.14286 6.3H16.8571V5.3H6.14286V6.3ZM18.5 7.97143V18.8286H19.5V7.97143H18.5ZM16.8571 20.5H6.14286V21.5H16.8571V20.5ZM18.5 18.8286C18.5 19.7579 17.7582 20.5 16.8571 20.5V21.5C18.323 21.5 19.5 20.2977 19.5 18.8286H18.5ZM16.8571 6.3C17.7582 6.3 18.5 7.04206 18.5 7.97143H19.5C19.5 6.5023 18.323 5.3 16.8571 5.3V6.3ZM4.5 7.97143C4.5 7.04206 5.24176 6.3 6.14286 6.3V5.3C4.67702 5.3 3.5 6.5023 3.5 7.97143H4.5ZM3.5 18.8286C3.5 20.2977 4.67702 21.5 6.14286 21.5V20.5C5.24176 20.5 4.5 19.7579 4.5 18.8286H3.5ZM7.92983 9.9512L14.8941 17.0083L15.6059 16.3059L8.6416 9.2488L7.92983 9.9512ZM8.6416 17.0083L15.6059 9.9512L14.8941 9.2488L7.92983 16.3059L8.6416 17.0083Z" fill="#3498DB"/>
</svg>
