<svg width="22" height="22" viewBox="0 0 22 22" fill="none" xmlns="http://www.w3.org/2000/svg">
<path d="M11 3C9.77886 3 8.6135 3.24107 7.50391 3.72321C6.39432 4.20536 5.43738 4.85417 4.63307 5.66964C3.82877 6.48512 3.18885 7.45833 2.71331 8.58929C2.23777 9.72024 2 10.9048 2 12.1429C2 13.7143 2.3728 15.1845 3.1184 16.5536C3.86399 17.9226 4.9002 19.0298 6.22701 19.875C6.35616 19.9583 6.49706 19.9821 6.64971 19.9464C6.80235 19.9107 6.91976 19.8274 7.00196 19.6964C7.08415 19.5655 7.10763 19.4226 7.07241 19.2679C7.03718 19.1131 6.95499 18.994 6.82583 18.9107C5.87476 18.3036 5.08806 17.5357 4.46575 16.6071L5.06458 16.25C5.19374 16.1786 5.27886 16.0655 5.31996 15.9107C5.36106 15.756 5.34344 15.6101 5.26712 15.4732C5.1908 15.3363 5.07632 15.247 4.92368 15.2054C4.77104 15.1637 4.63014 15.1845 4.50098 15.2679L3.90215 15.6071C3.6908 15.1548 3.52055 14.6845 3.39139 14.1964C3.26223 13.7083 3.18004 13.2083 3.14481 12.6964H3.76125C3.92564 12.6964 4.06067 12.6399 4.16634 12.5268C4.27202 12.4137 4.32485 12.2798 4.32485 12.125C4.32485 11.9702 4.27202 11.8363 4.16634 11.7232C4.06067 11.6101 3.92564 11.5536 3.76125 11.5536H3.14481C3.21526 10.5179 3.47945 9.53571 3.93738 8.60714L4.50098 8.94643C4.58317 8.99405 4.6771 9.01786 4.78278 9.01786C4.99413 9.01786 5.15264 8.92262 5.25832 8.73214C5.34051 8.60119 5.36106 8.45833 5.31996 8.30357C5.27886 8.14881 5.19374 8.03571 5.06458 7.96429L4.50098 7.625C5.07632 6.77976 5.78082 6.07143 6.61448 5.5L6.93151 6.05357C7.03718 6.24405 7.20157 6.33929 7.42466 6.33929C7.51859 6.33929 7.61252 6.31548 7.70646 6.26786C7.76517 6.23214 7.818 6.18155 7.86497 6.11607C7.91194 6.0506 7.94423 5.98512 7.96184 5.91964C7.97945 5.85417 7.98532 5.78274 7.97945 5.70536C7.97358 5.62798 7.94716 5.55357 7.9002 5.48214L7.58317 4.92857C8.02935 4.71429 8.49022 4.54464 8.96575 4.41964C9.44129 4.29464 9.92564 4.20833 10.4188 4.16071V4.875C10.4188 5.04167 10.4746 5.17857 10.5861 5.28571C10.6977 5.39286 10.8327 5.44643 10.9912 5.44643C11.1497 5.44643 11.2818 5.39286 11.3875 5.28571C11.4932 5.17857 11.546 5.04167 11.546 4.875V4.16071C12.5675 4.23214 13.5362 4.49405 14.4521 4.94643L14.135 5.48214C14.1233 5.51786 14.1115 5.5506 14.0998 5.58036C14.0881 5.61012 14.0793 5.64286 14.0734 5.67857C14.0675 5.71429 14.0646 5.74702 14.0646 5.77679C14.0646 5.80655 14.0675 5.83929 14.0734 5.875C14.0793 5.91071 14.0881 5.94345 14.0998 5.97321C14.1115 6.00298 14.1262 6.03274 14.1438 6.0625C14.1614 6.09226 14.1791 6.11905 14.1967 6.14286C14.2143 6.16667 14.2348 6.19048 14.2583 6.21429C14.2818 6.2381 14.3112 6.25595 14.3464 6.26786L14.4168 6.30357L14.4873 6.33036L14.5577 6.33929H14.6282C14.6751 6.33929 14.7221 6.33333 14.7691 6.32143C14.816 6.30952 14.8601 6.29167 14.9012 6.26786C14.9423 6.24405 14.9834 6.21429 15.0245 6.17857C15.0656 6.14286 15.0978 6.10119 15.1213 6.05357L15.4207 5.51786C16.2544 6.10119 16.953 6.80952 17.5166 7.64286L16.9883 7.96429C16.9178 8 16.862 8.04762 16.8209 8.10714C16.7798 8.16667 16.7476 8.23214 16.7241 8.30357C16.7006 8.375 16.6947 8.44941 16.7065 8.52679C16.7182 8.60417 16.7417 8.67262 16.7769 8.73214C16.8356 8.82738 16.909 8.89881 16.9971 8.94643C17.0851 8.99405 17.1761 9.01786 17.2701 9.01786C17.317 9.01786 17.364 9.01191 17.411 9C17.4579 8.9881 17.5049 8.97024 17.5519 8.94643L18.0802 8.64286C18.5264 9.55952 18.7847 10.5357 18.8552 11.5714H18.2387C18.0861 11.5714 17.954 11.628 17.8425 11.7411C17.7309 11.8542 17.6751 11.9881 17.6751 12.1429C17.6751 12.2976 17.7309 12.4315 17.8425 12.5446C17.954 12.6577 18.0861 12.7143 18.2387 12.7143H18.8552C18.7847 13.7262 18.5382 14.6845 18.1155 15.5893L17.5519 15.2679C17.411 15.1845 17.2671 15.1637 17.1204 15.2054C16.9736 15.247 16.8591 15.3393 16.7769 15.4821C16.7417 15.5417 16.7182 15.6101 16.7065 15.6875C16.6947 15.7649 16.7006 15.8393 16.7241 15.9107C16.7476 15.9821 16.7798 16.0476 16.8209 16.1071C16.862 16.1667 16.9178 16.2143 16.9883 16.25L17.5519 16.5893C16.9178 17.5417 16.1076 18.3274 15.1213 18.9464C14.9922 19.0298 14.91 19.1458 14.8748 19.2946C14.8395 19.4435 14.863 19.5893 14.9452 19.7321C14.9804 19.7798 15.0245 19.8244 15.0773 19.8661C15.1301 19.9077 15.1859 19.9405 15.2446 19.9643C15.3033 19.9881 15.362 20 15.4207 20C15.5264 20 15.6262 19.9702 15.7202 19.9107C17.0587 19.0774 18.1067 17.9732 18.864 16.5982C19.6213 15.2232 20 13.7321 20 12.125C20 10.8988 19.7622 9.72024 19.2867 8.58929C18.8112 7.45833 18.1712 6.48512 17.3669 5.66964C16.5626 4.85417 15.6057 4.20536 14.4961 3.72321C13.3865 3.24107 12.2211 3 11 3ZM15.1566 10.3571C15.2505 10.2976 15.3209 10.2232 15.3679 10.1339C15.4149 10.0446 15.4384 9.95238 15.4384 9.85714C15.4384 9.76191 15.4149 9.66667 15.3679 9.57143C15.2857 9.44048 15.1712 9.35417 15.0245 9.3125C14.8777 9.27083 14.7339 9.28571 14.593 9.35714L11.5284 11.1607C11.3523 11.0536 11.1703 11 10.9824 11C10.6771 11 10.4129 11.1131 10.1898 11.3393C9.96673 11.5655 9.85519 11.8333 9.85519 12.1429C9.85519 12.3452 9.90509 12.5357 10.0049 12.7143C10.1047 12.8929 10.2427 13.0327 10.4188 13.1339C10.5949 13.2351 10.7828 13.2857 10.9824 13.2857C11.2877 13.2857 11.5519 13.1726 11.775 12.9464C11.998 12.7202 12.1096 12.4524 12.1096 12.1429L15.1566 10.3571Z" fill="#3498DB"/>
</svg>
