<svg width="22" height="22" viewBox="0 0 22 22" fill="none" xmlns="http://www.w3.org/2000/svg">
<path d="M11.1526 7.46094C10.6878 7.46094 10.2333 7.63902 9.84682 7.97267C9.46029 8.30631 9.15903 8.78054 8.98113 9.33537C8.80323 9.89021 8.75669 10.5007 8.84738 11.0897C8.93807 11.6787 9.16193 12.2198 9.49064 12.6444C9.81935 13.0691 10.2382 13.3583 10.6941 13.4754C11.15 13.5926 11.6226 13.5325 12.0521 13.3027C12.4816 13.0728 12.8487 12.6836 13.107 12.1843C13.3652 11.685 13.5031 11.0979 13.5031 10.4974C13.5031 9.69205 13.2554 8.91973 12.8146 8.35029C12.3739 7.78085 11.776 7.46094 11.1526 7.46094ZM11.1526 12.3192C10.8737 12.3192 10.6011 12.2124 10.3691 12.0122C10.1372 11.812 9.95648 11.5275 9.84974 11.1946C9.743 10.8617 9.71507 10.4953 9.76949 10.1419C9.8239 9.78853 9.95821 9.46391 10.1554 9.20912C10.3527 8.95433 10.604 8.78081 10.8775 8.71051C11.1511 8.64022 11.4346 8.6763 11.6923 8.81419C11.95 8.95208 12.1703 9.18559 12.3252 9.48519C12.4802 9.7848 12.5629 10.137 12.5629 10.4974C12.5629 10.9805 12.4143 11.4439 12.1498 11.7856C11.8854 12.1273 11.5267 12.3192 11.1526 12.3192ZM15.3834 18.9994V18.3921C15.3834 17.2646 15.0367 16.1834 14.4196 15.3862C13.8025 14.5889 12.9655 14.1411 12.0928 14.1411H10.2125C9.33975 14.1411 8.50278 14.5889 7.88567 15.3862C7.26856 16.1834 6.92188 17.2646 6.92188 18.3921V18.9994H7.86205V18.3921C7.86205 17.5868 8.10968 16.8144 8.55047 16.245C8.99126 15.6756 9.5891 15.3556 10.2125 15.3556H12.0928C12.7162 15.3556 13.314 15.6756 13.7548 16.245C14.1956 16.8144 14.4432 17.5868 14.4432 18.3921V18.9994H15.3834Z" fill="#3498DB"/>
<path d="M17.0765 4C16.6116 4 16.1572 4.17808 15.7706 4.51173C15.3841 4.84538 15.0829 5.3196 14.905 5.87444C14.7271 6.42927 14.6805 7.03979 14.7712 7.6288C14.8619 8.21781 15.0858 8.75885 15.4145 9.1835C15.7432 9.60815 16.162 9.89735 16.6179 10.0145C17.0739 10.1317 17.5465 10.0715 17.9759 9.84172C18.4054 9.6119 18.7725 9.22271 19.0308 8.72337C19.289 8.22404 19.4269 7.63697 19.4269 7.03643C19.4269 6.23112 19.1793 5.45879 18.7385 4.88935C18.2977 4.31991 17.6998 4 17.0765 4ZM17.0765 8.85828C16.7975 8.85828 16.5249 8.75143 16.293 8.55124C16.0611 8.35106 15.8803 8.06652 15.7736 7.73362C15.6668 7.40072 15.6389 7.0344 15.6933 6.681C15.7477 6.32759 15.882 6.00297 16.0793 5.74818C16.2765 5.49339 16.5278 5.31987 16.8013 5.24958C17.0749 5.17928 17.3585 5.21536 17.6162 5.35325C17.8738 5.49114 18.0941 5.72465 18.2491 6.02426C18.404 6.32386 18.4867 6.6761 18.4867 7.03643C18.4867 7.51961 18.3381 7.98301 18.0737 8.32467C17.8092 8.66634 17.4505 8.85828 17.0765 8.85828ZM21.3072 15.5384V14.9311C21.3072 13.8037 20.9606 12.7224 20.3434 11.9252C19.7263 11.128 18.8894 10.6801 18.0166 10.6801H16.1363C15.2636 10.6801 14.4266 11.128 13.8095 11.9252C13.1924 12.7224 12.8457 13.8037 12.8457 14.9311V15.5384H13.7859V14.9311C13.7859 14.1258 14.0335 13.3535 14.4743 12.7841C14.9151 12.2146 15.5129 11.8947 16.1363 11.8947H18.0166C18.64 11.8947 19.2379 12.2146 19.6786 12.7841C20.1194 13.3535 20.3671 14.1258 20.3671 14.9311V15.5384H21.3072Z" fill="#3498DB"/>
<path d="M5.23077 4C4.7659 4 4.31147 4.17808 3.92494 4.51173C3.53842 4.84538 3.23716 5.3196 3.05926 5.87444C2.88136 6.42927 2.83481 7.03979 2.9255 7.6288C3.0162 8.21781 3.24005 8.75885 3.56877 9.1835C3.89748 9.60815 4.31629 9.89735 4.77222 10.0145C5.22816 10.1317 5.70075 10.0715 6.13024 9.84172C6.55972 9.6119 6.92681 9.22271 7.18508 8.72337C7.44335 8.22404 7.5812 7.63697 7.5812 7.03643C7.5812 6.23112 7.33356 5.45879 6.89277 4.88935C6.45198 4.31991 5.85414 4 5.23077 4ZM5.23077 8.85828C4.95185 8.85828 4.67919 8.75143 4.44727 8.55124C4.21536 8.35106 4.0346 8.06652 3.92786 7.73362C3.82112 7.40072 3.7932 7.0344 3.84761 6.681C3.90203 6.32759 4.03634 6.00297 4.23357 5.74818C4.4308 5.49339 4.68208 5.31987 4.95564 5.24958C5.2292 5.17928 5.51276 5.21536 5.77045 5.35325C6.02814 5.49114 6.24839 5.72465 6.40335 6.02426C6.55832 6.32386 6.64103 6.6761 6.64103 7.03643C6.64103 7.51961 6.49245 7.98301 6.22797 8.32467C5.9635 8.66634 5.60479 8.85828 5.23077 8.85828ZM9.46154 15.5384V14.9311C9.46154 13.8037 9.11485 12.7224 8.49774 11.9252C7.88064 11.128 7.04366 10.6801 6.17094 10.6801H4.2906C3.41788 10.6801 2.5809 11.128 1.96379 11.9252C1.34669 12.7224 1 13.8037 1 14.9311V15.5384H1.94017V14.9311C1.94017 14.1258 2.1878 13.3535 2.6286 12.7841C3.06939 12.2146 3.66723 11.8947 4.2906 11.8947H6.17094C6.79431 11.8947 7.39215 12.2146 7.83294 12.7841C8.27373 13.3535 8.52137 14.1258 8.52137 14.9311V15.5384H9.46154Z" fill="#3498DB"/>
</svg>
