<svg width="22" height="22" viewBox="0 0 22 22" fill="none" xmlns="http://www.w3.org/2000/svg">
<path d="M12.5 10.125L10.6538 4.08278C10.5253 3.66225 10.1371 3.375 9.69741 3.375H3C2.44772 3.375 2 3.82272 2 4.375V15.5C2 16.0523 2.44772 16.5 3 16.5H6.44158C6.91312 16.5 7.30434 16.1578 7.53291 15.7453C8.55226 13.906 11.5494 13.4351 12.7291 15.7952C12.9287 16.1945 13.3082 16.5 13.7547 16.5C16.4669 16.5 18.7116 16.5 19.9393 16.5C20.4916 16.5 20.9375 16.0523 20.9375 15.5V11.125C20.9375 10.5727 20.4898 10.125 19.9375 10.125H12.5ZM12.5 10.125L17.033 3.74517C17.3328 3.32325 17.905 3.1998 18.3521 3.46059L19.8125 4.3125" stroke="#3498DB"/>
<path d="M12.5 10.125H2.1875" stroke="#3498DB"/>
<path d="M12 10L12 15" stroke="#3498DB"/>
<path d="M7 12H10" stroke="#3498DB" stroke-width="0.5"/>
<circle cx="10" cy="17" r="2.5" stroke="#3498DB"/>
</svg>
