<svg width="193" height="39" viewBox="0 0 193 39" fill="none" xmlns="http://www.w3.org/2000/svg">
<path fill-rule="evenodd" clip-rule="evenodd" d="M56.7 5.13042C56.1377 5.93247 55.6 7.00525 55.1711 8.24144C53.815 12.1566 52.5903 17.5814 52.0442 22.4811C52.0271 22.6337 52.0106 22.786 51.9945 22.9374C52.431 22.7475 52.9087 22.5458 53.4168 22.3403C55.4939 21.5005 58.1315 20.5769 60.5308 20.1776C60.3118 14.2233 60.0755 8.69723 59.9128 7.29594C59.7089 5.53617 59.3399 4.53832 58.9773 4.04759C58.8063 3.81621 58.664 3.73397 58.5733 3.70375C58.4874 3.67514 58.3723 3.66756 58.201 3.72812C57.8157 3.86433 57.2802 4.30277 56.7 5.13042ZM60.5924 21.8737C58.4385 22.2594 56.03 23.0973 54.0433 23.9006C53.1958 24.2433 52.4344 24.5757 51.8145 24.8571C51.432 29.5161 51.5018 33.3302 51.5202 34.3327C51.5223 34.4474 51.5237 34.5252 51.5237 34.5634H49.8474C49.8474 34.5308 49.8461 34.4611 49.8442 34.3568C49.827 33.4471 49.7604 29.9097 50.0837 25.4955C50.0299 25.3893 49.9376 25.207 49.7792 24.8942C49.3993 24.1445 49.3996 24.1444 49.3996 24.1444L49.4055 24.1413L49.4213 24.1333C49.435 24.1264 49.455 24.1163 49.481 24.1033C49.533 24.0773 49.609 24.0395 49.7071 23.9914C49.8417 23.9254 50.0177 23.84 50.23 23.7392C50.2746 23.2637 50.3238 22.7813 50.3783 22.2939C50.9373 17.2797 52.1876 11.7314 53.5879 7.68874C54.0572 6.33632 54.66 5.11677 55.329 4.16251C55.9801 3.23385 56.767 2.45157 57.6441 2.14154C58.1039 1.97899 58.605 1.94191 59.1014 2.10729C59.593 2.27105 59.9991 2.60628 60.3238 3.04571C60.9525 3.89661 61.3637 5.25394 61.5778 7.10143C61.7806 8.84769 62.0779 16.3799 62.324 23.4092C62.4476 26.9387 62.5588 30.3615 62.6391 32.9019C62.6793 34.1721 62.7117 35.2218 62.7341 35.9539C62.7453 36.32 62.754 36.6067 62.7599 36.8019L62.7688 37.0997L62.7689 37.1006C62.7689 37.1006 62.7689 37.1009 61.9311 37.1261C61.0933 37.1512 61.0933 37.1509 61.0933 37.1509L61.0933 37.15L61.0844 36.8528C61.0785 36.6578 61.0698 36.3714 61.0586 36.0055C61.0362 35.2739 61.0038 34.2248 60.9637 32.9552C60.8834 30.416 60.7723 26.9952 60.6488 23.4683C60.6302 22.9378 60.6114 22.4055 60.5924 21.8737ZM42.9767 12.1118L42.7866 2.54275L44.4625 2.50921L44.6387 11.3778C45.0135 11.2039 45.3727 11.0301 45.6992 10.8617C46.0514 10.6801 46.3554 10.5101 46.5955 10.3579C46.8484 10.1977 46.9832 10.0865 47.0356 10.0299L48.2638 11.1747C48.0595 11.3954 47.775 11.6 47.4905 11.7803C47.1933 11.9686 46.842 12.1637 46.4654 12.3579C45.9194 12.6394 45.299 12.9299 44.6751 13.2076L45.0937 34.2767L43.4178 34.3102L43.0126 13.9193C42.5173 14.1241 42.0612 14.307 41.6869 14.4548C41.384 14.5745 41.1341 14.6713 40.9596 14.7384C40.8723 14.7719 40.8038 14.798 40.757 14.8158L40.7033 14.8362L40.6846 14.8433C40.6846 14.8433 40.6841 14.8434 40.39 14.0559L40.0958 13.2683L40.1124 13.262L40.1634 13.2427C40.2084 13.2256 40.2749 13.2003 40.36 13.1675C40.5304 13.1021 40.7755 13.0071 41.073 12.8896C41.5898 12.6854 42.2631 12.4141 42.9767 12.1118ZM79.2383 34.3101L78.6091 2.54269L80.2851 2.50927L80.9142 34.2767L79.2383 34.3101ZM1.39092 10.3286C1.40172 12.7764 1.41333 15.734 1.42154 18.71C1.4315 22.3172 1.43648 25.9501 1.42901 28.7351C1.42528 30.128 1.41844 31.3065 1.4076 32.163C1.40218 32.5916 1.39579 32.9362 1.38841 33.1851C1.38339 33.3548 1.37828 33.453 1.37582 33.5002C1.37409 33.5333 1.37368 33.5413 1.37552 33.5312L1.37518 33.5331C1.37518 33.5331 1.37434 33.5381 1.36875 33.5474C1.36196 33.5587 1.34698 33.5794 1.3168 33.6075C1.2521 33.6678 1.14875 33.7336 1.01099 33.7953C0.877416 33.8551 0.741066 33.8979 0.634892 33.9259C0.583027 33.9395 0.541313 33.9488 0.514539 33.9543C0.501221 33.9571 0.491813 33.9589 0.486932 33.9598C0.486932 33.9598 0.486755 33.9599 0.622982 34.7898C0.759208 35.6197 0.759692 35.6196 0.759692 35.6196L0.761348 35.6193L0.764026 35.6188L0.770968 35.6176C0.776289 35.6167 0.782994 35.6155 0.790995 35.614C0.806987 35.6111 0.828233 35.607 0.854041 35.6016C0.905518 35.5909 0.975944 35.5751 1.05963 35.5531C1.22456 35.5097 1.45295 35.4394 1.69395 35.3315C2.11387 35.1435 2.8667 34.7086 3.02466 33.8326C3.04879 33.6987 3.05736 33.4574 3.06395 33.2351C3.07174 32.9719 3.07827 32.6163 3.08374 32.1843C3.09469 31.3194 3.10154 30.1342 3.10528 28.7397C3.11081 26.6752 3.10952 24.1471 3.10444 21.51C3.20573 21.6183 3.31838 21.7442 3.4384 21.887C3.92718 22.4684 4.52822 23.3177 4.98427 24.3913C5.54827 25.7189 6.14108 27.3567 6.75896 29.0638C6.92913 29.534 7.10121 30.0094 7.27511 30.485C8.06994 32.659 8.90492 34.8431 9.74282 36.4157C10.2796 37.4218 10.9799 38.0626 11.553 38.4524C11.839 38.6468 12.094 38.7794 12.2835 38.8653C12.3784 38.9083 12.4573 38.9398 12.5161 38.9617C12.5456 38.9726 12.57 38.9812 12.589 38.9876C12.5985 38.9907 12.6066 38.9934 12.6133 38.9955L12.6222 38.9984L12.6259 38.9995L12.6275 39C12.6275 39 12.629 39.0005 12.8722 38.1956C13.1154 37.3907 13.1161 37.3909 13.1161 37.3909L13.118 37.3915L13.12 37.3921L13.122 37.3927C13.119 37.3917 13.111 37.389 13.0985 37.3843C13.0735 37.375 13.0306 37.3582 12.9735 37.3323C12.859 37.2804 12.6896 37.1932 12.4933 37.0598C12.1022 36.7939 11.6072 36.3462 11.2211 35.6226C10.4469 34.1695 9.64902 32.0943 8.84881 29.9056C8.68072 29.4459 8.51258 28.9812 8.34486 28.5178C7.72457 26.8038 7.11011 25.1059 6.52627 23.7316C5.98897 22.4668 5.28625 21.4763 4.71961 20.8023C4.63619 20.7031 4.55551 20.6104 4.47849 20.5246C4.77134 20.321 5.12155 20.0645 5.51054 19.7542C6.63401 18.8582 8.0906 17.5067 9.42186 15.6826C11.4118 12.9543 12.4533 10.5792 12.7286 8.63957C13.0049 6.69261 12.5105 5.08125 11.2942 4.14055C10.0987 3.21598 8.43759 3.12201 6.763 3.67947C5.55044 4.08313 4.27892 4.83964 3.04638 5.95313C3.04575 5.83081 3.04515 5.71479 3.04458 5.60538C3.04256 5.21585 3.04092 4.91003 3.03979 4.70157L3.03805 4.38231C3.03805 4.38231 3.03804 4.38198 2.19992 4.38671C1.3618 4.39145 1.3618 4.39177 1.3618 4.39177L1.36355 4.71071C1.36467 4.91905 1.36631 5.22475 1.36833 5.61414C1.37118 6.16174 1.37479 6.87484 1.37885 7.71546C1.23874 7.88443 1.10535 8.04866 0.972773 8.21188C0.668058 8.58703 0.367659 8.95687 0 9.36681L1.24596 10.4921C1.29455 10.4379 1.34288 10.3834 1.39092 10.3286ZM3.09973 19.426C3.13256 19.4049 3.1674 19.3823 3.20417 19.3581C3.51065 19.1567 3.94985 18.8503 4.46756 18.4374C5.50462 17.6102 6.84699 16.3638 8.06946 14.6887C9.96693 12.0871 10.8465 9.97065 11.0691 8.40241C11.2906 6.84142 10.8597 5.92827 10.2709 5.4729C9.66126 5.0014 8.63751 4.82774 7.2908 5.27605C6.00308 5.70473 4.50843 6.68327 3.05808 8.33191C3.05886 8.4966 3.05965 8.66526 3.06046 8.83766C3.07291 11.5163 3.08785 15.0972 3.09781 18.7054C3.09847 18.9456 3.09911 19.1859 3.09973 19.426ZM34.9624 14.626C34.6273 14.5506 34.1019 14.6041 33.303 15.0518C33.0287 15.2055 32.6965 15.5729 32.3537 16.2586C32.0196 16.9268 31.7209 17.8045 31.4593 18.8425C30.9365 20.9162 30.5908 23.5087 30.3645 26.0674C30.1388 28.6195 30.0343 31.1073 29.9865 32.9594C29.9626 33.8847 29.9528 34.6498 29.949 35.1829C29.9482 35.2926 29.9477 35.3925 29.9474 35.4819L29.9474 36.0102L29.9474 36.013L29.9474 36.0191L28.2712 36.0253L29.1093 36.0192C28.2712 36.0253 28.2712 36.0253 28.2712 36.0253L28.2711 36.024L28.2711 36.0098L28.2709 35.9665C28.2707 35.9286 28.2705 35.8727 28.2705 35.8C28.2705 35.7153 28.2706 35.6076 28.2711 35.4788L28.2691 14.3176L29.9453 14.3175L29.9457 18.0044C30.2 17.0707 30.4993 16.2166 30.8554 15.5043C31.2563 14.7025 31.7787 13.9793 32.4858 13.5832C33.4811 13.0253 34.4402 12.7846 35.3292 12.9846C36.2356 13.1886 36.8846 13.8081 37.3368 14.5733C38.2069 16.0454 38.5362 18.3689 38.6415 20.7885C38.7488 23.2549 38.6265 26.0017 38.4786 28.4393C38.4347 29.1627 38.3889 29.855 38.346 30.5044C38.2423 32.0718 38.1551 33.3902 38.1508 34.2974L36.4745 34.2894C36.4791 33.3272 36.5719 31.9239 36.6776 30.3258C36.7198 29.6887 36.764 29.0206 36.8054 28.3371C36.9528 25.9078 37.0701 23.235 36.9668 20.8619C36.8615 18.442 36.5302 16.506 35.8951 15.4313C35.5947 14.9231 35.28 14.6975 34.9624 14.626ZM24.6654 15.5907C25.0799 16.9148 24.9673 18.6438 24.2113 20.6684C23.8651 21.5957 23.2705 22.6226 22.5514 23.5452C21.8342 24.4654 20.9543 25.3319 20.0103 25.8961C19.0768 26.4542 17.949 26.7888 16.8472 26.372C16.7901 26.3504 16.7339 26.3271 16.6784 26.302C16.6789 26.3204 16.6793 26.3388 16.6798 26.3571C16.7436 28.7783 17.1128 31.0652 17.7633 32.6597C18.0892 33.4588 18.4602 34.0199 18.8404 34.3507C19.1944 34.6587 19.5515 34.7687 19.9644 34.7015C20.4195 34.6274 21.0448 34.3197 21.843 33.5556C22.6347 32.7978 23.5413 31.6437 24.5595 29.9906L25.9854 30.8751C24.9243 32.5977 23.9317 33.881 23 34.7728C22.075 35.6582 21.153 36.2121 20.2328 36.3619C19.2702 36.5186 18.4239 36.2147 17.7422 35.6216C17.0868 35.0512 16.59 34.2237 16.2119 33.297C15.4544 31.44 15.0707 28.9269 15.0041 26.4016C14.9889 25.8221 14.9902 25.2376 15.0081 24.6554C14.7845 24.2582 14.5902 23.8035 14.4244 23.295L15.0984 23.0738C15.2169 21.6662 15.4357 20.3128 15.7547 19.1228C16.8772 14.9318 19.5667 12.705 22.0207 13.1259C23.2682 13.3398 24.2424 14.2394 24.6654 15.5907ZM16.7039 24.1947C16.7854 22.5198 17.0122 20.9071 17.3735 19.5596C18.4136 15.6763 20.5864 14.5864 21.7384 14.784C22.294 14.8792 22.8087 15.2724 23.0662 16.0949C23.3322 16.9445 23.3167 18.2701 22.6416 20.0781C22.366 20.8163 21.8654 21.695 21.231 22.5089C20.5947 23.3253 19.8631 24.0262 19.1525 24.451C18.4315 24.882 17.8618 24.9581 17.4384 24.7979C17.2181 24.7146 16.962 24.5388 16.7039 24.1947ZM74.2879 17.4071V16.7785H72.6116V17.5788L72.6297 17.6644L72.6303 17.6673L72.6331 17.6811C72.6357 17.694 72.6398 17.7143 72.6451 17.7418C72.6557 17.7968 72.6714 17.8803 72.6906 17.9902C72.7291 18.2101 72.7818 18.5354 72.8369 18.949C72.9473 19.7767 73.0669 20.9545 73.1026 22.3457C73.1743 25.1387 72.9059 28.7393 71.5861 32.0858C70.9023 33.8185 70.1933 34.0916 69.8898 34.0874C69.5419 34.0826 68.9563 33.728 68.5288 32.6742C67.7462 30.7433 67.2925 27.8127 67.1072 24.8932C66.9226 21.9845 67.0113 19.2054 67.2563 17.6196L65.5998 17.3619C65.3295 19.1113 65.2454 22.0224 65.4343 25.0001C65.6226 27.967 66.0887 31.1189 66.9762 33.3082C67.4965 34.5907 68.5023 35.7504 69.8665 35.7694C71.2749 35.789 72.3984 34.596 73.1446 32.705C74.5792 29.0675 74.8531 25.2157 74.7784 22.3024C74.7408 20.8404 74.6152 19.6017 74.4984 18.726C74.44 18.2878 74.3838 17.9398 74.3417 17.6993C74.3206 17.579 74.3031 17.4855 74.2906 17.421C74.2897 17.4162 74.2888 17.4116 74.2879 17.4071Z" fill="currentColor"/>
<path fill-rule="evenodd" clip-rule="evenodd" d="M76.5048 14.8434C76.5048 14.8434 76.5046 14.8434 76.2104 14.0559L75.9163 13.2683L75.9329 13.262L75.9839 13.2427C76.0289 13.2256 76.0953 13.2003 76.1805 13.1675C76.3509 13.1021 76.596 13.0071 76.8935 12.8896C77.489 12.6544 78.2921 12.3299 79.1254 11.9718C79.9611 11.6127 80.8161 11.2245 81.5197 10.8617C81.8718 10.6801 82.1758 10.5101 82.416 10.3579C82.6689 10.1977 82.8037 10.0865 82.856 10.0299L84.0842 11.1747C83.88 11.3954 83.5955 11.6 83.311 11.7803C83.0138 11.9686 82.6624 12.1637 82.2858 12.3579C81.532 12.7466 80.6363 13.1524 79.7853 13.5181C78.932 13.8848 78.1127 14.2158 77.5074 14.4548C77.2045 14.5745 76.9546 14.6713 76.78 14.7384C76.6928 14.7719 76.6243 14.798 76.5775 14.8158L76.5238 14.8362L76.5048 14.8434Z" fill="currentColor"/>
<path fill-rule="evenodd" clip-rule="evenodd" d="M87.8713 18.5821C87.2578 20.1864 86.8926 22.3126 87.0283 24.7412C87.27 29.0717 87.9168 31.6321 88.6502 32.9282C89.0135 33.5701 89.3378 33.7961 89.5414 33.8634C89.7123 33.9198 89.9399 33.9114 90.2699 33.6892C90.9955 33.2007 91.8405 31.9061 92.4664 29.9406C93.0774 28.0216 93.4299 25.6136 93.2951 23.091C93.1125 19.6619 92.4992 17.5748 91.7947 16.4787C91.449 15.9408 91.1166 15.6954 90.8546 15.5984C90.6087 15.5075 90.3386 15.5144 90.0217 15.6607C89.3318 15.9794 88.4995 16.9395 87.8713 18.5821ZM94.969 23.0009C94.7812 19.4742 94.1458 17.0331 93.2034 15.5669C92.7257 14.8237 92.135 14.2793 91.4345 14.0202C90.7178 13.755 89.9857 13.8256 89.3209 14.1326C88.0475 14.7208 86.998 16.1707 86.3063 17.9794C85.5999 19.8264 85.2069 22.1927 85.3547 24.8354C85.5993 29.2178 86.2584 32.108 87.1926 33.7588C87.6631 34.5903 88.2632 35.2119 89.0171 35.4611C89.8037 35.7211 90.5669 35.5149 91.2038 35.0861C92.4119 34.2728 93.4046 32.5205 94.0631 30.4526C94.7364 28.3382 95.1146 25.7261 94.969 23.0009Z" fill="currentColor"/>
<path d="M116.361 17.6221L125.766 8.16225H154.116L154.248 8.229C154.269 8.23943 161.152 11.6208 162.733 18.0143C164.267 24.2263 163.657 32.8602 163.655 32.8852L163.647 32.9832L162.849 34.9274H160.236L160.387 34.191C160.713 32.5911 160.511 30.9703 159.924 29.556C159.321 28.1062 158.311 26.8797 157.044 26.1225C156.04 25.5238 154.958 25.1775 153.763 25.1629C152.546 25.1504 151.193 25.48 149.667 26.2289C145.125 28.4608 146.307 34.1827 146.309 34.1994L146.45 34.9274H121.261L121.377 34.2181C121.377 34.2098 121.908 31.2686 120.624 28.9782C119.55 27.0632 118.094 25.9785 116.56 25.4967C114.691 24.9126 112.692 25.213 111.101 25.9994C106.379 28.4442 107.553 34.3892 107.555 34.4059L107.69 35.1297H104.467L104.295 34.9795C104.286 34.9733 101.512 32.6849 102.076 29.3954C102.656 26.0057 103.913 23.757 105.831 22.1112C107.717 20.4924 110.212 19.4932 113.318 18.5733L116.361 17.6221ZM155.414 11.746L153.174 10.3901H141.801L140.133 17.7953H155.843L155.414 11.746ZM120.492 17.7953H135.965L137.79 10.3901H126.888L120.266 17.0506L120.492 17.7953Z" fill="currentColor"/>
<path d="M114.318 26.8526C115.846 26.8526 117.23 27.4763 118.233 28.4859C119.239 29.4955 119.859 30.8889 119.859 32.4263C119.859 33.9657 119.237 35.3592 118.235 36.3667C117.232 37.3763 115.846 38 114.318 38C112.787 38 111.402 37.3763 110.4 36.3667C109.396 35.3592 108.774 33.9657 108.774 32.4263C108.774 30.8889 109.396 29.4955 110.398 28.4859C111.404 27.4763 112.789 26.8526 114.318 26.8526ZM153.408 26.8526C154.937 26.8526 156.324 27.4763 157.326 28.4838C158.328 29.4955 158.95 30.8889 158.95 32.4263C158.95 33.9636 158.328 35.3571 157.326 36.3667C156.32 37.3763 154.935 38 153.408 38C151.878 38 150.492 37.3763 149.491 36.3667C148.487 35.3592 147.865 33.9657 147.865 32.4263C147.865 30.8889 148.487 29.4955 149.489 28.4859C150.495 27.4763 151.88 26.8526 153.408 26.8526Z" fill="currentColor"/>
<path d="M163.288 8.30618C162.755 8.41882 157.519 9.62452 155.762 13.1811V13.1832C155.379 13.9592 155.101 14.8791 154.978 15.8345C154.829 16.9859 154.904 18.1833 155.285 19.22C155.644 20.1983 156.289 21.0348 157.299 21.5396C157.766 21.7732 158.311 21.9401 158.939 22.0214C160.766 22.2613 162.664 21.9026 164.358 21.1015C166.086 20.2859 167.598 19.0135 168.616 17.4448C168.938 16.9484 169.481 15.4193 169.639 13.6901C169.738 12.5908 169.674 11.4351 169.278 10.4714C168.911 9.57654 168.237 8.83393 167.1 8.4522C166.171 8.1393 164.927 8.05795 163.288 8.30618ZM154.308 12.4552C156.519 7.98911 162.983 6.70207 163.002 6.69789L163.048 6.68955C164.95 6.40169 166.447 6.51433 167.614 6.90649C169.259 7.45927 170.24 8.54398 170.777 9.85189C171.283 11.0889 171.372 12.5094 171.252 13.8361C171.07 15.8449 170.385 17.7014 169.977 18.3314C168.792 20.1566 167.04 21.6355 165.045 22.5763C163.081 23.5046 160.874 23.9176 158.736 23.6381C157.911 23.5317 157.191 23.3106 156.573 23.0019C155.159 22.2926 154.257 21.1349 153.759 19.7832C153.284 18.492 153.191 17.0255 153.371 15.63C153.518 14.4827 153.85 13.3793 154.308 12.4552Z" fill="currentColor"/>
<path fill-rule="evenodd" clip-rule="evenodd" d="M163.954 6.7876C164.528 6.35371 172.422 0.807112 172.422 0.807112C172.422 0.807112 174.172 -0.361035 175.506 0.706983C177.366 2.19011 182.312 9.71838 184.496 12.4781C185.043 13.1665 185.508 14.3367 183.861 15.507C181.29 17.3301 180.937 17.8391 180.937 17.8391L182.953 19.4119V21.5876L185.441 22.4282L185.004 24.5267L187.59 25.7053V28.2794L189.892 28.8885L189.705 31.8777L192.182 32.6808L191.788 34.4038L192.729 35.1714C192.729 35.1714 192.646 36.3771 192.733 36.5294C192.82 36.6796 192.151 36.9049 192.151 36.9049L190.873 36.0225L190.684 34.7208L188.93 34.992L188.861 32.2469L186.327 31.6816L186.192 28.732L183.923 27.6661L183.822 25.3361L181.472 25.7053L180.835 22.5054L178.77 22.8058L176.818 20.4757C175.97 21.1099 175.157 22.1174 174.185 22.5429C173.185 22.981 171.97 23.2313 171.211 21.8859C169.981 19.7039 166.841 15.1836 166.841 15.1836L163.168 9.57237C163.168 9.57237 162.137 7.76383 163.954 6.7876ZM166.996 7.67413L173.025 3.28316C173.295 3.08499 173.678 3.14548 173.875 3.41875L174.757 4.64322C174.952 4.91648 174.892 5.3003 174.622 5.49846L168.593 9.88944C168.324 10.0876 167.94 10.025 167.743 9.75385L166.862 8.52938C166.665 8.25612 166.725 7.8723 166.996 7.67413Z" fill="currentColor"/>
<path d="M163.815 6.57274C164.47 6.08254 172.252 0.613114 172.274 0.596426L172.287 0.588084C172.293 0.585998 174.187 -0.678101 175.665 0.506731C176.916 1.50174 179.479 5.10004 181.715 8.23735C182.88 9.87275 183.955 11.3809 184.697 12.3175L184.811 12.4719C185.074 12.8453 185.288 13.3209 185.255 13.857C185.222 14.3931 184.946 14.9729 184.237 15.5445C184.164 15.6029 184.087 15.6592 184.006 15.7176C182.289 16.9359 181.588 17.5429 181.314 17.8078L183.208 19.2867V21.404L185.738 22.2572L185.296 24.3786L187.845 25.5405V28.0812L190.16 28.6924L189.973 31.6941L192.482 32.5076L192.072 34.3057L192.993 35.0567L192.984 35.1902C192.984 35.1944 192.905 36.3166 192.953 36.398C193.223 36.8611 192.242 37.1427 192.24 37.1447L192.115 37.1906L190.635 36.1706L190.469 35.015L188.681 35.2903L188.612 32.4534L186.08 31.8881L185.943 28.8989L183.675 27.833L183.579 25.6344L181.267 25.9973L180.632 22.7933L178.668 23.0811L176.781 20.8304C176.549 21.0181 176.319 21.2288 176.086 21.4436C175.526 21.9589 174.952 22.4866 174.286 22.7787C173.755 23.0123 173.16 23.1938 172.583 23.1395C171.982 23.0811 171.416 22.7703 170.989 22.0131C169.763 19.8395 166.64 15.3443 166.631 15.3297C165.456 13.4815 164.19 11.4956 162.946 9.69961C162.942 9.69544 161.795 7.67622 163.815 6.57274ZM172.567 1.01571C172.546 1.0324 164.69 6.55188 164.107 6.99411L164.074 7.01497C162.49 7.86604 163.388 9.44095 163.39 9.44512L167.048 15.0376C167.059 15.0501 170.198 19.5704 171.432 21.7586C171.764 22.3469 172.187 22.5847 172.631 22.6285C173.102 22.6744 173.616 22.5117 174.083 22.3072C174.67 22.0527 175.213 21.5521 175.742 21.0661C176.051 20.7824 176.356 20.5008 176.665 20.2692L176.858 20.1253L178.874 22.5325L181.039 22.2154L181.675 25.4153L184.064 25.0399L184.172 27.5013L186.439 28.5652L186.572 31.473L189.112 32.0404L189.177 34.6937L190.9 34.4267L191.109 35.8744L192.296 36.6921L192.281 36.713C192.418 36.738 192.563 36.7463 192.511 36.6587C192.412 36.4814 192.447 35.622 192.466 35.2882L191.501 34.5018L191.881 32.8518L189.438 32.0612L189.622 29.0825L187.333 28.4775V25.8722L184.712 24.6769L185.145 22.5993L182.698 21.7732V19.5371L180.591 17.8933L180.723 17.6951C180.723 17.6931 181.103 17.1486 183.714 15.2963C183.787 15.2462 183.855 15.1941 183.917 15.1419C184.498 14.6767 184.72 14.2283 184.745 13.8277C184.77 13.4293 184.6 13.0622 184.394 12.7681L184.297 12.6367C183.538 11.6792 182.463 10.171 181.3 8.53773C179.081 5.42545 176.538 1.85844 175.348 0.907238C174.22 0.00609738 172.72 0.919754 172.567 1.01571ZM166.847 7.46554L172.876 3.07456C173.067 2.9348 173.299 2.88474 173.519 2.9202C173.737 2.95566 173.944 3.07456 174.083 3.26856L174.964 4.49302C175.103 4.68702 175.151 4.92065 175.116 5.13967C175.08 5.3587 174.962 5.5673 174.771 5.70706L168.745 10.098C168.552 10.2378 168.32 10.2858 168.102 10.2524C167.882 10.2169 167.675 10.098 167.536 9.90404L166.656 8.67957C166.515 8.48557 166.468 8.25195 166.501 8.03501C166.536 7.81389 166.654 7.6053 166.847 7.46554ZM173.175 3.48967L167.148 7.88065C167.067 7.93905 167.019 8.02458 167.005 8.11427C166.992 8.20189 167.011 8.29784 167.069 8.3771L167.95 9.60366C168.006 9.68084 168.091 9.7309 168.181 9.7455C168.27 9.75802 168.365 9.73925 168.444 9.68293L174.471 5.28986C174.549 5.23354 174.597 5.14802 174.612 5.05832C174.626 4.96862 174.608 4.87267 174.552 4.79341L173.668 3.56894C173.612 3.49176 173.527 3.44169 173.438 3.42709C173.349 3.41249 173.253 3.43335 173.175 3.48967Z" fill="currentColor"/>
</svg>
