<svg width="132" height="132" viewBox="0 0 132 132" fill="none" xmlns="http://www.w3.org/2000/svg">
<circle cx="66" cy="66" r="66" fill="#3498DB"/>
<path d="M37.7508 72.8046C37.5135 72.8046 37.2762 72.6696 37.1971 72.4265L36.0631 69.8612C35.984 69.6991 35.984 69.5371 36.0368 69.3751L40.7835 56.1702C38.4892 53.6859 37.7772 50.0944 38.9112 46.8539C40.5989 42.2362 45.662 39.8329 50.2241 41.5612C52.4393 42.3983 54.1797 44.0455 55.1818 46.2328C56.1575 48.4201 56.263 50.8775 55.4455 53.1188C54.8654 54.766 53.8106 56.1972 52.4393 57.2234C52.1756 57.4394 51.78 57.3854 51.569 57.0884C51.3581 56.8183 51.4108 56.4133 51.7009 56.1972C52.8876 55.3061 53.7578 54.0909 54.2852 52.6867C54.9709 50.7425 54.8917 48.6362 54.0479 46.7729C53.204 44.8826 51.7009 43.4784 49.8022 42.7493C45.873 41.2641 41.5218 43.3164 40.0715 47.34C39.043 50.2294 39.755 53.4428 41.9174 55.5761C42.102 55.7382 42.1547 56.0082 42.0756 56.2512L37.2762 69.5911L38.12 71.5084L41.6273 71.2114L41.3636 69.1861C41.3373 68.943 41.4427 68.7 41.6537 68.565L43.025 67.7009L42.8404 65.0815C42.814 64.8925 42.8931 64.7034 43.025 64.5684L44.8709 62.6781L44.5017 60.5448C44.449 60.2208 44.6336 59.9238 44.9237 59.8157L46.1367 59.4107C46.4531 59.3027 46.8223 59.4917 46.9278 59.8157C47.0333 60.1398 46.8487 60.5178 46.5323 60.6259L45.8203 60.8689L46.1631 62.7862C46.1894 63.0022 46.1367 63.1912 45.9785 63.3532L44.1062 65.2705L44.3171 67.9709C44.3435 68.2139 44.2116 68.43 44.0271 68.565L42.6822 69.4021L42.9722 71.6704C42.9986 71.8324 42.9459 72.0215 42.8404 72.1565C42.7349 72.2915 42.5767 72.3725 42.4184 72.3995L37.8036 72.8046C37.7772 72.8046 37.7772 72.8046 37.7508 72.8046Z" fill="white"/>
<path d="M74.907 97C74.6697 97 74.4324 96.973 74.195 96.892C73.6149 96.703 73.1138 96.2709 72.8238 95.7038L68.3671 86.7926C67.787 85.6314 68.2353 84.1732 69.3692 83.5791L88.1451 73.6957C89.279 73.1016 90.703 73.5607 91.2832 74.7219L95.7398 83.6331C96.0299 84.2002 96.0826 84.8483 95.8717 85.4424C95.6871 86.0365 95.2652 86.5495 94.7114 86.8466L75.9355 96.73C75.6454 96.919 75.2762 97 74.907 97ZM89.2263 74.7219C89.0681 74.7219 88.8835 74.7489 88.7252 74.8569L69.9494 84.7403C69.422 85.0103 69.211 85.6854 69.4747 86.2525L73.9313 95.1637C74.0632 95.4338 74.3005 95.6228 74.5642 95.7038C74.8279 95.7848 75.1444 95.7578 75.3817 95.6228L94.1576 85.7664C94.4213 85.6314 94.6059 85.3884 94.685 85.1183C94.7641 84.8483 94.7377 84.5242 94.6059 84.2812L90.1493 75.3699C89.991 74.9379 89.6218 74.7219 89.2263 74.7219Z" fill="white"/>
<path d="M57.5288 56.1162C56.7377 56.1162 55.9729 55.8732 55.3137 55.3871C55.0763 55.1981 54.8654 54.9821 54.7072 54.712L54.4962 54.739C54.1534 54.766 53.8633 54.496 53.8369 54.1449C53.8105 53.7939 54.0743 53.4968 54.4171 53.4698L55.0236 53.4158C55.2873 53.3888 55.551 53.5508 55.6565 53.8209C55.7356 54.0369 55.8938 54.2259 56.0784 54.361C56.7377 54.847 57.5552 54.9821 58.3199 54.739L63.6732 53.3348C63.093 52.7677 62.3546 52.3627 61.5371 52.2277C61.1943 52.1737 60.957 51.8496 61.0097 51.4986C61.0625 51.1475 61.3789 50.9045 61.7217 50.9585C63.1457 51.2015 64.4643 52.0656 65.2554 53.3348C65.3609 53.4968 65.3872 53.7129 65.3081 53.9019C65.229 54.0909 65.0708 54.2259 64.8862 54.28L58.6364 55.9272C58.2672 56.0622 57.898 56.1162 57.5288 56.1162Z" fill="white"/>
<path d="M70.3977 84.3892C70.2658 84.3892 70.1603 84.3622 70.0549 84.2812C69.923 84.2002 69.8703 84.1462 69.7911 84.0922L57.4233 74.5868C54.9972 72.5615 45.2401 60.1938 44.1853 57.8175C43.8952 57.1424 43.8952 56.3863 44.1589 55.6571C44.5017 54.739 45.2401 53.9289 46.1631 53.5238C47.1124 53.0918 48.22 53.1188 49.1957 53.6319C49.3539 53.7129 49.644 53.9559 51.0416 55.0901C53.3622 57.0073 60.4032 62.8402 61.7745 62.8942C63.0139 62.9752 64.1478 62.1381 64.517 60.9229C64.6489 60.5178 65.7037 56.9533 64.4379 54.415C63.8578 53.2538 62.7502 52.4437 61.5108 52.2547L55.2346 51.0395C54.8917 50.9855 54.6808 50.6344 54.7335 50.3104C54.7863 49.9593 55.1291 49.7433 55.4455 49.7973L61.6954 50.9855C63.3303 51.2555 64.7544 52.3087 65.5191 53.8209C66.9959 56.7373 65.9147 60.5718 65.6773 61.3009C65.1235 63.0562 63.4886 64.2174 61.6954 64.1634C60.245 64.0823 56.263 61.0039 50.2769 56.0622C49.4858 55.4141 48.7738 54.82 48.6155 54.712C48.009 54.388 47.297 54.361 46.6905 54.658C46.084 54.928 45.5566 55.4951 45.3192 56.0892C45.2137 56.3863 45.1082 56.8183 45.3192 57.2774C46.2949 59.4917 55.8938 71.6704 58.1617 73.5607L70.424 82.985L88.1451 73.6687C88.2242 73.6147 88.3033 73.5877 88.4088 73.5607L77.3595 51.5796C77.0431 51.0665 76.5948 50.6074 76.041 50.3104L70.1603 46.6919C68.2089 45.6117 65.9674 45.0716 63.6995 45.1797L53.1513 44.7476C52.8085 44.7206 52.5448 44.4236 52.5448 44.0725C52.5711 43.7215 52.8612 43.4784 53.204 43.4514L63.6995 43.8835C66.1256 43.7755 68.6045 44.3695 70.7669 45.5577L76.6475 49.1762C77.3595 49.5543 77.9924 50.1754 78.4407 50.9315L89.9119 73.7497C90.0174 73.9657 89.991 74.2088 89.8856 74.3978C89.7537 74.5868 89.5427 74.6948 89.3054 74.6678C89.0944 74.6678 88.9098 74.6948 88.7252 74.7759L70.6877 84.2542C70.5823 84.3892 70.5032 84.3892 70.3977 84.3892Z" fill="white"/>
<path d="M51.5427 83.3631C50.0132 83.3631 48.6419 82.2289 48.3518 80.6357L45.7411 66.2697C45.5829 65.4055 45.7675 64.5144 46.2686 63.7853C46.7696 63.0562 47.508 62.5701 48.3518 62.4081C48.6947 62.3541 49.0111 62.5701 49.0638 62.9212C49.1166 63.2722 48.9056 63.5963 48.5628 63.6503C48.0354 63.7583 47.5871 64.0553 47.2706 64.5144C46.9542 64.9735 46.8487 65.5135 46.9542 66.0536L49.5385 80.4467C49.7495 81.5538 50.7779 82.3099 51.8855 82.0939L59.111 80.7437C59.6385 80.6357 60.0868 80.3386 60.4032 79.8796C60.7197 79.4205 60.8251 78.8804 60.7197 78.3404L60.4296 76.7471C60.3768 76.3961 60.5878 76.072 60.9306 75.991C61.2734 75.937 61.5899 76.1531 61.669 76.5041L61.9591 78.0973C62.1173 78.9615 61.9327 79.8526 61.4317 80.5817C60.9306 81.3108 60.1922 81.7968 59.3484 81.9589L52.1228 83.3361C51.9382 83.3631 51.7273 83.3631 51.5427 83.3631Z" fill="white"/>
<path d="M37.7508 72.8046C37.5135 72.8046 37.2762 72.6696 37.1971 72.4265L36.0631 69.8612C35.984 69.6991 35.984 69.5371 36.0368 69.3751L40.7835 56.1702C38.4892 53.6859 37.7772 50.0944 38.9112 46.8539C40.5989 42.2362 45.662 39.8329 50.2241 41.5612C52.4393 42.3983 54.1797 44.0455 55.1818 46.2328C56.1575 48.4201 56.263 50.8775 55.4455 53.1188C54.8654 54.766 53.8106 56.1972 52.4393 57.2234C52.1756 57.4394 51.78 57.3854 51.569 57.0884C51.3581 56.8183 51.4108 56.4133 51.7009 56.1972C52.8876 55.3061 53.7578 54.0909 54.2852 52.6867C54.9709 50.7425 54.8917 48.6362 54.0479 46.7729C53.204 44.8826 51.7009 43.4784 49.8022 42.7493C45.873 41.2641 41.5218 43.3164 40.0715 47.34C39.043 50.2294 39.755 53.4428 41.9174 55.5761C42.102 55.7382 42.1547 56.0082 42.0756 56.2512L37.2762 69.5911L38.12 71.5084L41.6273 71.2114L41.3636 69.1861C41.3373 68.943 41.4427 68.7 41.6537 68.565L43.025 67.7009L42.8404 65.0815C42.814 64.8925 42.8931 64.7034 43.025 64.5684L44.8709 62.6781L44.5017 60.5448C44.449 60.2208 44.6336 59.9238 44.9237 59.8157L46.1367 59.4107C46.4531 59.3027 46.8223 59.4917 46.9278 59.8157C47.0333 60.1398 46.8487 60.5178 46.5323 60.6259L45.8203 60.8689L46.1631 62.7862C46.1894 63.0022 46.1367 63.1912 45.9785 63.3532L44.1062 65.2705L44.3171 67.9709C44.3435 68.2139 44.2116 68.43 44.0271 68.565L42.6822 69.4021L42.9722 71.6704C42.9986 71.8324 42.9459 72.0215 42.8404 72.1565C42.7349 72.2915 42.5767 72.3725 42.4184 72.3995L37.8036 72.8046C37.7772 72.8046 37.7772 72.8046 37.7508 72.8046Z" stroke="white"/>
<path d="M74.907 97C74.6697 97 74.4324 96.973 74.195 96.892C73.6149 96.703 73.1138 96.2709 72.8238 95.7038L68.3671 86.7926C67.787 85.6314 68.2353 84.1732 69.3692 83.5791L88.1451 73.6957C89.279 73.1016 90.703 73.5607 91.2832 74.7219L95.7398 83.6331C96.0299 84.2002 96.0826 84.8483 95.8717 85.4424C95.6871 86.0365 95.2652 86.5495 94.7114 86.8466L75.9355 96.73C75.6454 96.919 75.2762 97 74.907 97ZM89.2263 74.7219C89.0681 74.7219 88.8835 74.7489 88.7252 74.8569L69.9494 84.7403C69.422 85.0103 69.211 85.6854 69.4747 86.2525L73.9313 95.1637C74.0632 95.4338 74.3005 95.6228 74.5642 95.7038C74.8279 95.7848 75.1444 95.7578 75.3817 95.6228L94.1576 85.7664C94.4213 85.6314 94.6059 85.3884 94.685 85.1183C94.7641 84.8483 94.7377 84.5242 94.6059 84.2812L90.1493 75.3699C89.991 74.9379 89.6218 74.7219 89.2263 74.7219Z" stroke="white"/>
<path d="M57.5288 56.1162C56.7377 56.1162 55.9729 55.8732 55.3137 55.3871C55.0763 55.1981 54.8654 54.9821 54.7072 54.712L54.4962 54.739C54.1534 54.766 53.8633 54.496 53.8369 54.1449C53.8105 53.7939 54.0743 53.4968 54.4171 53.4698L55.0236 53.4158C55.2873 53.3888 55.551 53.5508 55.6565 53.8209C55.7356 54.0369 55.8938 54.2259 56.0784 54.361C56.7377 54.847 57.5552 54.9821 58.3199 54.739L63.6732 53.3348C63.093 52.7677 62.3546 52.3627 61.5371 52.2277C61.1943 52.1737 60.957 51.8496 61.0097 51.4986C61.0625 51.1475 61.3789 50.9045 61.7217 50.9585C63.1457 51.2015 64.4643 52.0656 65.2554 53.3348C65.3609 53.4968 65.3872 53.7129 65.3081 53.9019C65.229 54.0909 65.0708 54.2259 64.8862 54.28L58.6364 55.9272C58.2672 56.0622 57.898 56.1162 57.5288 56.1162Z" stroke="white"/>
<path d="M70.3977 84.3892C70.2658 84.3892 70.1603 84.3622 70.0549 84.2812C69.923 84.2002 69.8703 84.1462 69.7911 84.0922L57.4233 74.5868C54.9972 72.5615 45.2401 60.1938 44.1853 57.8175C43.8952 57.1424 43.8952 56.3863 44.1589 55.6571C44.5017 54.739 45.2401 53.9289 46.1631 53.5238C47.1124 53.0918 48.22 53.1188 49.1957 53.6319C49.3539 53.7129 49.644 53.9559 51.0416 55.0901C53.3622 57.0073 60.4032 62.8402 61.7745 62.8942C63.0139 62.9752 64.1478 62.1381 64.517 60.9229C64.6489 60.5178 65.7037 56.9533 64.4379 54.415C63.8578 53.2538 62.7502 52.4437 61.5108 52.2547L55.2346 51.0395C54.8917 50.9855 54.6808 50.6344 54.7335 50.3104C54.7863 49.9593 55.1291 49.7433 55.4455 49.7973L61.6954 50.9855C63.3303 51.2555 64.7544 52.3087 65.5191 53.8209C66.9959 56.7373 65.9147 60.5718 65.6773 61.3009C65.1235 63.0562 63.4886 64.2174 61.6954 64.1634C60.245 64.0823 56.263 61.0039 50.2769 56.0622C49.4858 55.4141 48.7738 54.82 48.6155 54.712C48.009 54.388 47.297 54.361 46.6905 54.658C46.084 54.928 45.5566 55.4951 45.3192 56.0892C45.2137 56.3863 45.1082 56.8183 45.3192 57.2774C46.2949 59.4917 55.8938 71.6704 58.1617 73.5607L70.424 82.985L88.1451 73.6687C88.2242 73.6147 88.3033 73.5877 88.4088 73.5607L77.3595 51.5796C77.0431 51.0665 76.5948 50.6074 76.041 50.3104L70.1603 46.6919C68.2089 45.6117 65.9674 45.0716 63.6995 45.1797L53.1513 44.7476C52.8085 44.7206 52.5448 44.4236 52.5448 44.0725C52.5711 43.7215 52.8612 43.4784 53.204 43.4514L63.6995 43.8835C66.1256 43.7755 68.6045 44.3695 70.7669 45.5577L76.6475 49.1762C77.3595 49.5543 77.9924 50.1754 78.4407 50.9315L89.9119 73.7497C90.0174 73.9657 89.991 74.2088 89.8856 74.3978C89.7537 74.5868 89.5427 74.6948 89.3054 74.6678C89.0944 74.6678 88.9098 74.6948 88.7252 74.7759L70.6877 84.2542C70.5823 84.3892 70.5032 84.3892 70.3977 84.3892Z" stroke="white"/>
<path d="M51.5427 83.3631C50.0132 83.3631 48.6419 82.2289 48.3518 80.6357L45.7411 66.2697C45.5829 65.4055 45.7675 64.5144 46.2686 63.7853C46.7696 63.0562 47.508 62.5701 48.3518 62.4081C48.6947 62.3541 49.0111 62.5701 49.0638 62.9212C49.1166 63.2722 48.9056 63.5963 48.5628 63.6503C48.0354 63.7583 47.5871 64.0553 47.2706 64.5144C46.9542 64.9735 46.8487 65.5135 46.9542 66.0536L49.5385 80.4467C49.7495 81.5538 50.7779 82.3099 51.8855 82.0939L59.111 80.7437C59.6385 80.6357 60.0868 80.3386 60.4032 79.8796C60.7197 79.4205 60.8251 78.8804 60.7197 78.3404L60.4296 76.7471C60.3768 76.3961 60.5878 76.072 60.9306 75.991C61.2734 75.937 61.5899 76.1531 61.669 76.5041L61.9591 78.0973C62.1173 78.9615 61.9327 79.8526 61.4317 80.5817C60.9306 81.3108 60.1922 81.7968 59.3484 81.9589L52.1228 83.3361C51.9382 83.3631 51.7273 83.3631 51.5427 83.3631Z" stroke="white"/>
</svg>
