<svg width="75" height="75" viewBox="0 0 75 75" fill="none" xmlns="http://www.w3.org/2000/svg">
<path d="M66.9256 21.0237C66.8901 19.1338 66.8563 17.3484 66.8563 15.6212C66.8563 14.2681 65.7749 13.171 64.4402 13.171C54.1076 13.171 46.2405 10.1596 39.683 3.69377C38.745 2.76858 37.2522 2.76891 36.3144 3.69377C29.7575 10.1596 21.8918 13.171 11.5598 13.171C10.2255 13.171 9.14373 14.2681 9.14373 15.6212C9.14373 17.3487 9.11023 19.1348 9.07447 21.025C8.74331 38.6126 8.28974 62.6998 37.2074 72.8648C37.4638 72.9549 37.7312 73 37.9986 73C38.2659 73 38.5336 72.9549 38.7897 72.8648C67.7096 62.6995 67.2567 38.6117 66.9256 21.0237ZM37.9989 67.9497C13.1982 58.8132 13.5732 38.7985 13.9059 21.1184C13.9259 20.0573 13.9452 19.0289 13.9588 18.0207C23.6359 17.6065 31.3744 14.6326 37.9989 8.78032C44.624 14.6326 52.3638 17.6068 62.0416 18.0207C62.0551 19.0286 62.0744 20.0563 62.0944 21.1168C62.4268 38.7976 62.8015 58.8128 37.9989 67.9497Z" fill="#3498DB"/>
<path d="M46.3188 29.4885L34.6576 41.3137L29.6815 36.2673C28.738 35.3108 27.2081 35.3108 26.2649 36.2673C25.3213 37.2245 25.3213 38.7757 26.2649 39.7325L32.9493 46.5114C33.4209 46.9896 34.0394 47.2288 34.6576 47.2288C35.2758 47.2288 35.8943 46.9896 36.3659 46.5114L49.7351 32.9537C50.679 31.9969 50.679 30.4454 49.7354 29.4889C48.7922 28.532 47.2624 28.5317 46.3188 29.4885Z" fill="#3498DB"/>
</svg>
