<svg width="132" height="132" viewBox="0 0 132 132" fill="none" xmlns="http://www.w3.org/2000/svg">
<circle cx="66" cy="66" r="66" fill="#3498DB"/>
<path d="M94.1923 88H36.8077C34.1523 88 32 85.8166 32 83.1229V47.8771C32 45.1834 34.1523 43 36.8077 43H94.1923C96.8477 43 99 45.1834 99 47.8771V83.1229C99 85.8166 96.8477 88 94.1923 88ZM36.8077 44.3327C34.879 44.3327 33.3137 45.9206 33.3137 47.8771V83.1229C33.3137 85.0794 34.879 86.6673 36.8077 86.6673H94.1923C96.121 86.6673 97.6863 85.0794 97.6863 83.1229V47.8771C97.6863 45.9206 96.121 44.3327 94.1923 44.3327H36.8077Z" fill="white"/>
<path d="M56.3311 69.1542C56.0709 69.1542 55.8343 68.9614 55.787 68.6964C55.716 68.3831 55.9289 68.0939 56.2365 68.0216L56.615 67.9493C56.9462 67.877 57.2064 67.6602 57.3484 67.3469L58.0581 65.6359C58.1054 65.5395 58.0817 65.419 58.0344 65.3226C57.9634 65.2262 57.8452 65.1781 57.7032 65.2022C57.3957 65.2744 57.1118 65.0817 57.0408 64.7684C56.9698 64.4551 57.1591 64.1659 57.4666 64.0936C58.0344 63.9732 58.6022 64.19 58.9334 64.672C59.2173 65.0817 59.2883 65.6118 59.099 66.0938L58.3893 67.8047C58.0581 68.4554 57.4903 68.9374 56.8042 69.0578L56.4257 69.1301C56.4021 69.1542 56.3547 69.1542 56.3311 69.1542Z" fill="white"/>
<path d="M45.6852 69.1542C45.6379 69.1542 45.6143 69.1542 45.567 69.1542L45.2121 69.0578C44.526 68.9133 43.9346 68.4313 43.6744 67.7806L42.9646 66.0697C42.7754 65.5877 42.8227 65.0817 43.1302 64.6479C43.4614 64.1659 44.0292 63.9491 44.597 64.0695C44.9045 64.1418 45.0938 64.431 45.0228 64.7443C44.9519 65.0576 44.668 65.2503 44.3604 65.1781C44.2421 65.154 44.1002 65.2022 44.0292 65.2985C43.9582 65.3949 43.9582 65.5154 44.0056 65.6118L44.7153 67.3228C44.8336 67.6361 45.1175 67.8529 45.4487 67.9252L45.8272 67.9975C46.1347 68.0698 46.324 68.359 46.2767 68.6723C46.182 68.9615 45.9455 69.1542 45.6852 69.1542Z" fill="white"/>
<path d="M44.5024 65.2022C44.2421 65.2022 44.0056 65.0094 43.9582 64.7443C43.627 62.961 43.3195 60.3343 43.84 57.9968C44.1712 56.5268 44.9519 55.2978 46.2057 54.3098C47.5542 53.2254 49.2575 52.6471 51.0082 52.6471C52.7588 52.6471 54.4621 53.2495 55.8106 54.3098C57.0645 55.2978 57.8452 56.5268 58.1764 57.9968C58.7205 60.4548 58.342 63.2502 58.0581 64.7202C58.0108 65.0335 57.7032 65.2262 57.3957 65.1781C57.0881 65.1299 56.8989 64.8166 56.9462 64.5033C57.2064 63.1297 57.5613 60.503 57.0645 58.2378C56.8042 57.0329 56.1418 56.0208 55.1246 55.2015C52.8061 53.37 49.2102 53.37 46.8918 55.2015C45.8508 56.0208 45.2121 57.0329 44.9519 58.2378C44.4314 60.503 44.8099 63.1538 45.0701 64.5274C45.1175 64.8407 44.9282 65.1299 44.6207 65.2022C44.5733 65.2022 44.5497 65.2022 44.5024 65.2022Z" fill="white"/>
<path d="M51.0082 74.5281C50.606 74.5281 50.2275 74.4799 49.8489 74.3594C49.2812 74.1907 48.2166 73.275 47.909 73.0099C46.9391 72.0219 45.9455 70.4796 45.1884 68.841C45.0701 68.5518 45.1884 68.2144 45.4487 68.0939C45.7326 67.9734 46.0638 68.0939 46.182 68.359C46.8681 69.8772 47.7908 71.299 48.6424 72.1665C49.2102 72.6725 49.9199 73.2027 50.1092 73.2509C50.677 73.4196 51.2684 73.4196 51.8362 73.2509C52.0254 73.2027 52.7352 72.6726 53.3266 72.1424C54.1546 71.299 55.0772 69.8772 55.7633 68.359C55.8816 68.0698 56.2128 67.9493 56.4967 68.0939C56.7806 68.2144 56.8989 68.5518 56.7569 68.841C56.0235 70.4796 55.0063 72.0219 54.06 72.9858C53.7288 73.2991 52.6642 74.2148 52.0964 74.3594C51.7889 74.4558 51.4103 74.5281 51.0082 74.5281Z" fill="white"/>
<path d="M51.0082 78.1669C48.4768 78.1669 46.4896 76.9379 46.4896 75.3474C46.4896 75.3233 46.4896 75.2992 46.4896 75.2751L42.799 76.5282C42.5151 76.6246 42.1839 76.4559 42.0893 76.1668C41.9947 75.8776 42.1603 75.5402 42.4442 75.4438L47.2939 73.8052C47.5305 73.7329 47.7908 73.8293 47.9327 74.0461C48.0746 74.263 48.051 74.5522 47.8854 74.745C47.6961 74.9619 47.6015 75.1546 47.6015 75.3715C47.6015 76.1668 48.9973 77.0584 51.0082 77.0584C53.019 77.0584 54.4148 76.1668 54.4148 75.3715C54.4148 75.1546 54.3202 74.9378 54.1309 74.745C53.918 74.504 53.9417 74.1425 54.1783 73.9497C54.4148 73.7329 54.7697 73.757 54.959 73.9979C55.3375 74.4076 55.5267 74.8896 55.5267 75.3956C55.5267 76.9379 53.5395 78.1669 51.0082 78.1669Z" fill="white"/>
<path d="M46.8208 64.2382C45.3304 64.2382 44.2658 63.9491 44.1475 63.925C43.84 63.8527 43.6744 63.5394 43.7453 63.2261C43.8163 62.9128 44.1238 62.7442 44.4314 62.8164C44.668 62.8887 50.0855 64.2864 53.7051 60.0211C53.918 59.7801 54.2492 59.756 54.4858 59.9729C54.7224 60.1898 54.746 60.5271 54.5331 60.7681C52.1437 63.6358 49.0209 64.2382 46.8208 64.2382Z" fill="white"/>
<path d="M55.4084 63.1538C55.3138 63.1538 55.2192 63.1297 55.1246 63.0815L52.9954 61.7802C52.7352 61.6115 52.6405 61.2742 52.8061 61.0091C52.9717 60.744 53.3029 60.6476 53.5632 60.8163L55.6923 62.1176C55.9526 62.2863 56.0472 62.6237 55.8816 62.8887C55.787 63.0574 55.5977 63.1538 55.4084 63.1538Z" fill="white"/>
<path d="M59.3829 76.5282C59.3356 76.5282 59.2646 76.5282 59.2173 76.5041L54.3675 74.8655C54.0836 74.7691 53.918 74.4558 54.0127 74.1425C54.1073 73.8534 54.4148 73.6847 54.7224 73.7811L59.5721 75.4197C59.856 75.5161 60.0216 75.8294 59.927 76.1427C59.8324 76.3837 59.6195 76.5282 59.3829 76.5282Z" fill="white"/>
<path d="M85.9975 60.503H67.5684C66.0543 60.503 64.8241 59.2499 64.8241 57.7077C64.8241 56.1654 66.0543 54.9123 67.5684 54.9123H85.9975C87.5116 54.9123 88.7418 56.1654 88.7418 57.7077C88.7418 59.2499 87.5116 60.503 85.9975 60.503ZM67.5684 56.0449C66.6694 56.0449 65.936 56.7919 65.936 57.7077C65.936 58.6234 66.6694 59.3704 67.5684 59.3704H85.9975C86.8965 59.3704 87.6299 58.6234 87.6299 57.7077C87.6299 56.7919 86.8965 56.0449 85.9975 56.0449H67.5684Z" fill="white"/>
<path d="M74.8312 68.2144H67.5684C66.0543 68.2144 64.8241 66.9613 64.8241 65.419C64.8241 63.8768 66.0543 62.6237 67.5684 62.6237H74.8312C76.3453 62.6237 77.5755 63.8768 77.5755 65.419C77.5755 66.9613 76.3453 68.2144 74.8312 68.2144ZM67.5684 63.7563C66.6694 63.7563 65.936 64.5033 65.936 65.419C65.936 66.3348 66.6694 67.0818 67.5684 67.0818H74.8312C75.7302 67.0818 76.4636 66.3348 76.4636 65.419C76.4636 64.5033 75.7302 63.7563 74.8312 63.7563H67.5684Z" fill="white"/>
<path d="M81.5262 75.9017H67.5684C66.0543 75.9017 64.8241 74.6486 64.8241 73.1063C64.8241 71.564 66.0543 70.3109 67.5684 70.3109H81.5262C83.0403 70.3109 84.2705 71.564 84.2705 73.1063C84.2705 74.6486 83.0403 75.9017 81.5262 75.9017ZM67.5684 71.4436C66.6694 71.4436 65.936 72.1906 65.936 73.1063C65.936 74.022 66.6694 74.7691 67.5684 74.7691H81.5262C82.4252 74.7691 83.1586 74.022 83.1586 73.1063C83.1586 72.1906 82.4252 71.4436 81.5262 71.4436H67.5684Z" fill="white"/>
<path d="M94.1923 88H36.8077C34.1523 88 32 85.8166 32 83.1229V47.8771C32 45.1834 34.1523 43 36.8077 43H94.1923C96.8477 43 99 45.1834 99 47.8771V83.1229C99 85.8166 96.8477 88 94.1923 88ZM36.8077 44.3327C34.879 44.3327 33.3137 45.9206 33.3137 47.8771V83.1229C33.3137 85.0794 34.879 86.6673 36.8077 86.6673H94.1923C96.121 86.6673 97.6863 85.0794 97.6863 83.1229V47.8771C97.6863 45.9206 96.121 44.3327 94.1923 44.3327H36.8077Z" stroke="white"/>
<path d="M56.3311 69.1542C56.0709 69.1542 55.8343 68.9614 55.787 68.6964C55.716 68.3831 55.9289 68.0939 56.2365 68.0216L56.615 67.9493C56.9462 67.877 57.2064 67.6602 57.3484 67.3469L58.0581 65.6359C58.1054 65.5395 58.0817 65.419 58.0344 65.3226C57.9634 65.2262 57.8452 65.1781 57.7032 65.2022C57.3957 65.2744 57.1118 65.0817 57.0408 64.7684C56.9698 64.4551 57.1591 64.1659 57.4666 64.0936C58.0344 63.9732 58.6022 64.19 58.9334 64.672C59.2173 65.0817 59.2883 65.6118 59.099 66.0938L58.3893 67.8047C58.0581 68.4554 57.4903 68.9374 56.8042 69.0578L56.4257 69.1301C56.4021 69.1542 56.3547 69.1542 56.3311 69.1542Z" stroke="white"/>
<path d="M45.6852 69.1542C45.6379 69.1542 45.6143 69.1542 45.567 69.1542L45.2121 69.0578C44.526 68.9133 43.9346 68.4313 43.6744 67.7806L42.9646 66.0697C42.7754 65.5877 42.8227 65.0817 43.1302 64.6479C43.4614 64.1659 44.0292 63.9491 44.597 64.0695C44.9045 64.1418 45.0938 64.431 45.0228 64.7443C44.9519 65.0576 44.668 65.2503 44.3604 65.1781C44.2421 65.154 44.1002 65.2022 44.0292 65.2985C43.9582 65.3949 43.9582 65.5154 44.0056 65.6118L44.7153 67.3228C44.8336 67.6361 45.1175 67.8529 45.4487 67.9252L45.8272 67.9975C46.1347 68.0698 46.324 68.359 46.2767 68.6723C46.182 68.9615 45.9455 69.1542 45.6852 69.1542Z" stroke="white"/>
<path d="M44.5024 65.2022C44.2421 65.2022 44.0056 65.0094 43.9582 64.7443C43.627 62.961 43.3195 60.3343 43.84 57.9968C44.1712 56.5268 44.9519 55.2978 46.2057 54.3098C47.5542 53.2254 49.2575 52.6471 51.0082 52.6471C52.7588 52.6471 54.4621 53.2495 55.8106 54.3098C57.0645 55.2978 57.8452 56.5268 58.1764 57.9968C58.7205 60.4548 58.342 63.2502 58.0581 64.7202C58.0108 65.0335 57.7032 65.2262 57.3957 65.1781C57.0881 65.1299 56.8989 64.8166 56.9462 64.5033C57.2064 63.1297 57.5613 60.503 57.0645 58.2378C56.8042 57.0329 56.1418 56.0208 55.1246 55.2015C52.8061 53.37 49.2102 53.37 46.8918 55.2015C45.8508 56.0208 45.2121 57.0329 44.9519 58.2378C44.4314 60.503 44.8099 63.1538 45.0701 64.5274C45.1175 64.8407 44.9282 65.1299 44.6207 65.2022C44.5733 65.2022 44.5497 65.2022 44.5024 65.2022Z" stroke="white"/>
<path d="M51.0082 74.5281C50.606 74.5281 50.2275 74.4799 49.8489 74.3594C49.2812 74.1907 48.2166 73.275 47.909 73.0099C46.9391 72.0219 45.9455 70.4796 45.1884 68.841C45.0701 68.5518 45.1884 68.2144 45.4487 68.0939C45.7326 67.9734 46.0638 68.0939 46.182 68.359C46.8681 69.8772 47.7908 71.299 48.6424 72.1665C49.2102 72.6725 49.9199 73.2027 50.1092 73.2509C50.677 73.4196 51.2684 73.4196 51.8362 73.2509C52.0254 73.2027 52.7352 72.6726 53.3266 72.1424C54.1546 71.299 55.0772 69.8772 55.7633 68.359C55.8816 68.0698 56.2128 67.9493 56.4967 68.0939C56.7806 68.2144 56.8989 68.5518 56.7569 68.841C56.0235 70.4796 55.0063 72.0219 54.06 72.9858C53.7288 73.2991 52.6642 74.2148 52.0964 74.3594C51.7889 74.4558 51.4103 74.5281 51.0082 74.5281Z" stroke="white"/>
<path d="M51.0082 78.1669C48.4768 78.1669 46.4896 76.9379 46.4896 75.3474C46.4896 75.3233 46.4896 75.2992 46.4896 75.2751L42.799 76.5282C42.5151 76.6246 42.1839 76.4559 42.0893 76.1668C41.9947 75.8776 42.1603 75.5402 42.4442 75.4438L47.2939 73.8052C47.5305 73.7329 47.7908 73.8293 47.9327 74.0461C48.0746 74.263 48.051 74.5522 47.8854 74.745C47.6961 74.9619 47.6015 75.1546 47.6015 75.3715C47.6015 76.1668 48.9973 77.0584 51.0082 77.0584C53.019 77.0584 54.4148 76.1668 54.4148 75.3715C54.4148 75.1546 54.3202 74.9378 54.1309 74.745C53.918 74.504 53.9417 74.1425 54.1783 73.9497C54.4148 73.7329 54.7697 73.757 54.959 73.9979C55.3375 74.4076 55.5267 74.8896 55.5267 75.3956C55.5267 76.9379 53.5395 78.1669 51.0082 78.1669Z" stroke="white"/>
<path d="M46.8208 64.2382C45.3304 64.2382 44.2658 63.9491 44.1475 63.925C43.84 63.8527 43.6744 63.5394 43.7453 63.2261C43.8163 62.9128 44.1238 62.7442 44.4314 62.8164C44.668 62.8887 50.0855 64.2864 53.7051 60.0211C53.918 59.7801 54.2492 59.756 54.4858 59.9729C54.7224 60.1898 54.746 60.5271 54.5331 60.7681C52.1437 63.6358 49.0209 64.2382 46.8208 64.2382Z" stroke="white"/>
<path d="M55.4084 63.1538C55.3138 63.1538 55.2192 63.1297 55.1246 63.0815L52.9954 61.7802C52.7352 61.6115 52.6405 61.2742 52.8061 61.0091C52.9717 60.744 53.3029 60.6476 53.5632 60.8163L55.6923 62.1176C55.9526 62.2863 56.0472 62.6237 55.8816 62.8887C55.787 63.0574 55.5977 63.1538 55.4084 63.1538Z" stroke="white"/>
<path d="M59.3829 76.5282C59.3356 76.5282 59.2646 76.5282 59.2173 76.5041L54.3675 74.8655C54.0836 74.7691 53.918 74.4558 54.0127 74.1425C54.1073 73.8534 54.4148 73.6847 54.7224 73.7811L59.5721 75.4197C59.856 75.5161 60.0216 75.8294 59.927 76.1427C59.8324 76.3837 59.6195 76.5282 59.3829 76.5282Z" stroke="white"/>
<path d="M85.9975 60.503H67.5684C66.0543 60.503 64.8241 59.2499 64.8241 57.7077C64.8241 56.1654 66.0543 54.9123 67.5684 54.9123H85.9975C87.5116 54.9123 88.7418 56.1654 88.7418 57.7077C88.7418 59.2499 87.5116 60.503 85.9975 60.503ZM67.5684 56.0449C66.6694 56.0449 65.936 56.7919 65.936 57.7077C65.936 58.6234 66.6694 59.3704 67.5684 59.3704H85.9975C86.8965 59.3704 87.6299 58.6234 87.6299 57.7077C87.6299 56.7919 86.8965 56.0449 85.9975 56.0449H67.5684Z" stroke="white"/>
<path d="M74.8312 68.2144H67.5684C66.0543 68.2144 64.8241 66.9613 64.8241 65.419C64.8241 63.8768 66.0543 62.6237 67.5684 62.6237H74.8312C76.3453 62.6237 77.5755 63.8768 77.5755 65.419C77.5755 66.9613 76.3453 68.2144 74.8312 68.2144ZM67.5684 63.7563C66.6694 63.7563 65.936 64.5033 65.936 65.419C65.936 66.3348 66.6694 67.0818 67.5684 67.0818H74.8312C75.7302 67.0818 76.4636 66.3348 76.4636 65.419C76.4636 64.5033 75.7302 63.7563 74.8312 63.7563H67.5684Z" stroke="white"/>
<path d="M81.5262 75.9017H67.5684C66.0543 75.9017 64.8241 74.6486 64.8241 73.1063C64.8241 71.564 66.0543 70.3109 67.5684 70.3109H81.5262C83.0403 70.3109 84.2705 71.564 84.2705 73.1063C84.2705 74.6486 83.0403 75.9017 81.5262 75.9017ZM67.5684 71.4436C66.6694 71.4436 65.936 72.1906 65.936 73.1063C65.936 74.022 66.6694 74.7691 67.5684 74.7691H81.5262C82.4252 74.7691 83.1586 74.022 83.1586 73.1063C83.1586 72.1906 82.4252 71.4436 81.5262 71.4436H67.5684Z" stroke="white"/>
</svg>
