<svg width="75" height="75" viewBox="0 0 75 75" fill="none" xmlns="http://www.w3.org/2000/svg">
<path d="M7.2388 37.0931C7.52044 37.6694 7.52044 38.3303 7.2388 38.9064L4.62804 44.2473C3.17445 47.221 4.32616 50.7654 7.25001 52.3168L12.5014 55.1031C13.0679 55.4036 13.4563 55.9384 13.5672 56.5699L14.5942 62.4254C15.1661 65.6856 18.1818 67.8764 21.4586 67.4128L27.3447 66.5802C27.98 66.4905 28.6082 66.6947 29.0691 67.1406L33.3417 71.2738C35.7207 73.5753 39.4476 73.5755 41.8265 71.2738L46.0992 67.1401C46.5602 66.6942 47.1885 66.4903 47.8237 66.5797L53.7098 67.4124C56.9876 67.8762 60.0022 65.6852 60.5741 62.425L61.6011 56.5698C61.712 55.9382 62.1004 55.4035 62.6668 55.1028L67.9182 52.3165C70.842 50.7653 71.9937 47.2206 70.5402 44.2469L67.9295 38.9061C67.6479 38.3298 67.6479 37.6689 67.9295 37.0928L70.5403 31.7521C71.9939 28.7783 70.8422 25.2339 67.9183 23.6826L62.667 20.8963C62.1004 20.5957 61.712 20.0609 61.6011 19.4294L60.5741 13.5739C60.0535 10.606 57.5086 8.52464 54.5838 8.52492C54.2957 8.52492 54.0034 8.54515 53.7096 8.58672L47.8235 9.41932C47.1887 9.50942 46.5601 9.30476 46.0991 8.85892L41.8265 4.72566C40.6368 3.57477 39.1108 2.99945 37.5842 2.99959C36.058 2.99973 34.531 3.57504 33.3418 4.72566L29.0691 8.85892C28.6081 9.30476 27.9797 9.50846 27.3447 9.41932L21.4586 8.58672C18.1803 8.12296 15.1661 10.3139 14.5942 13.574L13.5671 19.4293C13.4562 20.0609 13.0678 20.5956 12.5014 20.8963L7.25001 23.6826C4.32616 25.2338 3.17445 28.7785 4.62804 31.7522L7.2388 37.0931ZM9.14233 27.2491L14.3937 24.4628C16.0679 23.5743 17.2162 21.9941 17.5436 20.1271L18.5707 14.2717C18.7641 13.1687 19.7839 12.4278 20.8931 12.5843L26.7792 13.417C28.6564 13.6829 30.5138 13.0787 31.8762 11.7609L36.1489 7.62777C36.9536 6.8493 38.2146 6.8493 39.0196 7.62777L43.2921 11.761C44.4436 12.8749 45.9488 13.4785 47.5203 13.4785C47.8082 13.4785 48.0985 13.4582 48.3891 13.4171L54.2752 12.5845C55.3835 12.4278 56.4041 13.1688 56.5977 14.2719L57.6248 20.1273C57.9524 21.9944 59.1006 23.5747 60.7749 24.4629L66.0263 27.2493C67.0156 27.7741 67.4052 28.9733 66.9134 29.9794L64.3027 35.3203C63.4703 37.0232 63.4703 38.9764 64.3027 40.6793L66.9134 46.0202C67.4052 47.0263 67.0156 48.2255 66.0263 48.7504L60.7749 51.5367C59.1007 52.4252 57.9524 54.0054 57.625 55.8724L56.5979 61.7278C56.4043 62.8308 55.3847 63.5718 54.2755 63.4151L48.3894 62.5825C46.5129 62.3169 44.6548 62.9208 43.2924 64.2386L39.0197 68.3718C38.215 69.1503 36.954 69.1503 36.149 68.3718L31.8765 64.2386C30.5141 62.9206 28.6562 62.3169 26.7795 62.5825L20.8934 63.4151C19.785 63.5719 18.7644 62.8308 18.5709 61.7278L17.5439 55.8723C17.2163 54.0052 16.0682 52.4249 14.3938 51.5367L9.14246 48.7504C8.15317 48.2255 7.76352 47.0263 8.2553 46.0202L10.8661 40.6795C11.6984 38.9767 11.6984 37.0232 10.8661 35.3204L8.2553 29.9797C7.76339 28.9733 8.15303 27.774 9.14233 27.2491Z" fill="#3498DB"/>
<path d="M22.8329 52.7486C23.6211 53.5369 24.8994 53.5369 25.6878 52.7486L52.3326 26.1036C53.1209 25.3153 53.1209 24.0372 52.3326 23.2488C51.9384 22.8547 51.4218 22.6575 50.9053 22.6575C50.3887 22.6575 49.8719 22.8545 49.4779 23.2488L22.8331 49.8937C22.0445 50.6821 22.0445 51.9602 22.8329 52.7486Z" fill="#3498DB"/>
<path d="M45.6588 56.168C49.7401 56.168 53.0605 52.8475 53.0605 48.7662C53.0605 44.6849 49.7401 41.3644 45.6588 41.3644C41.5775 41.3644 38.257 44.6849 38.257 48.7662C38.257 52.8475 41.5775 56.168 45.6588 56.168ZM45.6588 45.4018C47.5139 45.4018 49.0231 46.9111 49.0231 48.7663C49.0231 50.6215 47.5139 52.1307 45.6588 52.1307C43.8036 52.1307 42.2943 50.6215 42.2943 48.7663C42.2944 46.9111 43.8036 45.4018 45.6588 45.4018Z" fill="#3498DB"/>
<path d="M29.5103 34.6367C33.5916 34.6367 36.9121 31.3162 36.9121 27.2349C36.9121 23.1536 33.5916 19.8332 29.5103 19.8332C25.429 19.8332 22.1086 23.1536 22.1086 27.2349C22.1086 31.3162 25.429 34.6367 29.5103 34.6367ZM29.5103 23.8706C31.3655 23.8706 32.8748 25.3798 32.8748 27.2349C32.8748 29.0901 31.3656 30.5993 29.5103 30.5993C27.6552 30.5993 26.146 29.0901 26.146 27.2349C26.146 25.3798 27.6552 23.8706 29.5103 23.8706Z" fill="#3498DB"/>
</svg>
