<svg width="75" height="75" viewBox="0 0 75 75" fill="none" xmlns="http://www.w3.org/2000/svg">
<path d="M36 18C36 16.8954 36.8954 16 38 16C39.1046 16 40 16.8954 40 18V38C40 39.1046 39.1046 40 38 40C36.8954 40 36 39.1046 36 38V18Z" fill="#3498DB"/>
<path d="M51.0903 48.2619C51.8714 49.0429 51.8714 50.3093 51.0903 51.0903C50.3093 51.8714 49.0429 51.8714 48.2619 51.0903L36.5858 39.4142C35.8047 38.6332 35.8047 37.3668 36.5858 36.5858C37.3668 35.8047 38.6332 35.8047 39.4142 36.5858L51.0903 48.2619Z" fill="#3498DB"/>
<path d="M38 3C18.7013 3 3 18.7013 3 38C3 57.2987 18.7013 73 38 73C57.2987 73 73 57.2987 73 38C73 18.7013 57.2987 3 38 3ZM38 68.625C21.1131 68.625 7.37502 54.8869 7.37502 38C7.37502 21.1131 21.1131 7.37502 38 7.37502C54.8869 7.37502 68.625 21.1131 68.625 38C68.625 54.8869 54.8869 68.625 38 68.625Z" fill="#3498DB"/>
</svg>
