<svg width="21" height="21" viewBox="0 0 21 21" fill="none" xmlns="http://www.w3.org/2000/svg">
<path d="M12.5664 9.99964L20.6664 1.89964C20.8485 1.68708 20.9436 1.41366 20.9328 1.13402C20.922 0.854384 20.806 0.589119 20.6082 0.391236C20.4103 0.193353 20.145 0.0774277 19.8654 0.0666265C19.5857 0.0558252 19.3123 0.150944 19.0998 0.332973L10.9998 8.43297L2.89975 0.321862C2.6872 0.139832 2.41378 0.0447149 2.13414 0.0555162C1.8545 0.0663174 1.58923 0.182242 1.39135 0.380125C1.19347 0.578007 1.07754 0.843273 1.06674 1.12291C1.05594 1.40255 1.15106 1.67597 1.33309 1.88853L9.43309 9.99964L1.32198 18.0996C1.20566 18.1992 1.1112 18.3218 1.0445 18.4597C0.977811 18.5975 0.940332 18.7477 0.934422 18.9007C0.928511 19.0537 0.954296 19.2063 1.01016 19.3489C1.06602 19.4915 1.15075 19.621 1.25903 19.7293C1.36731 19.8375 1.49681 19.9223 1.63939 19.9781C1.78198 20.034 1.93457 20.0598 2.08759 20.0539C2.24061 20.0479 2.39076 20.0105 2.52861 19.9438C2.66646 19.8771 2.78903 19.7826 2.88864 19.6663L10.9998 11.5663L19.0998 19.6663C19.3123 19.8483 19.5857 19.9435 19.8654 19.9327C20.145 19.9219 20.4103 19.8059 20.6082 19.608C20.806 19.4102 20.922 19.1449 20.9328 18.8653C20.9436 18.5856 20.8485 18.3122 20.6664 18.0996L12.5664 9.99964Z" fill="#F8F8F8"/>
</svg>
