<svg width="133" height="132" viewBox="0 0 133 132" fill="none" xmlns="http://www.w3.org/2000/svg">
<ellipse cx="66.9952" cy="66" rx="66.003" ry="66" fill="#3498DB"/>
<path d="M49.9114 73.8813C45.6217 73.8813 42.123 70.3406 42.123 65.9994C42.123 61.6581 45.6217 58.1174 49.9114 58.1174C54.2011 58.1174 57.6997 61.6581 57.6997 65.9994C57.6997 70.3406 54.2011 73.8813 49.9114 73.8813ZM49.9114 59.5953C46.4127 59.5953 43.5833 62.4894 43.5833 65.9994C43.5833 69.5401 46.4431 72.4035 49.9114 72.4035C53.4101 72.4035 56.2394 69.5093 56.2394 65.9994C56.2698 62.4586 53.4101 59.5953 49.9114 59.5953Z" fill="white"/>
<path d="M86.6018 73.8813C82.3122 73.8813 78.8135 70.3406 78.8135 65.9994C78.8135 61.6581 82.3122 58.1174 86.6018 58.1174C90.8915 58.1174 94.3902 61.6581 94.3902 65.9994C94.3902 70.3406 90.8915 73.8813 86.6018 73.8813ZM86.6018 59.5953C83.1032 59.5953 80.2738 62.4894 80.2738 65.9994C80.2738 69.5401 83.1336 72.4035 86.6018 72.4035C90.1005 72.4035 92.9299 69.5093 92.9299 65.9994C92.9299 62.4586 90.1005 59.5953 86.6018 59.5953Z" fill="white"/>
<path d="M44.2831 71.0487C44.1614 71.0487 44.0397 71.018 43.9484 70.9564L37.9854 67.7851C37.2857 67.4157 36.6164 66.923 36.0688 66.338C34.7302 64.891 34 63.0436 34 61.0731V55.1616C34 53.653 34.9431 52.3291 36.373 51.8672C38.168 51.2822 40.0238 50.8204 41.8796 50.5433C44.3743 50.143 46.9299 49.9891 49.455 50.143C49.8505 50.1738 50.1548 50.5125 50.1243 50.9128C50.0939 51.313 49.8201 51.6209 49.3638 51.5901C46.9299 51.467 44.496 51.5901 42.0926 51.9904C40.2976 52.2675 38.5331 52.6985 36.7989 53.2835C35.9775 53.5606 35.4299 54.3303 35.4299 55.1924V61.1039C35.4299 62.6742 36.0384 64.1828 37.1032 65.322C37.5595 65.7838 38.0767 66.1841 38.6548 66.492L44.6177 69.694C44.9828 69.8788 45.1045 70.3098 44.922 70.6793C44.8003 70.8948 44.5569 71.0487 44.2831 71.0487Z" fill="white"/>
<path d="M97.2804 71.0487H92.1997C91.8042 71.0487 91.4696 70.7101 91.4696 70.3098C91.4696 69.9096 91.8042 69.5709 92.1997 69.5709H97.2804C98.4061 69.5709 99.5013 69.109 100.292 68.3085C101.083 67.508 101.54 66.4304 101.54 65.2604V62.1199C101.54 61.4118 101.175 60.7652 100.536 60.4266L99.3188 59.7492C95.1204 57.4092 90.5873 55.6235 85.9325 54.4535C85.537 54.3611 85.3241 53.9609 85.4153 53.5606C85.5066 53.1604 85.9021 52.9448 86.2976 53.0372C91.1045 54.238 95.7288 56.0853 100.049 58.4868L101.266 59.1642C102.331 59.7492 103 60.8884 103 62.1199V65.2912C103 66.8307 102.422 68.2777 101.327 69.3554C100.231 70.4638 98.8016 71.0487 97.2804 71.0487Z" fill="white"/>
<path d="M76.4709 54.4843C76.3492 54.4843 76.2579 54.4535 76.1362 54.3919C75.7712 54.2072 75.6495 53.7761 75.832 53.4067C76.5926 51.9596 78.205 51.1899 79.787 51.5593L83.1944 52.3291L77.9921 48.1418C75.0714 45.771 71.4206 44.4471 67.6786 44.4471H51.9193C50.7936 44.4471 49.7593 44.8781 48.9378 45.6479L42.4881 51.7749C42.2143 52.052 41.7579 52.0212 41.4841 51.7441C41.2103 51.4362 41.2407 51.0051 41.5145 50.728L47.9643 44.601C49.0291 43.5542 50.4286 43 51.9193 43H67.6786C71.7553 43 75.7407 44.4163 78.9048 47.0026L86.541 53.1911C86.8148 53.4067 86.8757 53.7761 86.754 54.084C86.6018 54.3919 86.2672 54.5459 85.9325 54.4843L79.4524 53.0064C78.5093 52.7909 77.5357 53.2527 77.0794 54.1148C76.9881 54.3303 76.7143 54.4843 76.4709 54.4843Z" fill="white"/>
<path d="M80.9735 71.0487H55.5397C55.1442 71.0487 54.8095 70.7101 54.8095 70.3098C54.8095 69.9096 55.1442 69.5709 55.5397 69.5709H80.9735C81.369 69.5709 81.7037 69.9096 81.7037 70.3098C81.6733 70.7101 81.369 71.0487 80.9735 71.0487Z" fill="white"/>
<path d="M39.9021 64.6139C39.8717 64.6139 39.8413 64.6139 39.8108 64.6139C37.7116 64.3675 35.7037 63.3823 34.213 61.8736C33.9392 61.5965 33.9392 61.1347 34.213 60.8576C34.4868 60.5497 34.9431 60.5497 35.2169 60.8268C36.4947 62.1199 38.1984 62.9205 39.9934 63.136C40.3889 63.1976 40.6627 63.5362 40.6323 63.9365C40.5714 64.3368 40.2672 64.6139 39.9021 64.6139Z" fill="white"/>
<path d="M95.8201 67.508C95.4246 67.508 95.0899 67.1693 95.0899 66.7691C95.0899 66.3688 95.4246 66.0301 95.8201 66.0301C100.384 66.0301 101.479 64.7678 101.54 64.306C101.509 63.9057 101.813 63.5978 102.209 63.567C102.574 63.567 102.939 63.8749 102.97 64.2752C102.97 64.3983 102.97 65.0757 102.331 65.753C101.235 66.923 99.045 67.508 95.8201 67.508Z" fill="white"/>
<path d="M76.4709 66.7383L60.0423 66.2765C59.6468 66.2765 59.3426 65.9378 59.3426 65.5375C59.3426 65.1373 59.7077 64.8294 60.0727 64.8294L76.5013 65.2912C76.8968 65.2912 77.2011 65.6299 77.2011 66.0301C77.1706 66.4304 76.8664 66.7383 76.4709 66.7383Z" fill="white"/>
<path d="M49.9114 69.848C49.5159 69.848 49.1812 69.5093 49.1812 69.109C49.1812 68.7088 49.5159 68.3701 49.9114 68.3701C51.2196 68.3701 52.254 67.2925 52.254 65.9994C52.254 64.6754 51.1892 63.6286 49.9114 63.6286C49.5159 63.6286 49.2116 63.3207 49.2116 62.9205C49.2116 62.5202 49.5463 62.1815 49.9418 62.1815C52.041 62.1815 53.7143 63.9057 53.7143 65.9994C53.7143 68.1238 52.0106 69.848 49.9114 69.848Z" fill="white"/>
<path d="M86.6018 69.848C86.2063 69.848 85.8717 69.5093 85.8717 69.109C85.8717 68.7088 86.2063 68.3701 86.6018 68.3701C87.91 68.3701 88.9444 67.2925 88.9444 65.9994C88.9444 64.6754 87.8796 63.6286 86.6018 63.6286C86.2063 63.6286 85.8717 63.2899 85.8717 62.8897C85.8717 62.4894 86.2063 62.1507 86.6018 62.1507C88.701 62.1507 90.3743 63.8749 90.3743 65.9686C90.3743 68.1238 88.6706 69.848 86.6018 69.848Z" fill="white"/>
<path d="M39.0807 91C36.2817 91 34 88.6908 34 85.8582C34 83.0257 36.2817 80.7165 39.0807 80.7165C41.8796 80.7165 44.1614 83.0257 44.1614 85.8582C44.1918 88.6908 41.9101 91 39.0807 91ZM39.0807 82.1636C37.0728 82.1636 35.4299 83.8262 35.4299 85.8582C35.4299 87.8903 37.0728 89.5529 39.0807 89.5529C41.0886 89.5529 42.7315 87.8903 42.7315 85.8582C42.7619 83.7954 41.119 82.1636 39.0807 82.1636Z" fill="white"/>
<path d="M97.8585 91C95.0595 91 92.7778 88.6908 92.7778 85.8582C92.7778 83.0257 95.0595 80.7165 97.8585 80.7165C100.657 80.7165 102.939 83.0257 102.939 85.8582C102.97 88.6908 100.688 91 97.8585 91ZM97.8585 82.1636C95.8505 82.1636 94.2077 83.8262 94.2077 85.8582C94.2077 87.8903 95.8505 89.5529 97.8585 89.5529C99.8664 89.5529 101.509 87.8903 101.509 85.8582C101.54 83.7954 99.8968 82.1636 97.8585 82.1636Z" fill="white"/>
<path d="M50.2156 86.5664H47.295C46.8995 86.5664 46.5648 86.2277 46.5648 85.8275C46.5648 85.4272 46.8995 85.0885 47.295 85.0885H50.2156C50.6111 85.0885 50.9458 85.4272 50.9458 85.8275C50.9458 86.2585 50.6111 86.5664 50.2156 86.5664Z" fill="white"/>
<path d="M58.0952 86.5664H55.1746C54.7791 86.5664 54.4444 86.2277 54.4444 85.8275C54.4444 85.4272 54.7791 85.0885 55.1746 85.0885H58.0952C58.4907 85.0885 58.8254 85.4272 58.8254 85.8275C58.8254 86.2585 58.5212 86.5664 58.0952 86.5664Z" fill="white"/>
<path d="M66.0053 86.5664H63.0847C62.6891 86.5664 62.3545 86.2277 62.3545 85.8275C62.3545 85.4272 62.6891 85.0885 63.0847 85.0885H66.0053C66.4008 85.0885 66.7354 85.4272 66.7354 85.8275C66.705 86.2585 66.4008 86.5664 66.0053 86.5664Z" fill="white"/>
<path d="M73.8849 86.5664H70.9643C70.5688 86.5664 70.2341 86.2277 70.2341 85.8275C70.2341 85.4272 70.5688 85.0885 70.9643 85.0885H73.8849C74.2804 85.0885 74.6151 85.4272 74.6151 85.8275C74.6151 86.2585 74.2804 86.5664 73.8849 86.5664Z" fill="white"/>
<path d="M81.7645 86.5664H78.8439C78.4484 86.5664 78.1138 86.2277 78.1138 85.8275C78.1138 85.4272 78.4484 85.0885 78.8439 85.0885H81.7645C82.16 85.0885 82.4947 85.4272 82.4947 85.8275C82.4947 86.2585 82.16 86.5664 81.7645 86.5664Z" fill="white"/>
<path d="M89.6746 86.5664H86.754C86.3585 86.5664 86.0238 86.2277 86.0238 85.8275C86.0238 85.4272 86.3585 85.0885 86.754 85.0885H89.6746C90.0701 85.0885 90.4048 85.4272 90.4048 85.8275C90.3743 86.2585 90.0701 86.5664 89.6746 86.5664Z" fill="white"/>
<path d="M62.6283 73.8813H34.7302C34.3347 73.8813 34 73.5427 34 73.1424C34 72.7421 34.3347 72.4035 34.7302 72.4035H62.6283C63.0238 72.4035 63.3585 72.7421 63.3585 73.1424C63.328 73.5427 63.0238 73.8813 62.6283 73.8813Z" fill="white"/>
<path d="M73.8849 73.8813H68.2566C67.8611 73.8813 67.5265 73.5427 67.5265 73.1424C67.5265 72.7421 67.8611 72.4035 68.2566 72.4035H73.8849C74.2804 72.4035 74.6151 72.7421 74.6151 73.1424C74.6151 73.5427 74.2804 73.8813 73.8849 73.8813Z" fill="white"/>
<path d="M102.239 73.8813H80.3042C79.9087 73.8813 79.5741 73.5427 79.5741 73.1424C79.5741 72.7421 79.9087 72.4035 80.3042 72.4035H102.239C102.635 72.4035 102.97 72.7421 102.97 73.1424C102.97 73.5427 102.635 73.8813 102.239 73.8813Z" fill="white"/>
<path d="M49.9114 73.8813C45.6217 73.8813 42.123 70.3406 42.123 65.9994C42.123 61.6581 45.6217 58.1174 49.9114 58.1174C54.2011 58.1174 57.6997 61.6581 57.6997 65.9994C57.6997 70.3406 54.2011 73.8813 49.9114 73.8813ZM49.9114 59.5953C46.4127 59.5953 43.5833 62.4894 43.5833 65.9994C43.5833 69.5401 46.4431 72.4035 49.9114 72.4035C53.4101 72.4035 56.2394 69.5093 56.2394 65.9994C56.2698 62.4586 53.4101 59.5953 49.9114 59.5953Z" stroke="white"/>
<path d="M86.6018 73.8813C82.3122 73.8813 78.8135 70.3406 78.8135 65.9994C78.8135 61.6581 82.3122 58.1174 86.6018 58.1174C90.8915 58.1174 94.3902 61.6581 94.3902 65.9994C94.3902 70.3406 90.8915 73.8813 86.6018 73.8813ZM86.6018 59.5953C83.1032 59.5953 80.2738 62.4894 80.2738 65.9994C80.2738 69.5401 83.1336 72.4035 86.6018 72.4035C90.1005 72.4035 92.9299 69.5093 92.9299 65.9994C92.9299 62.4586 90.1005 59.5953 86.6018 59.5953Z" stroke="white"/>
<path d="M44.2831 71.0487C44.1614 71.0487 44.0397 71.018 43.9484 70.9564L37.9854 67.7851C37.2857 67.4157 36.6164 66.923 36.0688 66.338C34.7302 64.891 34 63.0436 34 61.0731V55.1616C34 53.653 34.9431 52.3291 36.373 51.8672C38.168 51.2822 40.0238 50.8204 41.8796 50.5433C44.3743 50.143 46.9299 49.9891 49.455 50.143C49.8505 50.1738 50.1548 50.5125 50.1243 50.9128C50.0939 51.313 49.8201 51.6209 49.3638 51.5901C46.9299 51.467 44.496 51.5901 42.0926 51.9904C40.2976 52.2675 38.5331 52.6985 36.7989 53.2835C35.9775 53.5606 35.4299 54.3303 35.4299 55.1924V61.1039C35.4299 62.6742 36.0384 64.1828 37.1032 65.322C37.5595 65.7838 38.0767 66.1841 38.6548 66.492L44.6177 69.694C44.9828 69.8788 45.1045 70.3098 44.922 70.6793C44.8003 70.8948 44.5569 71.0487 44.2831 71.0487Z" stroke="white"/>
<path d="M97.2804 71.0487H92.1997C91.8042 71.0487 91.4696 70.7101 91.4696 70.3098C91.4696 69.9096 91.8042 69.5709 92.1997 69.5709H97.2804C98.4061 69.5709 99.5013 69.109 100.292 68.3085C101.083 67.508 101.54 66.4304 101.54 65.2604V62.1199C101.54 61.4118 101.175 60.7652 100.536 60.4266L99.3188 59.7492C95.1204 57.4092 90.5873 55.6235 85.9325 54.4535C85.537 54.3611 85.3241 53.9609 85.4153 53.5606C85.5066 53.1604 85.9021 52.9448 86.2976 53.0372C91.1045 54.238 95.7288 56.0853 100.049 58.4868L101.266 59.1642C102.331 59.7492 103 60.8884 103 62.1199V65.2912C103 66.8307 102.422 68.2777 101.327 69.3554C100.231 70.4638 98.8016 71.0487 97.2804 71.0487Z" stroke="white"/>
<path d="M76.4709 54.4843C76.3492 54.4843 76.2579 54.4535 76.1362 54.3919C75.7712 54.2072 75.6495 53.7761 75.832 53.4067C76.5926 51.9596 78.205 51.1899 79.787 51.5593L83.1944 52.3291L77.9921 48.1418C75.0714 45.771 71.4206 44.4471 67.6786 44.4471H51.9193C50.7936 44.4471 49.7593 44.8781 48.9378 45.6479L42.4881 51.7749C42.2143 52.052 41.7579 52.0212 41.4841 51.7441C41.2103 51.4362 41.2407 51.0051 41.5145 50.728L47.9643 44.601C49.0291 43.5542 50.4286 43 51.9193 43H67.6786C71.7553 43 75.7407 44.4163 78.9048 47.0026L86.541 53.1911C86.8148 53.4067 86.8757 53.7761 86.754 54.084C86.6018 54.3919 86.2672 54.5459 85.9325 54.4843L79.4524 53.0064C78.5093 52.7909 77.5357 53.2527 77.0794 54.1148C76.9881 54.3303 76.7143 54.4843 76.4709 54.4843Z" stroke="white"/>
<path d="M80.9735 71.0487H55.5397C55.1442 71.0487 54.8095 70.7101 54.8095 70.3098C54.8095 69.9096 55.1442 69.5709 55.5397 69.5709H80.9735C81.369 69.5709 81.7037 69.9096 81.7037 70.3098C81.6733 70.7101 81.369 71.0487 80.9735 71.0487Z" stroke="white"/>
<path d="M39.9021 64.6139C39.8717 64.6139 39.8413 64.6139 39.8108 64.6139C37.7116 64.3675 35.7037 63.3823 34.213 61.8736C33.9392 61.5965 33.9392 61.1347 34.213 60.8576C34.4868 60.5497 34.9431 60.5497 35.2169 60.8268C36.4947 62.1199 38.1984 62.9205 39.9934 63.136C40.3889 63.1976 40.6627 63.5362 40.6323 63.9365C40.5714 64.3368 40.2672 64.6139 39.9021 64.6139Z" stroke="white"/>
<path d="M95.8201 67.508C95.4246 67.508 95.0899 67.1693 95.0899 66.7691C95.0899 66.3688 95.4246 66.0301 95.8201 66.0301C100.384 66.0301 101.479 64.7678 101.54 64.306C101.509 63.9057 101.813 63.5978 102.209 63.567C102.574 63.567 102.939 63.8749 102.97 64.2752C102.97 64.3983 102.97 65.0757 102.331 65.753C101.235 66.923 99.045 67.508 95.8201 67.508Z" stroke="white"/>
<path d="M76.4709 66.7383L60.0423 66.2765C59.6468 66.2765 59.3426 65.9378 59.3426 65.5375C59.3426 65.1373 59.7077 64.8294 60.0727 64.8294L76.5013 65.2912C76.8968 65.2912 77.2011 65.6299 77.2011 66.0301C77.1706 66.4304 76.8664 66.7383 76.4709 66.7383Z" stroke="white"/>
<path d="M49.9114 69.848C49.5159 69.848 49.1812 69.5093 49.1812 69.109C49.1812 68.7088 49.5159 68.3701 49.9114 68.3701C51.2196 68.3701 52.254 67.2925 52.254 65.9994C52.254 64.6754 51.1892 63.6286 49.9114 63.6286C49.5159 63.6286 49.2116 63.3207 49.2116 62.9205C49.2116 62.5202 49.5463 62.1815 49.9418 62.1815C52.041 62.1815 53.7143 63.9057 53.7143 65.9994C53.7143 68.1238 52.0106 69.848 49.9114 69.848Z" stroke="white"/>
<path d="M86.6018 69.848C86.2063 69.848 85.8717 69.5093 85.8717 69.109C85.8717 68.7088 86.2063 68.3701 86.6018 68.3701C87.91 68.3701 88.9444 67.2925 88.9444 65.9994C88.9444 64.6754 87.8796 63.6286 86.6018 63.6286C86.2063 63.6286 85.8717 63.2899 85.8717 62.8897C85.8717 62.4894 86.2063 62.1507 86.6018 62.1507C88.701 62.1507 90.3743 63.8749 90.3743 65.9686C90.3743 68.1238 88.6706 69.848 86.6018 69.848Z" stroke="white"/>
<path d="M39.0807 91C36.2817 91 34 88.6908 34 85.8582C34 83.0257 36.2817 80.7165 39.0807 80.7165C41.8796 80.7165 44.1614 83.0257 44.1614 85.8582C44.1918 88.6908 41.9101 91 39.0807 91ZM39.0807 82.1636C37.0728 82.1636 35.4299 83.8262 35.4299 85.8582C35.4299 87.8903 37.0728 89.5529 39.0807 89.5529C41.0886 89.5529 42.7315 87.8903 42.7315 85.8582C42.7619 83.7954 41.119 82.1636 39.0807 82.1636Z" stroke="white"/>
<path d="M97.8585 91C95.0595 91 92.7778 88.6908 92.7778 85.8582C92.7778 83.0257 95.0595 80.7165 97.8585 80.7165C100.657 80.7165 102.939 83.0257 102.939 85.8582C102.97 88.6908 100.688 91 97.8585 91ZM97.8585 82.1636C95.8505 82.1636 94.2077 83.8262 94.2077 85.8582C94.2077 87.8903 95.8505 89.5529 97.8585 89.5529C99.8664 89.5529 101.509 87.8903 101.509 85.8582C101.54 83.7954 99.8968 82.1636 97.8585 82.1636Z" stroke="white"/>
<path d="M50.2156 86.5664H47.295C46.8995 86.5664 46.5648 86.2277 46.5648 85.8275C46.5648 85.4272 46.8995 85.0885 47.295 85.0885H50.2156C50.6111 85.0885 50.9458 85.4272 50.9458 85.8275C50.9458 86.2585 50.6111 86.5664 50.2156 86.5664Z" stroke="white"/>
<path d="M58.0952 86.5664H55.1746C54.7791 86.5664 54.4444 86.2277 54.4444 85.8275C54.4444 85.4272 54.7791 85.0885 55.1746 85.0885H58.0952C58.4907 85.0885 58.8254 85.4272 58.8254 85.8275C58.8254 86.2585 58.5212 86.5664 58.0952 86.5664Z" stroke="white"/>
<path d="M66.0053 86.5664H63.0847C62.6891 86.5664 62.3545 86.2277 62.3545 85.8275C62.3545 85.4272 62.6891 85.0885 63.0847 85.0885H66.0053C66.4008 85.0885 66.7354 85.4272 66.7354 85.8275C66.705 86.2585 66.4008 86.5664 66.0053 86.5664Z" stroke="white"/>
<path d="M73.8849 86.5664H70.9643C70.5688 86.5664 70.2341 86.2277 70.2341 85.8275C70.2341 85.4272 70.5688 85.0885 70.9643 85.0885H73.8849C74.2804 85.0885 74.6151 85.4272 74.6151 85.8275C74.6151 86.2585 74.2804 86.5664 73.8849 86.5664Z" stroke="white"/>
<path d="M81.7645 86.5664H78.8439C78.4484 86.5664 78.1138 86.2277 78.1138 85.8275C78.1138 85.4272 78.4484 85.0885 78.8439 85.0885H81.7645C82.16 85.0885 82.4947 85.4272 82.4947 85.8275C82.4947 86.2585 82.16 86.5664 81.7645 86.5664Z" stroke="white"/>
<path d="M89.6746 86.5664H86.754C86.3585 86.5664 86.0238 86.2277 86.0238 85.8275C86.0238 85.4272 86.3585 85.0885 86.754 85.0885H89.6746C90.0701 85.0885 90.4048 85.4272 90.4048 85.8275C90.3743 86.2585 90.0701 86.5664 89.6746 86.5664Z" stroke="white"/>
<path d="M62.6283 73.8813H34.7302C34.3347 73.8813 34 73.5427 34 73.1424C34 72.7421 34.3347 72.4035 34.7302 72.4035H62.6283C63.0238 72.4035 63.3585 72.7421 63.3585 73.1424C63.328 73.5427 63.0238 73.8813 62.6283 73.8813Z" stroke="white"/>
<path d="M73.8849 73.8813H68.2566C67.8611 73.8813 67.5265 73.5427 67.5265 73.1424C67.5265 72.7421 67.8611 72.4035 68.2566 72.4035H73.8849C74.2804 72.4035 74.6151 72.7421 74.6151 73.1424C74.6151 73.5427 74.2804 73.8813 73.8849 73.8813Z" stroke="white"/>
<path d="M102.239 73.8813H80.3042C79.9087 73.8813 79.5741 73.5427 79.5741 73.1424C79.5741 72.7421 79.9087 72.4035 80.3042 72.4035H102.239C102.635 72.4035 102.97 72.7421 102.97 73.1424C102.97 73.5427 102.635 73.8813 102.239 73.8813Z" stroke="white"/>
</svg>
