<svg width="109" height="15" viewBox="0 0 109 15" fill="none" xmlns="http://www.w3.org/2000/svg">
<path fill-rule="evenodd" clip-rule="evenodd" d="M3.47529 12.3726H0.90625V0H6.46845V2.2782H3.47125L3.47529 12.3726ZM12.3053 0H18.2957V2.2782H14.9794V4.66547H17.5484V6.94367H14.9794V10.0984H18.5098V12.3766H12.3053V0ZM29.2101 6.94367H26.7501V12.3685H24.076V0H26.7501V4.66547H29.2101V0H31.7791V12.3726H29.2101V6.94367ZM37.5796 0H43.57V2.2782H40.2537V4.66547H42.8227V6.94367H40.2537V10.0984H43.7841V12.3766H37.5796V0ZM54.1612 3.57888C54.1612 3.01741 53.7856 2.2782 53.1999 2.2782H52.0042V6.29333H53.216C53.8058 6.29333 54.1774 5.2431 54.1774 4.77453L54.1612 3.57888ZM53.8381 8.48267H52.0042V12.3887H49.3302V0H53.7169C54.1206 0.00836086 54.5186 0.0965832 54.888 0.259579C55.2574 0.422575 55.5909 0.657118 55.8691 0.949666C56.1474 1.24222 56.365 1.58698 56.5093 1.96406C56.6537 2.34115 56.7219 2.74307 56.7101 3.14666V5.10172C56.7262 6.46299 55.9588 8.48267 53.8381 8.48267ZM64.906 3.27593L64.0496 7.83233H65.7623L64.906 3.27593ZM66.1905 9.89645H63.6214L63.1933 12.3928H60.5192L63.1933 0H66.6186L69.2927 12.3726H66.6186L66.1905 9.89645ZM80.4656 12.3928H73.8168V0H76.4909V10.0984H78.8458V0H81.5199V10.0984H82.5903V14.5417H80.4494L80.4656 12.3928ZM92.7089 5.77225L90.0348 11.0881V12.3887H87.3608V0H90.0348V6.62052L92.7089 1.30471V0H95.383V12.3726H92.7089V5.77225ZM105.679 2.2984H104.395C103.93 2.2984 103.538 2.91238 103.538 3.27593V4.68567C103.538 5.0896 103.878 5.98634 104.286 5.98634H105.675L105.679 2.2984ZM105.679 12.3968V8.03026H104.823L103.11 12.3726H100.222L102.577 7.48898C102.577 7.48898 100.961 6.76594 100.961 4.56044V2.94469C100.961 1.26028 102.137 0.0161548 104.064 0.0161548H108.353V12.3887L105.679 12.3968Z" fill="black"/>
</svg>
