<svg width="132" height="132" viewBox="0 0 132 132" fill="none" xmlns="http://www.w3.org/2000/svg">
<circle cx="66" cy="66" r="66" fill="#3498DB"/>
<path d="M43 95.9053L43 35.0947C43 32.2808 45.2319 30 47.9855 30L84.0145 30C86.7681 30 89 32.2808 89 35.0947L89 95.9053C89 98.7192 86.7681 101 84.0145 101H47.9855C45.2319 101 43 98.7192 43 95.9053ZM87.6377 35.0947C87.6377 33.0509 86.0145 31.3922 84.0145 31.3922L47.9855 31.3922C45.9855 31.3922 44.3623 33.0509 44.3623 35.0947L44.3623 95.9053C44.3623 97.9491 45.9855 99.6078 47.9855 99.6078H84.0145C86.0145 99.6078 87.6377 97.9491 87.6377 95.9053V35.0947Z" fill="white" stroke="white"/>
<path d="M70.7925 74.989C69.0408 74.4644 67.9445 73.3386 67.6294 72.9931V71.944C67.6294 71.0996 68.2973 70.4215 69.129 70.4215C69.9607 70.4215 70.6286 71.0996 70.6286 71.944C70.6286 72.1743 70.8177 72.3534 71.0319 72.3534C71.2587 72.3534 71.4352 72.1615 71.4352 71.944C71.4352 70.639 70.3892 69.5899 69.1164 69.5899C67.831 69.5899 66.7977 70.6518 66.7977 71.944V73.2874L66.8859 73.4025C66.9363 73.4665 68.2091 75.0914 70.5404 75.795C70.7799 75.8718 70.8681 75.9358 70.8933 75.9614C70.8177 76.2556 69.7339 76.9977 68.0453 77.4839L67.579 75.9614C67.516 75.7439 67.2892 75.6159 67.0623 75.6927C66.8481 75.7566 66.7221 75.9869 66.7977 76.2172L67.6924 79.1599C66.5835 79.6845 65.1469 79.4158 64.5168 79.2239L65.4745 76.23C65.5501 76.0125 65.4241 75.7822 65.2099 75.7055C64.9956 75.6287 64.7688 75.7566 64.6932 75.9741L64.2017 77.4967C62.5383 77.0105 61.4671 76.2684 61.3915 75.9869C61.4167 75.9614 61.505 75.8846 61.7444 75.8206C64.0883 75.1169 65.3485 73.5049 65.3989 73.4281L65.4871 73.313V71.9696C65.4871 70.6646 64.4412 69.6155 63.1684 69.6155C61.8956 69.6155 60.8497 70.6774 60.8497 71.9696C60.8497 72.1999 61.0387 72.379 61.2529 72.379C61.4797 72.379 61.6562 72.1871 61.6562 71.9696C61.6562 71.1252 62.3241 70.4471 63.1558 70.4471C63.9875 70.4471 64.6554 71.1252 64.6554 71.9696V73.0187C64.353 73.3641 63.2566 74.49 61.4924 75.0146C60.6984 75.2577 60.5346 75.6671 60.5472 75.9869C60.5724 77.0233 62.5761 77.8805 63.9245 78.2899L63.496 79.6461L63.7607 79.8252C64.0631 80.0171 65.0208 80.3242 66.1046 80.3242C66.8733 80.3242 67.6924 80.1706 68.3729 79.7356L68.6376 79.5693L68.2595 78.3283C69.7591 77.8933 71.6746 76.9977 71.6872 76.0125C71.7502 75.6543 71.5864 75.2321 70.7925 74.989Z" fill="white"/>
<path d="M54.1833 60.135L57.4094 62.3612C57.3212 62.7194 57.2834 63.1033 57.2834 63.4743C57.2834 66.0203 59.2492 68.093 61.7192 68.2337C60.3078 68.7455 59.3248 69.9609 59.3248 71.3811C59.3248 71.6114 59.5139 71.7905 59.7281 71.7905C59.9549 71.7905 60.1314 71.5986 60.1314 71.3811C60.1314 69.9609 61.505 68.7966 63.2062 68.7966C63.2692 68.7966 63.3322 68.7838 63.3826 68.7583C63.4078 68.7583 63.4204 68.771 63.4456 68.771H64.9956C65.1595 68.8094 65.5753 69.3212 65.84 69.8458C65.9156 69.9865 66.0542 70.0761 66.2054 70.0761H66.218C66.3692 70.0761 66.5205 69.9737 66.5835 69.833C66.8355 69.27 67.2388 68.7838 67.3774 68.7838H68.8896C68.9274 68.7838 68.9526 68.7838 68.9904 68.771C69.0534 68.7966 69.1164 68.8222 69.1794 68.8222C70.8807 68.8222 72.2543 69.9865 72.2543 71.4066C72.2543 71.6369 72.4433 71.8161 72.6575 71.8161C72.8844 71.8161 73.0608 71.6241 73.0608 71.4066C73.0608 69.9865 72.0652 68.7711 70.6664 68.2593C73.1238 68.1058 75.0771 66.0331 75.0771 63.4999C75.0771 63.1288 75.0267 62.745 74.951 62.3868L78.1645 60.1606C78.3535 60.0327 78.4039 59.7768 78.2779 59.5849C78.1519 59.393 77.8999 59.3418 77.7108 59.4697L73.1994 62.5787C73.0104 62.7066 72.96 62.9625 73.086 63.1544C73.1616 63.2696 73.3002 63.3335 73.4262 63.3335C73.5018 63.3335 73.5901 63.308 73.6531 63.2568L74.2075 62.873C74.2327 63.0777 74.258 63.2696 74.258 63.4743C74.258 65.6493 72.5189 67.4149 70.3766 67.4149C70.0112 67.4149 69.6457 67.3637 69.2929 67.2613V64.9072C69.5953 65.1247 69.9733 65.2527 70.3766 65.2527C71.41 65.2527 72.2543 64.3955 72.2543 63.3463C72.2543 62.9113 72.103 62.5019 71.851 62.1693L77.7234 57.8321C77.9125 57.6913 77.9503 57.4355 77.8117 57.2563C77.673 57.0772 77.421 57.026 77.2446 57.1668L70.9815 61.7983C70.9689 61.7983 70.9689 61.811 70.9689 61.811C70.9563 61.8238 70.9437 61.8238 70.9311 61.8366C70.9185 61.8494 70.9059 61.8622 70.9059 61.875C70.9059 61.8878 70.8933 61.8878 70.8933 61.9006C70.8933 61.9006 70.8933 61.9134 70.8807 61.9134C70.8681 61.9262 70.8681 61.939 70.8555 61.9518C70.8555 61.9646 70.8429 61.9774 70.8429 61.9902C70.8429 62.003 70.8303 62.0157 70.8303 62.0285C70.8303 62.0413 70.8177 62.0541 70.8177 62.0669C70.8177 62.0797 70.8177 62.0925 70.8177 62.1053C70.8177 62.1181 70.8177 62.1309 70.8177 62.1437C70.8177 62.1565 70.8177 62.1693 70.8177 62.1821C70.8177 62.1949 70.8177 62.2077 70.8177 62.2205C70.8177 62.2332 70.8303 62.246 70.8303 62.2588C70.8303 62.2716 70.8429 62.2844 70.8429 62.2972C70.8429 62.31 70.8555 62.3228 70.8555 62.3356C70.8681 62.3484 70.8681 62.3612 70.8807 62.374V62.3868L70.8933 62.3996C70.9059 62.4124 70.9185 62.4252 70.9311 62.4508C70.9437 62.4635 70.9437 62.4635 70.9563 62.4763L70.9689 62.4891C71.2587 62.6938 71.4226 63.0265 71.4226 63.3719C71.4226 63.9733 70.9437 64.4466 70.364 64.4466C69.7717 64.4466 69.2929 63.9605 69.2929 63.3719C69.2929 63.3335 69.2802 63.2952 69.2802 63.2568V63.1672C69.2802 62.9369 69.0912 62.7578 68.877 62.7578H67.8815C67.9193 60.9666 68.3351 59.7768 69.1164 59.2266C69.1668 59.4313 69.2424 59.636 69.3811 59.8152C69.6205 60.1094 69.9481 60.3013 70.3262 60.3397C70.3388 60.3397 70.364 60.3397 70.3766 60.3397C70.5782 60.3397 70.7547 60.1862 70.7799 59.9687C70.8051 59.7384 70.6412 59.5337 70.4144 59.5081C70.2632 59.4953 70.1246 59.4057 70.0238 59.2906C69.9355 59.1755 69.8977 59.0475 69.8977 58.9068C70.8681 58.7405 71.8636 59.2394 71.8762 59.2394C71.9014 59.2522 71.914 59.2522 71.9392 59.265C71.9392 59.265 71.9392 59.265 71.9518 59.265C71.9896 59.2778 72.0148 59.2778 72.0526 59.2778H72.0652C72.0778 59.2778 72.0778 59.2778 72.0904 59.2778C72.103 59.2778 72.1283 59.2778 72.1409 59.2778C72.1535 59.2778 72.1661 59.2778 72.1787 59.265C72.1913 59.265 72.2165 59.2522 72.2291 59.2394C72.2417 59.2394 72.2417 59.2394 72.2543 59.2266C72.2543 59.2266 72.2543 59.2266 72.2669 59.2266C72.2795 59.2138 72.2921 59.2138 72.3047 59.201C72.3173 59.1882 72.3299 59.1882 72.3299 59.1755C72.3425 59.1627 72.3551 59.1627 72.3551 59.1499C72.3677 59.1371 72.3803 59.1243 72.3803 59.1243C72.3929 59.1115 72.3929 59.1115 72.4055 59.0987C72.4181 59.0859 72.4181 59.0731 72.4307 59.0603C72.4307 59.0603 72.4307 59.0603 72.4307 59.0475C72.4307 59.0347 72.4307 59.0347 72.4433 59.0219C72.4433 59.0091 72.4559 58.9963 72.4559 58.9835C72.4559 58.9707 72.4559 58.958 72.4685 58.9452C72.4685 58.9324 72.4685 58.9196 72.4811 58.9068C72.4811 58.894 72.4811 58.8812 72.4811 58.8684C72.4811 58.8556 72.4811 58.8428 72.4811 58.83C72.4811 58.8172 72.4811 58.8044 72.4685 58.7916C72.4685 58.7788 72.4685 58.766 72.4559 58.7532C72.4559 58.7405 72.4433 58.7277 72.4433 58.7149C72.4433 58.7021 72.4433 58.7021 72.4307 58.6893C72.3929 58.6125 71.4352 56.7062 69.8599 56.7062C68.3981 56.7062 67.3396 57.2052 66.5835 58.2287C66.4448 58.4078 66.4827 58.6765 66.6717 58.8044C66.8481 58.9452 67.1127 58.9068 67.2388 58.7149C67.8184 57.9216 68.6754 57.525 69.8473 57.525C70.2884 57.525 70.679 57.7809 70.9941 58.088C70.3262 57.9728 69.4945 57.9856 68.751 58.4462C67.6672 59.1243 67.1001 60.57 67.0497 62.7322H66.7599C66.6465 58.6765 65.1973 56.6934 62.3241 56.6934C60.7488 56.6934 59.7911 58.5869 59.7533 58.6765C59.7533 58.6893 59.7533 58.6893 59.7407 58.7021C59.7407 58.7149 59.7281 58.7277 59.7281 58.7404C59.7281 58.7532 59.7281 58.766 59.7155 58.7788C59.7155 58.7916 59.7155 58.8044 59.7029 58.8172C59.7029 58.83 59.7029 58.8428 59.7029 58.8556C59.7029 58.8684 59.7029 58.8812 59.7029 58.894C59.7029 58.9068 59.7029 58.9196 59.7155 58.9324C59.7155 58.9452 59.7155 58.958 59.7281 58.9707C59.7281 58.9835 59.7407 58.9963 59.7407 59.0091C59.7407 59.0219 59.7407 59.0219 59.7533 59.0347C59.7533 59.0347 59.7533 59.0347 59.7533 59.0475C59.7659 59.0603 59.7659 59.0731 59.7785 59.0859C59.7911 59.0987 59.7911 59.1115 59.8037 59.1243C59.8163 59.1371 59.8163 59.1371 59.8289 59.1499C59.8415 59.1627 59.8541 59.1755 59.8667 59.1882C59.8793 59.1882 59.8793 59.201 59.8919 59.201C59.9045 59.2138 59.9171 59.2266 59.9423 59.2266C59.9549 59.2266 59.9549 59.2266 59.9675 59.2394C59.9801 59.2522 60.0053 59.2522 60.0179 59.265C60.0305 59.265 60.0305 59.265 60.0431 59.265C60.0557 59.265 60.081 59.2778 60.0936 59.2778C60.1062 59.2778 60.1062 59.2778 60.1188 59.2778C60.1314 59.2778 60.1566 59.2778 60.1692 59.2778C60.1818 59.2778 60.1818 59.2778 60.1944 59.2778C60.207 59.2778 60.2322 59.265 60.2448 59.265C60.2574 59.265 60.2574 59.2522 60.27 59.2522C60.2826 59.2522 60.2952 59.2394 60.3078 59.2394C60.3204 59.2394 61.3159 58.7405 62.2863 58.9068C62.2863 59.0475 62.2485 59.1755 62.1602 59.2906C62.0594 59.4185 61.9208 59.4953 61.7696 59.5081C61.5428 59.5337 61.3789 59.7384 61.4041 59.9687C61.4293 60.1862 61.6058 60.3397 61.8074 60.3397C61.82 60.3397 61.8326 60.3397 61.8578 60.3397C62.2359 60.3013 62.5635 60.1094 62.8029 59.8152C62.9416 59.636 63.0298 59.4441 63.0676 59.2266C63.8489 59.7768 64.2647 60.9538 64.3025 62.7578H63.4204C63.1936 62.7578 63.0172 62.9497 63.0172 63.1672V63.3719C63.0172 63.9733 62.5383 64.4466 61.946 64.4466C61.3537 64.4466 60.8875 63.9605 60.8875 63.3719C60.8875 63.0137 61.0639 62.681 61.3411 62.4891L61.3537 62.4763C61.3663 62.4635 61.3663 62.4635 61.3789 62.4508C61.3915 62.438 61.4041 62.4252 61.4167 62.3996L61.4293 62.3868V62.374C61.4419 62.3612 61.4419 62.3484 61.4545 62.3356C61.4545 62.3228 61.4671 62.31 61.4671 62.2972C61.4671 62.2844 61.4797 62.2716 61.4797 62.2588C61.4797 62.246 61.4924 62.2332 61.4924 62.2205C61.4924 62.2077 61.4924 62.1949 61.4924 62.1821C61.4924 62.1693 61.4924 62.1565 61.4924 62.1437C61.4924 62.1309 61.4924 62.1181 61.4924 62.1053C61.4924 62.0925 61.4924 62.0797 61.4924 62.0669C61.4924 62.0541 61.4924 62.0413 61.4797 62.0285C61.4797 62.0157 61.4671 62.003 61.4671 61.9902C61.4671 61.9774 61.4545 61.9646 61.4545 61.9518C61.4419 61.939 61.4419 61.9262 61.4293 61.9134C61.4293 61.9134 61.4293 61.9006 61.4167 61.9006C61.4167 61.8878 61.4041 61.8878 61.4041 61.875C61.3915 61.8622 61.3915 61.8494 61.3789 61.8366C61.3663 61.8238 61.3537 61.811 61.3411 61.811C61.3285 61.811 61.3285 61.7983 61.3285 61.7983L55.1032 57.1412C54.9142 57.0005 54.6622 57.0516 54.5362 57.2307C54.3975 57.4227 54.448 57.6785 54.6244 57.8065L60.4968 62.1437C60.2322 62.4763 60.0936 62.8858 60.0936 63.3208C60.0936 64.3699 60.9379 65.2271 61.9712 65.2271C62.3619 65.2271 62.7273 65.0991 63.0424 64.8944V67.2486C62.7021 67.3509 62.3367 67.4021 61.9712 67.4021C59.8289 67.4021 58.0899 65.6365 58.0899 63.4615C58.0899 63.2568 58.1025 63.0521 58.1403 62.8602L58.7074 63.244C58.783 63.2952 58.8586 63.3208 58.9342 63.3208C59.0602 63.3208 59.1988 63.2568 59.2744 63.1416C59.4005 62.9497 59.35 62.6938 59.161 62.5659L54.6496 59.4441C54.4606 59.3162 54.2085 59.3674 54.0825 59.5593C53.9565 59.7512 53.9943 60.0071 54.1833 60.135ZM68.4737 67.9266H67.3648C66.8733 67.9266 66.4575 68.3744 66.1802 68.8094C65.8778 68.3744 65.4619 67.9266 64.9956 67.9266H63.8489V63.551H68.4611V67.9266H68.4737ZM63.4582 58.4334C62.7147 57.9728 61.883 57.96 61.2151 58.0752C61.5176 57.7681 61.9082 57.5122 62.3619 57.5122C63.9875 57.5122 65.8526 58.1135 65.9786 62.7194H65.1595C65.1091 60.5572 64.542 59.1115 63.4582 58.4334Z" fill="white"/>
<path d="M56.1366 63.2824C56.187 63.308 56.2374 63.3208 56.3004 63.3208C56.4642 63.3208 56.6155 63.2312 56.6785 63.0649C56.7667 62.8474 56.6659 62.6043 56.4642 62.5147L54.574 61.7215C54.3597 61.6319 54.1203 61.7343 54.0321 61.939C53.9439 62.1565 54.0447 62.3996 54.2463 62.4891L56.1366 63.2824Z" fill="white"/>
<path d="M57.0187 67.9138C57.0817 67.9138 57.1447 67.901 57.2077 67.8627L57.8756 67.5172C58.0773 67.4149 58.1529 67.159 58.0521 66.9543C57.9513 66.7496 57.6992 66.6728 57.4976 66.7752L56.8297 67.1206C56.6281 67.223 56.5525 67.4788 56.6533 67.6835C56.7163 67.8243 56.8675 67.9138 57.0187 67.9138Z" fill="white"/>
<path d="M59.4005 67.9522C59.2366 67.7987 58.972 67.7987 58.8208 67.965L58.4553 68.3616C58.3041 68.528 58.3041 68.7966 58.4679 68.9502C58.5435 69.0269 58.6443 69.0653 58.7452 69.0653C58.8586 69.0653 58.9594 69.0269 59.0476 68.9374L59.4131 68.5408C59.5643 68.3744 59.5643 68.1186 59.4005 67.9522Z" fill="white"/>
<path d="M57.1825 65.6237C57.1195 65.4062 56.8801 65.2783 56.6659 65.355L55.3175 65.7772C55.1032 65.8412 54.9772 66.0715 55.0528 66.3018C55.1032 66.4809 55.2671 66.5961 55.4435 66.5961C55.4813 66.5961 55.5191 66.5961 55.5695 66.5833L56.9179 66.1611C57.1321 66.0715 57.2582 65.8412 57.1825 65.6237Z" fill="white"/>
<path d="M56.2878 64.7281C56.5146 64.7281 56.6911 64.5362 56.6911 64.3187C56.6911 64.0884 56.502 63.9093 56.2878 63.9093H54.5992C54.3723 63.9093 54.1959 64.1012 54.1959 64.3187C54.1959 64.549 54.3849 64.7281 54.5992 64.7281H56.2878Z" fill="white"/>
<path d="M78.3157 61.939C78.2275 61.7215 77.9881 61.6319 77.7739 61.7215L75.8962 62.5147C75.682 62.6043 75.5937 62.8474 75.682 63.0649C75.745 63.2184 75.8962 63.3208 76.06 63.3208C76.1104 63.3208 76.1608 63.308 76.2238 63.2824L78.1015 62.4891C78.3031 62.3996 78.4039 62.1565 78.3157 61.939Z" fill="white"/>
<path d="M75.5307 67.1206L74.8628 66.7752C74.6612 66.6728 74.4092 66.7496 74.3084 66.9543C74.2075 67.159 74.2832 67.4149 74.4848 67.5172L75.1527 67.8627C75.2157 67.8883 75.2787 67.9138 75.3417 67.9138C75.4929 67.9138 75.6315 67.8243 75.7072 67.6835C75.808 67.4788 75.7324 67.223 75.5307 67.1206Z" fill="white"/>
<path d="M72.96 67.9522C72.7961 68.1058 72.7835 68.3744 72.9474 68.5408L73.3128 68.9374C73.3884 69.0269 73.5018 69.0653 73.6153 69.0653C73.7161 69.0653 73.8169 69.0269 73.8925 68.9502C74.0563 68.7966 74.0689 68.528 73.9051 68.3616L73.5397 67.965C73.3758 67.8115 73.1238 67.7987 72.96 67.9522Z" fill="white"/>
<path d="M77.0303 65.7772L75.682 65.355C75.4677 65.291 75.2409 65.4062 75.1653 65.6237C75.1023 65.8412 75.2157 66.0715 75.4299 66.1483L76.7783 66.5705C76.8161 66.5833 76.8539 66.5833 76.9043 66.5833C77.0807 66.5833 77.2446 66.4681 77.295 66.289C77.3706 66.0715 77.2446 65.8412 77.0303 65.7772Z" fill="white"/>
<path d="M77.7486 63.8965H76.06C75.8332 63.8965 75.6567 64.0884 75.6567 64.3059C75.6567 64.5362 75.8458 64.7153 76.06 64.7153H77.7486C77.9755 64.7153 78.1519 64.5234 78.1519 64.3059C78.1645 64.0884 77.9755 63.8965 77.7486 63.8965Z" fill="white"/>
<path d="M64.9452 55.7594C64.7184 55.7594 64.542 55.9513 64.542 56.1688C64.542 56.3991 64.731 56.5782 64.9452 56.5782H67.2892C67.516 56.5782 67.6924 56.3863 67.6924 56.1688C67.6924 55.9385 67.5034 55.7594 67.2892 55.7594H64.9452Z" fill="white"/>
<path d="M65.2099 55.3116H66.9993C67.7554 55.3116 68.3855 54.6847 68.3855 53.9043C68.3855 53.1366 67.768 52.4969 66.9993 52.4969C66.6717 52.4969 66.3566 52.6888 66.092 52.9191C65.8778 52.7144 65.6005 52.4969 65.2099 52.4969C64.4538 52.4969 63.8237 53.1238 63.8237 53.9043C63.8363 54.6847 64.4538 55.3116 65.2099 55.3116ZM65.2099 53.3413C65.3233 53.3413 65.4745 53.4821 65.6131 53.6228C65.6887 53.6996 65.7644 53.7763 65.84 53.8275C65.9156 53.8787 66.0038 53.9171 66.092 53.9171C66.2558 53.9171 66.3566 53.8275 66.4448 53.7379C66.8103 53.3797 66.9615 53.3413 66.9993 53.3413C67.3144 53.3413 67.5664 53.5972 67.5664 53.9171C67.5664 54.2369 67.3144 54.4928 66.9993 54.4928H65.2099C64.8948 54.4928 64.6428 54.2369 64.6428 53.9171C64.6554 53.5972 64.9074 53.3413 65.2099 53.3413Z" fill="white"/>
<path d="M66.1046 52.1259C66.407 52.1259 66.6591 51.87 66.6591 51.5629C66.6591 51.2559 66.407 51 66.1046 51C65.8022 51 65.5501 51.2559 65.5501 51.5629C65.5501 51.8828 65.8022 52.1259 66.1046 52.1259Z" fill="white"/>
<path d="M75.2787 70.5366C74.9763 70.5366 74.7242 70.7925 74.7242 71.0996C74.7242 71.4066 74.9763 71.6625 75.2787 71.6625C75.5811 71.6625 75.8332 71.4066 75.8332 71.0996C75.8332 70.7925 75.5811 70.5366 75.2787 70.5366Z" fill="white"/>
<path d="M74.7368 72.2511C73.7917 72.2511 72.9852 72.814 72.6197 73.6328L69.6457 72.4302V71.4706C69.6457 71.2403 69.4567 71.0612 69.2424 71.0612C69.0156 71.0612 68.8392 71.2531 68.8392 71.4706V72.7116C68.8392 72.878 68.94 73.0315 69.0912 73.0955L72.4181 74.4389C72.4181 74.49 72.4055 74.554 72.4055 74.6052C72.4055 75.9102 73.4514 76.9721 74.7368 76.9721C76.0222 76.9721 77.0681 75.9102 77.0681 74.6052C77.0681 73.313 76.0222 72.2511 74.7368 72.2511ZM74.7368 76.1533C73.9051 76.1533 73.2246 75.4624 73.2246 74.618C73.2246 73.7736 73.9051 73.0827 74.7368 73.0827C75.5685 73.0827 76.249 73.7736 76.249 74.618C76.249 75.4624 75.5685 76.1533 74.7368 76.1533Z" fill="white"/>
<path d="M59.5139 74.5796L63.2062 73.1083C63.3574 73.0443 63.4708 72.8908 63.4708 72.7244V71.4834C63.4708 71.2531 63.2818 71.074 63.0676 71.074C62.8407 71.074 62.6643 71.2659 62.6643 71.4834V72.443L59.0728 73.8887L55.2041 68.029C55.078 67.8371 54.826 67.7859 54.637 67.9138C54.448 68.0418 54.3975 68.2977 54.5236 68.4896L58.2663 74.183L58.1529 74.2342C57.9386 74.3237 57.8378 74.554 57.926 74.7715C57.9891 74.9378 58.1403 75.0402 58.3041 75.0402C58.3545 75.0402 58.4049 75.0274 58.4553 75.0146L58.7326 74.8994L59.3753 75.8718C59.4509 75.9869 59.5895 76.0509 59.7155 76.0509C59.7911 76.0509 59.8667 76.0253 59.9423 75.9869C60.1314 75.859 60.1818 75.6031 60.0557 75.4112L59.5139 74.5796Z" fill="white"/>
<path d="M70.7925 74.989C69.0408 74.4644 67.9445 73.3386 67.6294 72.9931V71.944C67.6294 71.0996 68.2973 70.4215 69.129 70.4215C69.9607 70.4215 70.6286 71.0996 70.6286 71.944C70.6286 72.1743 70.8177 72.3534 71.0319 72.3534C71.2587 72.3534 71.4352 72.1615 71.4352 71.944C71.4352 70.639 70.3892 69.5899 69.1164 69.5899C67.831 69.5899 66.7977 70.6518 66.7977 71.944V73.2874L66.8859 73.4025C66.9363 73.4665 68.2091 75.0914 70.5404 75.795C70.7799 75.8718 70.8681 75.9358 70.8933 75.9614C70.8177 76.2556 69.7339 76.9977 68.0453 77.4839L67.579 75.9614C67.516 75.7439 67.2892 75.6159 67.0623 75.6927C66.8481 75.7566 66.7221 75.9869 66.7977 76.2172L67.6924 79.1599C66.5835 79.6845 65.1469 79.4158 64.5168 79.2239L65.4745 76.23C65.5501 76.0125 65.4241 75.7822 65.2099 75.7055C64.9956 75.6287 64.7688 75.7566 64.6932 75.9741L64.2017 77.4967C62.5383 77.0105 61.4671 76.2684 61.3915 75.9869C61.4167 75.9614 61.505 75.8846 61.7444 75.8206C64.0883 75.1169 65.3485 73.5049 65.3989 73.4281L65.4871 73.313V71.9696C65.4871 70.6646 64.4412 69.6155 63.1684 69.6155C61.8956 69.6155 60.8497 70.6774 60.8497 71.9696C60.8497 72.1999 61.0387 72.379 61.2529 72.379C61.4797 72.379 61.6562 72.1871 61.6562 71.9696C61.6562 71.1252 62.3241 70.4471 63.1558 70.4471C63.9875 70.4471 64.6554 71.1252 64.6554 71.9696V73.0187C64.353 73.3641 63.2566 74.49 61.4924 75.0146C60.6984 75.2577 60.5346 75.6671 60.5472 75.9869C60.5724 77.0233 62.5761 77.8805 63.9245 78.2899L63.496 79.6461L63.7607 79.8252C64.0631 80.0171 65.0208 80.3242 66.1046 80.3242C66.8733 80.3242 67.6924 80.1706 68.3729 79.7356L68.6376 79.5693L68.2595 78.3283C69.7591 77.8933 71.6746 76.9977 71.6872 76.0125C71.7502 75.6543 71.5864 75.2321 70.7925 74.989Z" stroke="white" stroke-width="0.5"/>
<path d="M54.1833 60.135L57.4094 62.3612C57.3212 62.7194 57.2834 63.1033 57.2834 63.4743C57.2834 66.0203 59.2492 68.093 61.7192 68.2337C60.3078 68.7455 59.3248 69.9609 59.3248 71.3811C59.3248 71.6114 59.5139 71.7905 59.7281 71.7905C59.9549 71.7905 60.1314 71.5986 60.1314 71.3811C60.1314 69.9609 61.505 68.7966 63.2062 68.7966C63.2692 68.7966 63.3322 68.7838 63.3826 68.7583C63.4078 68.7583 63.4204 68.771 63.4456 68.771H64.9956C65.1595 68.8094 65.5753 69.3212 65.84 69.8458C65.9156 69.9865 66.0542 70.0761 66.2054 70.0761H66.218C66.3692 70.0761 66.5205 69.9737 66.5835 69.833C66.8355 69.27 67.2388 68.7838 67.3774 68.7838H68.8896C68.9274 68.7838 68.9526 68.7838 68.9904 68.771C69.0534 68.7966 69.1164 68.8222 69.1794 68.8222C70.8807 68.8222 72.2543 69.9865 72.2543 71.4066C72.2543 71.6369 72.4433 71.8161 72.6575 71.8161C72.8844 71.8161 73.0608 71.6241 73.0608 71.4066C73.0608 69.9865 72.0652 68.7711 70.6664 68.2593C73.1238 68.1058 75.0771 66.0331 75.0771 63.4999C75.0771 63.1288 75.0267 62.745 74.951 62.3868L78.1645 60.1606C78.3535 60.0327 78.4039 59.7768 78.2779 59.5849C78.1519 59.393 77.8999 59.3418 77.7108 59.4697L73.1994 62.5787C73.0104 62.7066 72.96 62.9625 73.086 63.1544C73.1616 63.2696 73.3002 63.3335 73.4262 63.3335C73.5018 63.3335 73.5901 63.308 73.6531 63.2568L74.2075 62.873C74.2327 63.0777 74.258 63.2696 74.258 63.4743C74.258 65.6493 72.5189 67.4149 70.3766 67.4149C70.0112 67.4149 69.6457 67.3637 69.2929 67.2613V64.9072C69.5953 65.1247 69.9733 65.2527 70.3766 65.2527C71.41 65.2527 72.2543 64.3955 72.2543 63.3463C72.2543 62.9113 72.103 62.5019 71.851 62.1693L77.7234 57.8321C77.9125 57.6913 77.9503 57.4355 77.8117 57.2563C77.673 57.0772 77.421 57.026 77.2446 57.1668L70.9815 61.7983C70.9689 61.7983 70.9689 61.811 70.9689 61.811C70.9563 61.8238 70.9437 61.8238 70.9311 61.8366C70.9185 61.8494 70.9059 61.8622 70.9059 61.875C70.9059 61.8878 70.8933 61.8878 70.8933 61.9006C70.8933 61.9006 70.8933 61.9134 70.8807 61.9134C70.8681 61.9262 70.8681 61.939 70.8555 61.9518C70.8555 61.9646 70.8429 61.9774 70.8429 61.9902C70.8429 62.003 70.8303 62.0157 70.8303 62.0285C70.8303 62.0413 70.8177 62.0541 70.8177 62.0669C70.8177 62.0797 70.8177 62.0925 70.8177 62.1053C70.8177 62.1181 70.8177 62.1309 70.8177 62.1437C70.8177 62.1565 70.8177 62.1693 70.8177 62.1821C70.8177 62.1949 70.8177 62.2077 70.8177 62.2205C70.8177 62.2332 70.8303 62.246 70.8303 62.2588C70.8303 62.2716 70.8429 62.2844 70.8429 62.2972C70.8429 62.31 70.8555 62.3228 70.8555 62.3356C70.8681 62.3484 70.8681 62.3612 70.8807 62.374V62.3868L70.8933 62.3996C70.9059 62.4124 70.9185 62.4252 70.9311 62.4508C70.9437 62.4635 70.9437 62.4635 70.9563 62.4763L70.9689 62.4891C71.2587 62.6938 71.4226 63.0265 71.4226 63.3719C71.4226 63.9733 70.9437 64.4466 70.364 64.4466C69.7717 64.4466 69.2929 63.9605 69.2929 63.3719C69.2929 63.3335 69.2802 63.2952 69.2802 63.2568V63.1672C69.2802 62.9369 69.0912 62.7578 68.877 62.7578H67.8815C67.9193 60.9666 68.3351 59.7768 69.1164 59.2266C69.1668 59.4313 69.2424 59.636 69.3811 59.8152C69.6205 60.1094 69.9481 60.3013 70.3262 60.3397C70.3388 60.3397 70.364 60.3397 70.3766 60.3397C70.5782 60.3397 70.7547 60.1862 70.7799 59.9687C70.8051 59.7384 70.6412 59.5337 70.4144 59.5081C70.2632 59.4953 70.1246 59.4057 70.0238 59.2906C69.9355 59.1755 69.8977 59.0475 69.8977 58.9068C70.8681 58.7405 71.8636 59.2394 71.8762 59.2394C71.9014 59.2522 71.914 59.2522 71.9392 59.265C71.9392 59.265 71.9392 59.265 71.9518 59.265C71.9896 59.2778 72.0148 59.2778 72.0526 59.2778H72.0652C72.0778 59.2778 72.0778 59.2778 72.0904 59.2778C72.103 59.2778 72.1283 59.2778 72.1409 59.2778C72.1535 59.2778 72.1661 59.2778 72.1787 59.265C72.1913 59.265 72.2165 59.2522 72.2291 59.2394C72.2417 59.2394 72.2417 59.2394 72.2543 59.2266C72.2543 59.2266 72.2543 59.2266 72.2669 59.2266C72.2795 59.2138 72.2921 59.2138 72.3047 59.201C72.3173 59.1882 72.3299 59.1882 72.3299 59.1755C72.3425 59.1627 72.3551 59.1627 72.3551 59.1499C72.3677 59.1371 72.3803 59.1243 72.3803 59.1243C72.3929 59.1115 72.3929 59.1115 72.4055 59.0987C72.4181 59.0859 72.4181 59.0731 72.4307 59.0603C72.4307 59.0603 72.4307 59.0603 72.4307 59.0475C72.4307 59.0347 72.4307 59.0347 72.4433 59.0219C72.4433 59.0091 72.4559 58.9963 72.4559 58.9835C72.4559 58.9707 72.4559 58.958 72.4685 58.9452C72.4685 58.9324 72.4685 58.9196 72.4811 58.9068C72.4811 58.894 72.4811 58.8812 72.4811 58.8684C72.4811 58.8556 72.4811 58.8428 72.4811 58.83C72.4811 58.8172 72.4811 58.8044 72.4685 58.7916C72.4685 58.7788 72.4685 58.766 72.4559 58.7532C72.4559 58.7405 72.4433 58.7277 72.4433 58.7149C72.4433 58.7021 72.4433 58.7021 72.4307 58.6893C72.3929 58.6125 71.4352 56.7062 69.8599 56.7062C68.3981 56.7062 67.3396 57.2052 66.5835 58.2287C66.4448 58.4078 66.4827 58.6765 66.6717 58.8044C66.8481 58.9452 67.1127 58.9068 67.2388 58.7149C67.8184 57.9216 68.6754 57.525 69.8473 57.525C70.2884 57.525 70.679 57.7809 70.9941 58.088C70.3262 57.9728 69.4945 57.9856 68.751 58.4462C67.6672 59.1243 67.1001 60.57 67.0497 62.7322H66.7599C66.6465 58.6765 65.1973 56.6934 62.3241 56.6934C60.7488 56.6934 59.7911 58.5869 59.7533 58.6765C59.7533 58.6893 59.7533 58.6893 59.7407 58.7021C59.7407 58.7149 59.7281 58.7277 59.7281 58.7404C59.7281 58.7532 59.7281 58.766 59.7155 58.7788C59.7155 58.7916 59.7155 58.8044 59.7029 58.8172C59.7029 58.83 59.7029 58.8428 59.7029 58.8556C59.7029 58.8684 59.7029 58.8812 59.7029 58.894C59.7029 58.9068 59.7029 58.9196 59.7155 58.9324C59.7155 58.9452 59.7155 58.958 59.7281 58.9707C59.7281 58.9835 59.7407 58.9963 59.7407 59.0091C59.7407 59.0219 59.7407 59.0219 59.7533 59.0347C59.7533 59.0347 59.7533 59.0347 59.7533 59.0475C59.7659 59.0603 59.7659 59.0731 59.7785 59.0859C59.7911 59.0987 59.7911 59.1115 59.8037 59.1243C59.8163 59.1371 59.8163 59.1371 59.8289 59.1499C59.8415 59.1627 59.8541 59.1755 59.8667 59.1882C59.8793 59.1882 59.8793 59.201 59.8919 59.201C59.9045 59.2138 59.9171 59.2266 59.9423 59.2266C59.9549 59.2266 59.9549 59.2266 59.9675 59.2394C59.9801 59.2522 60.0053 59.2522 60.0179 59.265C60.0305 59.265 60.0305 59.265 60.0431 59.265C60.0557 59.265 60.081 59.2778 60.0936 59.2778C60.1062 59.2778 60.1062 59.2778 60.1188 59.2778C60.1314 59.2778 60.1566 59.2778 60.1692 59.2778C60.1818 59.2778 60.1818 59.2778 60.1944 59.2778C60.207 59.2778 60.2322 59.265 60.2448 59.265C60.2574 59.265 60.2574 59.2522 60.27 59.2522C60.2826 59.2522 60.2952 59.2394 60.3078 59.2394C60.3204 59.2394 61.3159 58.7405 62.2863 58.9068C62.2863 59.0475 62.2485 59.1755 62.1602 59.2906C62.0594 59.4185 61.9208 59.4953 61.7696 59.5081C61.5428 59.5337 61.3789 59.7384 61.4041 59.9687C61.4293 60.1862 61.6058 60.3397 61.8074 60.3397C61.82 60.3397 61.8326 60.3397 61.8578 60.3397C62.2359 60.3013 62.5635 60.1094 62.8029 59.8152C62.9416 59.636 63.0298 59.4441 63.0676 59.2266C63.8489 59.7768 64.2647 60.9538 64.3025 62.7578H63.4204C63.1936 62.7578 63.0172 62.9497 63.0172 63.1672V63.3719C63.0172 63.9733 62.5383 64.4466 61.946 64.4466C61.3537 64.4466 60.8875 63.9605 60.8875 63.3719C60.8875 63.0137 61.0639 62.681 61.3411 62.4891L61.3537 62.4763C61.3663 62.4635 61.3663 62.4635 61.3789 62.4508C61.3915 62.438 61.4041 62.4252 61.4167 62.3996L61.4293 62.3868V62.374C61.4419 62.3612 61.4419 62.3484 61.4545 62.3356C61.4545 62.3228 61.4671 62.31 61.4671 62.2972C61.4671 62.2844 61.4797 62.2716 61.4797 62.2588C61.4797 62.246 61.4924 62.2332 61.4924 62.2205C61.4924 62.2077 61.4924 62.1949 61.4924 62.1821C61.4924 62.1693 61.4924 62.1565 61.4924 62.1437C61.4924 62.1309 61.4924 62.1181 61.4924 62.1053C61.4924 62.0925 61.4924 62.0797 61.4924 62.0669C61.4924 62.0541 61.4924 62.0413 61.4797 62.0285C61.4797 62.0157 61.4671 62.003 61.4671 61.9902C61.4671 61.9774 61.4545 61.9646 61.4545 61.9518C61.4419 61.939 61.4419 61.9262 61.4293 61.9134C61.4293 61.9134 61.4293 61.9006 61.4167 61.9006C61.4167 61.8878 61.4041 61.8878 61.4041 61.875C61.3915 61.8622 61.3915 61.8494 61.3789 61.8366C61.3663 61.8238 61.3537 61.811 61.3411 61.811C61.3285 61.811 61.3285 61.7983 61.3285 61.7983L55.1032 57.1412C54.9142 57.0005 54.6622 57.0516 54.5362 57.2307C54.3975 57.4227 54.448 57.6785 54.6244 57.8065L60.4968 62.1437C60.2322 62.4763 60.0936 62.8858 60.0936 63.3208C60.0936 64.3699 60.9379 65.2271 61.9712 65.2271C62.3619 65.2271 62.7273 65.0991 63.0424 64.8944V67.2486C62.7021 67.3509 62.3367 67.4021 61.9712 67.4021C59.8289 67.4021 58.0899 65.6365 58.0899 63.4615C58.0899 63.2568 58.1025 63.0521 58.1403 62.8602L58.7074 63.244C58.783 63.2952 58.8586 63.3208 58.9342 63.3208C59.0602 63.3208 59.1988 63.2568 59.2744 63.1416C59.4005 62.9497 59.35 62.6938 59.161 62.5659L54.6496 59.4441C54.4606 59.3162 54.2085 59.3674 54.0825 59.5593C53.9565 59.7512 53.9943 60.0071 54.1833 60.135ZM68.4737 67.9266H67.3648C66.8733 67.9266 66.4575 68.3744 66.1802 68.8094C65.8778 68.3744 65.4619 67.9266 64.9956 67.9266H63.8489V63.551H68.4611V67.9266H68.4737ZM63.4582 58.4334C62.7147 57.9728 61.883 57.96 61.2151 58.0752C61.5176 57.7681 61.9082 57.5122 62.3619 57.5122C63.9875 57.5122 65.8526 58.1135 65.9786 62.7194H65.1595C65.1091 60.5572 64.542 59.1115 63.4582 58.4334Z" stroke="white" stroke-width="0.5"/>
<path d="M56.1366 63.2824C56.187 63.308 56.2374 63.3208 56.3004 63.3208C56.4642 63.3208 56.6155 63.2312 56.6785 63.0649C56.7667 62.8474 56.6659 62.6043 56.4642 62.5147L54.574 61.7215C54.3597 61.6319 54.1203 61.7343 54.0321 61.939C53.9439 62.1565 54.0447 62.3996 54.2463 62.4891L56.1366 63.2824Z" stroke="white" stroke-width="0.5"/>
<path d="M57.0187 67.9138C57.0817 67.9138 57.1447 67.901 57.2077 67.8627L57.8756 67.5172C58.0773 67.4149 58.1529 67.159 58.0521 66.9543C57.9513 66.7496 57.6992 66.6728 57.4976 66.7752L56.8297 67.1206C56.6281 67.223 56.5525 67.4788 56.6533 67.6835C56.7163 67.8243 56.8675 67.9138 57.0187 67.9138Z" stroke="white" stroke-width="0.5"/>
<path d="M59.4005 67.9522C59.2366 67.7987 58.972 67.7987 58.8208 67.965L58.4553 68.3616C58.3041 68.528 58.3041 68.7966 58.4679 68.9502C58.5435 69.0269 58.6443 69.0653 58.7452 69.0653C58.8586 69.0653 58.9594 69.0269 59.0476 68.9374L59.4131 68.5408C59.5643 68.3744 59.5643 68.1186 59.4005 67.9522Z" stroke="white" stroke-width="0.5"/>
<path d="M57.1825 65.6237C57.1195 65.4062 56.8801 65.2783 56.6659 65.355L55.3175 65.7772C55.1032 65.8412 54.9772 66.0715 55.0528 66.3018C55.1032 66.4809 55.2671 66.5961 55.4435 66.5961C55.4813 66.5961 55.5191 66.5961 55.5695 66.5833L56.9179 66.1611C57.1321 66.0715 57.2582 65.8412 57.1825 65.6237Z" stroke="white" stroke-width="0.5"/>
<path d="M56.2878 64.7281C56.5146 64.7281 56.6911 64.5362 56.6911 64.3187C56.6911 64.0884 56.502 63.9093 56.2878 63.9093H54.5992C54.3723 63.9093 54.1959 64.1012 54.1959 64.3187C54.1959 64.549 54.3849 64.7281 54.5992 64.7281H56.2878Z" stroke="white" stroke-width="0.5"/>
<path d="M78.3157 61.939C78.2275 61.7215 77.9881 61.6319 77.7739 61.7215L75.8962 62.5147C75.682 62.6043 75.5937 62.8474 75.682 63.0649C75.745 63.2184 75.8962 63.3208 76.06 63.3208C76.1104 63.3208 76.1608 63.308 76.2238 63.2824L78.1015 62.4891C78.3031 62.3996 78.4039 62.1565 78.3157 61.939Z" stroke="white" stroke-width="0.5"/>
<path d="M75.5307 67.1206L74.8628 66.7752C74.6612 66.6728 74.4092 66.7496 74.3084 66.9543C74.2075 67.159 74.2832 67.4149 74.4848 67.5172L75.1527 67.8627C75.2157 67.8883 75.2787 67.9138 75.3417 67.9138C75.4929 67.9138 75.6315 67.8243 75.7072 67.6835C75.808 67.4788 75.7324 67.223 75.5307 67.1206Z" stroke="white" stroke-width="0.5"/>
<path d="M72.96 67.9522C72.7961 68.1058 72.7835 68.3744 72.9474 68.5408L73.3128 68.9374C73.3884 69.0269 73.5018 69.0653 73.6153 69.0653C73.7161 69.0653 73.8169 69.0269 73.8925 68.9502C74.0563 68.7966 74.0689 68.528 73.9051 68.3616L73.5397 67.965C73.3758 67.8115 73.1238 67.7987 72.96 67.9522Z" stroke="white" stroke-width="0.5"/>
<path d="M77.0303 65.7772L75.682 65.355C75.4677 65.291 75.2409 65.4062 75.1653 65.6237C75.1023 65.8412 75.2157 66.0715 75.4299 66.1483L76.7783 66.5705C76.8161 66.5833 76.8539 66.5833 76.9043 66.5833C77.0807 66.5833 77.2446 66.4681 77.295 66.289C77.3706 66.0715 77.2446 65.8412 77.0303 65.7772Z" stroke="white" stroke-width="0.5"/>
<path d="M77.7486 63.8965H76.06C75.8332 63.8965 75.6567 64.0884 75.6567 64.3059C75.6567 64.5362 75.8458 64.7153 76.06 64.7153H77.7486C77.9755 64.7153 78.1519 64.5234 78.1519 64.3059C78.1645 64.0884 77.9755 63.8965 77.7486 63.8965Z" stroke="white" stroke-width="0.5"/>
<path d="M64.9452 55.7594C64.7184 55.7594 64.542 55.9513 64.542 56.1688C64.542 56.3991 64.731 56.5782 64.9452 56.5782H67.2892C67.516 56.5782 67.6924 56.3863 67.6924 56.1688C67.6924 55.9385 67.5034 55.7594 67.2892 55.7594H64.9452Z" stroke="white" stroke-width="0.5"/>
<path d="M65.2099 55.3116H66.9993C67.7554 55.3116 68.3855 54.6847 68.3855 53.9043C68.3855 53.1366 67.768 52.4969 66.9993 52.4969C66.6717 52.4969 66.3566 52.6888 66.092 52.9191C65.8778 52.7144 65.6005 52.4969 65.2099 52.4969C64.4538 52.4969 63.8237 53.1238 63.8237 53.9043C63.8363 54.6847 64.4538 55.3116 65.2099 55.3116ZM65.2099 53.3413C65.3233 53.3413 65.4745 53.4821 65.6131 53.6228C65.6887 53.6996 65.7644 53.7763 65.84 53.8275C65.9156 53.8787 66.0038 53.9171 66.092 53.9171C66.2558 53.9171 66.3566 53.8275 66.4448 53.7379C66.8103 53.3797 66.9615 53.3413 66.9993 53.3413C67.3144 53.3413 67.5664 53.5972 67.5664 53.9171C67.5664 54.2369 67.3144 54.4928 66.9993 54.4928H65.2099C64.8948 54.4928 64.6428 54.2369 64.6428 53.9171C64.6554 53.5972 64.9074 53.3413 65.2099 53.3413Z" stroke="white" stroke-width="0.5"/>
<path d="M66.1046 52.1259C66.407 52.1259 66.6591 51.87 66.6591 51.5629C66.6591 51.2559 66.407 51 66.1046 51C65.8022 51 65.5501 51.2559 65.5501 51.5629C65.5501 51.8828 65.8022 52.1259 66.1046 52.1259Z" stroke="white" stroke-width="0.5"/>
<path d="M75.2787 70.5366C74.9763 70.5366 74.7242 70.7925 74.7242 71.0996C74.7242 71.4066 74.9763 71.6625 75.2787 71.6625C75.5811 71.6625 75.8332 71.4066 75.8332 71.0996C75.8332 70.7925 75.5811 70.5366 75.2787 70.5366Z" stroke="white" stroke-width="0.5"/>
<path d="M74.7368 72.2511C73.7917 72.2511 72.9852 72.814 72.6197 73.6328L69.6457 72.4302V71.4706C69.6457 71.2403 69.4567 71.0612 69.2424 71.0612C69.0156 71.0612 68.8392 71.2531 68.8392 71.4706V72.7116C68.8392 72.878 68.94 73.0315 69.0912 73.0955L72.4181 74.4389C72.4181 74.49 72.4055 74.554 72.4055 74.6052C72.4055 75.9102 73.4514 76.9721 74.7368 76.9721C76.0222 76.9721 77.0681 75.9102 77.0681 74.6052C77.0681 73.313 76.0222 72.2511 74.7368 72.2511ZM74.7368 76.1533C73.9051 76.1533 73.2246 75.4624 73.2246 74.618C73.2246 73.7736 73.9051 73.0827 74.7368 73.0827C75.5685 73.0827 76.249 73.7736 76.249 74.618C76.249 75.4624 75.5685 76.1533 74.7368 76.1533Z" stroke="white" stroke-width="0.5"/>
<path d="M59.5139 74.5796L63.2062 73.1083C63.3574 73.0443 63.4708 72.8908 63.4708 72.7244V71.4834C63.4708 71.2531 63.2818 71.074 63.0676 71.074C62.8407 71.074 62.6643 71.2659 62.6643 71.4834V72.443L59.0728 73.8887L55.2041 68.029C55.078 67.8371 54.826 67.7859 54.637 67.9138C54.448 68.0418 54.3975 68.2977 54.5236 68.4896L58.2663 74.183L58.1529 74.2342C57.9386 74.3237 57.8378 74.554 57.926 74.7715C57.9891 74.9378 58.1403 75.0402 58.3041 75.0402C58.3545 75.0402 58.4049 75.0274 58.4553 75.0146L58.7326 74.8994L59.3753 75.8718C59.4509 75.9869 59.5895 76.0509 59.7155 76.0509C59.7911 76.0509 59.8667 76.0253 59.9423 75.9869C60.1314 75.859 60.1818 75.6031 60.0557 75.4112L59.5139 74.5796Z" stroke="white" stroke-width="0.5"/>
</svg>
