<svg width="179" height="36" viewBox="0 0 179 36" fill="none" xmlns="http://www.w3.org/2000/svg">
<path fill-rule="evenodd" clip-rule="evenodd" d="M52.3361 4.73714C51.817 5.47746 51.3208 6.46767 50.9249 7.60873C49.6731 11.2226 48.5427 16.2298 48.0386 20.7525C48.0229 20.8933 48.0076 21.0338 47.9928 21.1736C48.3956 20.9984 48.8366 20.8121 49.3056 20.6225C51.2228 19.8473 53.6574 18.9948 55.8721 18.6262C55.6699 13.1302 55.4518 8.02943 55.3016 6.73599C55.1134 5.11167 54.7728 4.19061 54.4381 3.73765C54.2803 3.52408 54.1489 3.44817 54.0652 3.42028C53.9859 3.39387 53.8797 3.38687 53.7216 3.44277C53.3659 3.5685 52.8717 3.97319 52.3361 4.73714ZM55.9289 20.1918C53.9408 20.5478 51.7176 21.3212 49.8838 22.0627C49.1016 22.379 48.3988 22.6858 47.8266 22.9455C47.4735 27.246 47.538 30.7665 47.5549 31.6919C47.5569 31.7977 47.5582 31.8696 47.5582 31.9048H46.0109C46.0109 31.8748 46.0097 31.8104 46.0079 31.7141C45.9921 30.8744 45.9306 27.6093 46.229 23.5348C46.1794 23.4368 46.0941 23.2685 45.9479 22.9798C45.5973 22.2878 45.5975 22.2877 45.5975 22.2877L45.603 22.2849L45.6176 22.2775C45.6303 22.2711 45.6487 22.2618 45.6727 22.2498C45.7207 22.2258 45.7909 22.1909 45.8814 22.1465C46.0056 22.0855 46.1681 22.0067 46.3641 21.9137C46.4052 21.4748 46.4506 21.0295 46.501 20.5796C47.0169 15.9513 48.171 10.8301 49.4635 7.09856C49.8967 5.85023 50.4531 4.72455 51.0706 3.84373C51.6716 2.98654 52.398 2.26447 53.2075 1.9783C53.632 1.82826 54.0945 1.79404 54.5527 1.94669C55.0065 2.09785 55.3813 2.40727 55.681 2.81289C56.2613 3.59829 56.6409 4.85116 56.8385 6.55645C57.0256 8.16831 57.3001 15.1208 57.5273 21.6091C57.6413 24.8669 57.744 28.0263 57.8181 30.3712C57.8552 31.5436 57.8851 32.5125 57.9058 33.1883C57.9161 33.5262 57.9241 33.7909 57.9296 33.971L57.9378 34.2459L57.9379 34.2468C57.9379 34.2468 57.9379 34.247 57.1646 34.2703C56.3913 34.2935 56.3913 34.2932 56.3913 34.2932L56.3913 34.2924L56.383 34.018C56.3776 33.8381 56.3696 33.5736 56.3592 33.236C56.3386 32.5606 56.3087 31.5923 56.2716 30.4204C56.1975 28.0766 56.0949 24.9191 55.981 21.6636C55.9638 21.174 55.9464 20.6826 55.9289 20.1918ZM39.669 11.1812L39.4935 2.34863L41.0405 2.31768L41.2031 10.5037C41.549 10.3432 41.8806 10.1827 42.182 10.0273C42.507 9.85971 42.7876 9.70279 43.0093 9.56232C43.2427 9.41444 43.3671 9.31179 43.4155 9.25955L44.5492 10.3162C44.3606 10.5199 44.098 10.7088 43.8354 10.8752C43.5611 11.049 43.2368 11.2291 42.8892 11.4083C42.3852 11.6682 41.8126 11.9363 41.2367 12.1927L41.6231 31.6402L40.0761 31.6711L39.7022 12.8495C39.2449 13.0386 38.8239 13.2075 38.4785 13.3439C38.1989 13.4543 37.9682 13.5437 37.8071 13.6056C37.7266 13.6366 37.6634 13.6607 37.6202 13.6771L37.5706 13.6959L37.5533 13.7024C37.5533 13.7024 37.5529 13.7026 37.2813 12.9757L37.0098 12.2487L37.0252 12.2429L37.0722 12.2251C37.1137 12.2093 37.1751 12.1859 37.2537 12.1557C37.411 12.0952 37.6372 12.0076 37.9118 11.8991C38.3889 11.7107 39.0103 11.4602 39.669 11.1812ZM73.1397 31.6711L72.559 2.34858L74.1059 2.31773L74.6866 31.6402L73.1397 31.6711ZM1.28387 9.53521C1.29384 11.7947 1.30455 14.5246 1.31213 17.2716C1.32133 20.6011 1.32592 23.9544 1.31903 26.5251C1.31558 27.8108 1.30927 28.8986 1.29927 29.6891C1.29426 30.0848 1.28836 30.4028 1.28155 30.6326C1.27692 30.7892 1.2722 30.8798 1.26993 30.9234C1.26833 30.954 1.26795 30.9614 1.26966 30.9521L1.26934 30.9538C1.26934 30.9538 1.26856 30.9584 1.2634 30.967C1.25714 30.9775 1.24331 30.9966 1.21545 31.0225C1.15574 31.0782 1.06033 31.1389 0.933181 31.1958C0.809886 31.251 0.68403 31.2906 0.586028 31.3163C0.538155 31.3289 0.499651 31.3375 0.474937 31.3426C0.462645 31.3452 0.453961 31.3468 0.449455 31.3477C0.449455 31.3477 0.449292 31.3478 0.575034 32.1138C0.700776 32.8798 0.701223 32.8797 0.701223 32.8797L0.702751 32.8794L0.705223 32.879L0.71163 32.8779C0.716542 32.8771 0.722731 32.876 0.730116 32.8746C0.744877 32.8719 0.764488 32.8681 0.78831 32.8631C0.835825 32.8533 0.900831 32.8386 0.978075 32.8183C1.13031 32.7783 1.34113 32.7134 1.56358 32.6138C1.95118 32.4403 2.64607 32.0389 2.79187 31.2303C2.81414 31.1067 2.82205 30.884 2.82813 30.6788C2.83533 30.4358 2.84135 30.1076 2.8464 29.7088C2.8565 28.9105 2.86283 27.8165 2.86628 26.5293C2.87139 24.6238 2.8702 22.2902 2.8655 19.856C2.959 19.9561 3.06298 20.0723 3.17376 20.204C3.62492 20.7407 4.17971 21.5247 4.60065 22.5156C5.12125 23.741 5.66843 25.2528 6.23876 26.8285C6.39583 27.2625 6.55467 27.7013 6.71518 28.1403C7.44884 30.1469 8.21955 32.163 8.99297 33.6146C9.48844 34.5432 10.1348 35.1347 10.6639 35.4945C10.9278 35.6739 11.1632 35.7963 11.3381 35.8756C11.4257 35.9153 11.4985 35.9444 11.5528 35.9646C11.58 35.9747 11.6026 35.9826 11.6201 35.9885C11.6288 35.9914 11.6363 35.9939 11.6425 35.9958L11.6507 35.9984L11.6541 35.9995L11.6556 36C11.6556 36 11.657 36.0004 11.8815 35.2574C12.106 34.5145 12.1066 34.5147 12.1066 34.5147L12.1084 34.5152L12.1103 34.5158L12.1121 34.5164C12.1093 34.5155 12.1019 34.5129 12.0904 34.5086C12.0673 34.5001 12.0277 34.4845 11.975 34.4606C11.8693 34.4127 11.7129 34.3323 11.5318 34.2091C11.1708 33.9636 10.7139 33.5504 10.3574 32.8825C9.64282 31.5412 8.90639 29.6257 8.16776 27.6055C8.01261 27.1812 7.85741 26.7523 7.70259 26.3245C7.13005 24.7424 6.56288 23.1752 6.02397 21.9067C5.52803 20.7392 4.8794 19.8249 4.35636 19.2028C4.27936 19.1112 4.2049 19.0257 4.13381 18.9465C4.40411 18.7586 4.72737 18.5218 5.08642 18.2354C6.12343 17.4084 7.46791 16.1609 8.6967 14.4771C10.5335 11.9588 11.4948 9.7666 11.7489 7.97621C12.004 6.1791 11.5476 4.69176 10.4249 3.82346C9.32148 2.97005 7.7882 2.88331 6.24249 3.39787C5.12325 3.77046 3.94959 4.46875 2.81191 5.49653C2.81133 5.38363 2.81078 5.27654 2.81025 5.17554C2.80839 4.816 2.80688 4.53371 2.80584 4.3413L2.80422 4.04661C2.80422 4.04661 2.80422 4.04631 2.0306 4.05068C1.25699 4.05504 1.25699 4.05534 1.25699 4.05534L1.2586 4.34974C1.25964 4.54204 1.26115 4.82421 1.26302 5.18364C1.26564 5.68909 1.26898 6.34731 1.27272 7.12322C1.1434 7.27919 1.02028 7.43078 0.897904 7.58144C0.616641 7.92772 0.339362 8.26909 0 8.64748L1.15007 9.68616C1.19492 9.63615 1.23953 9.5858 1.28387 9.53521ZM2.86116 17.9325C2.89146 17.913 2.92362 17.8921 2.95756 17.8698C3.24045 17.6839 3.64585 17.401 4.12372 17.0199C5.08096 16.2565 6.32001 15.1059 7.4484 13.5597C9.19983 11.1584 10.0117 9.20485 10.2171 7.7573C10.4216 6.31645 10.0239 5.47358 9.4804 5.05327C8.91768 4.61805 7.97272 4.45776 6.72966 4.87157C5.54105 5.26725 4.16144 6.17048 2.82272 7.69223C2.82344 7.84425 2.82417 7.99993 2.82491 8.15906C2.8364 10.6316 2.85019 13.9368 2.85939 17.2673C2.86 17.489 2.86059 17.7108 2.86116 17.9325ZM32.2715 13.5019C31.9622 13.4323 31.4773 13.4817 30.7399 13.895C30.4866 14.0368 30.1801 14.3759 29.8636 15.0089C29.5552 15.6257 29.2795 16.4358 29.038 17.3939C28.5555 19.3079 28.2364 21.701 28.0275 24.0627C27.8191 26.4183 27.7228 28.7147 27.6786 30.4242C27.6565 31.2784 27.6475 31.9846 27.644 32.4766C27.6433 32.5779 27.6428 32.6701 27.6425 32.7526L27.6425 33.2403L27.6425 33.2429L27.6425 33.2485L26.0953 33.2542L26.8689 33.2486C26.0953 33.2542 26.0953 33.2542 26.0953 33.2542L26.0953 33.253L26.0952 33.2399L26.095 33.1999C26.0949 33.1649 26.0947 33.1134 26.0947 33.0463C26.0946 32.968 26.0947 32.8687 26.0952 32.7498L26.0933 13.2173L27.6406 13.2171L27.6409 16.6202C27.8756 15.7585 28.1519 14.9701 28.4806 14.3126C28.8507 13.5725 29.3329 12.9049 29.9855 12.5393C30.9042 12.0244 31.7895 11.8022 32.61 11.9868C33.4468 12.1751 34.0458 12.7469 34.4632 13.4532C35.2663 14.812 35.5703 16.9567 35.6675 19.1901C35.7665 21.4667 35.6536 24.002 35.5171 26.2521C35.4766 26.9198 35.4343 27.5588 35.3947 28.1582C35.299 29.605 35.2185 30.8219 35.2145 31.6593L33.6673 31.6519C33.6715 30.7637 33.7572 29.4685 33.8547 27.9934C33.8936 27.4053 33.9344 26.7886 33.9727 26.1577C34.1088 23.9154 34.217 21.4483 34.1217 19.2578C34.0245 17.0242 33.7187 15.2372 33.1324 14.2453C32.8552 13.7762 32.5647 13.5678 32.2715 13.5019ZM22.767 14.3924C23.1496 15.6146 23.0457 17.2105 22.3479 19.0792C22.0283 19.9352 21.4795 20.8831 20.8157 21.7347C20.1538 22.584 19.3415 23.3838 18.4703 23.9046C17.6086 24.4197 16.5676 24.7285 15.5505 24.3438C15.4979 24.3239 15.4459 24.3024 15.3948 24.2793C15.3952 24.2962 15.3956 24.3132 15.3961 24.3301C15.4549 26.5649 15.7957 28.6759 16.3961 30.1476C16.697 30.8852 17.0394 31.4031 17.3904 31.7085C17.7171 31.9928 18.0468 32.0943 18.4278 32.0323C18.8479 31.9639 19.4251 31.6798 20.1619 30.9746C20.8926 30.2751 21.7294 29.2098 22.6693 27.684L23.9854 28.5003C23.006 30.0904 22.0898 31.275 21.2298 32.0981C20.376 32.9154 19.525 33.4266 18.6756 33.5649C17.7871 33.7095 17.0059 33.4291 16.3767 32.8815C15.7717 32.3551 15.3131 31.5912 14.9642 30.7359C14.2649 29.0218 13.9107 26.7021 13.8493 24.3712C13.8353 23.8363 13.8365 23.2968 13.853 22.7593C13.6466 22.3928 13.4673 21.973 13.3143 21.5037L13.9364 21.2995C14.0457 20.0002 14.2477 18.751 14.5422 17.6526C15.5783 13.7842 18.0607 11.7288 20.3259 12.1172C21.4774 12.3147 22.3766 13.1451 22.767 14.3924ZM15.4183 22.3342C15.4935 20.7882 15.7029 19.2995 16.0363 18.0558C16.9964 14.4714 19.002 13.4654 20.0653 13.6477C20.5781 13.7356 21.0533 14.0986 21.2909 14.8577C21.5364 15.642 21.5222 16.8655 20.899 18.5344C20.6446 19.2158 20.1825 20.0268 19.597 20.7781C19.0097 21.5316 18.3343 22.1786 17.6784 22.5707C17.0129 22.9685 16.487 23.0388 16.0963 22.8909C15.893 22.814 15.6565 22.6517 15.4183 22.3342ZM68.5703 16.069V15.4887H67.0231V16.2274L67.0398 16.3065L67.0403 16.3091L67.0429 16.3218C67.0453 16.3338 67.0491 16.3525 67.054 16.3779C67.0638 16.4286 67.0783 16.5057 67.096 16.6072C67.1315 16.8102 67.1802 17.1104 67.2311 17.4922C67.3329 18.2561 67.4434 19.3433 67.4763 20.6274C67.5424 23.2055 67.2947 26.5289 66.0764 29.6179C65.4453 31.2173 64.7909 31.4694 64.5107 31.4655C64.1897 31.461 63.6491 31.1337 63.2545 30.161C62.5321 28.3787 62.1133 25.6736 61.9423 22.9789C61.7719 20.294 61.8538 17.7289 62.0799 16.2651L60.5509 16.0272C60.3014 17.642 60.2238 20.3291 60.3982 23.0776C60.572 25.8161 61.0022 28.7254 61.8213 30.7463C62.3016 31.93 63.2301 33.0004 64.4892 33.018C65.7892 33.0361 66.8263 31.9349 67.5151 30.1894C68.8392 26.8319 69.092 23.2765 69.023 20.5875C68.9884 19.238 68.8724 18.0946 68.7647 17.2863C68.7107 16.8819 68.6588 16.5607 68.62 16.3386C68.6005 16.2276 68.5844 16.1413 68.5728 16.0818C68.572 16.0774 68.5711 16.0731 68.5703 16.069Z" fill="white"/>
<path fill-rule="evenodd" clip-rule="evenodd" d="M70.6166 13.7025C70.6166 13.7025 70.6164 13.7026 70.3449 12.9757L70.0734 12.2487L70.0887 12.2429L70.1358 12.2251C70.1773 12.2093 70.2387 12.1859 70.3173 12.1557C70.4745 12.0952 70.7008 12.0076 70.9754 11.8991C71.5251 11.682 72.2663 11.3825 73.0356 11.052C73.8069 10.7205 74.5961 10.3622 75.2456 10.0273C75.5706 9.85971 75.8512 9.70279 76.0729 9.56233C76.3063 9.41444 76.4307 9.31179 76.479 9.25955L77.6127 10.3162C77.4242 10.5199 77.1616 10.7088 76.899 10.8752C76.6246 11.049 76.3003 11.2291 75.9527 11.4083C75.2569 11.7671 74.4301 12.1417 73.6446 12.4793C72.857 12.8177 72.1007 13.1232 71.542 13.3439C71.2624 13.4543 71.0318 13.5437 70.8707 13.6056C70.7901 13.6366 70.727 13.6607 70.6837 13.6771L70.6342 13.6959L70.6166 13.7025Z" fill="white"/>
<path fill-rule="evenodd" clip-rule="evenodd" d="M81.1083 17.1536C80.542 18.6344 80.2049 20.5969 80.3302 22.8386C80.5533 26.8357 81.1503 29.1991 81.8273 30.3954C82.1626 30.988 82.4619 31.1965 82.6499 31.2587C82.8076 31.3108 83.0177 31.303 83.3223 31.0979C83.992 30.647 84.772 29.452 85.3497 27.6378C85.9137 25.8665 86.2391 23.6439 86.1147 21.3154C85.9461 18.1502 85.38 16.2238 84.7297 15.212C84.4106 14.7155 84.1039 14.489 83.862 14.3995C83.635 14.3155 83.3857 14.3219 83.0932 14.457C82.4564 14.7511 81.6882 15.6374 81.1083 17.1536ZM87.6597 21.2323C87.4864 17.977 86.8998 15.7238 86.03 14.3704C85.5891 13.6844 85.0439 13.1819 84.3972 12.9427C83.7357 12.698 83.06 12.7631 82.4464 13.0465C81.2709 13.5894 80.3023 14.9277 79.6638 16.5972C79.0117 18.3021 78.649 20.4862 78.7854 22.9256C79.0112 26.9706 79.6195 29.6384 80.4818 31.1622C80.9162 31.9297 81.47 32.5034 82.1659 32.7334C82.892 32.9734 83.5965 32.7831 84.1843 32.3873C85.2994 31.6365 86.2158 30.0191 86.8235 28.1104C87.445 26.1587 87.7941 23.7477 87.6597 21.2323Z" fill="white"/>
<path d="M107.404 16.2658L116.085 7.53404H142.253L142.375 7.59566C142.395 7.60528 148.748 10.7264 150.207 16.6278C151.623 22.3617 151.06 30.3311 151.059 30.3542L151.051 30.4447L150.314 32.2392H147.902L148.042 31.5595C148.342 30.0827 148.157 28.5867 147.615 27.2812C147.058 25.943 146.125 24.8109 144.956 24.112C144.029 23.5594 143.03 23.2397 141.928 23.2263C140.804 23.2147 139.556 23.5189 138.147 24.2102C133.955 26.2704 135.046 31.5518 135.048 31.5672L135.178 32.2392H111.927L112.034 31.5845C112.034 31.5768 112.524 28.862 111.339 26.7479C110.348 24.9803 109.004 23.9791 107.588 23.5343C105.863 22.9952 104.017 23.2725 102.549 23.9984C98.1904 26.255 99.2738 31.7424 99.2758 31.7578L99.4002 32.426H96.4254L96.2665 32.2873C96.2589 32.2815 93.6976 30.1693 94.2183 27.133C94.7543 24.0041 95.9143 21.9285 97.685 20.4094C99.4251 18.9152 101.728 17.993 104.596 17.1438L107.404 16.2658ZM143.451 10.8419L141.384 9.5904H130.886L129.347 16.4257H143.848L143.451 10.8419ZM111.217 16.4257H125.499L127.184 9.5904H117.121L111.008 15.7383L111.217 16.4257Z" fill="white"/>
<path d="M105.518 24.7859C106.929 24.7859 108.206 25.3616 109.132 26.2935C110.061 27.2254 110.633 28.5116 110.633 29.9306C110.633 31.3516 110.059 32.6377 109.134 33.5677C108.208 34.4996 106.929 35.0753 105.518 35.0753C104.105 35.0753 102.827 34.4996 101.902 33.5677C100.976 32.6377 100.401 31.3516 100.401 29.9306C100.401 28.5116 100.976 27.2254 101.9 26.2935C102.829 25.3616 104.107 24.7859 105.518 24.7859ZM141.6 24.7859C143.011 24.7859 144.292 25.3616 145.216 26.2915C146.141 27.2254 146.715 28.5116 146.715 29.9306C146.715 31.3496 146.141 32.6358 145.216 33.5677C144.288 34.4996 143.009 35.0753 141.6 35.0753C140.187 35.0753 138.909 34.4996 137.984 33.5677C137.058 32.6377 136.483 31.3516 136.483 29.9306C136.483 28.5116 137.058 27.2254 137.982 26.2935C138.911 25.3616 140.189 24.7859 141.6 24.7859Z" fill="white"/>
<path d="M150.72 7.6669C150.228 7.77087 145.394 8.88377 143.773 12.1666V12.1685C143.419 12.8848 143.162 13.7339 143.049 14.6158C142.911 15.6786 142.98 16.7838 143.333 17.7407C143.664 18.6437 144.259 19.4158 145.191 19.8818C145.622 20.0974 146.125 20.2515 146.705 20.3266C148.392 20.548 150.144 20.2168 151.707 19.4775C153.302 18.7246 154.698 17.5501 155.637 16.1022C155.934 15.6439 156.436 14.2326 156.581 12.6364C156.673 11.6217 156.614 10.555 156.248 9.66549C155.909 8.83948 155.287 8.15403 154.238 7.80168C153.381 7.51286 152.232 7.43777 150.72 7.6669ZM142.431 11.4966C144.472 7.37423 150.438 6.18624 150.456 6.18239L150.498 6.17469C152.253 5.90898 153.635 6.01295 154.713 6.37493C156.231 6.88517 157.136 7.88639 157.632 9.09364C158.099 10.2354 158.182 11.5466 158.07 12.7712C157.902 14.6254 157.27 16.339 156.893 16.9205C155.8 18.6052 154.183 19.9704 152.341 20.8387C150.528 21.6955 148.492 22.0768 146.518 21.8188C145.756 21.7206 145.092 21.5165 144.521 21.2315C143.216 20.5769 142.383 19.5083 141.924 18.2606C141.485 17.0688 141.399 15.7152 141.566 14.4271C141.702 13.3681 142.008 12.3495 142.431 11.4966Z" fill="white"/>
<path fill-rule="evenodd" clip-rule="evenodd" d="M151.334 6.26519C151.864 5.8647 159.15 0.744993 159.15 0.744993C159.15 0.744993 160.766 -0.333248 161.997 0.65257C163.714 2.02155 168.279 8.97041 170.295 11.5177C170.8 12.1531 171.229 13.2333 169.709 14.3135C167.336 15.9963 167.01 16.4661 167.01 16.4661L168.871 17.9179V19.9261L171.168 20.702L170.764 22.639L173.151 23.7269V26.1028L175.276 26.6651L175.104 29.4242L177.389 30.1655L177.026 31.7559L177.895 32.4645C177.895 32.4645 177.818 33.5774 177.898 33.7179C177.979 33.8565 177.361 34.0645 177.361 34.0645L176.181 33.25L176.007 32.0486L174.388 32.2989L174.325 29.765L171.985 29.2432L171.861 26.5207L169.767 25.5368L169.673 23.3861L167.504 23.7269L166.916 20.7733L165.01 21.0505L163.208 18.8998C162.425 19.4852 161.675 20.4151 160.777 20.8079C159.855 21.2123 158.733 21.4433 158.032 20.2014C156.897 18.1874 153.999 14.015 153.999 14.015L150.609 8.83563C150.609 8.83563 149.657 7.16629 151.334 6.26519ZM154.142 7.08349L159.707 3.03047C159.956 2.84756 160.31 2.90339 160.492 3.15562L161.306 4.28585C161.486 4.53808 161.43 4.89236 161.181 5.07527L155.616 9.1283C155.368 9.31121 155.013 9.25345 154.832 9.00314L154.018 7.87292C153.836 7.62069 153.892 7.26641 154.142 7.08349Z" fill="white"/>
<path d="M151.206 6.06687C151.811 5.61439 158.993 0.565926 159.014 0.550523L159.026 0.542822C159.031 0.540897 160.779 -0.625911 162.144 0.467731C163.298 1.38616 165.664 4.70752 167.728 7.60336C168.804 9.11289 169.795 10.505 170.481 11.3695L170.586 11.512C170.829 11.8566 171.026 12.2956 170.996 12.7905C170.965 13.2853 170.71 13.8206 170.056 14.3481C169.989 14.402 169.918 14.454 169.843 14.5079C168.258 15.6324 167.611 16.1927 167.359 16.4372L169.106 17.8023V19.7566L171.442 20.5441L171.034 22.5023L173.387 23.5748V25.9199L175.523 26.4841L175.351 29.2548L177.667 30.0057L177.288 31.6654L178.138 32.3586L178.13 32.4818C178.13 32.4856 178.057 33.5215 178.101 33.5966C178.35 34.0241 177.445 34.284 177.443 34.2859L177.328 34.3283L175.961 33.3867L175.808 32.32L174.158 32.5742L174.095 29.9556L171.757 29.4338L171.631 26.6747L169.537 25.6908L169.449 23.6614L167.314 23.9964L166.729 21.039L164.916 21.3047L163.174 19.2272C162.96 19.4004 162.747 19.5949 162.533 19.7932C162.016 20.2688 161.486 20.7559 160.871 21.0255C160.381 21.2411 159.832 21.4087 159.299 21.3586C158.744 21.3047 158.222 21.0178 157.827 20.3189C156.696 18.3126 153.813 14.1633 153.806 14.1498C152.72 12.4439 151.552 10.6109 150.404 8.95308C150.4 8.94923 149.341 7.08542 151.206 6.06687ZM159.284 0.937535C159.265 0.952938 152.014 6.04762 151.476 6.45581L151.445 6.47506C149.983 7.26063 150.812 8.71433 150.814 8.71818L154.19 13.8802C154.2 13.8918 157.098 18.0642 158.237 20.084C158.543 20.6269 158.934 20.8464 159.343 20.8869C159.778 20.9292 160.253 20.779 160.683 20.5904C161.225 20.3555 161.727 19.8934 162.215 19.4447C162.5 19.1829 162.781 18.9229 163.067 18.7092L163.245 18.5764L165.105 20.7983L167.104 20.5056L167.692 23.4592L169.897 23.1127L169.996 25.3847L172.089 26.3666L172.211 29.0507L174.556 29.5744L174.615 32.0235L176.206 31.7771L176.4 33.1133L177.495 33.8681L177.481 33.8873C177.607 33.9105 177.741 33.9182 177.694 33.8373C177.602 33.6736 177.634 32.8803 177.651 32.5723L176.761 31.8464L177.112 30.3234L174.857 29.5936L175.027 26.8441L172.914 26.2858V23.8809L170.494 22.7776L170.894 20.8599L168.635 20.0975V18.0334L166.69 16.5162L166.813 16.3332C166.813 16.3313 167.163 15.8288 169.573 14.119C169.64 14.0728 169.703 14.0247 169.761 13.9765C170.297 13.5471 170.502 13.1332 170.525 12.7635C170.548 12.3957 170.391 12.0569 170.201 11.7854L170.111 11.6641C169.411 10.7803 168.419 9.38823 167.345 7.88062C165.297 5.00788 162.95 1.71541 161.851 0.837412C160.81 0.00562809 159.426 0.848965 159.284 0.937535ZM154.005 6.89095L159.569 2.83793C159.745 2.70893 159.96 2.66271 160.163 2.69545C160.364 2.72818 160.555 2.83793 160.683 3.017L161.497 4.14722C161.625 4.32628 161.669 4.54193 161.637 4.7441C161.604 4.94627 161.495 5.13881 161.319 5.26782L155.756 9.32084C155.578 9.44984 155.364 9.49413 155.163 9.46332C154.96 9.43059 154.768 9.32084 154.64 9.14178L153.828 8.01155C153.698 7.83248 153.654 7.61684 153.685 7.41659C153.717 7.2125 153.827 7.01995 154.005 6.89095ZM159.845 3.22109L154.282 7.27411C154.208 7.32802 154.163 7.40697 154.15 7.48976C154.139 7.57063 154.156 7.6592 154.209 7.73236L155.023 8.86451C155.075 8.93575 155.153 8.98196 155.235 8.99544C155.318 9.00699 155.406 8.98967 155.479 8.93768L161.041 4.88273C161.114 4.83074 161.158 4.7518 161.172 4.66901C161.185 4.58622 161.168 4.49765 161.116 4.42448L160.301 3.29425C160.249 3.22301 160.17 3.1768 160.088 3.16333C160.006 3.14985 159.918 3.1691 159.845 3.22109Z" fill="white"/>
</svg>
