<svg width="75" height="75" viewBox="0 0 75 75" fill="none" xmlns="http://www.w3.org/2000/svg">
<path d="M21.6305 28.4545C19.0056 28.4545 16.8696 30.5958 16.8696 33.2272C16.8696 35.8586 19.0056 37.9999 21.6305 37.9999C24.2553 37.9999 26.3913 35.8586 26.3913 33.2272C26.3913 30.5958 24.2552 28.4545 21.6305 28.4545ZM21.6305 34.8182C20.7576 34.8182 20.0435 34.1054 20.0435 33.2272C20.0435 32.349 20.7576 31.6362 21.6305 31.6362C22.5033 31.6362 23.2175 32.349 23.2175 33.2272C23.2175 34.1054 22.5032 34.8182 21.6305 34.8182Z" fill="#3498DB"/>
<path d="M37.4999 31.6364C36.6239 31.6364 35.9129 32.3492 35.9129 33.2273V38.0001C35.9129 38.8783 36.6239 39.591 37.4999 39.591C38.3759 39.591 39.0869 38.8781 39.0869 37.9999V33.2272C39.0869 32.349 38.3759 31.6364 37.4999 31.6364Z" fill="#3498DB"/>
<path d="M31.1522 31.6364C30.2762 31.6364 29.5652 32.3492 29.5652 33.2273V38.0001C29.5652 38.8783 30.2762 39.591 31.1522 39.591C32.0282 39.591 32.7392 38.8783 32.7392 38.0001V33.2273C32.7391 32.349 32.0282 31.6364 31.1522 31.6364Z" fill="#3498DB"/>
<path d="M24.8043 50.7273C25.6808 50.7273 26.3913 50.015 26.3913 49.1363C26.3913 48.2577 25.6808 47.5454 24.8043 47.5454C23.9279 47.5454 23.2173 48.2577 23.2173 49.1363C23.2173 50.015 23.9279 50.7273 24.8043 50.7273Z" fill="#3498DB"/>
<path d="M24.8043 52.3181C26.5572 52.3181 27.9782 50.8936 27.9782 49.1363C27.9782 47.3791 26.5572 45.9546 24.8043 45.9546C23.0515 45.9546 21.6305 47.3791 21.6305 49.1363C21.6305 50.8936 23.0515 52.3181 24.8043 52.3181Z" fill="#3498DB"/>
<path d="M8.93473 25.2727H4.17386V22.0909H8.93473C9.81073 22.0909 10.5217 21.3781 10.5217 20.5C10.5217 19.6218 9.81073 18.909 8.93473 18.909H2.58701C1.71101 18.909 1 19.6218 1 20.5V26.8637C1 27.7418 1.71101 28.4546 2.58701 28.4546H8.93488C9.81088 28.4546 10.5219 27.7418 10.5219 26.8637C10.5219 25.9855 9.81073 25.2727 8.93473 25.2727Z" fill="#3498DB"/>
<path d="M15.2826 50.7273C14.4066 50.7273 13.6956 51.4401 13.6956 52.3183V68.2273C13.6956 69.1054 12.9815 69.8182 12.1086 69.8182H5.76087C4.88799 69.8182 4.17386 69.1054 4.17386 68.2273V52.3181C4.17386 51.4399 3.46286 50.7272 2.58686 50.7272C1.71086 50.7272 1 51.4399 1 52.3181V68.2273C1 70.8587 3.13599 73 5.76087 73H12.1087C14.7336 73 16.8696 70.8587 16.8696 68.2273V52.3181C16.8696 51.4399 16.1586 50.7273 15.2826 50.7273Z" fill="#3498DB"/>
<path d="M72.413 41.1818H2.58701C1.71101 41.1818 1 41.8945 1 42.7727V50.7272C1 51.4113 1.438 52.0189 2.08548 52.2353L6.84634 53.8263C7.00821 53.8804 7.17648 53.9091 7.34787 53.9091H17.2155L18.5041 59.0668C18.6786 59.7763 19.3165 60.2726 20.0435 60.2726H54.9565C55.6833 60.2726 56.3213 59.7763 56.4991 59.0668L57.7845 53.9091H67.6521C67.8235 53.9091 67.9918 53.8804 68.1537 53.8263L72.9145 52.2353C73.562 52.0189 74 51.4113 74 50.7272V42.7727C74 41.8945 73.289 41.1818 72.413 41.1818ZM70.826 49.5818L67.3951 50.7273H56.5434C55.8166 50.7273 55.1787 51.2237 55.004 51.9332L53.7186 57.0908H21.2844L19.9959 51.9332C19.8213 51.2237 19.1834 50.7273 18.4565 50.7273H7.60496L4.17401 49.5818V44.3636H70.8261V49.5818H70.826Z" fill="#3498DB"/>
<path d="M53.3695 28.4545C50.7447 28.4545 48.6087 30.5958 48.6087 33.2272C48.6087 35.8586 50.7447 37.9999 53.3695 37.9999C55.9944 37.9999 58.1304 35.8586 58.1304 33.2272C58.1304 30.5958 55.9944 28.4545 53.3695 28.4545ZM53.3695 34.8182C52.4967 34.8182 51.7825 34.1054 51.7825 33.2272C51.7825 32.349 52.4967 31.6362 53.3695 31.6362C54.2424 31.6362 54.9565 32.349 54.9565 33.2272C54.9565 34.1054 54.2424 34.8182 53.3695 34.8182Z" fill="#3498DB"/>
<path d="M37.4999 31.6364C36.6239 31.6364 35.9129 32.3492 35.9129 33.2273V38.0001C35.9129 38.8783 36.6239 39.591 37.4999 39.591C38.3759 39.591 39.0869 38.8781 39.0869 37.9999V33.2272C39.0869 32.349 38.3759 31.6364 37.4999 31.6364Z" fill="#3498DB"/>
<path d="M43.8478 31.6364C42.9718 31.6364 42.2608 32.3492 42.2608 33.2273V38.0001C42.2608 38.8783 42.9718 39.591 43.8478 39.591C44.7238 39.591 45.4348 38.8783 45.4348 38.0001V33.2273C45.4348 32.349 44.7238 31.6364 43.8478 31.6364Z" fill="#3498DB"/>
<path d="M64.7258 22.11C63.8943 21.9795 44.3367 18.9092 37.5001 18.9092C30.6635 18.9092 11.1057 21.9795 10.2742 22.11C9.40769 22.2468 8.81734 23.0614 8.95377 23.9301C9.0902 24.7987 9.91859 25.3841 10.7693 25.2537C10.9693 25.222 30.9109 22.0911 37.4999 22.0911C44.089 22.0911 64.0306 25.222 64.2306 25.2537C64.3131 25.2664 64.3988 25.2728 64.4812 25.2728C65.2461 25.2728 65.9222 24.7128 66.0459 23.9301C66.1827 23.0613 65.589 22.2468 64.7258 22.11Z" fill="#3498DB"/>
<path d="M72.7939 31.6841L67.6457 30.3923L67.6426 26.7109C66.738 17.3277 65.002 5.88914 61.866 4.69596C58.8857 3.56005 41.077 3.08278 37.4618 3C33.9229 3.08278 16.1141 3.56005 13.1307 4.69596C9.99491 5.88914 8.25869 17.3246 7.34787 26.8637V30.3923L2.20301 31.6841C1.49513 31.8622 1 32.4986 1 33.2272V42.7727C1 43.6508 1.71101 44.3636 2.58701 44.3636H13.6957C14.1559 44.3636 14.5939 44.16 14.8955 43.8131C15.1971 43.4663 15.3335 43.0049 15.2668 42.5467L13.6798 31.4103C13.5687 30.6277 12.899 30.0454 12.1087 30.0454H10.5186L10.5155 27.0164C11.3248 18.5941 13.0864 8.775 14.2606 7.66773C16.1681 6.94228 29.5493 6.37268 37.4618 6.18177C45.4506 6.37268 58.8317 6.94228 60.5837 7.58495C61.9137 8.775 63.6752 18.594 64.4781 26.8637V30.0454H62.8913C62.101 30.0454 61.4313 30.6277 61.3202 31.4136L59.7332 42.55C59.6665 43.005 59.803 43.4695 60.1045 43.8164C60.4061 44.1632 60.8441 44.3636 61.3043 44.3636H72.413C73.289 44.3636 74 43.6508 73.9967 42.7727V33.2272C73.9967 32.4955 73.5016 31.8622 72.7939 31.6841ZM10.7343 33.2272L11.8674 41.1817H4.17386V34.4712L9.13156 33.2272H10.7343ZM70.826 41.1818H63.1324L64.2655 33.2273H65.8683L70.826 34.4714V41.1818Z" fill="#3498DB"/>
<path d="M50.1957 50.7273C51.0721 50.7273 51.7827 50.015 51.7827 49.1363C51.7827 48.2577 51.0721 47.5454 50.1957 47.5454C49.3192 47.5454 48.6087 48.2577 48.6087 49.1363C48.6087 50.015 49.3192 50.7273 50.1957 50.7273Z" fill="#3498DB"/>
<path d="M50.1957 45.9546C48.4437 45.9546 47.0218 47.3833 47.0218 49.1363C47.0218 50.8894 48.4437 52.3181 50.1957 52.3181C51.9477 52.3181 53.3695 50.8894 53.3695 49.1363C53.3695 47.3831 51.9477 45.9546 50.1957 45.9546Z" fill="#3498DB"/>
<path d="M72.413 18.909H66.0651C65.1891 18.909 64.4781 19.6218 64.4781 20.5C64.4781 21.3781 65.1891 22.0909 66.0651 22.0909H70.826V25.2727H66.0651C65.1891 25.2727 64.4781 25.9855 64.4781 26.8637C64.4781 27.7418 65.1891 28.4546 66.0651 28.4546H72.413C73.289 28.4546 74 27.7418 74 26.8637V20.5C74 19.6218 73.289 18.909 72.413 18.909Z" fill="#3498DB"/>
<path d="M72.413 50.7273C71.537 50.7273 70.826 51.4401 70.826 52.3183V68.2273C70.826 69.1054 70.1119 69.8182 69.239 69.8182H62.8913C62.0184 69.8182 61.3043 69.1054 61.3043 68.2273V52.3181C61.3043 51.4399 60.5933 50.7272 59.7173 50.7272C58.8413 50.7272 58.1302 51.4399 58.1302 52.3181V68.2273C58.1302 70.8587 60.2662 73 62.8911 73H69.239C71.8639 73 73.9999 70.8587 73.9999 68.2273V52.3181C74 51.4399 73.289 50.7273 72.413 50.7273Z" fill="#3498DB"/>
</svg>
