<svg width="18" height="18" viewBox="0 0 18 18" fill="none" xmlns="http://www.w3.org/2000/svg">
<path d="M13.3174 7.63867C13.6841 7.63867 13.9814 7.34136 13.9814 6.97461C13.9814 6.60786 13.6841 6.31055 13.3174 6.31055C12.9506 6.31055 12.6533 6.60786 12.6533 6.97461C12.6533 7.34136 12.9506 7.63867 13.3174 7.63867Z" fill="black"/>
<path d="M14.8447 1.33008H13.9814V0.666016C13.9814 0.299254 13.6841 0.00195312 13.3174 0.00195312C12.9506 0.00195312 12.6533 0.299254 12.6533 0.666016V1.33008H9.63184V0.666016C9.63184 0.299254 9.33454 0.00195312 8.96777 0.00195312C8.60101 0.00195312 8.30371 0.299254 8.30371 0.666016V1.33008H5.31543V0.666016C5.31543 0.299254 5.01813 0.00195312 4.65137 0.00195312C4.28461 0.00195312 3.9873 0.299254 3.9873 0.666016V1.33008H3.15723C1.69257 1.33008 0.500977 2.52167 0.500977 3.98633V14.3457C0.500977 15.8104 1.69257 17.002 3.15723 17.002H8.2373C8.60407 17.002 8.90137 16.7047 8.90137 16.3379C8.90137 15.9711 8.60407 15.6738 8.2373 15.6738H3.15723C2.4249 15.6738 1.8291 15.078 1.8291 14.3457V3.98633C1.8291 3.254 2.4249 2.6582 3.15723 2.6582H3.9873V3.32227C3.9873 3.68903 4.28461 3.98633 4.65137 3.98633C5.01813 3.98633 5.31543 3.68903 5.31543 3.32227V2.6582H8.30371V3.32227C8.30371 3.68903 8.60101 3.98633 8.96777 3.98633C9.33454 3.98633 9.63184 3.68903 9.63184 3.32227V2.6582H12.6533V3.32227C12.6533 3.68903 12.9506 3.98633 13.3174 3.98633C13.6841 3.98633 13.9814 3.68903 13.9814 3.32227V2.6582H14.8447C15.5771 2.6582 16.1729 3.254 16.1729 3.98633V7.77148C16.1729 8.13825 16.4702 8.43555 16.8369 8.43555C17.2037 8.43555 17.501 8.13825 17.501 7.77148V3.98633C17.501 2.52167 16.3094 1.33008 14.8447 1.33008Z" fill="black"/>
<path d="M13.4834 8.9668C11.2681 8.9668 9.46582 10.7691 9.46582 12.9844C9.46582 15.1997 11.2681 17.002 13.4834 17.002C15.6987 17.002 17.501 15.1997 17.501 12.9844C17.501 10.7691 15.6987 8.9668 13.4834 8.9668ZM13.4834 15.6738C12.0004 15.6738 10.7939 14.4674 10.7939 12.9844C10.7939 11.5014 12.0004 10.2949 13.4834 10.2949C14.9663 10.2949 16.1729 11.5014 16.1729 12.9844C16.1729 14.4674 14.9663 15.6738 13.4834 15.6738Z" fill="black"/>
<path d="M14.4463 12.3203H14.1475V11.623C14.1475 11.2563 13.8502 10.959 13.4834 10.959C13.1166 10.959 12.8193 11.2563 12.8193 11.623V12.9844C12.8193 13.3511 13.1166 13.6484 13.4834 13.6484H14.4463C14.8131 13.6484 15.1104 13.3511 15.1104 12.9844C15.1104 12.6176 14.8131 12.3203 14.4463 12.3203Z" fill="black"/>
<path d="M10.4287 7.63867C10.7955 7.63867 11.0928 7.34136 11.0928 6.97461C11.0928 6.60786 10.7955 6.31055 10.4287 6.31055C10.062 6.31055 9.76465 6.60786 9.76465 6.97461C9.76465 7.34136 10.062 7.63867 10.4287 7.63867Z" fill="black"/>
<path d="M7.54004 10.5273C7.90679 10.5273 8.2041 10.23 8.2041 9.86328C8.2041 9.49653 7.90679 9.19922 7.54004 9.19922C7.17329 9.19922 6.87598 9.49653 6.87598 9.86328C6.87598 10.23 7.17329 10.5273 7.54004 10.5273Z" fill="black"/>
<path d="M4.65137 7.63867C5.01812 7.63867 5.31543 7.34136 5.31543 6.97461C5.31543 6.60786 5.01812 6.31055 4.65137 6.31055C4.28462 6.31055 3.9873 6.60786 3.9873 6.97461C3.9873 7.34136 4.28462 7.63867 4.65137 7.63867Z" fill="black"/>
<path d="M4.65137 10.5273C5.01812 10.5273 5.31543 10.23 5.31543 9.86328C5.31543 9.49653 5.01812 9.19922 4.65137 9.19922C4.28462 9.19922 3.9873 9.49653 3.9873 9.86328C3.9873 10.23 4.28462 10.5273 4.65137 10.5273Z" fill="black"/>
<path d="M4.65137 13.416C5.01812 13.416 5.31543 13.1187 5.31543 12.752C5.31543 12.3852 5.01812 12.0879 4.65137 12.0879C4.28462 12.0879 3.9873 12.3852 3.9873 12.752C3.9873 13.1187 4.28462 13.416 4.65137 13.416Z" fill="black"/>
<path d="M7.54004 13.416C7.90679 13.416 8.2041 13.1187 8.2041 12.752C8.2041 12.3852 7.90679 12.0879 7.54004 12.0879C7.17329 12.0879 6.87598 12.3852 6.87598 12.752C6.87598 13.1187 7.17329 13.416 7.54004 13.416Z" fill="black"/>
<path d="M7.54004 7.63867C7.90679 7.63867 8.2041 7.34136 8.2041 6.97461C8.2041 6.60786 7.90679 6.31055 7.54004 6.31055C7.17329 6.31055 6.87598 6.60786 6.87598 6.97461C6.87598 7.34136 7.17329 7.63867 7.54004 7.63867Z" fill="black"/>
</svg>
