<svg width="75" height="75" viewBox="0 0 75 75" fill="none" xmlns="http://www.w3.org/2000/svg">
<path d="M62.7434 24.0027H62.6366C61.8313 24.0027 61.1783 24.6556 61.1783 25.461C61.1783 26.2664 61.8313 26.9192 62.6366 26.9192H62.7434C63.5487 26.9192 64.2017 26.2664 64.2017 25.461C64.2017 24.6556 63.5487 24.0027 62.7434 24.0027Z" fill="#3498DB"/>
<path d="M58.4137 24.0027H40.9166C40.1113 24.0027 39.4583 24.6556 39.4583 25.461C39.4583 26.2664 40.1113 26.9192 40.9166 26.9192H58.4137C59.2191 26.9192 59.8721 26.2664 59.8721 25.461C59.8721 24.6556 59.2191 24.0027 58.4137 24.0027Z" fill="#3498DB"/>
<path d="M58.4137 37.666H40.9166C40.1113 37.666 39.4583 38.3188 39.4583 39.1242C39.4583 39.9296 40.1113 40.5825 40.9166 40.5825H58.4137C59.2191 40.5825 59.8721 39.9296 59.8721 39.1242C59.8721 38.3188 59.2191 37.666 58.4137 37.666Z" fill="#3498DB"/>
<path d="M55.4531 46.2884C56.2586 46.2884 56.9114 45.6356 56.9114 44.8302C56.9114 44.0248 56.2586 43.372 55.4531 43.372H45.2464C44.4411 43.372 43.7881 44.0248 43.7881 44.8302C43.7881 45.6356 44.4411 46.2884 45.2464 46.2884H55.4531Z" fill="#3498DB"/>
<path d="M40.9166 46.2884H41.0237C41.8291 46.2884 42.482 45.6356 42.482 44.8302C42.482 44.0248 41.8291 43.372 41.0237 43.372H40.9166C40.1113 43.372 39.4583 44.0248 39.4583 44.8302C39.4583 45.6356 40.1113 46.2884 40.9166 46.2884Z" fill="#3498DB"/>
<path d="M65.8357 16.1243H62.6499L51.5123 4.98721C50.2308 3.70574 48.5213 3 46.699 3H46.6989C44.8766 3 43.1673 3.70561 41.8859 4.98693L30.7481 16.1243H10.1644C6.21386 16.1243 3 19.3382 3 23.2884V52.7086C3 56.6588 6.21386 59.8725 10.1644 59.8725H13.35L24.488 71.0101C25.8151 72.3369 27.5576 73 29.3007 73C31.0436 73 32.7871 72.3365 34.1141 71.0101L45.2518 59.8725H65.8357C69.7861 59.8725 73 56.659 73 52.7088V23.2882C73 19.3382 69.7861 16.1243 65.8357 16.1243ZM43.9485 7.0492C44.679 6.31871 45.6558 5.91662 46.6989 5.91662C47.7422 5.91662 48.7191 6.31898 49.4498 7.04975L58.5249 16.1245H45.3173L47.0516 14.3902L47.1222 14.3194C47.6908 13.749 47.6894 12.8257 47.1192 12.2571C46.5485 11.6883 45.6254 11.6898 45.0567 12.2601L41.1925 16.1243H34.873L43.9485 7.0492ZM32.0518 68.9475C30.5352 70.4637 28.0671 70.4644 26.5504 68.9477L17.4748 59.8725H30.6827L28.8791 61.6761C28.3096 62.2456 28.3096 63.169 28.8791 63.7385C29.1639 64.0232 29.5371 64.1656 29.9102 64.1656C30.2836 64.1656 30.6566 64.0232 30.9414 63.7385L34.8076 59.8725H41.1269L32.0518 68.9475ZM70.0834 52.7088C70.0834 55.0507 68.1781 56.9559 65.8359 56.9559H10.1644C7.82216 56.9559 5.91676 55.0507 5.91676 52.7088V23.2882C5.91676 20.9461 7.82216 19.0408 10.1644 19.0408H31.3516C31.352 19.0408 31.3526 19.0408 31.3531 19.0408H65.836C68.1783 19.0408 70.0835 20.9461 70.0835 23.2882V52.7088H70.0834Z" fill="#3498DB"/>
<path d="M28.7946 35.7693C28.9003 35.3537 28.9962 34.8711 29.0904 34.2982C29.114 34.1552 29.149 33.974 29.1889 33.7662C29.507 32.1076 29.7857 30.3809 29.4026 29.0992C28.4779 26.0035 25.8517 24.0027 22.7117 24.0022C19.5723 24.0022 16.9458 26.0028 16.0205 29.0993C15.6376 30.3816 15.9163 32.1087 16.2349 33.7677C16.2745 33.9751 16.3095 34.1557 16.333 34.2983C16.4272 34.8712 16.5231 35.3537 16.6288 35.7693C13.6212 37.7832 11.7984 41.1497 11.7984 44.8307C11.7984 45.6362 12.4514 46.289 13.2567 46.289H32.1665C32.9718 46.289 33.6248 45.6362 33.6248 44.8307C33.6251 41.1496 31.8022 37.7832 28.7946 35.7693ZM18.8151 29.934C19.3711 28.0741 20.8641 26.9187 22.7115 26.9187C24.5594 26.9188 26.0524 28.0742 26.6079 29.934C26.8188 30.6396 26.4723 32.4455 26.3246 33.2168C26.279 33.4544 26.2396 33.6612 26.2127 33.8246C26.1053 34.4773 25.9374 35.3865 25.7222 35.7462C25.6329 35.8955 25.4973 35.9917 25.0018 36.3069C24.833 36.4143 24.6429 36.5351 24.4284 36.6794C23.2502 37.345 22.173 37.345 20.9956 36.6797C20.7811 36.5353 20.5912 36.4146 20.4222 36.307C19.9266 35.9917 19.7911 35.8955 19.7017 35.7462C19.4863 35.3865 19.3186 34.4772 19.2112 33.8243C19.1844 33.6614 19.1451 33.4549 19.0995 33.2181C18.9513 32.4465 18.6046 30.6397 18.8151 29.934ZM14.8474 43.3722C15.2265 41.3061 16.4044 39.4778 18.1397 38.2711C18.3507 38.4352 18.5874 38.5968 18.8566 38.7679C19.029 38.8775 19.207 38.9909 19.4057 39.1255L19.4951 39.1815C20.5398 39.7846 21.622 40.0904 22.7113 40.0904C23.8008 40.0904 24.8833 39.7845 25.9285 39.1814L26.0178 39.1253C26.2162 38.9909 26.3945 38.8775 26.5669 38.7679C26.836 38.5969 27.0728 38.4353 27.2836 38.2713C29.0191 39.4779 30.1971 41.3064 30.5761 43.3722H14.8474Z" fill="#3498DB"/>
<path d="M32.1668 49.0778H13.2566C12.4513 49.0778 11.7983 49.7306 11.7983 50.536C11.7983 51.3414 12.4513 51.9943 13.2566 51.9943H32.1668C32.9721 51.9943 33.6251 51.3414 33.6251 50.536C33.6251 49.7307 32.9721 49.0778 32.1668 49.0778Z" fill="#3498DB"/>
<path d="M62.7434 49.0778H62.6366C61.8313 49.0778 61.1783 49.7306 61.1783 50.536C61.1783 51.3414 61.8313 51.9943 62.6366 51.9943H62.7434C63.5487 51.9943 64.2017 51.3414 64.2017 50.536C64.2017 49.7307 63.5487 49.0778 62.7434 49.0778Z" fill="#3498DB"/>
<path d="M58.4137 49.0778H40.9166C40.1113 49.0778 39.4583 49.7306 39.4583 50.536C39.4583 51.3414 40.1113 51.9943 40.9166 51.9943H58.4137C59.2191 51.9943 59.8721 51.3414 59.8721 50.536C59.8721 49.7307 59.2191 49.0778 58.4137 49.0778Z" fill="#3498DB"/>
<path d="M40.9166 32.6254H49.6655C50.4708 32.6254 51.1238 31.9726 51.1238 31.1672C51.1238 30.3618 50.4708 29.709 49.6655 29.709H40.9166C40.1113 29.709 39.4583 30.3618 39.4583 31.1672C39.4583 31.9726 40.1113 32.6254 40.9166 32.6254Z" fill="#3498DB"/>
</svg>
