<svg width="26" height="26" viewBox="0 0 26 26" fill="none" xmlns="http://www.w3.org/2000/svg">
<path d="M12.348 0.00378329C10.2615 0.0289708 5.77573 0.371846 3.26673 2.67366C1.40042 4.52291 0.748791 7.25697 0.672416 10.6378C0.609041 14.0064 0.532666 20.3325 6.63048 22.055V24.6786C6.63048 24.6786 6.59229 25.7283 7.28617 25.9437C8.14092 26.2142 8.6276 25.4066 9.4401 24.5388L10.9554 22.8253C15.1276 23.1722 18.3232 22.3727 18.6912 22.2541C19.5379 21.9835 24.3064 21.3742 25.0856 15.0472C25.8851 8.5131 24.6964 4.39616 22.5506 2.53391H22.5376C21.89 1.93753 19.2876 0.0411583 13.4734 0.0200333C13.4734 0.0200333 13.0419 -0.00921671 12.348 0.00297079V0.00378329ZM12.4195 1.84085C13.0119 1.83678 13.3718 1.86197 13.3718 1.86197C18.2931 1.87497 20.642 3.35616 21.1962 3.85503C23.0032 5.40366 23.9343 9.11516 23.2526 14.5703C22.605 19.8597 18.7375 20.1944 18.0217 20.4227C17.717 20.5202 14.9025 21.2141 11.3568 20.9858C11.3568 20.9858 8.71617 24.1724 7.89067 24.993C7.75985 25.1368 7.6071 25.1791 7.5096 25.158C7.36985 25.1238 7.3276 24.9508 7.33573 24.7135L7.36092 20.3593C2.18935 18.9293 2.49404 13.5335 2.54929 10.715C2.61267 7.89641 3.1416 5.59053 4.71623 4.02891C6.83604 2.11222 10.645 1.85385 12.4179 1.84085H12.4195ZM12.8095 4.6586C12.767 4.65817 12.7247 4.66617 12.6853 4.68213C12.6458 4.6981 12.6099 4.72172 12.5796 4.75163C12.5494 4.78154 12.5253 4.81715 12.5088 4.8564C12.4924 4.89566 12.4838 4.93778 12.4837 4.98035C12.4837 5.16235 12.6316 5.30616 12.8095 5.30616C13.6151 5.29084 14.4158 5.43516 15.1653 5.73079C15.9149 6.02643 16.5985 6.46753 17.1767 7.02866C18.3573 8.1751 18.9325 9.7156 18.9545 11.7298C18.9545 11.9077 19.0983 12.0556 19.2803 12.0556V12.0426C19.3661 12.0428 19.4485 12.0091 19.5095 11.9488C19.5705 11.8886 19.6052 11.8066 19.6061 11.7208C19.6456 10.7728 19.4918 9.82659 19.1542 8.93979C18.8166 8.05299 18.3022 7.2441 17.6423 6.56228C16.3561 5.30535 14.7262 4.65778 12.8095 4.65778V4.6586ZM8.52685 5.40366C8.29687 5.37005 8.06232 5.41622 7.86223 5.53447H7.84517C7.38063 5.80677 6.96215 6.15093 6.60529 6.55416C6.30873 6.89703 6.14785 7.24397 6.1056 7.57791C6.08042 7.77697 6.09748 7.97603 6.15679 8.16616L6.17792 8.17916C6.51185 9.16066 6.94817 10.1048 7.48117 10.9937C8.16775 12.2424 9.01269 13.3973 9.99504 14.4297L10.0243 14.472L10.0706 14.5061L10.0999 14.5402L10.134 14.5695C11.1701 15.5547 12.3278 16.4036 13.579 17.0955C15.009 17.8739 15.8767 18.242 16.3975 18.3947V18.4028C16.5503 18.4492 16.6892 18.4703 16.829 18.4703C17.2728 18.4378 17.693 18.2576 18.0225 17.9584C18.4239 17.6015 18.7643 17.1813 19.03 16.7145V16.7063C19.2795 16.2367 19.195 15.7923 18.835 15.4917C18.1142 14.8616 17.3347 14.3019 16.5072 13.8203C15.9531 13.5197 15.39 13.7017 15.1617 14.0064L14.675 14.6198C14.4256 14.9245 13.9722 14.8823 13.9722 14.8823L13.9592 14.8904C10.5784 14.0267 9.67654 10.6037 9.67654 10.6037C9.67654 10.6037 9.63429 10.1381 9.9471 9.90085L10.5565 9.4101C10.8482 9.17285 11.0513 8.6106 10.7385 8.05566C10.2602 7.22703 9.70181 6.44736 9.07123 5.72785C8.93337 5.55822 8.73997 5.44281 8.52523 5.40203L8.52685 5.40366ZM13.3718 6.36891C12.9404 6.36891 12.9404 7.02053 13.3759 7.02053C13.9123 7.02924 14.4418 7.14357 14.9341 7.35702C15.4264 7.57046 15.8718 7.87882 16.2448 8.26447C16.5851 8.63985 16.8466 9.07972 17.0138 9.558C17.181 10.0363 17.2505 10.5433 17.2182 11.0489C17.2197 11.1345 17.2546 11.2161 17.3155 11.2762C17.3764 11.3363 17.4584 11.3702 17.544 11.3707L17.557 11.3877C17.6432 11.3871 17.7257 11.3526 17.7867 11.2916C17.8476 11.2306 17.8822 11.1481 17.8828 11.0619C17.912 9.77085 17.5107 8.68778 16.7234 7.82003C15.932 6.95228 14.8278 6.4656 13.4181 6.36891H13.3718ZM13.9056 8.12066C13.4612 8.10766 13.4441 8.77228 13.8845 8.78528C14.9554 8.84053 15.4754 9.38166 15.5436 10.4948C15.5451 10.5793 15.5796 10.6598 15.6397 10.7192C15.6999 10.7786 15.7808 10.8121 15.8654 10.8125H15.8784C15.9218 10.8106 15.9644 10.8001 16.0038 10.7816C16.0431 10.7631 16.0784 10.7369 16.1075 10.7046C16.1366 10.6723 16.159 10.6345 16.1734 10.5935C16.1878 10.5524 16.1938 10.5089 16.1912 10.4655C16.1148 9.01441 15.3234 8.19703 13.9186 8.12147H13.9056V8.12066Z" fill="#8C47C4"/>
</svg>
