<?xml version="1.0" encoding="utf-8"?><svg width="22" height="22" fill="none" xmlns="http://www.w3.org/2000/svg" viewBox="0 0 22 22"><path d="M12.5 10.125l-1.846-6.042a1 1 0 00-.957-.708H3a1 1 0 00-1 1V15.5a1 1 0 001 1h3.442c.471 0 .862-.342 1.09-.755 1.02-1.839 4.017-2.31 5.197.05.2.4.58.705 1.026.705h6.184a.998.998 0 00.998-1v-4.375a1 1 0 00-1-1H12.5zm0 0l4.533-6.38a1 1 0 011.32-.284l1.46.852M12.5 10.125H2.187M12 10v5" stroke="#3498DB"/><path d="M7 12h3" stroke="#3498DB" stroke-width=".5"/><circle cx="10" cy="17" r="2.5" stroke="#3498DB"/></svg>