<?xml version="1.0" encoding="utf-8"?><svg width="22" height="22" fill="none" xmlns="http://www.w3.org/2000/svg" viewBox="0 0 22 22"><path d="M11 3a8.68 8.68 0 00-3.496.723 9.05 9.05 0 00-2.87 1.947c-.805.815-1.445 1.788-1.92 2.92A9.077 9.077 0 002 12.142a9.08 9.08 0 001.118 4.41 8.965 8.965 0 003.109 3.322c.13.083.27.107.423.071a.547.547 0 00.352-.25.547.547 0 00.07-.428.555.555 0 00-.246-.357 7.973 7.973 0 01-2.36-2.304l.599-.357a.521.521 0 00.255-.34.568.568 0 00-.053-.437.54.54 0 00-.343-.268.502.502 0 00-.423.063l-.599.34a8.403 8.403 0 01-.51-1.412 7.996 7.996 0 01-.247-1.5h.616a.53.53 0 00.405-.17.569.569 0 00.159-.401.569.569 0 00-.159-.402.53.53 0 00-.405-.17h-.616a7.795 7.795 0 01.792-2.946l.564.34a.552.552 0 00.282.07c.211 0 .37-.094.475-.285a.522.522 0 00.062-.428.521.521 0 00-.255-.34L4.5 7.625A8.029 8.029 0 016.614 5.5l.318.554c.105.19.27.285.493.285a.618.618 0 00.281-.071.547.547 0 00.159-.152.61.61 0 00.097-.196.636.636 0 00.017-.215.467.467 0 00-.079-.223l-.317-.553a7.72 7.72 0 011.383-.51c.475-.124.96-.21 1.453-.258v.714a.564.564 0 00.572.571c.159 0 .29-.053.396-.16a.56.56 0 00.159-.411v-.714a7.716 7.716 0 012.906.785l-.317.536a1.802 1.802 0 01-.035.098.606.606 0 00-.026.295.483.483 0 00.07.188.664.664 0 00.114.152.221.221 0 00.088.053l.07.036.071.026.07.01h.071a.572.572 0 00.493-.286l.3-.536a8.141 8.141 0 012.096 2.125l-.529.321a.44.44 0 00-.167.143.763.763 0 00-.097.197.475.475 0 00-.018.223.565.565 0 00.291.42.567.567 0 00.555 0l.528-.304c.446.917.705 1.893.775 2.928h-.616a.538.538 0 00-.396.17.553.553 0 00-.168.402c0 .155.056.288.168.402.111.113.243.17.396.17h.616a8.056 8.056 0 01-.74 2.874l-.563-.321a.532.532 0 00-.432-.063.566.566 0 00-.343.277.566.566 0 00-.07.206.475.475 0 00.017.223.763.763 0 00.097.196.44.44 0 00.167.143l.564.34a7.977 7.977 0 01-2.43 2.356.552.552 0 00-.247.349.581.581 0 00.07.437.707.707 0 00.3.232.466.466 0 00.176.036.55.55 0 00.3-.09 8.9 8.9 0 003.143-3.312A9.123 9.123 0 0020 12.125a9.034 9.034 0 00-.713-3.536c-.476-1.13-1.116-2.104-1.92-2.92a9.049 9.049 0 00-2.87-1.946A8.68 8.68 0 0011 3zm4.157 7.357a.587.587 0 00.281-.5.64.64 0 00-.07-.286.58.58 0 00-.344-.258.576.576 0 00-.431.044l-3.065 1.804a1.037 1.037 0 00-.546-.161c-.305 0-.57.113-.792.34a1.106 1.106 0 00-.335.803c0 .202.05.393.15.571a1.113 1.113 0 00.978.571c.305 0 .569-.112.792-.339.223-.226.335-.494.335-.803l3.047-1.786z" fill="#3498DB"/></svg>