<?xml version="1.0" encoding="utf-8"?><svg width="22" height="22" fill="none" xmlns="http://www.w3.org/2000/svg" viewBox="0 0 22 22"><path d="M3.877 2.057a.5.5 0 00.246.97l-.246-.97zm3.909 3.2a.5.5 0 101 0h-1zm2.792-.317a.5.5 0 10.773.635l-.773-.635zm2.744-2.55l-.387-.317.387.318zm4.107 3.41a.5.5 0 101 0h-1zM8.642 9.249a.5.5 0 10-.712.702l.712-.702zm6.252 7.76a.5.5 0 10.712-.703l-.712.702zm-6.964-.703a.5.5 0 10.712.702l-.712-.702zm7.676-6.355a.5.5 0 10-.712-.702l.712.702zM4.123 3.027c.658-.167 1.615-.23 2.376.063.37.143.682.364.905.69.223.327.382.796.382 1.476h1c0-.84-.199-1.515-.556-2.039a2.876 2.876 0 00-1.372-1.06c-1.024-.395-2.21-.295-2.98-.1l.245.97zm7.228 2.548l2.357-2.867-.773-.635-2.357 2.867.773.635zM14.145 2.5h2.712v-1h-2.712v1zm3.284.586V5.8h1V3.086h-1zm-.572-.586c.31 0 .572.256.572.586h1c0-.87-.698-1.586-1.572-1.586v1zm-3.15.208a.566.566 0 01.438-.208v-1c-.47 0-.912.211-1.21.573l.773.635zM4.5 18.828V7.972h-1V18.83h1zM6.143 6.3h10.714v-1H6.143v1zM18.5 7.971V18.83h1V7.97h-1zM16.857 20.5H6.143v1h10.714v-1zm1.643-1.671c0 .929-.742 1.671-1.643 1.671v1c1.466 0 2.643-1.202 2.643-2.671h-1zM16.857 6.3c.901 0 1.643.742 1.643 1.671h1c0-1.469-1.177-2.671-2.643-2.671v1zM4.5 7.971c0-.929.742-1.671 1.643-1.671v-1C4.677 5.3 3.5 6.502 3.5 7.971h1zm-1 10.858c0 1.469 1.177 2.671 2.643 2.671v-1c-.901 0-1.643-.742-1.643-1.671h-1zM7.93 9.95l6.964 7.057.712-.702-6.964-7.057-.712.702zm.712 7.057l6.964-7.057-.712-.702-6.964 7.057.712.702z" fill="#3498DB"/></svg>