<?xml version="1.0" encoding="utf-8"?><svg width="26" height="26" fill="none" xmlns="http://www.w3.org/2000/svg" viewBox="0 0 26 26"><path fill-rule="evenodd" clip-rule="evenodd" d="M18.866 15.58c-.323-.16-1.905-.939-2.2-1.047-.295-.107-.51-.16-.725.162-.214.321-.83 1.047-1.018 1.261-.189.216-.376.242-.698.082-.322-.163-1.36-.502-2.589-1.598-.956-.854-1.603-1.908-1.79-2.23-.188-.323-.021-.497.14-.657.145-.144.322-.376.483-.564.162-.188.215-.323.322-.538.108-.215.054-.402-.027-.563-.08-.162-.724-1.747-.992-2.391-.261-.628-.527-.542-.724-.553-.188-.008-.403-.01-.617-.01-.215 0-.564.08-.858.402-.296.322-1.127 1.101-1.127 2.686 0 1.584 1.152 3.114 1.314 3.33.161.215 2.27 3.467 5.499 4.861.77.331 1.368.53 1.835.677.771.246 1.473.211 2.028.128.618-.092 1.905-.779 2.173-1.53.268-.753.268-1.397.188-1.531-.08-.135-.295-.215-.618-.377h.001zm-5.874 8.02h-.004c-1.918 0-3.8-.515-5.451-1.492l-.39-.232-4.054 1.064 1.082-3.952-.254-.405a10.683 10.683 0 01-1.637-5.699C2.286 6.98 7.089 2.176 12.997 2.176c2.86 0 5.549 1.116 7.57 3.14a10.644 10.644 0 013.133 7.576C23.698 18.796 18.894 23.6 12.992 23.6zM22.105 3.78A12.799 12.799 0 0012.991 0C5.891 0 .111 5.78.108 12.883a12.853 12.853 0 001.72 6.44L0 26l6.83-1.792a12.872 12.872 0 006.157 1.569h.005c7.1 0 12.881-5.78 12.883-12.884a12.805 12.805 0 00-3.77-9.114z" fill="#29992D"/></svg>