<?xml version="1.0" encoding="utf-8"?><svg width="193" height="39" fill="none" xmlns="http://www.w3.org/2000/svg" viewBox="0 0 193 39"><path fill-rule="evenodd" clip-rule="evenodd" d="M56.7 5.13c-.562.802-1.1 1.875-1.529 3.111-1.356 3.916-2.58 9.34-3.127 14.24l-.05.456c.437-.19.915-.391 1.423-.597 2.077-.84 4.715-1.763 7.114-2.162-.22-5.955-.456-11.48-.618-12.882-.204-1.76-.573-2.758-.936-3.248-.17-.232-.313-.314-.404-.344-.086-.029-.2-.036-.372.024-.385.136-.92.575-1.501 1.402zm3.892 16.744c-2.154.385-4.562 1.223-6.549 2.027a58.36 58.36 0 00-2.228.956 95.596 95.596 0 00-.291 9.706h-1.677c0-.032 0-.102-.003-.206a97.25 97.25 0 01.24-8.861l-.305-.602-.38-.75.007-.003.015-.008.06-.03a32.317 32.317 0 01.749-.364c.045-.475.094-.958.148-1.445.56-5.014 1.81-10.563 3.21-14.605.47-1.353 1.072-2.572 1.741-3.526.651-.93 1.438-1.711 2.315-2.021.46-.163.961-.2 1.457-.035.492.164.898.5 1.223.939.629.85 1.04 2.208 1.254 4.055.203 1.747.5 9.279.746 16.308a2856.635 2856.635 0 01.436 13.393l.009.298-.838.026-.838.025v-.001l-.009-.297a2435.242 2435.242 0 00-.12-3.898 2867.624 2867.624 0 00-.372-11.081zm-17.615-9.762l-.19-9.57 1.675-.033.177 8.869c.374-.174.734-.348 1.06-.516.352-.182.656-.352.897-.504.252-.16.387-.272.44-.328l1.228 1.145c-.205.22-.489.425-.774.605-.297.189-.648.384-1.025.578-.546.281-1.166.572-1.79.85l.419 21.069-1.676.033-.405-20.39a90.023 90.023 0 01-2.256.896l-.054.02-.018.007-.295-.787-.294-.788.016-.006.051-.02a80.313 80.313 0 00.91-.353c.517-.204 1.19-.475 1.904-.777zM79.238 34.31L78.61 2.543l1.676-.034.63 31.768-1.677.033zM1.391 10.33c.01 2.447.022 5.405.03 8.381.01 3.607.015 7.24.008 10.025-.004 1.393-.01 2.572-.021 3.428-.006.429-.012.773-.02 1.022a13.005 13.005 0 01-.012.346v.002l-.007.014a.293.293 0 01-.052.06c-.065.06-.168.127-.306.188a2.502 2.502 0 01-.524.165l.136.83.137.83H.76l.003-.001.007-.001a1.174 1.174 0 00.083-.016 4.165 4.165 0 00.84-.27c.42-.188 1.173-.623 1.33-1.5.025-.133.033-.375.04-.597.008-.263.014-.619.02-1.05.01-.866.018-2.05.021-3.445.006-2.065.005-4.593 0-7.23a10.03 10.03 0 011.88 2.881c.563 1.328 1.156 2.966 1.774 4.673.17.47.342.945.516 1.421.795 2.174 1.63 4.358 2.468 5.93a5.672 5.672 0 001.81 2.037c.286.195.541.327.73.413a3.67 3.67 0 00.306.123l.024.008.01.002.003.002h.002l.244-.804.244-.805h.002l.002.001h.002a3.26 3.26 0 01-.629-.333 3.988 3.988 0 01-1.272-1.436c-.774-1.453-1.572-3.529-2.372-5.717l-.504-1.388c-.62-1.714-1.235-3.412-1.819-4.786a11.713 11.713 0 00-2.048-3.207c.293-.204.644-.46 1.033-.77a21.391 21.391 0 003.91-4.072c1.99-2.729 3.032-5.104 3.308-7.043.276-1.947-.218-3.559-1.435-4.5-1.195-.924-2.856-1.018-4.531-.46-1.213.403-2.484 1.16-3.717 2.273a5902.868 5902.868 0 00-.006-1.251l-.002-.32-.838.005-.838.005.002.319a4590.814 4590.814 0 01.015 3.004l-.406.497C.668 8.587.368 8.957 0 9.367l1.246 1.125.145-.163zM3.1 19.426l.104-.068c.307-.201.746-.508 1.264-.92a19.714 19.714 0 003.601-3.75c1.898-2.6 2.777-4.717 3-6.286.222-1.56-.21-2.474-.798-2.93-.61-.47-1.633-.644-2.98-.196-1.288.429-2.783 1.407-4.233 3.056l.002.506a5375.125 5375.125 0 01.04 10.588zm31.862-4.8c-.335-.075-.86-.022-1.659.426-.274.154-.606.52-.95 1.207-.333.668-.632 1.546-.894 2.584-.523 2.073-.868 4.666-1.095 7.224-.225 2.552-.33 5.04-.378 6.892a120.117 120.117 0 00-.039 2.523v.537l-1.676.006.838-.006-.838.006V35.967a31.783 31.783 0 010-.488l-.002-21.161h1.676v3.686c.255-.933.554-1.787.91-2.5.401-.801.924-1.525 1.63-1.92.996-.559 1.955-.8 2.844-.6.907.205 1.556.824 2.008 1.59.87 1.471 1.2 3.795 1.304 6.214.108 2.467-.014 5.214-.162 7.651-.044.724-.09 1.416-.133 2.065-.104 1.568-.19 2.886-.195 3.793l-1.677-.008c.005-.962.098-2.365.204-3.963.042-.637.086-1.305.127-1.989.148-2.43.265-5.102.162-7.475-.105-2.42-.437-4.356-1.072-5.43-.3-.509-.615-.735-.933-.806zm-10.297.965c.415 1.324.302 3.053-.454 5.077-.346.928-.94 1.955-1.66 2.877-.717.92-1.597 1.787-2.54 2.351-.934.558-2.062.893-3.164.476a2.895 2.895 0 01-.169-.07l.002.055c.064 2.421.433 4.708 1.083 6.303.326.799.697 1.36 1.077 1.69.354.309.712.419 1.124.352.456-.075 1.08-.382 1.879-1.146.792-.758 1.698-1.912 2.716-3.565l1.426.884c-1.06 1.723-2.053 3.006-2.985 3.898-.925.885-1.847 1.44-2.767 1.589-.963.157-1.81-.147-2.49-.74-.656-.57-1.153-1.398-1.531-2.325-.758-1.857-1.141-4.37-1.208-6.895a30.72 30.72 0 01.004-1.747 7.536 7.536 0 01-.584-1.36l.674-.221c.119-1.408.338-2.761.657-3.951 1.122-4.191 3.812-6.418 6.266-5.997 1.247.214 2.221 1.113 2.644 2.465zm-7.961 8.604c.081-1.675.308-3.288.67-4.635 1.04-3.884 3.212-4.974 4.364-4.776.556.095 1.07.488 1.328 1.31.266.85.25 2.176-.424 3.984-.276.738-.777 1.617-1.411 2.43-.636.817-1.368 1.518-2.079 1.943-.72.431-1.29.507-1.714.347-.22-.083-.476-.26-.734-.603zm57.584-6.788v-.628h-1.676v.8l.018.085v.003l.003.014.012.06.046.25c.038.22.09.544.146.958.11.828.23 2.005.266 3.397.071 2.793-.197 6.393-1.517 9.74-.684 1.733-1.393 2.006-1.696 2.001-.348-.004-.934-.359-1.361-1.413-.783-1.93-1.236-4.861-1.422-7.78-.184-2.91-.096-5.689.15-7.274l-1.657-.258c-.27 1.75-.355 4.66-.166 7.638.189 2.967.655 6.119 1.542 8.308.52 1.283 1.526 2.442 2.89 2.461 1.409.02 2.532-1.173 3.279-3.064 1.434-3.637 1.708-7.49 1.633-10.403a33.916 33.916 0 00-.28-3.576 25.683 25.683 0 00-.21-1.319z" fill="currentColor"/><path fill-rule="evenodd" clip-rule="evenodd" d="M76.505 14.843l-.295-.787-.294-.788.017-.006.05-.02c.046-.016.112-.042.197-.075a83.014 83.014 0 002.945-1.196c.836-.358 1.691-.746 2.395-1.11.352-.18.656-.35.896-.503.253-.16.388-.272.44-.328l1.228 1.145c-.204.22-.489.425-.773.605a13.62 13.62 0 01-1.025.578c-.754.389-1.65.794-2.5 1.16a84.404 84.404 0 01-3.209 1.298l-.053.02-.02.007zM87.871 18.582c-.613 1.604-.978 3.73-.843 6.16.242 4.33.889 6.89 1.622 8.186.363.642.688.868.891.935.171.057.399.048.729-.174.726-.488 1.57-1.783 2.196-3.748.611-1.92.964-4.327.83-6.85-.184-3.43-.797-5.516-1.501-6.612-.346-.538-.678-.784-.94-.88-.246-.091-.516-.085-.833.062-.69.318-1.523 1.278-2.15 2.921zm7.098 4.419c-.188-3.527-.823-5.968-1.766-7.434-.477-.743-1.068-1.288-1.769-1.547-.716-.265-1.448-.194-2.113.113-1.273.588-2.323 2.038-3.015 3.846-.706 1.847-1.1 4.214-.951 6.856.244 4.383.903 7.273 1.838 8.924.47.831 1.07 1.453 1.824 1.702.787.26 1.55.054 2.187-.375 1.208-.813 2.2-2.566 2.86-4.633.672-2.115 1.05-4.727.905-7.452z" fill="currentColor"/><path d="M116.361 17.622l9.405-9.46h28.35l.132.067c.021.01 6.904 3.392 8.485 9.785 1.534 6.212.924 14.846.922 14.871l-.008.098-.798 1.944h-2.613l.151-.736c.326-1.6.124-3.22-.463-4.635-.603-1.45-1.613-2.676-2.88-3.434-1.004-.598-2.086-.945-3.281-.96-1.217-.012-2.57.318-4.096 1.067-4.542 2.232-3.36 7.954-3.358 7.97l.141.728h-25.189l.116-.709c0-.008.531-2.95-.753-5.24-1.074-1.915-2.53-3-4.064-3.481-1.869-.584-3.868-.284-5.459.502-4.722 2.445-3.548 8.39-3.546 8.407l.135.724h-3.223l-.172-.15c-.009-.007-2.783-2.295-2.219-5.585.58-3.39 1.837-5.638 3.755-7.284 1.886-1.619 4.381-2.618 7.487-3.538l3.043-.95zm39.053-5.876l-2.24-1.356h-11.373l-1.668 7.405h15.71l-.429-6.049zm-34.922 6.05h15.473l1.825-7.406h-10.902l-6.622 6.66.226.745z" fill="currentColor"/><path d="M114.318 26.853c1.528 0 2.912.623 3.915 1.633a5.565 5.565 0 011.626 3.94c0 1.54-.622 2.933-1.624 3.94A5.506 5.506 0 01114.318 38a5.501 5.501 0 01-3.918-1.633 5.566 5.566 0 01-1.626-3.94 5.58 5.58 0 011.624-3.941 5.516 5.516 0 013.92-1.633zm39.09 0c1.529 0 2.916.623 3.918 1.63a5.588 5.588 0 011.624 3.943 5.58 5.58 0 01-1.624 3.94 5.515 5.515 0 01-7.835 0 5.566 5.566 0 01-1.626-3.94 5.58 5.58 0 011.624-3.94 5.516 5.516 0 013.919-1.633zM163.288 8.306c-.533.113-5.769 1.319-7.526 4.875v.002a8.538 8.538 0 00-.784 2.652c-.149 1.15-.074 2.348.307 3.385.359.978 1.004 1.815 2.014 2.32a5.11 5.11 0 001.64.481c1.827.24 3.725-.118 5.419-.92 1.728-.815 3.24-2.087 4.258-3.656.322-.497.865-2.026 1.023-3.755.099-1.1.035-2.255-.361-3.219-.367-.894-1.041-1.637-2.178-2.019-.929-.313-2.173-.394-3.812-.146zm-8.98 4.15c2.211-4.467 8.675-5.754 8.694-5.758l.046-.008c1.902-.288 3.399-.176 4.566.216 1.645.553 2.626 1.638 3.163 2.946.506 1.237.595 2.657.475 3.984-.182 2.009-.867 3.865-1.275 4.495-1.185 1.826-2.937 3.305-4.932 4.245-1.964.929-4.171 1.342-6.309 1.062a6.744 6.744 0 01-2.163-.636c-1.414-.71-2.316-1.867-2.814-3.219-.475-1.291-.568-2.758-.388-4.153.147-1.147.479-2.25.937-3.175z" fill="currentColor"/><path fill-rule="evenodd" clip-rule="evenodd" d="M163.954 6.788c.574-.434 8.468-5.98 8.468-5.98s1.75-1.169 3.084-.101c1.86 1.483 6.806 9.011 8.99 11.771.547.688 1.012 1.859-.635 3.029-2.571 1.823-2.924 2.332-2.924 2.332l2.016 1.573v2.176l2.488.84-.437 2.099 2.586 1.178v2.574l2.302.61-.187 2.989 2.477.803-.394 1.723.941.767s-.083 1.206.004 1.358c.087.15-.582.376-.582.376l-1.278-.883-.189-1.301-1.754.271-.069-2.745-2.534-.565-.135-2.95-2.269-1.066-.101-2.33-2.35.37-.637-3.2-2.065.3-1.952-2.33c-.848.634-1.661 1.641-2.633 2.067-1 .438-2.215.688-2.974-.657-1.23-2.182-4.37-6.702-4.37-6.702l-3.673-5.612s-1.031-1.808.786-2.784zm3.042.886l6.029-4.39a.607.607 0 01.85.135l.882 1.224a.619.619 0 01-.135.855l-6.029 4.391a.61.61 0 01-.85-.135l-.881-1.225a.616.616 0 01.134-.855z" fill="currentColor"/><path d="M163.815 6.573c.655-.49 8.437-5.96 8.459-5.977l.013-.008c.006-.002 1.9-1.266 3.378-.081 1.251.995 3.814 4.593 6.05 7.73 1.165 1.636 2.24 3.144 2.982 4.08l.114.155c.263.373.477.849.444 1.385-.033.536-.309 1.116-1.018 1.688-.073.058-.15.114-.231.173-1.717 1.218-2.418 1.825-2.692 2.09l1.894 1.479v2.117l2.53.853-.442 2.122 2.549 1.162v2.54l2.315.611-.187 3.002 2.509.814-.41 1.798.921.75-.009.134c0 .004-.079 1.127-.031 1.208.27.463-.711.745-.713.747l-.125.046-1.48-1.02-.166-1.156-1.788.275-.069-2.837-2.532-.565-.137-2.99-2.268-1.065-.096-2.199-2.312.363-.635-3.204-1.964.288-1.887-2.25c-.232.187-.462.398-.695.613-.56.515-1.134 1.043-1.8 1.335-.531.233-1.126.415-1.703.36-.601-.058-1.167-.369-1.594-1.126-1.226-2.174-4.349-6.669-4.358-6.683-1.175-1.848-2.441-3.834-3.685-5.63-.004-.005-1.151-2.024.869-3.127zm8.752-5.557c-.021.016-7.877 5.536-8.46 5.978l-.033.021c-1.584.851-.686 2.426-.684 2.43l3.658 5.593c.011.012 3.15 4.532 4.384 6.72.332.589.755.827 1.199.87.471.046.985-.116 1.452-.32.587-.255 1.13-.756 1.659-1.242.309-.284.614-.565.923-.797l.193-.144 2.016 2.407 2.165-.317.636 3.2 2.389-.375.108 2.461 2.267 1.064.133 2.908 2.54.567.065 2.654 1.723-.267.209 1.447 1.187.818-.015.021c.137.025.282.033.23-.054-.099-.178-.064-1.037-.045-1.37l-.965-.787.38-1.65-2.443-.79.184-2.98-2.289-.605v-2.605l-2.621-1.195.433-2.078-2.447-.826v-2.236l-2.107-1.644.132-.198c0-.002.38-.546 2.991-2.399.073-.05.141-.102.203-.154.581-.465.803-.914.828-1.314.025-.399-.145-.766-.351-1.06l-.097-.131c-.759-.958-1.834-2.466-2.997-4.1-2.219-3.112-4.762-6.679-5.952-7.63-1.128-.9-2.628.013-2.781.109zm-5.72 6.45l6.029-4.391a.863.863 0 011.207.194l.881 1.224a.873.873 0 01-.193 1.214l-6.026 4.391a.863.863 0 01-1.209-.194l-.88-1.224a.872.872 0 01.191-1.214zm6.328-3.976l-6.027 4.39a.354.354 0 00-.079.497l.881 1.227a.358.358 0 00.231.142.365.365 0 00.263-.063l6.027-4.393a.362.362 0 00.081-.496l-.884-1.225a.354.354 0 00-.493-.08z" fill="currentColor"/></svg>