<?xml version="1.0" encoding="utf-8"?><svg width="132" height="132" fill="none" xmlns="http://www.w3.org/2000/svg" viewBox="0 0 132 132"><circle cx="66" cy="66" r="66" fill="#3498DB"/><path d="M37.75 72.805c-.236 0-.474-.135-.553-.379l-1.134-2.565a.624.624 0 01-.026-.486l4.746-13.205c-2.294-2.484-3.006-6.076-1.872-9.316 1.688-4.618 6.751-7.021 11.313-5.293 2.215.837 3.956 2.484 4.958 4.672.975 2.187 1.081 4.645.264 6.886a8.772 8.772 0 01-3.007 4.104.598.598 0 01-.87-.135.632.632 0 01.132-.89c1.187-.892 2.057-2.107 2.584-3.511a7.911 7.911 0 00-.237-5.914 7.566 7.566 0 00-4.246-4.024c-3.929-1.485-8.28.567-9.73 4.591-1.029 2.89-.317 6.103 1.845 8.236.185.162.238.432.159.675l-4.8 13.34.844 1.917 3.507-.297-.263-2.025a.65.65 0 01.29-.621l1.371-.864-.185-2.62a.624.624 0 01.185-.513l1.846-1.89-.37-2.133a.66.66 0 01.423-.73l1.213-.404a.638.638 0 01.79.405.66.66 0 01-.395.81l-.712.243.343 1.917a.653.653 0 01-.184.567l-1.873 1.917.211 2.7c.026.244-.105.46-.29.595l-1.345.837.29 2.268a.654.654 0 01-.132.486.681.681 0 01-.422.243l-4.614.406h-.053zM74.907 97c-.237 0-.475-.027-.712-.108a2.396 2.396 0 01-1.371-1.188l-4.457-8.911c-.58-1.162-.132-2.62 1.002-3.214l18.776-9.883a2.32 2.32 0 013.138 1.026l4.457 8.911a2.28 2.28 0 01.132 1.81 2.423 2.423 0 01-1.16 1.404L75.935 96.73c-.29.189-.66.27-1.029.27zm14.32-22.278a.88.88 0 00-.502.135L69.95 84.74c-.527.27-.738.945-.474 1.513l4.456 8.91c.132.27.37.46.633.54.264.082.58.055.818-.08l18.776-9.857c.263-.135.448-.378.527-.648.08-.27.053-.594-.08-.837L90.15 75.37a.956.956 0 00-.923-.648z" fill="#fff"/><path d="M57.529 56.116a3.698 3.698 0 01-2.215-.729 2.448 2.448 0 01-.607-.675l-.21.027c-.344.027-.634-.243-.66-.594a.63.63 0 01.58-.675l.607-.054a.624.624 0 01.633.405c.079.216.237.405.421.54.66.486 1.477.621 2.242.378l5.353-1.404a4.008 4.008 0 00-2.136-1.107.639.639 0 01-.527-.73.628.628 0 01.712-.54 5.243 5.243 0 013.533 2.377.615.615 0 01.053.567.658.658 0 01-.422.378l-6.25 1.647c-.369.135-.738.19-1.107.19z" fill="#fff"/><path d="M70.398 84.39a.521.521 0 01-.343-.109c-.132-.08-.185-.135-.264-.189l-12.368-9.505c-2.426-2.026-12.183-14.393-13.238-16.77-.29-.675-.29-1.43-.026-2.16a3.834 3.834 0 012.004-2.133c.95-.432 2.057-.405 3.033.108.158.08.448.324 1.846 1.458 2.32 1.917 9.361 7.75 10.733 7.804 1.239.081 2.373-.756 2.742-1.971.132-.405 1.187-3.97-.08-6.508-.58-1.161-1.687-1.971-2.926-2.16l-6.276-1.216c-.343-.053-.554-.405-.502-.729a.622.622 0 01.713-.513l6.25 1.189c1.634.27 3.058 1.323 3.823 2.835 1.477 2.916.396 6.75.158 7.48-.553 1.755-2.188 2.916-3.982 2.862-1.45-.08-5.432-3.16-11.418-8.1-.791-.649-1.503-1.243-1.662-1.351a2.108 2.108 0 00-1.925-.054 2.76 2.76 0 00-1.37 1.431c-.106.297-.212.73 0 1.188.975 2.215 10.574 14.393 12.842 16.284l12.262 9.424 17.721-9.316a.779.779 0 01.264-.108L77.359 51.58a3.545 3.545 0 00-1.318-1.27l-5.88-3.618a12.17 12.17 0 00-6.462-1.512l-10.548-.432a.67.67 0 01-.606-.675c.026-.352.316-.595.659-.622l10.495.432c2.427-.108 4.906.486 7.068 1.675l5.88 3.618c.712.378 1.345 1 1.794 1.755L89.91 73.75c.106.216.08.459-.025.648a.613.613 0 01-.58.27c-.212 0-.396.027-.58.108l-18.038 9.478c-.106.135-.185.135-.29.135z" fill="#fff"/><path d="M51.543 83.363c-1.53 0-2.901-1.134-3.191-2.727l-2.61-14.366a3.321 3.321 0 01.527-2.485 3.264 3.264 0 012.083-1.377.609.609 0 01.712.513c.053.351-.158.675-.501.73a2.045 2.045 0 00-1.292.863c-.317.46-.422 1-.317 1.54l2.584 14.393c.212 1.107 1.24 1.863 2.348 1.647l7.225-1.35a2.045 2.045 0 001.292-.864c.317-.46.422-1 .317-1.54l-.29-1.593a.662.662 0 01.5-.756.648.648 0 01.739.513l.29 1.593a3.322 3.322 0 01-.527 2.485 3.264 3.264 0 01-2.084 1.377l-7.225 1.377c-.185.027-.396.027-.58.027z" fill="#fff"/><path d="M37.75 72.805c-.236 0-.474-.135-.553-.379l-1.134-2.565a.624.624 0 01-.026-.486l4.746-13.205c-2.294-2.484-3.006-6.076-1.872-9.316 1.688-4.618 6.751-7.021 11.313-5.293 2.215.837 3.956 2.484 4.958 4.672.975 2.187 1.081 4.645.264 6.886a8.772 8.772 0 01-3.007 4.104.598.598 0 01-.87-.135.632.632 0 01.132-.89c1.187-.892 2.057-2.107 2.584-3.511a7.911 7.911 0 00-.237-5.914 7.566 7.566 0 00-4.246-4.024c-3.929-1.485-8.28.567-9.73 4.591-1.029 2.89-.317 6.103 1.845 8.236.185.162.238.432.159.675l-4.8 13.34.844 1.917 3.507-.297-.263-2.025a.65.65 0 01.29-.621l1.371-.864-.185-2.62a.624.624 0 01.185-.513l1.846-1.89-.37-2.133a.66.66 0 01.423-.73l1.213-.404a.638.638 0 01.79.405.66.66 0 01-.395.81l-.712.243.343 1.917a.653.653 0 01-.184.567l-1.873 1.917.211 2.7c.026.244-.105.46-.29.595l-1.345.837.29 2.268a.654.654 0 01-.132.486.681.681 0 01-.422.243l-4.614.406h-.053zM74.907 97c-.237 0-.475-.027-.712-.108a2.396 2.396 0 01-1.371-1.188l-4.457-8.911c-.58-1.162-.132-2.62 1.002-3.214l18.776-9.883a2.32 2.32 0 013.138 1.026l4.457 8.911a2.28 2.28 0 01.132 1.81 2.423 2.423 0 01-1.16 1.404L75.935 96.73c-.29.189-.66.27-1.029.27zm14.32-22.278a.88.88 0 00-.502.135L69.95 84.74c-.527.27-.738.945-.474 1.513l4.456 8.91c.132.27.37.46.633.54.264.082.58.055.818-.08l18.776-9.857c.263-.135.448-.378.527-.648.08-.27.053-.594-.08-.837L90.15 75.37a.956.956 0 00-.923-.648z" stroke="#fff"/><path d="M57.529 56.116a3.698 3.698 0 01-2.215-.729 2.448 2.448 0 01-.607-.675l-.21.027c-.344.027-.634-.243-.66-.594a.63.63 0 01.58-.675l.607-.054a.624.624 0 01.633.405c.079.216.237.405.421.54.66.486 1.477.621 2.242.378l5.353-1.404a4.008 4.008 0 00-2.136-1.107.639.639 0 01-.527-.73.628.628 0 01.712-.54 5.243 5.243 0 013.533 2.377.615.615 0 01.053.567.658.658 0 01-.422.378l-6.25 1.647c-.369.135-.738.19-1.107.19z" stroke="#fff"/><path d="M70.398 84.39a.521.521 0 01-.343-.109c-.132-.08-.185-.135-.264-.189l-12.368-9.505c-2.426-2.026-12.183-14.393-13.238-16.77-.29-.675-.29-1.43-.026-2.16a3.834 3.834 0 012.004-2.133c.95-.432 2.057-.405 3.033.108.158.08.448.324 1.846 1.458 2.32 1.917 9.361 7.75 10.733 7.804 1.239.081 2.373-.756 2.742-1.971.132-.405 1.187-3.97-.08-6.508-.58-1.161-1.687-1.971-2.926-2.16l-6.276-1.216c-.343-.053-.554-.405-.502-.729a.622.622 0 01.713-.513l6.25 1.189c1.634.27 3.058 1.323 3.823 2.835 1.477 2.916.396 6.75.158 7.48-.553 1.755-2.188 2.916-3.982 2.862-1.45-.08-5.432-3.16-11.418-8.1-.791-.649-1.503-1.243-1.662-1.351a2.108 2.108 0 00-1.925-.054 2.76 2.76 0 00-1.37 1.431c-.106.297-.212.73 0 1.188.975 2.215 10.574 14.393 12.842 16.284l12.262 9.424 17.721-9.316a.779.779 0 01.264-.108L77.359 51.58a3.545 3.545 0 00-1.318-1.27l-5.88-3.618a12.17 12.17 0 00-6.462-1.512l-10.548-.432a.67.67 0 01-.606-.675c.026-.352.316-.595.659-.622l10.495.432c2.427-.108 4.906.486 7.068 1.675l5.88 3.618c.712.378 1.345 1 1.794 1.755L89.91 73.75c.106.216.08.459-.025.648a.613.613 0 01-.58.27c-.212 0-.396.027-.58.108l-18.038 9.478c-.106.135-.185.135-.29.135z" stroke="#fff"/><path d="M51.543 83.363c-1.53 0-2.901-1.134-3.191-2.727l-2.61-14.366a3.321 3.321 0 01.527-2.485 3.264 3.264 0 012.083-1.377.609.609 0 01.712.513c.053.351-.158.675-.501.73a2.045 2.045 0 00-1.292.863c-.317.46-.422 1-.317 1.54l2.584 14.393c.212 1.107 1.24 1.863 2.348 1.647l7.225-1.35a2.045 2.045 0 001.292-.864c.317-.46.422-1 .317-1.54l-.29-1.593a.662.662 0 01.5-.756.648.648 0 01.739.513l.29 1.593a3.322 3.322 0 01-.527 2.485 3.264 3.264 0 01-2.084 1.377l-7.225 1.377c-.185.027-.396.027-.58.027z" stroke="#fff"/></svg>