<?xml version="1.0" encoding="utf-8"?><svg width="18" height="18" fill="none" xmlns="http://www.w3.org/2000/svg" viewBox="0 0 18 18"><path d="M13.317 7.639a.664.664 0 100-1.328.664.664 0 000 1.328z" fill="#000"/><path d="M14.845 1.33h-.864V.666a.664.664 0 10-1.328 0v.664H9.632V.666a.664.664 0 10-1.328 0v.664H5.315V.666a.664.664 0 10-1.328 0v.664h-.83A2.66 2.66 0 00.501 3.986v10.36a2.66 2.66 0 002.656 2.656h5.08a.664.664 0 100-1.328h-5.08a1.33 1.33 0 01-1.328-1.328V3.986a1.33 1.33 0 011.328-1.328h.83v.664a.664.664 0 101.328 0v-.664h2.989v.664a.664.664 0 101.328 0v-.664h3.021v.664a.664.664 0 101.328 0v-.664h.864a1.33 1.33 0 011.328 1.328v3.785a.664.664 0 101.328 0V3.986a2.66 2.66 0 00-2.656-2.656z" fill="#000"/><path d="M13.483 8.967a4.022 4.022 0 00-4.017 4.017 4.022 4.022 0 004.017 4.018 4.022 4.022 0 004.018-4.018 4.022 4.022 0 00-4.018-4.017zm0 6.707a2.692 2.692 0 01-2.69-2.69 2.693 2.693 0 012.69-2.69 2.693 2.693 0 012.69 2.69 2.693 2.693 0 01-2.69 2.69z" fill="#000"/><path d="M14.446 12.32h-.298v-.697a.664.664 0 00-1.329 0v1.361c0 .367.298.664.664.664h.963a.664.664 0 100-1.328zM10.429 7.639a.664.664 0 100-1.328.664.664 0 000 1.328zM7.54 10.527a.664.664 0 100-1.328.664.664 0 000 1.328zM4.651 7.639a.664.664 0 100-1.328.664.664 0 000 1.328zM4.651 10.527a.664.664 0 100-1.328.664.664 0 000 1.328zM4.651 13.416a.664.664 0 100-1.328.664.664 0 000 1.328zM7.54 13.416a.664.664 0 100-1.328.664.664 0 000 1.328zM7.54 7.639a.664.664 0 100-1.328.664.664 0 000 1.328z" fill="#000"/></svg>