<?xml version="1.0" encoding="utf-8"?><svg width="132" height="132" fill="none" xmlns="http://www.w3.org/2000/svg" viewBox="0 0 132 132"><circle cx="66" cy="66" r="66" fill="#3498DB"/><path d="M94.192 88H36.808C34.152 88 32 85.817 32 83.123V47.877C32 45.183 34.152 43 36.808 43h57.384C96.848 43 99 45.183 99 47.877v35.246C99 85.817 96.848 88 94.192 88zM36.808 44.333c-1.929 0-3.494 1.588-3.494 3.544v35.246c0 1.956 1.565 3.544 3.494 3.544h57.384c1.929 0 3.494-1.588 3.494-3.544V47.877c0-1.956-1.565-3.544-3.494-3.544H36.808z" fill="#fff"/><path d="M56.331 69.154a.56.56 0 01-.544-.458c-.071-.313.142-.602.45-.674l.378-.073c.331-.072.591-.289.733-.602l.71-1.711c.047-.096.024-.217-.024-.313-.07-.097-.189-.145-.33-.12-.308.071-.592-.121-.663-.435a.557.557 0 01.426-.674 1.402 1.402 0 011.466.578c.284.41.355.94.166 1.422l-.71 1.71c-.33.651-.899 1.133-1.585 1.254l-.378.072c-.024.024-.071.024-.095.024zM45.685 69.154h-.118l-.355-.096a2.137 2.137 0 01-1.538-1.277l-.71-1.711a1.462 1.462 0 01.166-1.422 1.402 1.402 0 011.467-.578.557.557 0 01.426.674c-.071.314-.355.506-.663.434a.344.344 0 00-.33.12.3.3 0 00-.024.314l.71 1.71c.118.314.401.53.733.603l.378.073a.591.591 0 01.45.674c-.095.29-.331.482-.592.482z" fill="#fff"/><path d="M44.502 65.202a.56.56 0 01-.544-.458c-.331-1.783-.639-4.41-.118-6.747.331-1.47 1.112-2.7 2.366-3.687 1.348-1.085 3.051-1.663 4.802-1.663 1.75 0 3.454.602 4.803 1.663 1.254.988 2.034 2.217 2.365 3.687.544 2.458.166 5.253-.118 6.723-.047.314-.355.506-.662.458-.308-.048-.497-.361-.45-.675.26-1.373.615-4 .119-6.265-.26-1.205-.923-2.217-1.94-3.036-2.319-1.832-5.915-1.832-8.233 0-1.041.819-1.68 1.83-1.94 3.036-.52 2.265-.142 4.916.118 6.29a.591.591 0 01-.45.674h-.118zM51.008 74.528c-.402 0-.78-.048-1.16-.169-.567-.168-1.631-1.084-1.939-1.35-.97-.987-1.963-2.53-2.72-4.168-.119-.29 0-.627.26-.747.284-.12.615 0 .733.265.686 1.518 1.609 2.94 2.46 3.808.568.505 1.278 1.036 1.467 1.084a3.01 3.01 0 001.727 0c.19-.048.9-.578 1.49-1.109.829-.843 1.751-2.265 2.437-3.783.119-.29.45-.41.734-.265.284.12.402.458.26.747-.733 1.639-1.75 3.18-2.697 4.145-.331.313-1.396 1.229-1.964 1.373a3.693 3.693 0 01-1.088.17z" fill="#fff"/><path d="M51.008 78.167c-2.531 0-4.518-1.23-4.518-2.82v-.072l-3.691 1.253a.573.573 0 01-.71-.361.589.589 0 01.355-.723l4.85-1.639a.568.568 0 01.639.241.588.588 0 01-.048.699c-.189.217-.283.41-.283.626 0 .796 1.395 1.687 3.406 1.687s3.407-.891 3.407-1.687c0-.216-.095-.433-.284-.626a.553.553 0 01.047-.795.53.53 0 01.781.048c.378.41.568.892.568 1.398 0 1.542-1.988 2.77-4.519 2.77zM46.82 64.238c-1.49 0-2.554-.289-2.672-.313-.308-.072-.474-.386-.403-.699.071-.313.379-.482.686-.41.237.073 5.655 1.47 9.274-2.795a.53.53 0 01.78-.048c.237.217.261.554.048.795-2.39 2.868-5.512 3.47-7.712 3.47z" fill="#fff"/><path d="M55.408 63.154a.62.62 0 01-.283-.073l-2.13-1.3a.563.563 0 01-.189-.772c.166-.265.497-.361.757-.193l2.13 1.302c.26.168.354.506.189.77a.543.543 0 01-.474.266zM59.383 76.528c-.047 0-.118 0-.166-.024l-4.85-1.639a.578.578 0 01-.354-.722.563.563 0 01.71-.362l4.85 1.639c.283.096.449.41.354.723a.584.584 0 01-.544.385zM85.998 60.503h-18.43c-1.514 0-2.744-1.253-2.744-2.795 0-1.543 1.23-2.796 2.744-2.796h18.43c1.514 0 2.744 1.253 2.744 2.796 0 1.542-1.23 2.795-2.745 2.795zm-18.43-4.458c-.899 0-1.632.747-1.632 1.663 0 .915.733 1.662 1.632 1.662h18.43c.898 0 1.632-.747 1.632-1.662 0-.916-.733-1.663-1.632-1.663h-18.43zM74.831 68.214h-7.263c-1.514 0-2.744-1.253-2.744-2.795s1.23-2.795 2.744-2.795h7.263c1.514 0 2.745 1.253 2.745 2.795s-1.23 2.795-2.745 2.795zm-7.263-4.458c-.899 0-1.632.747-1.632 1.663s.733 1.663 1.632 1.663h7.263c.9 0 1.633-.747 1.633-1.663s-.734-1.663-1.633-1.663h-7.263zM81.526 75.902H67.568c-1.514 0-2.744-1.253-2.744-2.796 0-1.542 1.23-2.795 2.744-2.795h13.958c1.514 0 2.745 1.253 2.745 2.795 0 1.543-1.23 2.796-2.745 2.796zm-13.958-4.458c-.899 0-1.632.747-1.632 1.662 0 .916.733 1.663 1.632 1.663h13.958c.9 0 1.633-.747 1.633-1.663 0-.915-.734-1.662-1.633-1.662H67.568z" fill="#fff"/><path d="M94.192 88H36.808C34.152 88 32 85.817 32 83.123V47.877C32 45.183 34.152 43 36.808 43h57.384C96.848 43 99 45.183 99 47.877v35.246C99 85.817 96.848 88 94.192 88zM36.808 44.333c-1.929 0-3.494 1.588-3.494 3.544v35.246c0 1.956 1.565 3.544 3.494 3.544h57.384c1.929 0 3.494-1.588 3.494-3.544V47.877c0-1.956-1.565-3.544-3.494-3.544H36.808z" stroke="#fff"/><path d="M56.331 69.154a.56.56 0 01-.544-.458c-.071-.313.142-.602.45-.674l.378-.073c.331-.072.591-.289.733-.602l.71-1.711c.047-.096.024-.217-.024-.313-.07-.097-.189-.145-.33-.12-.308.071-.592-.121-.663-.435a.557.557 0 01.426-.674 1.402 1.402 0 011.466.578c.284.41.355.94.166 1.422l-.71 1.71c-.33.651-.899 1.133-1.585 1.254l-.378.072c-.024.024-.071.024-.095.024zM45.685 69.154h-.118l-.355-.096a2.137 2.137 0 01-1.538-1.277l-.71-1.711a1.462 1.462 0 01.166-1.422 1.402 1.402 0 011.467-.578.557.557 0 01.426.674c-.071.314-.355.506-.663.434a.344.344 0 00-.33.12.3.3 0 00-.024.314l.71 1.71c.118.314.401.53.733.603l.378.073a.591.591 0 01.45.674c-.095.29-.331.482-.592.482z" stroke="#fff"/><path d="M44.502 65.202a.56.56 0 01-.544-.458c-.331-1.783-.639-4.41-.118-6.747.331-1.47 1.112-2.7 2.366-3.687 1.348-1.085 3.051-1.663 4.802-1.663 1.75 0 3.454.602 4.803 1.663 1.254.988 2.034 2.217 2.365 3.687.544 2.458.166 5.253-.118 6.723-.047.314-.355.506-.662.458-.308-.048-.497-.361-.45-.675.26-1.373.615-4 .119-6.265-.26-1.205-.923-2.217-1.94-3.036-2.319-1.832-5.915-1.832-8.233 0-1.041.819-1.68 1.83-1.94 3.036-.52 2.265-.142 4.916.118 6.29a.591.591 0 01-.45.674h-.118zM51.008 74.528c-.402 0-.78-.048-1.16-.169-.567-.168-1.631-1.084-1.939-1.35-.97-.987-1.963-2.53-2.72-4.168-.119-.29 0-.627.26-.747.284-.12.615 0 .733.265.686 1.518 1.609 2.94 2.46 3.808.568.505 1.278 1.036 1.467 1.084a3.01 3.01 0 001.727 0c.19-.048.9-.578 1.49-1.109.829-.843 1.751-2.265 2.437-3.783.119-.29.45-.41.734-.265.284.12.402.458.26.747-.733 1.639-1.75 3.18-2.697 4.145-.331.313-1.396 1.229-1.964 1.373a3.693 3.693 0 01-1.088.17z" stroke="#fff"/><path d="M51.008 78.167c-2.531 0-4.518-1.23-4.518-2.82v-.072l-3.691 1.253a.573.573 0 01-.71-.361.589.589 0 01.355-.723l4.85-1.639a.568.568 0 01.639.241.588.588 0 01-.048.699c-.189.217-.283.41-.283.626 0 .796 1.395 1.687 3.406 1.687s3.407-.891 3.407-1.687c0-.216-.095-.433-.284-.626a.553.553 0 01.047-.795.53.53 0 01.781.048c.378.41.568.892.568 1.398 0 1.542-1.988 2.77-4.519 2.77zM46.82 64.238c-1.49 0-2.554-.289-2.672-.313-.308-.072-.474-.386-.403-.699.071-.313.379-.482.686-.41.237.073 5.655 1.47 9.274-2.795a.53.53 0 01.78-.048c.237.217.261.554.048.795-2.39 2.868-5.512 3.47-7.712 3.47z" stroke="#fff"/><path d="M55.408 63.154a.62.62 0 01-.283-.073l-2.13-1.3a.563.563 0 01-.189-.772c.166-.265.497-.361.757-.193l2.13 1.302c.26.168.354.506.189.77a.543.543 0 01-.474.266zM59.383 76.528c-.047 0-.118 0-.166-.024l-4.85-1.639a.578.578 0 01-.354-.722.563.563 0 01.71-.362l4.85 1.639c.283.096.449.41.354.723a.584.584 0 01-.544.385zM85.998 60.503h-18.43c-1.514 0-2.744-1.253-2.744-2.795 0-1.543 1.23-2.796 2.744-2.796h18.43c1.514 0 2.744 1.253 2.744 2.796 0 1.542-1.23 2.795-2.745 2.795zm-18.43-4.458c-.899 0-1.632.747-1.632 1.663 0 .915.733 1.662 1.632 1.662h18.43c.898 0 1.632-.747 1.632-1.662 0-.916-.733-1.663-1.632-1.663h-18.43zM74.831 68.214h-7.263c-1.514 0-2.744-1.253-2.744-2.795s1.23-2.795 2.744-2.795h7.263c1.514 0 2.745 1.253 2.745 2.795s-1.23 2.795-2.745 2.795zm-7.263-4.458c-.899 0-1.632.747-1.632 1.663s.733 1.663 1.632 1.663h7.263c.9 0 1.633-.747 1.633-1.663s-.734-1.663-1.633-1.663h-7.263zM81.526 75.902H67.568c-1.514 0-2.744-1.253-2.744-2.796 0-1.542 1.23-2.795 2.744-2.795h13.958c1.514 0 2.745 1.253 2.745 2.795 0 1.543-1.23 2.796-2.745 2.796zm-13.958-4.458c-.899 0-1.632.747-1.632 1.662 0 .916.733 1.663 1.632 1.663h13.958c.9 0 1.633-.747 1.633-1.663 0-.915-.734-1.662-1.633-1.662H67.568z" stroke="#fff"/></svg>