<?xml version="1.0" encoding="utf-8"?><svg width="109" height="15" fill="none" xmlns="http://www.w3.org/2000/svg" viewBox="0 0 109 15"><path fill-rule="evenodd" clip-rule="evenodd" d="M3.475 12.373H.906V0h5.562v2.278H3.471l.004 10.095zM12.305 0h5.99v2.278H14.98v2.387h2.57v2.279h-2.57v3.154h3.53v2.279h-6.204V0zM29.21 6.944h-2.46v5.424h-2.674V0h2.674v4.665h2.46V0h2.57v12.373h-2.57v-5.43zM37.58 0h5.99v2.278h-3.316v2.387h2.569v2.279h-2.57v3.154h3.531v2.279H37.58V0zM54.16 3.579c0-.562-.375-1.3-.961-1.3h-1.196v4.014h1.212c.59 0 .961-1.05.961-1.518l-.016-1.196zm-.323 4.904h-1.834v3.906H49.33V0h4.387a3.058 3.058 0 012.993 3.147v1.955c.016 1.361-.751 3.38-2.872 3.38zm11.068-5.207l-.856 4.556h1.712l-.856-4.556zm1.284 6.62h-2.569l-.428 2.497H60.52L63.193 0h3.426l2.674 12.373h-2.674l-.428-2.477zm14.276 2.497h-6.65V0h2.675v10.098h2.355V0h2.674v10.098h1.07v4.444h-2.14l.016-2.15zm12.243-6.62l-2.674 5.315v1.3H87.36V0h2.674v6.62l2.674-5.315V0h2.674v12.373h-2.674v-6.6zm12.97-3.475h-1.284c-.465 0-.857.614-.857.978v1.41c0 .404.34 1.3.748 1.3h1.389l.004-3.688zm0 10.099V8.03h-.856l-1.713 4.343h-2.888l2.355-4.884s-1.616-.723-1.616-2.929V2.945c0-1.685 1.176-2.929 3.103-2.929h4.289V12.39l-2.674.008z" fill="#000"/></svg>