<?xml version="1.0" encoding="utf-8"?><svg width="75" height="75" fill="none" xmlns="http://www.w3.org/2000/svg" viewBox="0 0 75 75"><path d="M7.239 37.093a2.051 2.051 0 010 1.813l-2.611 5.341a6.077 6.077 0 002.622 8.07l5.251 2.786c.567.3.955.835 1.066 1.467l1.027 5.855a6.077 6.077 0 006.865 4.988l5.886-.833a2.051 2.051 0 011.724.56l4.273 4.134a6.076 6.076 0 008.485 0l4.272-4.134a2.052 2.052 0 011.725-.56l5.886.832a6.076 6.076 0 006.864-4.987l1.027-5.855c.111-.632.5-1.166 1.066-1.467l5.251-2.787a6.077 6.077 0 002.622-8.07l-2.61-5.34a2.052 2.052 0 010-1.813l2.61-5.34a6.077 6.077 0 00-2.622-8.07l-5.251-2.787a2.052 2.052 0 01-1.066-1.467l-1.027-5.855a6.073 6.073 0 00-6.864-4.987l-5.886.832a2.05 2.05 0 01-1.725-.56l-4.272-4.133A6.082 6.082 0 0037.584 3a6.084 6.084 0 00-4.242 1.726l-4.273 4.133c-.46.446-1.09.65-1.724.56l-5.886-.832a6.076 6.076 0 00-6.865 4.987l-1.027 5.855c-.11.632-.5 1.167-1.066 1.467L7.25 23.683a6.077 6.077 0 00-2.622 8.07l2.61 5.34zm1.903-9.844l5.252-2.786a6.063 6.063 0 003.15-4.336l1.027-5.855a2.056 2.056 0 012.322-1.688l5.886.833a6.061 6.061 0 005.097-1.656l4.273-4.133a2.056 2.056 0 012.87 0l4.273 4.133a6.057 6.057 0 005.097 1.656l5.886-.832a2.056 2.056 0 012.323 1.687l1.027 5.855a6.062 6.062 0 003.15 4.336l5.251 2.786a2.056 2.056 0 01.887 2.73l-2.61 5.341a6.062 6.062 0 000 5.36l2.61 5.34a2.056 2.056 0 01-.887 2.73l-5.251 2.787a6.063 6.063 0 00-3.15 4.335l-1.027 5.856a2.056 2.056 0 01-2.322 1.687l-5.887-.832a6.063 6.063 0 00-5.097 1.656l-4.272 4.133a2.056 2.056 0 01-2.871 0l-4.273-4.133a6.062 6.062 0 00-5.097-1.657l-5.886.833a2.056 2.056 0 01-2.322-1.687l-1.027-5.856a6.062 6.062 0 00-3.15-4.335L9.142 48.75a2.056 2.056 0 01-.887-2.73l2.611-5.34a6.063 6.063 0 000-5.36l-2.61-5.34a2.056 2.056 0 01.886-2.73z" fill="#3498DB"/><path d="M22.833 52.749a2.019 2.019 0 002.855 0l26.645-26.645a2.019 2.019 0 00-2.855-2.855L22.833 49.894a2.018 2.018 0 000 2.855zM45.659 56.168c4.081 0 7.401-3.32 7.401-7.402 0-4.081-3.32-7.402-7.401-7.402-4.081 0-7.402 3.32-7.402 7.402 0 4.081 3.32 7.402 7.402 7.402zm0-10.766a3.368 3.368 0 013.364 3.364 3.368 3.368 0 01-3.364 3.365 3.368 3.368 0 01-3.365-3.365 3.368 3.368 0 013.365-3.364zM29.51 34.637c4.082 0 7.402-3.32 7.402-7.402 0-4.081-3.32-7.402-7.402-7.402-4.081 0-7.401 3.32-7.401 7.402 0 4.081 3.32 7.402 7.401 7.402zm0-10.766a3.368 3.368 0 013.365 3.364 3.368 3.368 0 01-3.365 3.364 3.368 3.368 0 01-3.364-3.364 3.368 3.368 0 013.364-3.364z" fill="#3498DB"/></svg>