<?xml version="1.0" encoding="utf-8"?><svg width="75" height="75" fill="none" xmlns="http://www.w3.org/2000/svg" viewBox="0 0 75 75"><path d="M21.63 28.454c-2.624 0-4.76 2.142-4.76 4.773 0 2.632 2.136 4.773 4.76 4.773 2.625 0 4.761-2.141 4.761-4.773 0-2.631-2.136-4.772-4.76-4.772zm0 6.364a1.592 1.592 0 010-3.182 1.592 1.592 0 010 3.182zM37.5 31.636a1.59 1.59 0 00-1.587 1.591V38c0 .878.71 1.591 1.587 1.591A1.59 1.59 0 0039.087 38v-4.773a1.59 1.59 0 00-1.587-1.59zM31.152 31.636a1.59 1.59 0 00-1.587 1.591V38c0 .878.711 1.591 1.587 1.591a1.59 1.59 0 001.587-1.59v-4.774a1.59 1.59 0 00-1.587-1.59zM24.804 50.727c.877 0 1.587-.712 1.587-1.59 0-.88-.71-1.592-1.587-1.592-.876 0-1.587.713-1.587 1.591 0 .879.71 1.591 1.587 1.591z" fill="#3498DB"/><path d="M24.804 52.318a3.178 3.178 0 003.174-3.182 3.178 3.178 0 00-3.174-3.181 3.178 3.178 0 00-3.173 3.181 3.178 3.178 0 003.173 3.182zM8.935 25.273H4.174V22.09h4.76a1.59 1.59 0 001.588-1.591 1.59 1.59 0 00-1.587-1.591H2.587A1.59 1.59 0 001 20.5v6.364c0 .878.711 1.59 1.587 1.59h6.348a1.59 1.59 0 001.587-1.59 1.59 1.59 0 00-1.587-1.591zM15.283 50.727a1.59 1.59 0 00-1.587 1.591v15.91c0 .877-.714 1.59-1.587 1.59H5.76a1.592 1.592 0 01-1.587-1.59v-15.91a1.59 1.59 0 00-1.587-1.59A1.59 1.59 0 001 52.317v15.91C1 70.857 3.136 73 5.76 73h6.349c2.625 0 4.76-2.141 4.76-4.773V52.318a1.59 1.59 0 00-1.586-1.59z" fill="#3498DB"/><path d="M72.413 41.182H2.587A1.59 1.59 0 001 42.772v7.955a1.59 1.59 0 001.085 1.508l4.761 1.591c.162.054.33.083.502.083h9.867l1.29 5.158c.174.71.812 1.206 1.539 1.206h34.912c.727 0 1.365-.497 1.543-1.206l1.285-5.158h9.868c.171 0 .34-.029.502-.083l4.76-1.59A1.59 1.59 0 0074 50.726v-7.954a1.59 1.59 0 00-1.587-1.591zm-1.587 8.4l-3.43 1.145H56.542c-.726 0-1.364.497-1.539 1.206l-1.285 5.158H21.284l-1.288-5.158a1.586 1.586 0 00-1.54-1.206H7.605l-3.431-1.145v-5.218h66.652v5.218zM53.37 28.454c-2.625 0-4.761 2.142-4.761 4.773 0 2.632 2.136 4.773 4.76 4.773 2.625 0 4.761-2.141 4.761-4.773 0-2.631-2.136-4.772-4.76-4.772zm0 6.364a1.592 1.592 0 010-3.182 1.592 1.592 0 010 3.182zM37.5 31.636a1.59 1.59 0 00-1.587 1.591V38c0 .878.71 1.591 1.587 1.591A1.59 1.59 0 0039.087 38v-4.773a1.59 1.59 0 00-1.587-1.59zM43.848 31.636a1.59 1.59 0 00-1.587 1.591V38c0 .878.71 1.591 1.587 1.591a1.59 1.59 0 001.587-1.59v-4.774a1.59 1.59 0 00-1.587-1.59zM64.726 22.11c-.832-.13-20.39-3.2-27.226-3.2-6.837 0-26.394 3.07-27.226 3.2a1.59 1.59 0 00-1.32 1.82 1.6 1.6 0 001.815 1.324c.2-.032 20.142-3.163 26.73-3.163 6.59 0 26.532 3.131 26.732 3.163a1.59 1.59 0 00.495-3.144z" fill="#3498DB"/><path d="M72.794 31.684l-5.148-1.292-.003-3.681c-.905-9.383-2.641-20.822-5.777-22.015C58.886 3.56 41.077 3.083 37.462 3c-3.54.083-21.348.56-24.331 1.696-3.136 1.193-4.872 12.629-5.783 22.168v3.528l-5.145 1.292A1.591 1.591 0 001 33.227v9.546c0 .878.711 1.59 1.587 1.59h11.109a1.594 1.594 0 001.57-1.816L13.68 31.41a1.588 1.588 0 00-1.571-1.365h-1.59l-.004-3.029c.81-8.422 2.571-18.241 3.746-19.348 1.907-.726 15.288-1.295 23.2-1.486 7.99.19 21.37.76 23.123 1.403 1.33 1.19 3.091 11.009 3.894 19.279v3.181h-1.587c-.79 0-1.46.583-1.57 1.369L59.732 42.55a1.585 1.585 0 001.571 1.814h11.109c.876 0 1.587-.713 1.584-1.591v-9.546c0-.731-.495-1.365-1.203-1.543zm-62.06 1.543l1.133 7.955H4.174v-6.71l4.958-1.245h1.602zm60.092 7.955h-7.694l1.134-7.955h1.602l4.958 1.244v6.71zM50.196 50.727c.876 0 1.587-.712 1.587-1.59 0-.88-.71-1.592-1.587-1.592s-1.587.713-1.587 1.591c0 .879.71 1.591 1.587 1.591z" fill="#3498DB"/><path d="M50.196 45.955a3.181 3.181 0 00-3.174 3.181 3.181 3.181 0 003.174 3.182 3.181 3.181 0 003.174-3.182 3.18 3.18 0 00-3.174-3.181zM72.413 18.909h-6.348a1.59 1.59 0 00-1.587 1.591c0 .878.711 1.59 1.587 1.59h4.761v3.183h-4.76a1.59 1.59 0 00-1.588 1.59c0 .879.711 1.592 1.587 1.592h6.348A1.59 1.59 0 0074 26.864V20.5a1.59 1.59 0 00-1.587-1.591zM72.413 50.727a1.59 1.59 0 00-1.587 1.591v15.91c0 .877-.714 1.59-1.587 1.59h-6.348a1.592 1.592 0 01-1.587-1.59v-15.91a1.59 1.59 0 00-1.587-1.59 1.59 1.59 0 00-1.587 1.59v15.91c0 2.63 2.136 4.772 4.761 4.772h6.348c2.625 0 4.76-2.141 4.76-4.773V52.318c.001-.878-.71-1.59-1.586-1.59z" fill="#3498DB"/></svg>