<?xml version="1.0" encoding="utf-8"?><svg width="133" height="132" fill="none" xmlns="http://www.w3.org/2000/svg" viewBox="0 0 133 132"><ellipse cx="66.995" cy="66" rx="66.003" ry="66" fill="#3498DB"/><path d="M49.911 73.881c-4.29 0-7.788-3.54-7.788-7.882 0-4.34 3.499-7.882 7.788-7.882 4.29 0 7.789 3.541 7.789 7.882 0 4.342-3.499 7.882-7.789 7.882zm0-14.286c-3.498 0-6.328 2.894-6.328 6.404 0 3.541 2.86 6.404 6.328 6.404 3.5 0 6.328-2.894 6.328-6.404.03-3.54-2.829-6.404-6.328-6.404zM86.602 73.881c-4.29 0-7.788-3.54-7.788-7.882 0-4.34 3.498-7.882 7.788-7.882S94.39 61.658 94.39 66c0 4.342-3.499 7.882-7.788 7.882zm0-14.286c-3.499 0-6.328 2.894-6.328 6.404 0 3.541 2.86 6.404 6.328 6.404 3.498 0 6.328-2.894 6.328-6.404 0-3.54-2.83-6.404-6.328-6.404z" fill="#fff"/><path d="M44.283 71.049a.608.608 0 01-.335-.093l-5.963-3.17a7.34 7.34 0 01-1.916-1.448A7.69 7.69 0 0134 61.073v-5.911c0-1.509.943-2.833 2.373-3.295a34.154 34.154 0 015.507-1.324c2.494-.4 5.05-.554 7.575-.4.395.03.7.37.67.77-.031.4-.305.708-.761.677-2.434-.123-4.868 0-7.271.4a31.63 31.63 0 00-5.294 1.293 2.013 2.013 0 00-1.37 1.91v5.91a6.19 6.19 0 001.674 4.219c.456.462.974.862 1.552 1.17l5.963 3.202c.365.185.486.616.304.985a.74.74 0 01-.639.37zM97.28 71.049H92.2a.745.745 0 01-.73-.74c0-.4.334-.738.73-.738h5.08c1.126 0 2.221-.462 3.012-1.263a4.31 4.31 0 001.248-3.048v-3.14c0-.708-.365-1.355-1.004-1.693l-1.217-.678a55.241 55.241 0 00-13.386-5.296c-.396-.092-.609-.492-.518-.892.092-.4.487-.616.883-.524a56.538 56.538 0 0113.751 5.45l1.217.677A3.376 3.376 0 01103 62.12v3.171c0 1.54-.578 2.987-1.673 4.064a5.628 5.628 0 01-4.047 1.694z" fill="#fff"/><path d="M76.47 54.484a.687.687 0 01-.334-.092c-.365-.185-.486-.616-.304-.985.76-1.447 2.373-2.217 3.955-1.848l3.407.77-5.202-4.187c-2.92-2.371-6.571-3.695-10.313-3.695h-15.76c-1.125 0-2.16.431-2.981 1.2l-6.45 6.128c-.274.277-.73.246-1.004-.03a.731.731 0 01.03-1.017l6.45-6.127A5.582 5.582 0 0151.92 43h15.76c4.076 0 8.062 1.416 11.226 4.003l7.636 6.188c.274.216.335.585.213.893a.753.753 0 01-.822.4l-6.48-1.478c-.943-.215-1.916.247-2.373 1.109-.09.215-.365.37-.608.37zM80.974 71.049H55.54a.745.745 0 01-.73-.74c0-.4.334-.738.73-.738h25.434c.395 0 .73.339.73.739-.03.4-.335.739-.73.739zM39.902 64.614h-.091a9.503 9.503 0 01-5.598-2.74.731.731 0 010-1.016.685.685 0 011.004-.031c1.278 1.293 2.981 2.093 4.776 2.309.396.062.67.4.64.8-.062.4-.366.678-.73.678zM95.82 67.508a.745.745 0 01-.73-.739c0-.4.335-.739.73-.739 4.564 0 5.659-1.262 5.72-1.724-.031-.4.273-.708.669-.739a.79.79 0 01.761.708c0 .123 0 .8-.639 1.478-1.096 1.17-3.286 1.755-6.51 1.755zM76.47 66.738l-16.428-.462c-.395 0-.7-.338-.7-.739 0-.4.366-.708.73-.708l16.43.462c.395 0 .7.339.7.74-.031.4-.336.707-.731.707zM49.911 69.848a.745.745 0 01-.73-.739c0-.4.335-.739.73-.739 1.309 0 2.343-1.078 2.343-2.37a2.358 2.358 0 00-2.343-2.371.693.693 0 01-.7-.709c0-.4.335-.739.73-.739 2.1 0 3.773 1.725 3.773 3.818 0 2.125-1.703 3.849-3.803 3.849zM86.602 69.848a.745.745 0 01-.73-.739c0-.4.334-.739.73-.739 1.308 0 2.342-1.078 2.342-2.37a2.358 2.358 0 00-2.342-2.371.745.745 0 01-.73-.74c0-.4.334-.738.73-.738 2.099 0 3.772 1.724 3.772 3.818 0 2.155-1.703 3.879-3.772 3.879zM39.08 91C36.283 91 34 88.69 34 85.858c0-2.832 2.282-5.142 5.08-5.142 2.8 0 5.081 2.31 5.081 5.142A5.082 5.082 0 0139.081 91zm0-8.836c-2.007 0-3.65 1.662-3.65 3.694s1.643 3.695 3.65 3.695c2.009 0 3.651-1.663 3.651-3.695a3.626 3.626 0 00-3.65-3.694zM97.859 91c-2.8 0-5.081-2.31-5.081-5.142 0-2.832 2.281-5.142 5.08-5.142s5.081 2.31 5.081 5.142A5.081 5.081 0 0197.859 91zm0-8.836c-2.008 0-3.651 1.662-3.651 3.694s1.642 3.695 3.65 3.695 3.651-1.663 3.651-3.695a3.625 3.625 0 00-3.65-3.694zM50.216 86.566h-2.921a.745.745 0 01-.73-.739c0-.4.335-.739.73-.739h2.92c.396 0 .73.34.73.74a.725.725 0 01-.73.738zM58.095 86.566h-2.92a.745.745 0 01-.73-.739c0-.4.334-.739.73-.739h2.92c.396 0 .73.34.73.74 0 .43-.304.738-.73.738zM66.005 86.566h-2.92a.745.745 0 01-.73-.739c0-.4.334-.739.73-.739h2.92c.396 0 .73.34.73.74-.03.43-.334.738-.73.738zM73.885 86.566h-2.92a.745.745 0 01-.73-.739c0-.4.334-.739.73-.739h2.92c.395 0 .73.34.73.74a.725.725 0 01-.73.738zM81.764 86.566h-2.92a.745.745 0 01-.73-.739c0-.4.334-.739.73-.739h2.92c.396 0 .73.34.73.74a.725.725 0 01-.73.738zM89.675 86.566h-2.921a.745.745 0 01-.73-.739c0-.4.335-.739.73-.739h2.92c.396 0 .73.34.73.74-.03.43-.334.738-.73.738zM62.628 73.881H34.73a.745.745 0 01-.73-.739c0-.4.335-.739.73-.739h27.898c.396 0 .73.34.73.74-.03.4-.334.738-.73.738zM73.885 73.881h-5.628a.745.745 0 01-.73-.739c0-.4.334-.739.73-.739h5.628c.395 0 .73.34.73.74 0 .4-.335.738-.73.738zM102.239 73.881H80.304a.745.745 0 01-.73-.739c0-.4.335-.739.73-.739h21.935c.396 0 .731.34.731.74 0 .4-.335.738-.731.738z" fill="#fff"/><path d="M49.911 73.881c-4.29 0-7.788-3.54-7.788-7.882 0-4.34 3.499-7.882 7.788-7.882 4.29 0 7.789 3.541 7.789 7.882 0 4.342-3.499 7.882-7.789 7.882zm0-14.286c-3.498 0-6.328 2.894-6.328 6.404 0 3.541 2.86 6.404 6.328 6.404 3.5 0 6.328-2.894 6.328-6.404.03-3.54-2.829-6.404-6.328-6.404zM86.602 73.881c-4.29 0-7.788-3.54-7.788-7.882 0-4.34 3.498-7.882 7.788-7.882S94.39 61.658 94.39 66c0 4.342-3.499 7.882-7.788 7.882zm0-14.286c-3.499 0-6.328 2.894-6.328 6.404 0 3.541 2.86 6.404 6.328 6.404 3.498 0 6.328-2.894 6.328-6.404 0-3.54-2.83-6.404-6.328-6.404z" stroke="#fff"/><path d="M44.283 71.049a.608.608 0 01-.335-.093l-5.963-3.17a7.34 7.34 0 01-1.916-1.448A7.69 7.69 0 0134 61.073v-5.911c0-1.509.943-2.833 2.373-3.295a34.154 34.154 0 015.507-1.324c2.494-.4 5.05-.554 7.575-.4.395.03.7.37.67.77-.031.4-.305.708-.761.677-2.434-.123-4.868 0-7.271.4a31.63 31.63 0 00-5.294 1.293 2.013 2.013 0 00-1.37 1.91v5.91a6.19 6.19 0 001.674 4.219c.456.462.974.862 1.552 1.17l5.963 3.202c.365.185.486.616.304.985a.74.74 0 01-.639.37zM97.28 71.049H92.2a.745.745 0 01-.73-.74c0-.4.334-.738.73-.738h5.08c1.126 0 2.221-.462 3.012-1.263a4.31 4.31 0 001.248-3.048v-3.14c0-.708-.365-1.355-1.004-1.693l-1.217-.678a55.241 55.241 0 00-13.386-5.296c-.396-.092-.609-.492-.518-.892.092-.4.487-.616.883-.524a56.538 56.538 0 0113.751 5.45l1.217.677A3.376 3.376 0 01103 62.12v3.171c0 1.54-.578 2.987-1.673 4.064a5.628 5.628 0 01-4.047 1.694z" stroke="#fff"/><path d="M76.47 54.484a.687.687 0 01-.334-.092c-.365-.185-.486-.616-.304-.985.76-1.447 2.373-2.217 3.955-1.848l3.407.77-5.202-4.187c-2.92-2.371-6.571-3.695-10.313-3.695h-15.76c-1.125 0-2.16.431-2.981 1.2l-6.45 6.128c-.274.277-.73.246-1.004-.03a.731.731 0 01.03-1.017l6.45-6.127A5.582 5.582 0 0151.92 43h15.76c4.076 0 8.062 1.416 11.226 4.003l7.636 6.188c.274.216.335.585.213.893a.753.753 0 01-.822.4l-6.48-1.478c-.943-.215-1.916.247-2.373 1.109-.09.215-.365.37-.608.37zM80.974 71.049H55.54a.745.745 0 01-.73-.74c0-.4.334-.738.73-.738h25.434c.395 0 .73.339.73.739-.03.4-.335.739-.73.739zM39.902 64.614h-.091a9.503 9.503 0 01-5.598-2.74.731.731 0 010-1.016.685.685 0 011.004-.031c1.278 1.293 2.981 2.093 4.776 2.309.396.062.67.4.64.8-.062.4-.366.678-.73.678zM95.82 67.508a.745.745 0 01-.73-.739c0-.4.335-.739.73-.739 4.564 0 5.659-1.262 5.72-1.724-.031-.4.273-.708.669-.739a.79.79 0 01.761.708c0 .123 0 .8-.639 1.478-1.096 1.17-3.286 1.755-6.51 1.755zM76.47 66.738l-16.428-.462c-.395 0-.7-.338-.7-.739 0-.4.366-.708.73-.708l16.43.462c.395 0 .7.339.7.74-.031.4-.336.707-.731.707zM49.911 69.848a.745.745 0 01-.73-.739c0-.4.335-.739.73-.739 1.309 0 2.343-1.078 2.343-2.37a2.358 2.358 0 00-2.343-2.371.693.693 0 01-.7-.709c0-.4.335-.739.73-.739 2.1 0 3.773 1.725 3.773 3.818 0 2.125-1.703 3.849-3.803 3.849zM86.602 69.848a.745.745 0 01-.73-.739c0-.4.334-.739.73-.739 1.308 0 2.342-1.078 2.342-2.37a2.358 2.358 0 00-2.342-2.371.745.745 0 01-.73-.74c0-.4.334-.738.73-.738 2.099 0 3.772 1.724 3.772 3.818 0 2.155-1.703 3.879-3.772 3.879zM39.08 91C36.283 91 34 88.69 34 85.858c0-2.832 2.282-5.142 5.08-5.142 2.8 0 5.081 2.31 5.081 5.142A5.082 5.082 0 0139.081 91zm0-8.836c-2.007 0-3.65 1.662-3.65 3.694s1.643 3.695 3.65 3.695c2.009 0 3.651-1.663 3.651-3.695a3.626 3.626 0 00-3.65-3.694zM97.859 91c-2.8 0-5.081-2.31-5.081-5.142 0-2.832 2.281-5.142 5.08-5.142s5.081 2.31 5.081 5.142A5.081 5.081 0 0197.859 91zm0-8.836c-2.008 0-3.651 1.662-3.651 3.694s1.642 3.695 3.65 3.695 3.651-1.663 3.651-3.695a3.625 3.625 0 00-3.65-3.694zM50.216 86.566h-2.921a.745.745 0 01-.73-.739c0-.4.335-.739.73-.739h2.92c.396 0 .73.34.73.74a.725.725 0 01-.73.738zM58.095 86.566h-2.92a.745.745 0 01-.73-.739c0-.4.334-.739.73-.739h2.92c.396 0 .73.34.73.74 0 .43-.304.738-.73.738zM66.005 86.566h-2.92a.745.745 0 01-.73-.739c0-.4.334-.739.73-.739h2.92c.396 0 .73.34.73.74-.03.43-.334.738-.73.738zM73.885 86.566h-2.92a.745.745 0 01-.73-.739c0-.4.334-.739.73-.739h2.92c.395 0 .73.34.73.74a.725.725 0 01-.73.738zM81.764 86.566h-2.92a.745.745 0 01-.73-.739c0-.4.334-.739.73-.739h2.92c.396 0 .73.34.73.74a.725.725 0 01-.73.738zM89.675 86.566h-2.921a.745.745 0 01-.73-.739c0-.4.335-.739.73-.739h2.92c.396 0 .73.34.73.74-.03.43-.334.738-.73.738zM62.628 73.881H34.73a.745.745 0 01-.73-.739c0-.4.335-.739.73-.739h27.898c.396 0 .73.34.73.74-.03.4-.334.738-.73.738zM73.885 73.881h-5.628a.745.745 0 01-.73-.739c0-.4.334-.739.73-.739h5.628c.395 0 .73.34.73.74 0 .4-.335.738-.73.738zM102.239 73.881H80.304a.745.745 0 01-.73-.739c0-.4.335-.739.73-.739h21.935c.396 0 .731.34.731.74 0 .4-.335.738-.731.738z" stroke="#fff"/></svg>