<?xml version="1.0" encoding="utf-8"?><svg width="179" height="36" fill="none" xmlns="http://www.w3.org/2000/svg" viewBox="0 0 179 36"><path fill-rule="evenodd" clip-rule="evenodd" d="M52.336 4.737c-.519.74-1.015 1.73-1.411 2.872-1.252 3.614-2.382 8.62-2.886 13.143l-.046.422c.403-.176.844-.362 1.313-.552 1.917-.775 4.351-1.627 6.566-1.996-.202-5.496-.42-10.597-.57-11.89-.189-1.624-.53-2.545-.864-2.998-.158-.214-.29-.29-.373-.318-.08-.026-.185-.033-.343.023-.356.125-.85.53-1.386 1.294zm3.593 15.455c-1.988.356-4.211 1.13-6.045 1.87-.782.317-1.485.624-2.057.883-.353 4.301-.289 7.822-.272 8.747l.003.213h-1.547l-.003-.19c-.016-.84-.077-4.106.221-8.18l-.281-.555-.35-.692.005-.003.015-.008.055-.027a30.972 30.972 0 01.691-.336c.041-.44.087-.885.137-1.334.516-4.629 1.67-9.75 2.963-13.481.433-1.249.99-2.374 1.607-3.255.6-.857 1.327-1.58 2.137-1.866.424-.15.886-.184 1.345-.031.454.15.828.46 1.128.866.58.785.96 2.038 1.158 3.743.187 1.612.461 8.565.688 15.053a2653.23 2653.23 0 01.379 11.58l.024.782.008.275-.773.024-.774.023-.008-.275-.024-.782a2469.899 2469.899 0 00-.378-11.572l-.052-1.472zm-16.26-9.01l-.175-8.833 1.547-.031.162 8.186c.346-.16.678-.321.979-.477.325-.167.606-.324.827-.465a2.3 2.3 0 00.407-.302l1.133 1.056c-.188.204-.451.393-.714.56a12.55 12.55 0 01-.946.532c-.504.26-1.076.528-1.652.785l.386 19.447-1.547.031-.374-18.821a83.196 83.196 0 01-2.082.827l-.05.019-.017.006-.272-.726-.271-.727.015-.006.047-.018a61.451 61.451 0 00.84-.326 78.57 78.57 0 001.757-.718zm33.47 20.49l-.58-29.323 1.547-.031.58 29.322-1.546.031zM1.285 9.534c.01 2.26.02 4.99.028 7.737.01 3.33.014 6.682.007 9.253-.003 1.286-.01 2.374-.02 3.164-.005.396-.01.714-.017.944-.005.156-.01.247-.012.29-.002.031-.002.038 0 .03 0 0-.001.005-.007.014a.267.267 0 01-.048.056c-.06.055-.155.116-.282.173a2.292 2.292 0 01-.458.147l-.026.005.126.766.126.766h.002l.002-.001.007-.001a.745.745 0 00.076-.015 3.836 3.836 0 00.775-.25c.388-.173 1.083-.574 1.229-1.383.022-.123.03-.346.036-.551.007-.243.013-.571.018-.97.01-.799.017-1.892.02-3.18.005-1.905.004-4.239 0-6.673a9.26 9.26 0 011.735 2.66c.52 1.225 1.067 2.737 1.638 4.312l.476 1.312c.734 2.007 1.505 4.023 2.278 5.475a5.235 5.235 0 001.67 1.88c.265.179.5.301.675.38a3.37 3.37 0 00.282.114l.023.007.008.002.003.002h.002l.226-.743.225-.742h.003l.002.001a2.997 2.997 0 01-.58-.307 3.683 3.683 0 01-1.175-1.327c-.714-1.34-1.45-3.256-2.19-5.276l-.464-1.282c-.573-1.582-1.14-3.149-1.679-4.417a10.81 10.81 0 00-1.89-2.96 19.74 19.74 0 004.563-4.47c1.837-2.518 2.798-4.71 3.052-6.5.255-1.798-.201-3.285-1.324-4.154-1.104-.853-2.637-.94-4.183-.425-1.119.372-2.292 1.07-3.43 2.099l-.002-.321-.004-.835-.002-.294-.773.004-.774.004.002.295a4056.362 4056.362 0 01.014 2.773c-.13.156-.253.308-.375.458C.617 7.928.339 8.27 0 8.647l1.15 1.04.134-.152zm1.577 8.398l.097-.063c.282-.186.688-.469 1.166-.85a18.193 18.193 0 003.324-3.46c1.752-2.402 2.564-4.355 2.77-5.803.204-1.44-.194-2.283-.738-2.704-.562-.435-1.507-.595-2.75-.181-1.189.395-2.569 1.298-3.907 2.82a5439.074 5439.074 0 01.038 10.24zm29.41-4.431c-.309-.07-.794-.02-1.531.393-.253.142-.56.48-.876 1.114-.309.617-.585 1.427-.826 2.385-.483 1.914-.802 4.307-1.01 6.669a104.635 104.635 0 00-.35 6.361 110.462 110.462 0 00-.036 2.329v.495l-1.547.006.774-.005-.774.005V33.2v-.154-.296l-.002-19.533h1.548v3.403c.235-.862.51-1.65.84-2.307.37-.74.852-1.408 1.504-1.774.92-.515 1.805-.737 2.625-.552.837.188 1.436.76 1.853 1.466.803 1.359 1.107 3.504 1.204 5.737.1 2.277-.013 4.812-.15 7.062-.04.668-.083 1.307-.122 1.906-.096 1.447-.177 2.664-.18 3.501l-1.548-.007c.005-.888.09-2.184.188-3.659.039-.588.08-1.204.118-1.835.136-2.243.244-4.71.149-6.9-.097-2.234-.403-4.02-.99-5.013-.277-.469-.567-.677-.86-.743zm-9.504.89c.383 1.223.279 2.819-.42 4.687-.319.856-.867 1.804-1.531 2.656-.662.849-1.474 1.649-2.346 2.17-.861.515-1.902.823-2.92.439a2.682 2.682 0 01-.155-.065l.001.051c.059 2.235.4 4.346 1 5.818.301.737.643 1.255.994 1.56.327.285.657.386 1.038.324.42-.068.997-.352 1.734-1.057.73-.7 1.567-1.765 2.507-3.291l1.316.816c-.979 1.59-1.895 2.775-2.755 3.598-.854.817-1.705 1.329-2.554 1.467-.889.145-1.67-.136-2.3-.683-.604-.527-1.063-1.29-1.412-2.146-.7-1.714-1.053-4.034-1.115-6.365a28.407 28.407 0 01.004-1.612 6.95 6.95 0 01-.539-1.255l.622-.205c.11-1.299.312-2.548.606-3.646 1.036-3.869 3.519-5.924 5.784-5.536 1.151.198 2.05 1.028 2.441 2.275zm-7.349 7.942c.075-1.546.285-3.035.618-4.278.96-3.585 2.966-4.59 4.03-4.408.512.088.987.45 1.225 1.21.245.784.231 2.008-.392 3.676-.254.682-.716 1.493-1.302 2.244-.587.754-1.263 1.4-1.919 1.793-.665.397-1.191.468-1.582.32-.203-.077-.44-.24-.678-.557zM68.57 16.07v-.58h-1.547v.738l.017.08v.002l.003.013.011.056.042.23c.035.202.084.502.135.884.102.764.212 1.851.245 3.135.066 2.579-.181 5.902-1.4 8.99-.63 1.6-1.285 1.852-1.565 1.848-.321-.004-.862-.331-1.256-1.304-.723-1.782-1.142-4.487-1.313-7.182-.17-2.685-.088-5.25.138-6.714l-1.53-.238c-.249 1.615-.326 4.302-.152 7.05.174 2.74.604 5.648 1.423 7.67.48 1.183 1.41 2.253 2.668 2.271 1.3.018 2.337-1.083 3.026-2.829 1.324-3.357 1.577-6.913 1.508-9.602a31.314 31.314 0 00-.258-3.3 24.031 24.031 0 00-.192-1.205l-.003-.013z" fill="#fff"/><path fill-rule="evenodd" clip-rule="evenodd" d="M70.617 13.703l-.272-.727-.272-.727.016-.006.047-.018a61.451 61.451 0 00.84-.326 76.87 76.87 0 002.06-.847c.77-.332 1.56-.69 2.21-1.025.325-.167.605-.324.827-.465.233-.148.358-.25.406-.302l1.134 1.056c-.189.204-.451.393-.714.56-.274.173-.599.353-.946.532-.696.36-1.523.734-2.308 1.071a78.454 78.454 0 01-2.961 1.198l-.05.019-.017.007zM81.108 17.154c-.566 1.48-.903 3.443-.778 5.685.223 3.997.82 6.36 1.497 7.556.336.593.635.802.823.864.158.052.368.044.672-.161.67-.451 1.45-1.646 2.028-3.46.564-1.772.89-3.994.765-6.323-.169-3.165-.735-5.091-1.385-6.103-.32-.496-.626-.723-.868-.813-.227-.083-.476-.077-.769.058-.637.294-1.405 1.18-1.985 2.697zm6.552 4.078c-.174-3.255-.76-5.508-1.63-6.862-.44-.686-.986-1.188-1.633-1.427-.661-.245-1.337-.18-1.95.104-1.176.542-2.145 1.88-2.783 3.55-.652 1.705-1.015 3.89-.879 6.329.226 4.045.835 6.712 1.697 8.236.434.768.988 1.341 1.684 1.571.726.24 1.43.05 2.018-.346 1.115-.75 2.032-2.368 2.64-4.277.621-1.951.97-4.362.836-6.878z" fill="#fff"/><path d="M107.404 16.266l8.681-8.732h26.168l.122.062c.02.01 6.373 3.13 7.832 9.032 1.416 5.734.853 13.703.852 13.726l-.008.09-.737 1.795h-2.412l.14-.68a7.367 7.367 0 00-.427-4.278c-.557-1.338-1.49-2.47-2.659-3.169-.927-.553-1.926-.872-3.028-.886-1.124-.011-2.372.293-3.781.984-4.192 2.06-3.101 7.342-3.099 7.357l.13.672h-23.251l.107-.654c0-.008.49-2.723-.695-4.837-.991-1.768-2.335-2.769-3.751-3.214-1.725-.539-3.571-.261-5.039.464-4.359 2.257-3.275 7.744-3.273 7.76l.124.668h-2.975l-.159-.139c-.007-.005-2.568-2.118-2.048-5.154.536-3.129 1.696-5.204 3.467-6.724 1.74-1.494 4.043-2.416 6.911-3.265l2.808-.878zm36.047-5.424l-2.067-1.252h-10.498l-1.539 6.836h14.501l-.397-5.584zm-32.234 5.584h14.282l1.685-6.836h-10.063l-6.113 6.148.209.688z" fill="#fff"/><path d="M105.518 24.786c1.411 0 2.688.576 3.614 1.508a5.135 5.135 0 011.501 3.637 5.143 5.143 0 01-1.499 3.637 5.082 5.082 0 01-3.616 1.507 5.077 5.077 0 01-3.616-1.507 5.14 5.14 0 01-1.501-3.637c0-1.42.575-2.706 1.499-3.637a5.092 5.092 0 013.618-1.508zm36.082 0c1.411 0 2.692.576 3.616 1.505a5.158 5.158 0 011.499 3.64 5.15 5.15 0 01-1.499 3.637 5.09 5.09 0 01-7.232 0 5.14 5.14 0 01-1.501-3.637c0-1.42.575-2.706 1.499-3.637a5.092 5.092 0 013.618-1.508zM150.72 7.667c-.492.104-5.326 1.217-6.947 4.5v.002a7.854 7.854 0 00-.724 2.447c-.138 1.063-.069 2.168.284 3.125.331.903.926 1.675 1.858 2.14.431.216.934.37 1.514.446 1.687.221 3.439-.11 5.002-.85 1.595-.752 2.991-1.927 3.93-3.375.297-.458.799-1.87.944-3.466.092-1.014.033-2.081-.333-2.97-.339-.827-.961-1.512-2.01-1.864-.857-.29-2.006-.364-3.518-.135zm-8.289 3.83c2.041-4.123 8.007-5.31 8.025-5.315l.042-.007c1.755-.266 3.137-.162 4.215.2 1.518.51 2.423 1.511 2.919 2.719.467 1.141.55 2.453.438 3.677-.168 1.854-.8 3.568-1.177 4.15-1.093 1.684-2.71 3.05-4.552 3.918-1.813.857-3.849 1.238-5.823.98a6.226 6.226 0 01-1.997-.587c-1.305-.655-2.138-1.724-2.597-2.971-.439-1.192-.525-2.546-.358-3.834a9.383 9.383 0 01.865-2.93z" fill="#fff"/><path fill-rule="evenodd" clip-rule="evenodd" d="M151.334 6.265c.53-.4 7.816-5.52 7.816-5.52s1.616-1.078 2.847-.092c1.717 1.369 6.282 8.317 8.298 10.865.505.635.934 1.715-.586 2.795-2.373 1.683-2.699 2.153-2.699 2.153l1.861 1.452v2.008l2.297.776-.404 1.937 2.387 1.088v2.376l2.125.562-.172 2.76 2.285.74-.363 1.59.869.71s-.077 1.112.003 1.253c.081.138-.537.346-.537.346l-1.18-.814-.174-1.201-1.619.25-.063-2.534-2.34-.522-.124-2.722-2.094-.984-.094-2.15-2.169.34-.588-2.954-1.906.277-1.802-2.15c-.783.585-1.533 1.515-2.431 1.908-.922.404-2.044.635-2.745-.607-1.135-2.014-4.033-6.186-4.033-6.186l-3.39-5.18s-.952-1.669.725-2.57zm2.808.818l5.565-4.053a.561.561 0 01.785.126l.814 1.13a.571.571 0 01-.125.79l-5.565 4.052a.561.561 0 01-.784-.125l-.814-1.13a.569.569 0 01.124-.79z" fill="#fff"/><path d="M151.206 6.067c.605-.453 7.787-5.501 7.808-5.516l.012-.008c.005-.002 1.753-1.169 3.118-.075 1.154.918 3.52 4.24 5.584 7.135 1.076 1.51 2.067 2.902 2.753 3.767l.105.142c.243.345.44.784.41 1.278-.031.495-.286 1.03-.94 1.558a4.922 4.922 0 01-.213.16c-1.585 1.124-2.232 1.685-2.484 1.93l1.747 1.364v1.955l2.336.787-.408 1.958 2.353 1.073v2.345l2.136.564-.172 2.77 2.316.752-.379 1.66.85.693-.008.123c0 .004-.073 1.04-.029 1.115.249.427-.656.687-.658.689l-.115.042-1.367-.941-.153-1.067-1.65.254-.063-2.618-2.338-.522-.126-2.76-2.094-.983-.088-2.03-2.135.335-.585-2.957-1.813.266-1.742-2.078c-.214.173-.427.368-.641.566-.517.476-1.047.963-1.662 1.233-.49.215-1.039.383-1.572.333-.555-.054-1.077-.341-1.472-1.04-1.131-2.006-4.014-6.156-4.021-6.17-1.086-1.705-2.254-3.538-3.402-5.196-.004-.004-1.063-1.868.802-2.886zm8.078-5.13c-.019.016-7.27 5.11-7.808 5.519l-.031.02c-1.462.785-.633 2.238-.631 2.242l3.376 5.162c.01.012 2.908 4.184 4.047 6.204.306.543.697.762 1.106.803.435.042.91-.108 1.34-.297.542-.235 1.044-.697 1.532-1.145.285-.262.566-.522.852-.736l.178-.133 1.86 2.222 1.999-.292.588 2.953 2.205-.346.099 2.272 2.093.982.122 2.684 2.345.523.059 2.45 1.591-.247.194 1.336 1.095.755-.014.02c.126.023.26.03.213-.05-.092-.164-.06-.958-.043-1.266l-.89-.726.351-1.523-2.255-.73.17-2.749-2.113-.558V23.88l-2.42-1.103.4-1.918-2.259-.762v-2.065l-1.945-1.517.123-.183c0-.002.35-.504 2.76-2.214.067-.046.13-.094.188-.143.536-.429.741-.843.764-1.213.023-.367-.134-.706-.324-.978l-.09-.12c-.7-.885-1.692-2.277-2.766-3.784-2.048-2.873-4.395-6.166-5.494-7.044-1.041-.831-2.425.012-2.567.1zm-5.279 5.954l5.564-4.053a.79.79 0 011.114.179l.814 1.13a.808.808 0 01-.178 1.12l-5.563 4.054a.801.801 0 01-1.116-.18l-.812-1.13a.803.803 0 01.177-1.12zm5.84-3.67l-5.563 4.053a.33.33 0 00-.073.458l.814 1.133c.052.07.13.117.212.13a.339.339 0 00.244-.057l5.562-4.055a.332.332 0 00.075-.458l-.815-1.13a.328.328 0 00-.456-.073z" fill="#fff"/></svg>