<?xml version="1.0" encoding="utf-8"?><svg width="75" height="75" fill="none" xmlns="http://www.w3.org/2000/svg" viewBox="0 0 75 75"><path d="M66.926 21.024c-.036-1.89-.07-3.676-.07-5.403 0-1.353-1.081-2.45-2.416-2.45-10.332 0-18.2-3.011-24.757-9.477a2.391 2.391 0 00-3.369 0C29.758 10.16 21.892 13.17 11.56 13.17c-1.335 0-2.416 1.097-2.416 2.45 0 1.728-.034 3.514-.07 5.404-.33 17.588-.784 41.675 28.133 51.84a2.386 2.386 0 001.583 0C67.71 62.7 67.257 38.612 66.926 21.024zM37.999 67.95c-24.8-9.137-24.426-29.152-24.093-46.832.02-1.06.04-2.09.053-3.097 9.677-.415 17.415-3.388 24.04-9.24 6.625 5.852 14.365 8.826 24.043 9.24.013 1.008.032 2.035.052 3.096.333 17.68.707 37.696-24.095 46.833z" fill="#3498DB"/><path d="M46.319 29.488L34.658 41.314l-4.977-5.047a2.393 2.393 0 00-3.416 0 2.475 2.475 0 000 3.465l6.684 6.78a2.392 2.392 0 003.417 0l13.37-13.558a2.474 2.474 0 000-3.465 2.392 2.392 0 00-3.417 0z" fill="#3498DB"/></svg>