<?xml version="1.0" encoding="utf-8"?><svg width="26" height="26" fill="none" xmlns="http://www.w3.org/2000/svg" viewBox="0 0 26 26"><path d="M12.348.004c-2.087.025-6.572.368-9.081 2.67C1.4 4.523.749 7.257.672 10.638.61 14.006.532 20.332 6.63 22.055v2.624s-.038 1.05.656 1.265c.855.27 1.342-.537 2.154-1.405l1.515-1.714c4.173.347 7.368-.452 7.736-.57.847-.271 5.615-.88 6.395-7.208.8-6.534-.39-10.65-2.535-12.513h-.013C21.89 1.938 19.288.04 13.473.02c0 0-.431-.03-1.125-.017zm.071 1.837c.593-.004.953.021.953.021 4.921.013 7.27 1.494 7.824 1.993 1.807 1.549 2.738 5.26 2.057 10.715-.648 5.29-4.515 5.624-5.231 5.853-.305.097-3.12.791-6.665.563 0 0-2.64 3.186-3.466 4.007-.131.144-.284.186-.381.165-.14-.034-.182-.207-.174-.445l.025-4.354c-5.172-1.43-4.867-6.826-4.812-9.644.064-2.819.593-5.124 2.167-6.686 2.12-1.917 5.929-2.175 7.702-2.188h.002zm.39 2.818a.322.322 0 00-.325.321c0 .182.148.326.325.326a6.104 6.104 0 014.368 1.723c1.18 1.146 1.756 2.687 1.777 4.7 0 .179.144.327.326.327v-.013a.325.325 0 00.326-.322 6.998 6.998 0 00-1.964-5.159c-1.286-1.257-2.916-1.904-4.832-1.904zm-4.282.745a1.017 1.017 0 00-.665.13h-.017a5.1 5.1 0 00-1.24 1.02c-.296.343-.457.69-.5 1.024-.025.199-.008.398.052.588l.02.013c.335.982.771 1.926 1.304 2.815a16.558 16.558 0 002.514 3.436l.03.042.046.034.029.034.034.03a16.792 16.792 0 003.445 2.526c1.43.778 2.298 1.146 2.819 1.299v.008c.152.046.291.067.431.067a1.992 1.992 0 001.194-.512 4.924 4.924 0 001.007-1.243v-.009c.25-.47.165-.914-.195-1.214-.72-.63-1.5-1.19-2.328-1.672-.554-.3-1.117-.118-1.345.186l-.487.614c-.25.305-.703.262-.703.262l-.013.008c-3.38-.863-4.282-4.286-4.282-4.286s-.043-.466.27-.703l.61-.49c.291-.238.494-.8.181-1.355a14.623 14.623 0 00-1.667-2.328.926.926 0 00-.546-.326l.002.002zm4.845.965c-.432 0-.432.652.004.652a4.084 4.084 0 012.869 1.243 3.786 3.786 0 01.973 2.785.327.327 0 00.326.322l.013.017a.328.328 0 00.326-.326c.029-1.291-.372-2.374-1.16-3.242-.791-.868-1.895-1.354-3.305-1.451h-.046zm.534 1.752c-.445-.013-.462.651-.022.664 1.071.056 1.591.597 1.66 1.71a.324.324 0 00.321.318h.013a.329.329 0 00.313-.348c-.076-1.45-.868-2.268-2.272-2.344h-.013z" fill="#8C47C4"/></svg>