<?xml version="1.0" encoding="utf-8"?><svg width="75" height="75" fill="none" xmlns="http://www.w3.org/2000/svg" viewBox="0 0 75 75"><path d="M62.743 24.003h-.106a1.458 1.458 0 000 2.916h.106a1.458 1.458 0 100-2.916zM58.414 24.003H40.917a1.458 1.458 0 000 2.916h17.497a1.458 1.458 0 100-2.916zM58.414 37.666H40.917a1.458 1.458 0 100 2.917h17.497a1.458 1.458 0 100-2.917zM55.453 46.288a1.458 1.458 0 100-2.916H45.246a1.458 1.458 0 100 2.916h10.207zM40.917 46.288h.107a1.458 1.458 0 100-2.916h-.107a1.458 1.458 0 100 2.916z" fill="#3498DB"/><path d="M65.836 16.124H62.65L51.512 4.987A6.76 6.76 0 0046.7 3a6.76 6.76 0 00-4.813 1.987L30.748 16.124H10.164C6.214 16.124 3 19.338 3 23.288v29.42c0 3.95 3.214 7.165 7.164 7.165h3.186L24.488 71.01A6.785 6.785 0 0029.301 73a6.788 6.788 0 004.813-1.99l11.138-11.138h20.584c3.95 0 7.164-3.213 7.164-7.163v-29.42c0-3.95-3.214-7.165-7.164-7.165zM43.949 7.05a3.86 3.86 0 012.75-1.132c1.043 0 2.02.402 2.75 1.133l9.076 9.075H45.317l1.735-1.735.07-.07a1.458 1.458 0 00-2.065-2.06l-3.864 3.864h-6.32l9.076-9.075zM32.052 68.948a3.895 3.895 0 01-5.502 0l-9.075-9.075h13.208l-1.804 1.803a1.458 1.458 0 002.062 2.063l3.867-3.866h6.319l-9.075 9.075zm38.031-16.24a4.252 4.252 0 01-4.247 4.248H10.164a4.252 4.252 0 01-4.247-4.247v-29.42a4.252 4.252 0 014.247-4.248h55.672a4.252 4.252 0 014.248 4.247v29.42z" fill="#3498DB"/><path d="M28.795 35.77c.105-.416.201-.899.295-1.472.024-.143.059-.324.099-.532.318-1.658.597-3.385.214-4.667-.925-3.096-3.551-5.096-6.691-5.097-3.14 0-5.766 2-6.692 5.097-.382 1.283-.104 3.01.215 4.669.04.207.075.388.098.53.094.573.19 1.056.296 1.471a10.867 10.867 0 00-4.83 9.062c0 .805.652 1.458 1.458 1.458h18.91c.805 0 1.458-.653 1.458-1.458 0-3.681-1.823-7.048-4.83-9.062zm-9.98-5.836c.556-1.86 2.05-3.015 3.896-3.015 1.848 0 3.341 1.155 3.897 3.015.21.706-.136 2.512-.283 3.283a25.47 25.47 0 00-.112.608c-.108.652-.276 1.561-.49 1.921-.09.15-.226.246-.721.56-.169.108-.36.23-.574.373-1.178.666-2.255.666-3.432 0-.215-.144-.405-.264-.574-.372-.495-.315-.63-.412-.72-.56-.216-.36-.383-1.27-.49-1.923-.028-.163-.067-.37-.113-.606-.148-.772-.494-2.578-.284-3.284zm-3.968 13.438a7.954 7.954 0 013.293-5.1c.21.163.447.325.717.496.172.11.35.223.549.358l.09.056c1.044.603 2.126.908 3.215.908 1.09 0 2.172-.306 3.218-.909l.089-.056c.198-.134.377-.248.549-.357.269-.171.506-.333.717-.497a7.953 7.953 0 013.292 5.101H14.847zM32.167 49.078h-18.91a1.458 1.458 0 100 2.916h18.91a1.458 1.458 0 000-2.916zM62.743 49.078h-.106a1.458 1.458 0 100 2.916h.106a1.458 1.458 0 000-2.916zM58.414 49.078H40.917a1.458 1.458 0 100 2.916h17.497a1.458 1.458 0 100-2.916zM40.917 32.625h8.748a1.458 1.458 0 100-2.916h-8.748a1.458 1.458 0 100 2.916z" fill="#3498DB"/></svg>