<?xml version="1.0" encoding="utf-8"?><svg width="75" height="75" fill="none" xmlns="http://www.w3.org/2000/svg" viewBox="0 0 75 75"><path d="M36 18a2 2 0 114 0v20a2 2 0 11-4 0V18z" fill="#3498DB"/><path d="M51.09 48.262a2 2 0 11-2.828 2.828L36.586 39.414a2 2 0 112.828-2.828L51.09 48.262z" fill="#3498DB"/><path d="M38 3C18.701 3 3 18.701 3 38s15.701 35 35 35 35-15.701 35-35S57.299 3 38 3zm0 65.625C21.113 68.625 7.375 54.887 7.375 38S21.113 7.375 38 7.375 68.625 21.113 68.625 38 54.887 68.625 38 68.625z" fill="#3498DB"/></svg>