<?xml version="1.0" encoding="utf-8"?><svg width="132" height="132" fill="none" xmlns="http://www.w3.org/2000/svg" viewBox="0 0 132 132"><circle cx="66" cy="66" r="66" fill="#3498DB"/><path d="M43 95.905v-60.81C43 32.28 45.232 30 47.986 30h36.029C86.767 30 89 32.28 89 35.095v60.81C89 98.72 86.768 101 84.014 101H47.986C45.232 101 43 98.72 43 95.905zm44.638-60.81c0-2.044-1.624-3.703-3.624-3.703H47.986c-2 0-3.624 1.659-3.624 3.703v60.81c0 2.044 1.623 3.703 3.623 3.703h36.03c2 0 3.623-1.659 3.623-3.703v-60.81z" fill="#fff" stroke="#fff"/><path d="M70.793 74.989c-1.752-.525-2.849-1.65-3.164-1.996v-1.049c0-.844.668-1.523 1.5-1.523s1.5.679 1.5 1.523c0 .23.189.41.403.41a.41.41 0 00.403-.41c0-1.305-1.046-2.354-2.319-2.354-1.285 0-2.318 1.062-2.318 2.354v1.343l.088.115c.05.064 1.323 1.69 3.654 2.393.24.077.328.14.353.166-.075.295-1.16 1.037-2.848 1.523l-.466-1.523a.399.399 0 00-.517-.268.407.407 0 00-.264.524l.894 2.943c-1.108.525-2.545.256-3.175.064l.958-2.994a.417.417 0 00-.265-.525c-.214-.076-.441.052-.517.27l-.491 1.522c-1.664-.487-2.735-1.229-2.81-1.51.025-.026.113-.102.352-.166 2.344-.704 3.605-2.316 3.655-2.393l.088-.115V71.97c0-1.305-1.046-2.355-2.319-2.355-1.272 0-2.318 1.062-2.318 2.355 0 .23.189.409.403.409a.41.41 0 00.403-.41c0-.844.668-1.522 1.5-1.522.831 0 1.5.678 1.5 1.523v1.049a7.025 7.025 0 01-3.164 1.996c-.794.243-.957.652-.945.972.025 1.036 2.03 1.894 3.378 2.303l-.429 1.356.265.18c.302.191 1.26.498 2.344.498.768 0 1.587-.153 2.268-.588l.265-.167-.379-1.24c1.5-.436 3.416-1.331 3.428-2.316.063-.359-.1-.78-.894-1.024z" fill="#fff"/><path d="M54.183 60.135l3.226 2.226a4.712 4.712 0 00-.126 1.113c0 2.546 1.966 4.619 4.436 4.76-1.411.512-2.394 1.727-2.394 3.147 0 .23.189.41.403.41a.41.41 0 00.403-.41c0-1.42 1.374-2.584 3.075-2.584a.398.398 0 00.177-.039c.025 0 .037.013.063.013h1.55c.163.038.58.55.844 1.075a.42.42 0 00.365.23h.013a.418.418 0 00.365-.243c.252-.563.656-1.05.794-1.05h1.513c.037 0 .063 0 .1-.012.063.026.126.051.19.051 1.7 0 3.074 1.165 3.074 2.585 0 .23.19.41.403.41a.41.41 0 00.404-.41c0-1.42-.996-2.636-2.395-3.148 2.458-.153 4.411-2.226 4.411-4.76 0-.37-.05-.754-.126-1.112l3.214-2.226a.417.417 0 00.113-.576.404.404 0 00-.567-.115l-4.512 3.109a.417.417 0 00-.113.575c.076.116.214.18.34.18a.374.374 0 00.227-.077l.554-.384c.026.205.051.397.051.601 0 2.175-1.74 3.94-3.881 3.94a3.89 3.89 0 01-1.084-.153v-2.354c.302.218.68.346 1.084.346 1.033 0 1.877-.858 1.877-1.907a1.95 1.95 0 00-.403-1.177l5.872-4.337a.405.405 0 00.089-.576c-.139-.179-.391-.23-.567-.09l-6.264 4.632c-.012 0-.012.013-.012.013-.013.013-.025.013-.038.026-.013.012-.025.025-.025.038 0 .013-.013.013-.013.026 0 0 0 .012-.012.012-.013.013-.013.026-.025.039 0 .013-.013.025-.013.038 0 .013-.013.026-.013.038 0 .013-.012.026-.012.039v.153c0 .013.012.026.012.039 0 .013.013.025.013.038 0 .013.013.026.013.039.012.012.012.025.025.038v.013l.012.013a.176.176 0 01.038.05l.025.026.013.013c.29.205.454.538.454.883 0 .601-.48 1.075-1.059 1.075a1.076 1.076 0 01-1.071-1.075c0-.038-.013-.077-.013-.115v-.09a.41.41 0 00-.403-.41h-.995c.037-1.79.453-2.98 1.234-3.53.05.204.126.409.265.588.24.294.567.486.945.525h.05a.41.41 0 00.404-.371.416.416 0 00-.366-.46.606.606 0 01-.39-.218.61.61 0 01-.126-.384c.97-.166 1.966.332 1.978.332.025.013.038.013.063.026h.013a.273.273 0 00.1.013h.088c.013 0 .026 0 .039-.013a.095.095 0 00.05-.026c.013 0 .013 0 .025-.012h.013c.013-.013.025-.013.038-.026.012-.013.025-.013.025-.026.013-.012.025-.012.025-.025l.025-.026.026-.025c.012-.013.012-.026.025-.039v-.013c0-.012 0-.012.012-.025 0-.013.013-.026.013-.038 0-.013 0-.026.013-.039 0-.013 0-.025.012-.038v-.039-.038c0-.013 0-.026-.012-.038 0-.013 0-.026-.013-.039 0-.013-.013-.025-.013-.038 0-.013 0-.013-.012-.026-.038-.077-.996-1.983-2.571-1.983-1.462 0-2.52.5-3.276 1.523-.14.179-.101.447.088.575a.39.39 0 00.567-.09c.58-.792 1.436-1.189 2.608-1.189.441 0 .832.256 1.147.563-.668-.115-1.5-.102-2.243.358-1.084.678-1.65 2.124-1.701 4.286h-.29c-.114-4.056-1.563-6.039-4.436-6.039-1.575 0-2.533 1.894-2.57 1.983 0 .013 0 .013-.013.026 0 .013-.013.026-.013.038 0 .013 0 .026-.013.039 0 .013 0 .025-.012.038v.077c0 .013 0 .026.012.038 0 .013 0 .026.013.039 0 .013.013.025.013.038 0 .013 0 .013.012.026v.013c.013.012.013.025.026.038.012.013.012.026.025.038l.025.026.038.038c.012 0 .012.013.025.013.012.013.025.026.05.026.013 0 .013 0 .026.012.012.013.037.013.05.026h.025c.013 0 .038.013.05.013h.101c.013 0 .038-.013.05-.013.013 0 .013-.013.026-.013s.025-.013.038-.013c.012 0 1.008-.498 1.978-.332a.61.61 0 01-.126.384.556.556 0 01-.39.217.416.416 0 00-.366.46.41.41 0 00.403.372h.05c.379-.039.706-.23.946-.525.139-.179.227-.37.265-.588.78.55 1.197 1.727 1.234 3.53h-.882a.41.41 0 00-.403.41v.205a1.065 1.065 0 11-2.13 0c0-.358.177-.691.454-.883l.013-.013.025-.025a.176.176 0 00.038-.051l.012-.013v-.013c.013-.013.013-.026.026-.038 0-.013.012-.026.012-.039 0-.013.013-.025.013-.038 0-.013.012-.026.012-.038v-.039-.038-.039-.038c0-.013 0-.026-.012-.038 0-.013-.013-.026-.013-.039 0-.013-.012-.025-.012-.038-.013-.013-.013-.026-.026-.039 0 0 0-.012-.012-.012 0-.013-.013-.013-.013-.026-.013-.013-.013-.026-.025-.038-.013-.013-.025-.026-.038-.026-.013 0-.013-.013-.013-.013l-6.225-4.657a.398.398 0 00-.567.09.412.412 0 00.088.575l5.873 4.338a1.873 1.873 0 00-.403 1.177c0 1.049.844 1.906 1.877 1.906.39 0 .756-.128 1.071-.333v2.355c-.34.102-.705.153-1.07.153-2.143 0-3.882-1.766-3.882-3.94 0-.205.012-.41.05-.602l.567.384a.402.402 0 00.227.077.416.416 0 00.34-.18.417.417 0 00-.113-.575l-4.511-3.122a.404.404 0 00-.567.115.415.415 0 00.1.576zm14.29 7.792h-1.108c-.492 0-.907.447-1.185.882-.302-.435-.718-.882-1.184-.882h-1.147V63.55h4.612v4.376h.013zm-5.015-9.494c-.743-.46-1.575-.473-2.243-.358.303-.307.693-.563 1.147-.563 1.625 0 3.49.602 3.617 5.207h-.82c-.05-2.162-.617-3.608-1.7-4.286z" fill="#fff"/><path d="M56.137 63.282a.394.394 0 00.542-.218.426.426 0 00-.215-.55l-1.89-.793a.415.415 0 00-.542.218.426.426 0 00.214.55l1.89.793zM57.019 67.914a.352.352 0 00.189-.051l.668-.346a.423.423 0 00.176-.563.41.41 0 00-.554-.179l-.668.346a.423.423 0 00-.177.563c.063.14.215.23.366.23zM59.4 67.952a.41.41 0 00-.58.013l-.365.397a.426.426 0 00.013.588.407.407 0 00.58-.013l.365-.396a.426.426 0 00-.012-.589zM57.182 65.624a.404.404 0 00-.516-.269l-1.348.422a.407.407 0 00-.265.525c.05.179.214.294.39.294.038 0 .076 0 .127-.013l1.348-.422c.214-.09.34-.32.264-.537zM56.288 64.728a.41.41 0 000-.819h-1.689a.41.41 0 000 .82h1.689zM78.316 61.939c-.088-.218-.328-.307-.542-.218l-1.878.794c-.214.09-.302.332-.214.55a.413.413 0 00.378.256c.05 0 .1-.013.164-.039l1.877-.793a.426.426 0 00.215-.55zM75.53 67.12l-.667-.345a.41.41 0 00-.555.18c-.1.204-.025.46.177.562l.668.346a.521.521 0 00.189.05.423.423 0 00.189-.793zM72.96 67.952a.414.414 0 00-.013.589l.366.396c.075.09.189.128.302.128.101 0 .202-.038.278-.115a.414.414 0 00.012-.588l-.365-.397a.423.423 0 00-.58-.013zM77.03 65.777l-1.348-.422a.42.42 0 00-.517.269.428.428 0 00.265.524l1.348.422a.383.383 0 00.126.013c.177 0 .34-.115.391-.294a.399.399 0 00-.265-.512zM77.749 63.897H76.06a.41.41 0 000 .818h1.689a.41.41 0 00.403-.41c.013-.217-.177-.409-.403-.409zM64.945 55.76a.41.41 0 000 .818h2.344a.41.41 0 000-.819h-2.344zM65.21 55.312H67a1.4 1.4 0 001.385-1.408c0-.767-.617-1.407-1.386-1.407-.327 0-.642.192-.907.422-.214-.205-.492-.422-.882-.422-.756 0-1.386.627-1.386 1.407.012.78.63 1.408 1.386 1.408zm0-1.97c.113 0 .265.14.403.28.076.078.151.154.227.206.076.05.164.09.252.09.164 0 .265-.09.353-.18.365-.358.517-.397.554-.397a.57.57 0 01.567.576.57.57 0 01-.567.576h-1.79a.57.57 0 01-.566-.576c.012-.32.264-.576.567-.576zM66.105 52.126a.564.564 0 000-1.126.564.564 0 000 1.126zM75.279 70.537a.564.564 0 000 1.125.564.564 0 000-1.125zM74.737 72.251c-.945 0-1.752.563-2.117 1.382l-2.974-1.203v-.96a.41.41 0 00-.404-.409.41.41 0 00-.403.41v1.24c0 .167.101.32.252.385l3.327 1.343c0 .051-.013.115-.013.166 0 1.305 1.046 2.367 2.332 2.367 1.285 0 2.331-1.062 2.331-2.367 0-1.292-1.046-2.354-2.331-2.354zm0 3.902c-.832 0-1.512-.69-1.512-1.535 0-.844.68-1.535 1.512-1.535s1.512.69 1.512 1.535c0 .844-.68 1.535-1.512 1.535zM59.514 74.58l3.692-1.472a.431.431 0 00.265-.384v-1.24a.41.41 0 00-.403-.41.41.41 0 00-.404.41v.959l-3.591 1.446-3.869-5.86a.404.404 0 00-.567-.115.417.417 0 00-.113.576l3.742 5.693-.113.051a.407.407 0 00-.227.538.406.406 0 00.378.268c.05 0 .1-.013.151-.025l.278-.116.642.973c.076.115.215.179.34.179a.507.507 0 00.227-.064.417.417 0 00.114-.576l-.542-.831z" fill="#fff"/><path d="M70.793 74.989c-1.752-.525-2.849-1.65-3.164-1.996v-1.049c0-.844.668-1.523 1.5-1.523s1.5.679 1.5 1.523c0 .23.189.41.403.41a.41.41 0 00.403-.41c0-1.305-1.046-2.354-2.319-2.354-1.285 0-2.318 1.062-2.318 2.354v1.343l.088.115c.05.064 1.323 1.69 3.654 2.393.24.077.328.14.353.166-.075.295-1.16 1.037-2.848 1.523l-.466-1.523a.399.399 0 00-.517-.268.407.407 0 00-.264.524l.894 2.943c-1.108.525-2.545.256-3.175.064l.958-2.994a.417.417 0 00-.265-.525c-.214-.076-.441.052-.517.27l-.491 1.522c-1.664-.487-2.735-1.229-2.81-1.51.025-.026.113-.102.352-.166 2.344-.704 3.605-2.316 3.655-2.393l.088-.115V71.97c0-1.305-1.046-2.355-2.319-2.355-1.272 0-2.318 1.062-2.318 2.355 0 .23.189.409.403.409a.41.41 0 00.403-.41c0-.844.668-1.522 1.5-1.522.831 0 1.5.678 1.5 1.523v1.049a7.025 7.025 0 01-3.164 1.996c-.794.243-.957.652-.945.972.025 1.036 2.03 1.894 3.378 2.303l-.429 1.356.265.18c.302.191 1.26.498 2.344.498.768 0 1.587-.153 2.268-.588l.265-.167-.379-1.24c1.5-.436 3.416-1.331 3.428-2.316.063-.359-.1-.78-.894-1.024z" stroke="#fff" stroke-width=".5"/><path d="M54.183 60.135l3.226 2.226a4.712 4.712 0 00-.126 1.113c0 2.546 1.966 4.619 4.436 4.76-1.411.512-2.394 1.727-2.394 3.147 0 .23.189.41.403.41a.41.41 0 00.403-.41c0-1.42 1.374-2.584 3.075-2.584a.398.398 0 00.177-.039c.025 0 .037.013.063.013h1.55c.163.038.58.55.844 1.075a.42.42 0 00.365.23h.013a.418.418 0 00.365-.243c.252-.563.656-1.05.794-1.05h1.513c.037 0 .063 0 .1-.012.063.026.126.051.19.051 1.7 0 3.074 1.165 3.074 2.585 0 .23.19.41.403.41a.41.41 0 00.404-.41c0-1.42-.996-2.636-2.395-3.148 2.458-.153 4.411-2.226 4.411-4.76 0-.37-.05-.754-.126-1.112l3.214-2.226a.417.417 0 00.113-.576.404.404 0 00-.567-.115l-4.512 3.109a.417.417 0 00-.113.575c.076.116.214.18.34.18a.374.374 0 00.227-.077l.554-.384c.026.205.051.397.051.601 0 2.175-1.74 3.94-3.881 3.94a3.89 3.89 0 01-1.084-.153v-2.354c.302.218.68.346 1.084.346 1.033 0 1.877-.858 1.877-1.907a1.95 1.95 0 00-.403-1.177l5.872-4.337a.405.405 0 00.089-.576c-.139-.179-.391-.23-.567-.09l-6.264 4.632c-.012 0-.012.013-.012.013-.013.013-.025.013-.038.026-.013.012-.025.025-.025.038 0 .013-.013.013-.013.026 0 0 0 .012-.012.012-.013.013-.013.026-.025.039 0 .013-.013.025-.013.038 0 .013-.013.026-.013.038 0 .013-.012.026-.012.039v.153c0 .013.012.026.012.039 0 .013.013.025.013.038 0 .013.013.026.013.039.012.012.012.025.025.038v.013l.012.013a.176.176 0 01.038.05l.025.026.013.013c.29.205.454.538.454.883 0 .601-.48 1.075-1.059 1.075a1.076 1.076 0 01-1.071-1.075c0-.038-.013-.077-.013-.115v-.09a.41.41 0 00-.403-.41h-.995c.037-1.79.453-2.98 1.234-3.53.05.204.126.409.265.588.24.294.567.486.945.525h.05a.41.41 0 00.404-.371.416.416 0 00-.366-.46.606.606 0 01-.39-.218.61.61 0 01-.126-.384c.97-.166 1.966.332 1.978.332.025.013.038.013.063.026h.013a.273.273 0 00.1.013h.088c.013 0 .026 0 .039-.013a.095.095 0 00.05-.026c.013 0 .013 0 .025-.012h.013c.013-.013.025-.013.038-.026.012-.013.025-.013.025-.026.013-.012.025-.012.025-.025l.025-.026.026-.025c.012-.013.012-.026.025-.039v-.013c0-.012 0-.012.012-.025 0-.013.013-.026.013-.038 0-.013 0-.026.013-.039 0-.013 0-.025.012-.038v-.039-.038c0-.013 0-.026-.012-.038 0-.013 0-.026-.013-.039 0-.013-.013-.025-.013-.038 0-.013 0-.013-.012-.026-.038-.077-.996-1.983-2.571-1.983-1.462 0-2.52.5-3.276 1.523-.14.179-.101.447.088.575a.39.39 0 00.567-.09c.58-.792 1.436-1.189 2.608-1.189.441 0 .832.256 1.147.563-.668-.115-1.5-.102-2.243.358-1.084.678-1.65 2.124-1.701 4.286h-.29c-.114-4.056-1.563-6.039-4.436-6.039-1.575 0-2.533 1.894-2.57 1.983 0 .013 0 .013-.013.026 0 .013-.013.026-.013.038 0 .013 0 .026-.013.039 0 .013 0 .025-.012.038v.077c0 .013 0 .026.012.038 0 .013 0 .026.013.039 0 .013.013.025.013.038 0 .013 0 .013.012.026v.013c.013.012.013.025.026.038.012.013.012.026.025.038l.025.026.038.038c.012 0 .012.013.025.013.012.013.025.026.05.026.013 0 .013 0 .026.012.012.013.037.013.05.026h.025c.013 0 .038.013.05.013h.101c.013 0 .038-.013.05-.013.013 0 .013-.013.026-.013s.025-.013.038-.013c.012 0 1.008-.498 1.978-.332a.61.61 0 01-.126.384.556.556 0 01-.39.217.416.416 0 00-.366.46.41.41 0 00.403.372h.05c.379-.039.706-.23.946-.525.139-.179.227-.37.265-.588.78.55 1.197 1.727 1.234 3.53h-.882a.41.41 0 00-.403.41v.205a1.065 1.065 0 11-2.13 0c0-.358.177-.691.454-.883l.013-.013.025-.025a.176.176 0 00.038-.051l.012-.013v-.013c.013-.013.013-.026.026-.038 0-.013.012-.026.012-.039 0-.013.013-.025.013-.038 0-.013.012-.026.012-.038v-.039-.038-.039-.038c0-.013 0-.026-.012-.038 0-.013-.013-.026-.013-.039 0-.013-.012-.025-.012-.038-.013-.013-.013-.026-.026-.039 0 0 0-.012-.012-.012 0-.013-.013-.013-.013-.026-.013-.013-.013-.026-.025-.038-.013-.013-.025-.026-.038-.026-.013 0-.013-.013-.013-.013l-6.225-4.657a.398.398 0 00-.567.09.412.412 0 00.088.575l5.873 4.338a1.873 1.873 0 00-.403 1.177c0 1.049.844 1.906 1.877 1.906.39 0 .756-.128 1.071-.333v2.355c-.34.102-.705.153-1.07.153-2.143 0-3.882-1.766-3.882-3.94 0-.205.012-.41.05-.602l.567.384a.402.402 0 00.227.077.416.416 0 00.34-.18.417.417 0 00-.113-.575l-4.511-3.122a.404.404 0 00-.567.115.415.415 0 00.1.576zm14.29 7.792h-1.108c-.492 0-.907.447-1.185.882-.302-.435-.718-.882-1.184-.882h-1.147V63.55h4.612v4.376h.013zm-5.015-9.494c-.743-.46-1.575-.473-2.243-.358.303-.307.693-.563 1.147-.563 1.625 0 3.49.602 3.617 5.207h-.82c-.05-2.162-.617-3.608-1.7-4.286z" stroke="#fff" stroke-width=".5"/><path d="M56.137 63.282a.394.394 0 00.542-.218.426.426 0 00-.215-.55l-1.89-.793a.415.415 0 00-.542.218.426.426 0 00.214.55l1.89.793zM57.019 67.914a.352.352 0 00.189-.051l.668-.346a.423.423 0 00.176-.563.41.41 0 00-.554-.179l-.668.346a.423.423 0 00-.177.563c.063.14.215.23.366.23zM59.4 67.952a.41.41 0 00-.58.013l-.365.397a.426.426 0 00.013.588.407.407 0 00.58-.013l.365-.396a.426.426 0 00-.012-.589zM57.182 65.624a.404.404 0 00-.516-.269l-1.348.422a.407.407 0 00-.265.525c.05.179.214.294.39.294.038 0 .076 0 .127-.013l1.348-.422c.214-.09.34-.32.264-.537zM56.288 64.728a.41.41 0 000-.819h-1.689a.41.41 0 000 .82h1.689zM78.316 61.939c-.088-.218-.328-.307-.542-.218l-1.878.794c-.214.09-.302.332-.214.55a.413.413 0 00.378.256c.05 0 .1-.013.164-.039l1.877-.793a.426.426 0 00.215-.55zM75.53 67.12l-.667-.345a.41.41 0 00-.555.18c-.1.204-.025.46.177.562l.668.346a.521.521 0 00.189.05.423.423 0 00.189-.793zM72.96 67.952a.414.414 0 00-.013.589l.366.396c.075.09.189.128.302.128.101 0 .202-.038.278-.115a.414.414 0 00.012-.588l-.365-.397a.423.423 0 00-.58-.013zM77.03 65.777l-1.348-.422a.42.42 0 00-.517.269.428.428 0 00.265.524l1.348.422a.383.383 0 00.126.013c.177 0 .34-.115.391-.294a.399.399 0 00-.265-.512zM77.749 63.897H76.06a.41.41 0 000 .818h1.689a.41.41 0 00.403-.41c.013-.217-.177-.409-.403-.409zM64.945 55.76a.41.41 0 000 .818h2.344a.41.41 0 000-.819h-2.344zM65.21 55.312H67a1.4 1.4 0 001.385-1.408c0-.767-.617-1.407-1.386-1.407-.327 0-.642.192-.907.422-.214-.205-.492-.422-.882-.422-.756 0-1.386.627-1.386 1.407.012.78.63 1.408 1.386 1.408zm0-1.97c.113 0 .265.14.403.28.076.078.151.154.227.206.076.05.164.09.252.09.164 0 .265-.09.353-.18.365-.358.517-.397.554-.397a.57.57 0 01.567.576.57.57 0 01-.567.576h-1.79a.57.57 0 01-.566-.576c.012-.32.264-.576.567-.576zM66.105 52.126a.564.564 0 000-1.126.564.564 0 000 1.126zM75.279 70.537a.564.564 0 000 1.125.564.564 0 000-1.125zM74.737 72.251c-.945 0-1.752.563-2.117 1.382l-2.974-1.203v-.96a.41.41 0 00-.404-.409.41.41 0 00-.403.41v1.24c0 .167.101.32.252.385l3.327 1.343c0 .051-.013.115-.013.166 0 1.305 1.046 2.367 2.332 2.367 1.285 0 2.331-1.062 2.331-2.367 0-1.292-1.046-2.354-2.331-2.354zm0 3.902c-.832 0-1.512-.69-1.512-1.535 0-.844.68-1.535 1.512-1.535s1.512.69 1.512 1.535c0 .844-.68 1.535-1.512 1.535zM59.514 74.58l3.692-1.472a.431.431 0 00.265-.384v-1.24a.41.41 0 00-.403-.41.41.41 0 00-.404.41v.959l-3.591 1.446-3.869-5.86a.404.404 0 00-.567-.115.417.417 0 00-.113.576l3.742 5.693-.113.051a.407.407 0 00-.227.538.406.406 0 00.378.268c.05 0 .1-.013.151-.025l.278-.116.642.973c.076.115.215.179.34.179a.507.507 0 00.227-.064.417.417 0 00.114-.576l-.542-.831z" stroke="#fff" stroke-width=".5"/></svg>