<?xml version="1.0" encoding="utf-8"?><svg viewBox="0 0 193 132" xmlns="http://www.w3.org/2000/svg" xmlns:xlink="http://www.w3.org/1999/xlink"><style>:root>svg{display:none}:root>svg:target{display:block}</style><svg fill="none" viewBox="0 0 22 22" id="feature_1" xmlns="http://www.w3.org/2000/svg"><path d="M5.06 3.56v15.607M11.304 4.34v14.045m6.242-14.045v7.023M2 11.364h18.667" stroke="#3498DB"/><circle cx="5.061" cy="3.561" r="1.561" fill="#3498DB"/><circle cx="11.303" cy="3.561" r="1.561" fill="#3498DB"/><circle cx="17.545" cy="3.561" r="1.561" fill="#3498DB"/><circle cx="5.061" cy="19.166" r="1.561" fill="#3498DB"/><circle cx="11.303" cy="19.166" r="1.561" fill="#3498DB"/></svg><svg fill="none" viewBox="0 0 22 22" id="feature_2" xmlns="http://www.w3.org/2000/svg"><path d="M4.882 20.04l-1.81-8.524a1 1 0 01.08-.648L7.226 2.56A1 1 0 018.123 2H19a1 1 0 011 1v8.06a1 1 0 01-.027.233l-2.096 8.771a1 1 0 01-.973.768H5.86a1 1 0 01-.978-.793zM3 11.178h17M15 13.5h3" stroke="#3498DB"/></svg><svg fill="none" viewBox="0 0 22 22" id="feature_3" xmlns="http://www.w3.org/2000/svg"><path d="M11.153 7.46c-.465 0-.92.179-1.306.513-.387.333-.688.808-.866 1.362a3.866 3.866 0 00-.134 1.755c.091.589.315 1.13.644 1.554.328.425.747.714 1.203.831.456.118.929.058 1.358-.172.43-.23.797-.62 1.055-1.119.258-.499.396-1.086.396-1.687 0-.805-.248-1.577-.688-2.147-.441-.57-1.039-.89-1.662-.89zm0 4.86c-.28 0-.552-.108-.784-.308a1.8 1.8 0 01-.52-.817 2.32 2.32 0 01-.08-1.053c.055-.353.19-.678.386-.933a1.35 1.35 0 01.723-.498c.273-.07.557-.035.814.103.258.138.478.372.633.671.155.3.238.652.238 1.012 0 .483-.149.947-.413 1.289-.265.341-.623.533-.997.533zm4.23 6.68v-.608c0-1.127-.346-2.209-.963-3.006-.617-.797-1.454-1.245-2.327-1.245h-1.88c-.873 0-1.71.448-2.327 1.245-.617.797-.964 1.879-.964 3.006V19h.94v-.607c0-.805.248-1.578.688-2.147.441-.57 1.04-.89 1.662-.89h1.88c.624 0 1.222.32 1.663.89.44.57.688 1.342.688 2.147V19h.94z" fill="#3498DB"/><path d="M17.076 4c-.464 0-.919.178-1.305.512-.387.333-.688.808-.866 1.362a3.866 3.866 0 00-.134 1.755c.09.589.315 1.13.643 1.555.33.424.748.713 1.204.83.456.118.929.058 1.358-.172.43-.23.797-.62 1.055-1.119.258-.499.396-1.086.396-1.687 0-.805-.248-1.577-.689-2.147C18.298 4.32 17.7 4 17.076 4zm0 4.858c-.279 0-.551-.107-.783-.307a1.8 1.8 0 01-.52-.817 2.32 2.32 0 01-.08-1.053c.055-.353.189-.678.386-.933a1.35 1.35 0 01.722-.498c.274-.07.558-.035.815.103.258.138.478.372.633.671.155.3.238.652.238 1.012 0 .484-.149.947-.413 1.289-.265.341-.623.533-.998.533zm4.231 6.68v-.607c0-1.127-.346-2.209-.964-3.006-.617-.797-1.454-1.245-2.326-1.245h-1.88c-.873 0-1.71.448-2.328 1.245-.617.797-.963 1.879-.963 3.006v.607h.94v-.607c0-.805.248-1.577.688-2.147.441-.57 1.039-.89 1.662-.89h1.88c.624 0 1.222.32 1.663.89.44.57.688 1.342.688 2.147v.607h.94zM5.23 4c-.464 0-.919.178-1.305.512-.387.333-.688.808-.866 1.362a3.867 3.867 0 00-.134 1.755c.091.589.315 1.13.644 1.555.328.424.747.713 1.203.83.456.118.929.058 1.358-.172.43-.23.797-.62 1.055-1.119.258-.499.396-1.086.396-1.687 0-.805-.247-1.577-.688-2.147C6.452 4.32 5.854 4 5.23 4zm0 4.858c-.278 0-.55-.107-.783-.307a1.8 1.8 0 01-.52-.817 2.32 2.32 0 01-.08-1.053c.055-.353.19-.678.387-.933a1.35 1.35 0 01.722-.498c.273-.07.557-.035.814.103.258.138.478.372.633.671.155.3.238.652.238 1.012 0 .484-.149.947-.413 1.289-.264.341-.623.533-.997.533zm4.232 6.68v-.607c0-1.127-.347-2.209-.964-3.006-.617-.797-1.454-1.245-2.327-1.245H4.29c-.873 0-1.71.448-2.327 1.245-.617.797-.964 1.879-.964 3.006v.607h.94v-.607c0-.805.248-1.577.689-2.147.44-.57 1.038-.89 1.662-.89h1.88c.623 0 1.221.32 1.662.89.44.57.688 1.342.688 2.147v.607h.94z" fill="#3498DB"/></svg><svg fill="none" viewBox="0 0 22 22" id="feature_4" xmlns="http://www.w3.org/2000/svg"><path d="M3.877 2.057a.5.5 0 00.246.97l-.246-.97zm3.909 3.2a.5.5 0 101 0h-1zm2.792-.317a.5.5 0 10.773.635l-.773-.635zm2.744-2.55l-.387-.317.387.318zm4.107 3.41a.5.5 0 101 0h-1zM8.642 9.249a.5.5 0 10-.712.702l.712-.702zm6.252 7.76a.5.5 0 10.712-.703l-.712.702zm-6.964-.703a.5.5 0 10.712.702l-.712-.702zm7.676-6.355a.5.5 0 10-.712-.702l.712.702zM4.123 3.027c.658-.167 1.615-.23 2.376.063.37.143.682.364.905.69.223.327.382.796.382 1.476h1c0-.84-.199-1.515-.556-2.039a2.876 2.876 0 00-1.372-1.06c-1.024-.395-2.21-.295-2.98-.1l.245.97zm7.228 2.548l2.357-2.867-.773-.635-2.357 2.867.773.635zM14.145 2.5h2.712v-1h-2.712v1zm3.284.586V5.8h1V3.086h-1zm-.572-.586c.31 0 .572.256.572.586h1c0-.87-.698-1.586-1.572-1.586v1zm-3.15.208a.566.566 0 01.438-.208v-1c-.47 0-.912.211-1.21.573l.773.635zM4.5 18.828V7.972h-1V18.83h1zM6.143 6.3h10.714v-1H6.143v1zM18.5 7.971V18.83h1V7.97h-1zM16.857 20.5H6.143v1h10.714v-1zm1.643-1.671c0 .929-.742 1.671-1.643 1.671v1c1.466 0 2.643-1.202 2.643-2.671h-1zM16.857 6.3c.901 0 1.643.742 1.643 1.671h1c0-1.469-1.177-2.671-2.643-2.671v1zM4.5 7.971c0-.929.742-1.671 1.643-1.671v-1C4.677 5.3 3.5 6.502 3.5 7.971h1zm-1 10.858c0 1.469 1.177 2.671 2.643 2.671v-1c-.901 0-1.643-.742-1.643-1.671h-1zM7.93 9.95l6.964 7.057.712-.702-6.964-7.057-.712.702zm.712 7.057l6.964-7.057-.712-.702-6.964 7.057.712.702z" fill="#3498DB"/></svg><svg fill="none" viewBox="0 0 22 22" id="feature_5" xmlns="http://www.w3.org/2000/svg"><path d="M12.5 10.125l-1.846-6.042a1 1 0 00-.957-.708H3a1 1 0 00-1 1V15.5a1 1 0 001 1h3.442c.471 0 .862-.342 1.09-.755 1.02-1.839 4.017-2.31 5.197.05.2.4.58.705 1.026.705h6.184a.998.998 0 00.998-1v-4.375a1 1 0 00-1-1H12.5zm0 0l4.533-6.38a1 1 0 011.32-.284l1.46.852M12.5 10.125H2.187M12 10v5" stroke="#3498DB"/><path d="M7 12h3" stroke="#3498DB" stroke-width=".5"/><circle cx="10" cy="17" r="2.5" stroke="#3498DB"/></svg><svg fill="none" viewBox="0 0 22 22" id="feature_6" xmlns="http://www.w3.org/2000/svg"><path d="M11 3a8.68 8.68 0 00-3.496.723 9.05 9.05 0 00-2.87 1.947c-.805.815-1.445 1.788-1.92 2.92A9.077 9.077 0 002 12.142a9.08 9.08 0 001.118 4.41 8.965 8.965 0 003.109 3.322c.13.083.27.107.423.071a.547.547 0 00.352-.25.547.547 0 00.07-.428.555.555 0 00-.246-.357 7.973 7.973 0 01-2.36-2.304l.599-.357a.521.521 0 00.255-.34.568.568 0 00-.053-.437.54.54 0 00-.343-.268.502.502 0 00-.423.063l-.599.34a8.403 8.403 0 01-.51-1.412 7.996 7.996 0 01-.247-1.5h.616a.53.53 0 00.405-.17.569.569 0 00.159-.401.569.569 0 00-.159-.402.53.53 0 00-.405-.17h-.616a7.795 7.795 0 01.792-2.946l.564.34a.552.552 0 00.282.07c.211 0 .37-.094.475-.285a.522.522 0 00.062-.428.521.521 0 00-.255-.34L4.5 7.625A8.029 8.029 0 016.614 5.5l.318.554c.105.19.27.285.493.285a.618.618 0 00.281-.071.547.547 0 00.159-.152.61.61 0 00.097-.196.636.636 0 00.017-.215.467.467 0 00-.079-.223l-.317-.553a7.72 7.72 0 011.383-.51c.475-.124.96-.21 1.453-.258v.714a.564.564 0 00.572.571c.159 0 .29-.053.396-.16a.56.56 0 00.159-.411v-.714a7.716 7.716 0 012.906.785l-.317.536a1.802 1.802 0 01-.035.098.606.606 0 00-.026.295.483.483 0 00.07.188.664.664 0 00.114.152.221.221 0 00.088.053l.07.036.071.026.07.01h.071a.572.572 0 00.493-.286l.3-.536a8.141 8.141 0 012.096 2.125l-.529.321a.44.44 0 00-.167.143.763.763 0 00-.097.197.475.475 0 00-.018.223.565.565 0 00.291.42.567.567 0 00.555 0l.528-.304c.446.917.705 1.893.775 2.928h-.616a.538.538 0 00-.396.17.553.553 0 00-.168.402c0 .155.056.288.168.402.111.113.243.17.396.17h.616a8.056 8.056 0 01-.74 2.874l-.563-.321a.532.532 0 00-.432-.063.566.566 0 00-.343.277.566.566 0 00-.07.206.475.475 0 00.017.223.763.763 0 00.097.196.44.44 0 00.167.143l.564.34a7.977 7.977 0 01-2.43 2.356.552.552 0 00-.247.349.581.581 0 00.07.437.707.707 0 00.3.232.466.466 0 00.176.036.55.55 0 00.3-.09 8.9 8.9 0 003.143-3.312A9.123 9.123 0 0020 12.125a9.034 9.034 0 00-.713-3.536c-.476-1.13-1.116-2.104-1.92-2.92a9.049 9.049 0 00-2.87-1.946A8.68 8.68 0 0011 3zm4.157 7.357a.587.587 0 00.281-.5.64.64 0 00-.07-.286.58.58 0 00-.344-.258.576.576 0 00-.431.044l-3.065 1.804a1.037 1.037 0 00-.546-.161c-.305 0-.57.113-.792.34a1.106 1.106 0 00-.335.803c0 .202.05.393.15.571a1.113 1.113 0 00.978.571c.305 0 .569-.112.792-.339.223-.226.335-.494.335-.803l3.047-1.786z" fill="#3498DB"/></svg><svg fill="none" viewBox="0 0 22 22" id="feature_7" xmlns="http://www.w3.org/2000/svg"><path d="M18.785 15.145c-.056.039-1.215 1.264-1.215 2.124 0 .907.576 1.486 1.215 1.518.55.026 1.214-.541 1.214-1.518 0-.91-1.159-2.085-1.214-2.124z" fill="#3498DB"/><path d="M7.857 3l2.429 2.429m0 0l7.285 7.285-6.578 6.579a1 1 0 01-1.414 0L3.707 13.42a1 1 0 010-1.414l6.579-6.578zM4.215 12.717L15.75 13.93" stroke="#3498DB" stroke-linecap="round"/></svg><svg fill="none" viewBox="0 0 22 22" id="feature_8" xmlns="http://www.w3.org/2000/svg"><path d="M19 5.25H4V19h15V5.25zM4 9h15M7.75 6.5V4M11.5 6.5V4M15.25 6.5V4" stroke="#3498DB" stroke-linecap="round" stroke-linejoin="round"/><path d="M14 19v-5h5l-5 5z" stroke="#3498DB" stroke-linecap="round" stroke-linejoin="round"/></svg><svg fill="none" viewBox="0 0 15 8" id="icon_arrow" xmlns="http://www.w3.org/2000/svg"><path d="M14.54 6.75l-7-6-7 6" stroke="#000"/></svg><svg fill="none" viewBox="0 0 75 75" id="icon_benefits-1" xmlns="http://www.w3.org/2000/svg"><path d="M66.926 21.024c-.036-1.89-.07-3.676-.07-5.403 0-1.353-1.081-2.45-2.416-2.45-10.332 0-18.2-3.011-24.757-9.477a2.391 2.391 0 00-3.369 0C29.758 10.16 21.892 13.17 11.56 13.17c-1.335 0-2.416 1.097-2.416 2.45 0 1.728-.034 3.514-.07 5.404-.33 17.588-.784 41.675 28.133 51.84a2.386 2.386 0 001.583 0C67.71 62.7 67.257 38.612 66.926 21.024zM37.999 67.95c-24.8-9.137-24.426-29.152-24.093-46.832.02-1.06.04-2.09.053-3.097 9.677-.415 17.415-3.388 24.04-9.24 6.625 5.852 14.365 8.826 24.043 9.24.013 1.008.032 2.035.052 3.096.333 17.68.707 37.696-24.095 46.833z" fill="#3498DB"/><path d="M46.319 29.488L34.658 41.314l-4.977-5.047a2.393 2.393 0 00-3.416 0 2.475 2.475 0 000 3.465l6.684 6.78a2.392 2.392 0 003.417 0l13.37-13.558a2.474 2.474 0 000-3.465 2.392 2.392 0 00-3.417 0z" fill="#3498DB"/></svg><svg fill="none" viewBox="0 0 75 75" id="icon_benefits-2" xmlns="http://www.w3.org/2000/svg"><path d="M7.239 37.093a2.051 2.051 0 010 1.813l-2.611 5.341a6.077 6.077 0 002.622 8.07l5.251 2.786c.567.3.955.835 1.066 1.467l1.027 5.855a6.077 6.077 0 006.865 4.988l5.886-.833a2.051 2.051 0 011.724.56l4.273 4.134a6.076 6.076 0 008.485 0l4.272-4.134a2.052 2.052 0 011.725-.56l5.886.832a6.076 6.076 0 006.864-4.987l1.027-5.855c.111-.632.5-1.166 1.066-1.467l5.251-2.787a6.077 6.077 0 002.622-8.07l-2.61-5.34a2.052 2.052 0 010-1.813l2.61-5.34a6.077 6.077 0 00-2.622-8.07l-5.251-2.787a2.052 2.052 0 01-1.066-1.467l-1.027-5.855a6.073 6.073 0 00-6.864-4.987l-5.886.832a2.05 2.05 0 01-1.725-.56l-4.272-4.133A6.082 6.082 0 0037.584 3a6.084 6.084 0 00-4.242 1.726l-4.273 4.133c-.46.446-1.09.65-1.724.56l-5.886-.832a6.076 6.076 0 00-6.865 4.987l-1.027 5.855c-.11.632-.5 1.167-1.066 1.467L7.25 23.683a6.077 6.077 0 00-2.622 8.07l2.61 5.34zm1.903-9.844l5.252-2.786a6.063 6.063 0 003.15-4.336l1.027-5.855a2.056 2.056 0 012.322-1.688l5.886.833a6.061 6.061 0 005.097-1.656l4.273-4.133a2.056 2.056 0 012.87 0l4.273 4.133a6.057 6.057 0 005.097 1.656l5.886-.832a2.056 2.056 0 012.323 1.687l1.027 5.855a6.062 6.062 0 003.15 4.336l5.251 2.786a2.056 2.056 0 01.887 2.73l-2.61 5.341a6.062 6.062 0 000 5.36l2.61 5.34a2.056 2.056 0 01-.887 2.73l-5.251 2.787a6.063 6.063 0 00-3.15 4.335l-1.027 5.856a2.056 2.056 0 01-2.322 1.687l-5.887-.832a6.063 6.063 0 00-5.097 1.656l-4.272 4.133a2.056 2.056 0 01-2.871 0l-4.273-4.133a6.062 6.062 0 00-5.097-1.657l-5.886.833a2.056 2.056 0 01-2.322-1.687l-1.027-5.856a6.062 6.062 0 00-3.15-4.335L9.142 48.75a2.056 2.056 0 01-.887-2.73l2.611-5.34a6.063 6.063 0 000-5.36l-2.61-5.34a2.056 2.056 0 01.886-2.73z" fill="#3498DB"/><path d="M22.833 52.749a2.019 2.019 0 002.855 0l26.645-26.645a2.019 2.019 0 00-2.855-2.855L22.833 49.894a2.018 2.018 0 000 2.855zM45.659 56.168c4.081 0 7.401-3.32 7.401-7.402 0-4.081-3.32-7.402-7.401-7.402-4.081 0-7.402 3.32-7.402 7.402 0 4.081 3.32 7.402 7.402 7.402zm0-10.766a3.368 3.368 0 013.364 3.364 3.368 3.368 0 01-3.364 3.365 3.368 3.368 0 01-3.365-3.365 3.368 3.368 0 013.365-3.364zM29.51 34.637c4.082 0 7.402-3.32 7.402-7.402 0-4.081-3.32-7.402-7.402-7.402-4.081 0-7.401 3.32-7.401 7.402 0 4.081 3.32 7.402 7.401 7.402zm0-10.766a3.368 3.368 0 013.365 3.364 3.368 3.368 0 01-3.365 3.364 3.368 3.368 0 01-3.364-3.364 3.368 3.368 0 013.364-3.364z" fill="#3498DB"/></svg><svg fill="none" viewBox="0 0 75 75" id="icon_benefits-3" xmlns="http://www.w3.org/2000/svg"><path d="M21.63 28.454c-2.624 0-4.76 2.142-4.76 4.773 0 2.632 2.136 4.773 4.76 4.773 2.625 0 4.761-2.141 4.761-4.773 0-2.631-2.136-4.772-4.76-4.772zm0 6.364a1.592 1.592 0 010-3.182 1.592 1.592 0 010 3.182zM37.5 31.636a1.59 1.59 0 00-1.587 1.591V38c0 .878.71 1.591 1.587 1.591A1.59 1.59 0 0039.087 38v-4.773a1.59 1.59 0 00-1.587-1.59zM31.152 31.636a1.59 1.59 0 00-1.587 1.591V38c0 .878.711 1.591 1.587 1.591a1.59 1.59 0 001.587-1.59v-4.774a1.59 1.59 0 00-1.587-1.59zM24.804 50.727c.877 0 1.587-.712 1.587-1.59 0-.88-.71-1.592-1.587-1.592-.876 0-1.587.713-1.587 1.591 0 .879.71 1.591 1.587 1.591z" fill="#3498DB"/><path d="M24.804 52.318a3.178 3.178 0 003.174-3.182 3.178 3.178 0 00-3.174-3.181 3.178 3.178 0 00-3.173 3.181 3.178 3.178 0 003.173 3.182zM8.935 25.273H4.174V22.09h4.76a1.59 1.59 0 001.588-1.591 1.59 1.59 0 00-1.587-1.591H2.587A1.59 1.59 0 001 20.5v6.364c0 .878.711 1.59 1.587 1.59h6.348a1.59 1.59 0 001.587-1.59 1.59 1.59 0 00-1.587-1.591zM15.283 50.727a1.59 1.59 0 00-1.587 1.591v15.91c0 .877-.714 1.59-1.587 1.59H5.76a1.592 1.592 0 01-1.587-1.59v-15.91a1.59 1.59 0 00-1.587-1.59A1.59 1.59 0 001 52.317v15.91C1 70.857 3.136 73 5.76 73h6.349c2.625 0 4.76-2.141 4.76-4.773V52.318a1.59 1.59 0 00-1.586-1.59z" fill="#3498DB"/><path d="M72.413 41.182H2.587A1.59 1.59 0 001 42.772v7.955a1.59 1.59 0 001.085 1.508l4.761 1.591c.162.054.33.083.502.083h9.867l1.29 5.158c.174.71.812 1.206 1.539 1.206h34.912c.727 0 1.365-.497 1.543-1.206l1.285-5.158h9.868c.171 0 .34-.029.502-.083l4.76-1.59A1.59 1.59 0 0074 50.726v-7.954a1.59 1.59 0 00-1.587-1.591zm-1.587 8.4l-3.43 1.145H56.542c-.726 0-1.364.497-1.539 1.206l-1.285 5.158H21.284l-1.288-5.158a1.586 1.586 0 00-1.54-1.206H7.605l-3.431-1.145v-5.218h66.652v5.218zM53.37 28.454c-2.625 0-4.761 2.142-4.761 4.773 0 2.632 2.136 4.773 4.76 4.773 2.625 0 4.761-2.141 4.761-4.773 0-2.631-2.136-4.772-4.76-4.772zm0 6.364a1.592 1.592 0 010-3.182 1.592 1.592 0 010 3.182zM37.5 31.636a1.59 1.59 0 00-1.587 1.591V38c0 .878.71 1.591 1.587 1.591A1.59 1.59 0 0039.087 38v-4.773a1.59 1.59 0 00-1.587-1.59zM43.848 31.636a1.59 1.59 0 00-1.587 1.591V38c0 .878.71 1.591 1.587 1.591a1.59 1.59 0 001.587-1.59v-4.774a1.59 1.59 0 00-1.587-1.59zM64.726 22.11c-.832-.13-20.39-3.2-27.226-3.2-6.837 0-26.394 3.07-27.226 3.2a1.59 1.59 0 00-1.32 1.82 1.6 1.6 0 001.815 1.324c.2-.032 20.142-3.163 26.73-3.163 6.59 0 26.532 3.131 26.732 3.163a1.59 1.59 0 00.495-3.144z" fill="#3498DB"/><path d="M72.794 31.684l-5.148-1.292-.003-3.681c-.905-9.383-2.641-20.822-5.777-22.015C58.886 3.56 41.077 3.083 37.462 3c-3.54.083-21.348.56-24.331 1.696-3.136 1.193-4.872 12.629-5.783 22.168v3.528l-5.145 1.292A1.591 1.591 0 001 33.227v9.546c0 .878.711 1.59 1.587 1.59h11.109a1.594 1.594 0 001.57-1.816L13.68 31.41a1.588 1.588 0 00-1.571-1.365h-1.59l-.004-3.029c.81-8.422 2.571-18.241 3.746-19.348 1.907-.726 15.288-1.295 23.2-1.486 7.99.19 21.37.76 23.123 1.403 1.33 1.19 3.091 11.009 3.894 19.279v3.181h-1.587c-.79 0-1.46.583-1.57 1.369L59.732 42.55a1.585 1.585 0 001.571 1.814h11.109c.876 0 1.587-.713 1.584-1.591v-9.546c0-.731-.495-1.365-1.203-1.543zm-62.06 1.543l1.133 7.955H4.174v-6.71l4.958-1.245h1.602zm60.092 7.955h-7.694l1.134-7.955h1.602l4.958 1.244v6.71zM50.196 50.727c.876 0 1.587-.712 1.587-1.59 0-.88-.71-1.592-1.587-1.592s-1.587.713-1.587 1.591c0 .879.71 1.591 1.587 1.591z" fill="#3498DB"/><path d="M50.196 45.955a3.181 3.181 0 00-3.174 3.181 3.181 3.181 0 003.174 3.182 3.181 3.181 0 003.174-3.182 3.18 3.18 0 00-3.174-3.181zM72.413 18.909h-6.348a1.59 1.59 0 00-1.587 1.591c0 .878.711 1.59 1.587 1.59h4.761v3.183h-4.76a1.59 1.59 0 00-1.588 1.59c0 .879.711 1.592 1.587 1.592h6.348A1.59 1.59 0 0074 26.864V20.5a1.59 1.59 0 00-1.587-1.591zM72.413 50.727a1.59 1.59 0 00-1.587 1.591v15.91c0 .877-.714 1.59-1.587 1.59h-6.348a1.592 1.592 0 01-1.587-1.59v-15.91a1.59 1.59 0 00-1.587-1.59 1.59 1.59 0 00-1.587 1.59v15.91c0 2.63 2.136 4.772 4.761 4.772h6.348c2.625 0 4.76-2.141 4.76-4.773V52.318c.001-.878-.71-1.59-1.586-1.59z" fill="#3498DB"/></svg><svg fill="none" viewBox="0 0 75 75" id="icon_benefits-4" xmlns="http://www.w3.org/2000/svg"><path d="M62.743 24.003h-.106a1.458 1.458 0 000 2.916h.106a1.458 1.458 0 100-2.916zM58.414 24.003H40.917a1.458 1.458 0 000 2.916h17.497a1.458 1.458 0 100-2.916zM58.414 37.666H40.917a1.458 1.458 0 100 2.917h17.497a1.458 1.458 0 100-2.917zM55.453 46.288a1.458 1.458 0 100-2.916H45.246a1.458 1.458 0 100 2.916h10.207zM40.917 46.288h.107a1.458 1.458 0 100-2.916h-.107a1.458 1.458 0 100 2.916z" fill="#3498DB"/><path d="M65.836 16.124H62.65L51.512 4.987A6.76 6.76 0 0046.7 3a6.76 6.76 0 00-4.813 1.987L30.748 16.124H10.164C6.214 16.124 3 19.338 3 23.288v29.42c0 3.95 3.214 7.165 7.164 7.165h3.186L24.488 71.01A6.785 6.785 0 0029.301 73a6.788 6.788 0 004.813-1.99l11.138-11.138h20.584c3.95 0 7.164-3.213 7.164-7.163v-29.42c0-3.95-3.214-7.165-7.164-7.165zM43.949 7.05a3.86 3.86 0 012.75-1.132c1.043 0 2.02.402 2.75 1.133l9.076 9.075H45.317l1.735-1.735.07-.07a1.458 1.458 0 00-2.065-2.06l-3.864 3.864h-6.32l9.076-9.075zM32.052 68.948a3.895 3.895 0 01-5.502 0l-9.075-9.075h13.208l-1.804 1.803a1.458 1.458 0 002.062 2.063l3.867-3.866h6.319l-9.075 9.075zm38.031-16.24a4.252 4.252 0 01-4.247 4.248H10.164a4.252 4.252 0 01-4.247-4.247v-29.42a4.252 4.252 0 014.247-4.248h55.672a4.252 4.252 0 014.248 4.247v29.42z" fill="#3498DB"/><path d="M28.795 35.77c.105-.416.201-.899.295-1.472.024-.143.059-.324.099-.532.318-1.658.597-3.385.214-4.667-.925-3.096-3.551-5.096-6.691-5.097-3.14 0-5.766 2-6.692 5.097-.382 1.283-.104 3.01.215 4.669.04.207.075.388.098.53.094.573.19 1.056.296 1.471a10.867 10.867 0 00-4.83 9.062c0 .805.652 1.458 1.458 1.458h18.91c.805 0 1.458-.653 1.458-1.458 0-3.681-1.823-7.048-4.83-9.062zm-9.98-5.836c.556-1.86 2.05-3.015 3.896-3.015 1.848 0 3.341 1.155 3.897 3.015.21.706-.136 2.512-.283 3.283a25.47 25.47 0 00-.112.608c-.108.652-.276 1.561-.49 1.921-.09.15-.226.246-.721.56-.169.108-.36.23-.574.373-1.178.666-2.255.666-3.432 0-.215-.144-.405-.264-.574-.372-.495-.315-.63-.412-.72-.56-.216-.36-.383-1.27-.49-1.923-.028-.163-.067-.37-.113-.606-.148-.772-.494-2.578-.284-3.284zm-3.968 13.438a7.954 7.954 0 013.293-5.1c.21.163.447.325.717.496.172.11.35.223.549.358l.09.056c1.044.603 2.126.908 3.215.908 1.09 0 2.172-.306 3.218-.909l.089-.056c.198-.134.377-.248.549-.357.269-.171.506-.333.717-.497a7.953 7.953 0 013.292 5.101H14.847zM32.167 49.078h-18.91a1.458 1.458 0 100 2.916h18.91a1.458 1.458 0 000-2.916zM62.743 49.078h-.106a1.458 1.458 0 100 2.916h.106a1.458 1.458 0 000-2.916zM58.414 49.078H40.917a1.458 1.458 0 100 2.916h17.497a1.458 1.458 0 100-2.916zM40.917 32.625h8.748a1.458 1.458 0 100-2.916h-8.748a1.458 1.458 0 100 2.916z" fill="#3498DB"/></svg><svg fill="none" viewBox="0 0 75 75" id="icon_benefits-5" xmlns="http://www.w3.org/2000/svg"><path d="M36 18a2 2 0 114 0v20a2 2 0 11-4 0V18z" fill="#3498DB"/><path d="M51.09 48.262a2 2 0 11-2.828 2.828L36.586 39.414a2 2 0 112.828-2.828L51.09 48.262z" fill="#3498DB"/><path d="M38 3C18.701 3 3 18.701 3 38s15.701 35 35 35 35-15.701 35-35S57.299 3 38 3zm0 65.625C21.113 68.625 7.375 54.887 7.375 38S21.113 7.375 38 7.375 68.625 21.113 68.625 38 54.887 68.625 38 68.625z" fill="#3498DB"/></svg><svg fill="none" viewBox="0 0 15 12" id="icon_burger" xmlns="http://www.w3.org/2000/svg"><path d="M0 1a1 1 0 011-1h13a1 1 0 110 2H1a1 1 0 01-1-1zM0 11a1 1 0 011-1h13a1 1 0 110 2H1a1 1 0 01-1-1zM7 6a1 1 0 011-1h6a1 1 0 110 2H8a1 1 0 01-1-1z" fill="#fff"/></svg><svg fill="none" viewBox="0 0 18 18" id="icon_calendar" xmlns="http://www.w3.org/2000/svg"><path d="M13.317 7.639a.664.664 0 100-1.328.664.664 0 000 1.328z" fill="#000"/><path d="M14.845 1.33h-.864V.666a.664.664 0 10-1.328 0v.664H9.632V.666a.664.664 0 10-1.328 0v.664H5.315V.666a.664.664 0 10-1.328 0v.664h-.83A2.66 2.66 0 00.501 3.986v10.36a2.66 2.66 0 002.656 2.656h5.08a.664.664 0 100-1.328h-5.08a1.33 1.33 0 01-1.328-1.328V3.986a1.33 1.33 0 011.328-1.328h.83v.664a.664.664 0 101.328 0v-.664h2.989v.664a.664.664 0 101.328 0v-.664h3.021v.664a.664.664 0 101.328 0v-.664h.864a1.33 1.33 0 011.328 1.328v3.785a.664.664 0 101.328 0V3.986a2.66 2.66 0 00-2.656-2.656z" fill="#000"/><path d="M13.483 8.967a4.022 4.022 0 00-4.017 4.017 4.022 4.022 0 004.017 4.018 4.022 4.022 0 004.018-4.018 4.022 4.022 0 00-4.018-4.017zm0 6.707a2.692 2.692 0 01-2.69-2.69 2.693 2.693 0 012.69-2.69 2.693 2.693 0 012.69 2.69 2.693 2.693 0 01-2.69 2.69z" fill="#000"/><path d="M14.446 12.32h-.298v-.697a.664.664 0 00-1.329 0v1.361c0 .367.298.664.664.664h.963a.664.664 0 100-1.328zM10.429 7.639a.664.664 0 100-1.328.664.664 0 000 1.328zM7.54 10.527a.664.664 0 100-1.328.664.664 0 000 1.328zM4.651 7.639a.664.664 0 100-1.328.664.664 0 000 1.328zM4.651 10.527a.664.664 0 100-1.328.664.664 0 000 1.328zM4.651 13.416a.664.664 0 100-1.328.664.664 0 000 1.328zM7.54 13.416a.664.664 0 100-1.328.664.664 0 000 1.328zM7.54 7.639a.664.664 0 100-1.328.664.664 0 000 1.328z" fill="#000"/></svg><svg fill="none" viewBox="0 0 21 21" id="icon_close" xmlns="http://www.w3.org/2000/svg"><path d="M12.566 10l8.1-8.1A1.11 1.11 0 0019.1.333l-8.1 8.1L2.9.322a1.111 1.111 0 00-1.567 1.567l8.1 8.11-8.111 8.1a1.11 1.11 0 101.567 1.567l8.11-8.1 8.1 8.1a1.111 1.111 0 001.567-1.566l-8.1-8.1z" fill="#F8F8F8"/></svg><svg fill="none" viewBox="0 0 132 132" id="icon_docs-1" xmlns="http://www.w3.org/2000/svg"><circle cx="66" cy="66" r="66" fill="#3498DB"/><path d="M43 95.905v-60.81C43 32.28 45.232 30 47.986 30h36.029C86.767 30 89 32.28 89 35.095v60.81C89 98.72 86.768 101 84.014 101H47.986C45.232 101 43 98.72 43 95.905zm44.638-60.81c0-2.044-1.624-3.703-3.624-3.703H47.986c-2 0-3.624 1.659-3.624 3.703v60.81c0 2.044 1.623 3.703 3.623 3.703h36.03c2 0 3.623-1.659 3.623-3.703v-60.81z" fill="#fff" stroke="#fff"/><path d="M70.793 74.989c-1.752-.525-2.849-1.65-3.164-1.996v-1.049c0-.844.668-1.523 1.5-1.523s1.5.679 1.5 1.523c0 .23.189.41.403.41a.41.41 0 00.403-.41c0-1.305-1.046-2.354-2.319-2.354-1.285 0-2.318 1.062-2.318 2.354v1.343l.088.115c.05.064 1.323 1.69 3.654 2.393.24.077.328.14.353.166-.075.295-1.16 1.037-2.848 1.523l-.466-1.523a.399.399 0 00-.517-.268.407.407 0 00-.264.524l.894 2.943c-1.108.525-2.545.256-3.175.064l.958-2.994a.417.417 0 00-.265-.525c-.214-.076-.441.052-.517.27l-.491 1.522c-1.664-.487-2.735-1.229-2.81-1.51.025-.026.113-.102.352-.166 2.344-.704 3.605-2.316 3.655-2.393l.088-.115V71.97c0-1.305-1.046-2.355-2.319-2.355-1.272 0-2.318 1.062-2.318 2.355 0 .23.189.409.403.409a.41.41 0 00.403-.41c0-.844.668-1.522 1.5-1.522.831 0 1.5.678 1.5 1.523v1.049a7.025 7.025 0 01-3.164 1.996c-.794.243-.957.652-.945.972.025 1.036 2.03 1.894 3.378 2.303l-.429 1.356.265.18c.302.191 1.26.498 2.344.498.768 0 1.587-.153 2.268-.588l.265-.167-.379-1.24c1.5-.436 3.416-1.331 3.428-2.316.063-.359-.1-.78-.894-1.024z" fill="#fff"/><path d="M54.183 60.135l3.226 2.226a4.712 4.712 0 00-.126 1.113c0 2.546 1.966 4.619 4.436 4.76-1.411.512-2.394 1.727-2.394 3.147 0 .23.189.41.403.41a.41.41 0 00.403-.41c0-1.42 1.374-2.584 3.075-2.584a.398.398 0 00.177-.039c.025 0 .037.013.063.013h1.55c.163.038.58.55.844 1.075a.42.42 0 00.365.23h.013a.418.418 0 00.365-.243c.252-.563.656-1.05.794-1.05h1.513c.037 0 .063 0 .1-.012.063.026.126.051.19.051 1.7 0 3.074 1.165 3.074 2.585 0 .23.19.41.403.41a.41.41 0 00.404-.41c0-1.42-.996-2.636-2.395-3.148 2.458-.153 4.411-2.226 4.411-4.76 0-.37-.05-.754-.126-1.112l3.214-2.226a.417.417 0 00.113-.576.404.404 0 00-.567-.115l-4.512 3.109a.417.417 0 00-.113.575c.076.116.214.18.34.18a.374.374 0 00.227-.077l.554-.384c.026.205.051.397.051.601 0 2.175-1.74 3.94-3.881 3.94a3.89 3.89 0 01-1.084-.153v-2.354c.302.218.68.346 1.084.346 1.033 0 1.877-.858 1.877-1.907a1.95 1.95 0 00-.403-1.177l5.872-4.337a.405.405 0 00.089-.576c-.139-.179-.391-.23-.567-.09l-6.264 4.632c-.012 0-.012.013-.012.013-.013.013-.025.013-.038.026-.013.012-.025.025-.025.038 0 .013-.013.013-.013.026 0 0 0 .012-.012.012-.013.013-.013.026-.025.039 0 .013-.013.025-.013.038 0 .013-.013.026-.013.038 0 .013-.012.026-.012.039v.153c0 .013.012.026.012.039 0 .013.013.025.013.038 0 .013.013.026.013.039.012.012.012.025.025.038v.013l.012.013a.176.176 0 01.038.05l.025.026.013.013c.29.205.454.538.454.883 0 .601-.48 1.075-1.059 1.075a1.076 1.076 0 01-1.071-1.075c0-.038-.013-.077-.013-.115v-.09a.41.41 0 00-.403-.41h-.995c.037-1.79.453-2.98 1.234-3.53.05.204.126.409.265.588.24.294.567.486.945.525h.05a.41.41 0 00.404-.371.416.416 0 00-.366-.46.606.606 0 01-.39-.218.61.61 0 01-.126-.384c.97-.166 1.966.332 1.978.332.025.013.038.013.063.026h.013a.273.273 0 00.1.013h.088c.013 0 .026 0 .039-.013a.095.095 0 00.05-.026c.013 0 .013 0 .025-.012h.013c.013-.013.025-.013.038-.026.012-.013.025-.013.025-.026.013-.012.025-.012.025-.025l.025-.026.026-.025c.012-.013.012-.026.025-.039v-.013c0-.012 0-.012.012-.025 0-.013.013-.026.013-.038 0-.013 0-.026.013-.039 0-.013 0-.025.012-.038v-.039-.038c0-.013 0-.026-.012-.038 0-.013 0-.026-.013-.039 0-.013-.013-.025-.013-.038 0-.013 0-.013-.012-.026-.038-.077-.996-1.983-2.571-1.983-1.462 0-2.52.5-3.276 1.523-.14.179-.101.447.088.575a.39.39 0 00.567-.09c.58-.792 1.436-1.189 2.608-1.189.441 0 .832.256 1.147.563-.668-.115-1.5-.102-2.243.358-1.084.678-1.65 2.124-1.701 4.286h-.29c-.114-4.056-1.563-6.039-4.436-6.039-1.575 0-2.533 1.894-2.57 1.983 0 .013 0 .013-.013.026 0 .013-.013.026-.013.038 0 .013 0 .026-.013.039 0 .013 0 .025-.012.038v.077c0 .013 0 .026.012.038 0 .013 0 .026.013.039 0 .013.013.025.013.038 0 .013 0 .013.012.026v.013c.013.012.013.025.026.038.012.013.012.026.025.038l.025.026.038.038c.012 0 .012.013.025.013.012.013.025.026.05.026.013 0 .013 0 .026.012.012.013.037.013.05.026h.025c.013 0 .038.013.05.013h.101c.013 0 .038-.013.05-.013.013 0 .013-.013.026-.013s.025-.013.038-.013c.012 0 1.008-.498 1.978-.332a.61.61 0 01-.126.384.556.556 0 01-.39.217.416.416 0 00-.366.46.41.41 0 00.403.372h.05c.379-.039.706-.23.946-.525.139-.179.227-.37.265-.588.78.55 1.197 1.727 1.234 3.53h-.882a.41.41 0 00-.403.41v.205a1.065 1.065 0 11-2.13 0c0-.358.177-.691.454-.883l.013-.013.025-.025a.176.176 0 00.038-.051l.012-.013v-.013c.013-.013.013-.026.026-.038 0-.013.012-.026.012-.039 0-.013.013-.025.013-.038 0-.013.012-.026.012-.038v-.039-.038-.039-.038c0-.013 0-.026-.012-.038 0-.013-.013-.026-.013-.039 0-.013-.012-.025-.012-.038-.013-.013-.013-.026-.026-.039 0 0 0-.012-.012-.012 0-.013-.013-.013-.013-.026-.013-.013-.013-.026-.025-.038-.013-.013-.025-.026-.038-.026-.013 0-.013-.013-.013-.013l-6.225-4.657a.398.398 0 00-.567.09.412.412 0 00.088.575l5.873 4.338a1.873 1.873 0 00-.403 1.177c0 1.049.844 1.906 1.877 1.906.39 0 .756-.128 1.071-.333v2.355c-.34.102-.705.153-1.07.153-2.143 0-3.882-1.766-3.882-3.94 0-.205.012-.41.05-.602l.567.384a.402.402 0 00.227.077.416.416 0 00.34-.18.417.417 0 00-.113-.575l-4.511-3.122a.404.404 0 00-.567.115.415.415 0 00.1.576zm14.29 7.792h-1.108c-.492 0-.907.447-1.185.882-.302-.435-.718-.882-1.184-.882h-1.147V63.55h4.612v4.376h.013zm-5.015-9.494c-.743-.46-1.575-.473-2.243-.358.303-.307.693-.563 1.147-.563 1.625 0 3.49.602 3.617 5.207h-.82c-.05-2.162-.617-3.608-1.7-4.286z" fill="#fff"/><path d="M56.137 63.282a.394.394 0 00.542-.218.426.426 0 00-.215-.55l-1.89-.793a.415.415 0 00-.542.218.426.426 0 00.214.55l1.89.793zM57.019 67.914a.352.352 0 00.189-.051l.668-.346a.423.423 0 00.176-.563.41.41 0 00-.554-.179l-.668.346a.423.423 0 00-.177.563c.063.14.215.23.366.23zM59.4 67.952a.41.41 0 00-.58.013l-.365.397a.426.426 0 00.013.588.407.407 0 00.58-.013l.365-.396a.426.426 0 00-.012-.589zM57.182 65.624a.404.404 0 00-.516-.269l-1.348.422a.407.407 0 00-.265.525c.05.179.214.294.39.294.038 0 .076 0 .127-.013l1.348-.422c.214-.09.34-.32.264-.537zM56.288 64.728a.41.41 0 000-.819h-1.689a.41.41 0 000 .82h1.689zM78.316 61.939c-.088-.218-.328-.307-.542-.218l-1.878.794c-.214.09-.302.332-.214.55a.413.413 0 00.378.256c.05 0 .1-.013.164-.039l1.877-.793a.426.426 0 00.215-.55zM75.53 67.12l-.667-.345a.41.41 0 00-.555.18c-.1.204-.025.46.177.562l.668.346a.521.521 0 00.189.05.423.423 0 00.189-.793zM72.96 67.952a.414.414 0 00-.013.589l.366.396c.075.09.189.128.302.128.101 0 .202-.038.278-.115a.414.414 0 00.012-.588l-.365-.397a.423.423 0 00-.58-.013zM77.03 65.777l-1.348-.422a.42.42 0 00-.517.269.428.428 0 00.265.524l1.348.422a.383.383 0 00.126.013c.177 0 .34-.115.391-.294a.399.399 0 00-.265-.512zM77.749 63.897H76.06a.41.41 0 000 .818h1.689a.41.41 0 00.403-.41c.013-.217-.177-.409-.403-.409zM64.945 55.76a.41.41 0 000 .818h2.344a.41.41 0 000-.819h-2.344zM65.21 55.312H67a1.4 1.4 0 001.385-1.408c0-.767-.617-1.407-1.386-1.407-.327 0-.642.192-.907.422-.214-.205-.492-.422-.882-.422-.756 0-1.386.627-1.386 1.407.012.78.63 1.408 1.386 1.408zm0-1.97c.113 0 .265.14.403.28.076.078.151.154.227.206.076.05.164.09.252.09.164 0 .265-.09.353-.18.365-.358.517-.397.554-.397a.57.57 0 01.567.576.57.57 0 01-.567.576h-1.79a.57.57 0 01-.566-.576c.012-.32.264-.576.567-.576zM66.105 52.126a.564.564 0 000-1.126.564.564 0 000 1.126zM75.279 70.537a.564.564 0 000 1.125.564.564 0 000-1.125zM74.737 72.251c-.945 0-1.752.563-2.117 1.382l-2.974-1.203v-.96a.41.41 0 00-.404-.409.41.41 0 00-.403.41v1.24c0 .167.101.32.252.385l3.327 1.343c0 .051-.013.115-.013.166 0 1.305 1.046 2.367 2.332 2.367 1.285 0 2.331-1.062 2.331-2.367 0-1.292-1.046-2.354-2.331-2.354zm0 3.902c-.832 0-1.512-.69-1.512-1.535 0-.844.68-1.535 1.512-1.535s1.512.69 1.512 1.535c0 .844-.68 1.535-1.512 1.535zM59.514 74.58l3.692-1.472a.431.431 0 00.265-.384v-1.24a.41.41 0 00-.403-.41.41.41 0 00-.404.41v.959l-3.591 1.446-3.869-5.86a.404.404 0 00-.567-.115.417.417 0 00-.113.576l3.742 5.693-.113.051a.407.407 0 00-.227.538.406.406 0 00.378.268c.05 0 .1-.013.151-.025l.278-.116.642.973c.076.115.215.179.34.179a.507.507 0 00.227-.064.417.417 0 00.114-.576l-.542-.831z" fill="#fff"/><path d="M70.793 74.989c-1.752-.525-2.849-1.65-3.164-1.996v-1.049c0-.844.668-1.523 1.5-1.523s1.5.679 1.5 1.523c0 .23.189.41.403.41a.41.41 0 00.403-.41c0-1.305-1.046-2.354-2.319-2.354-1.285 0-2.318 1.062-2.318 2.354v1.343l.088.115c.05.064 1.323 1.69 3.654 2.393.24.077.328.14.353.166-.075.295-1.16 1.037-2.848 1.523l-.466-1.523a.399.399 0 00-.517-.268.407.407 0 00-.264.524l.894 2.943c-1.108.525-2.545.256-3.175.064l.958-2.994a.417.417 0 00-.265-.525c-.214-.076-.441.052-.517.27l-.491 1.522c-1.664-.487-2.735-1.229-2.81-1.51.025-.026.113-.102.352-.166 2.344-.704 3.605-2.316 3.655-2.393l.088-.115V71.97c0-1.305-1.046-2.355-2.319-2.355-1.272 0-2.318 1.062-2.318 2.355 0 .23.189.409.403.409a.41.41 0 00.403-.41c0-.844.668-1.522 1.5-1.522.831 0 1.5.678 1.5 1.523v1.049a7.025 7.025 0 01-3.164 1.996c-.794.243-.957.652-.945.972.025 1.036 2.03 1.894 3.378 2.303l-.429 1.356.265.18c.302.191 1.26.498 2.344.498.768 0 1.587-.153 2.268-.588l.265-.167-.379-1.24c1.5-.436 3.416-1.331 3.428-2.316.063-.359-.1-.78-.894-1.024z" stroke="#fff" stroke-width=".5"/><path d="M54.183 60.135l3.226 2.226a4.712 4.712 0 00-.126 1.113c0 2.546 1.966 4.619 4.436 4.76-1.411.512-2.394 1.727-2.394 3.147 0 .23.189.41.403.41a.41.41 0 00.403-.41c0-1.42 1.374-2.584 3.075-2.584a.398.398 0 00.177-.039c.025 0 .037.013.063.013h1.55c.163.038.58.55.844 1.075a.42.42 0 00.365.23h.013a.418.418 0 00.365-.243c.252-.563.656-1.05.794-1.05h1.513c.037 0 .063 0 .1-.012.063.026.126.051.19.051 1.7 0 3.074 1.165 3.074 2.585 0 .23.19.41.403.41a.41.41 0 00.404-.41c0-1.42-.996-2.636-2.395-3.148 2.458-.153 4.411-2.226 4.411-4.76 0-.37-.05-.754-.126-1.112l3.214-2.226a.417.417 0 00.113-.576.404.404 0 00-.567-.115l-4.512 3.109a.417.417 0 00-.113.575c.076.116.214.18.34.18a.374.374 0 00.227-.077l.554-.384c.026.205.051.397.051.601 0 2.175-1.74 3.94-3.881 3.94a3.89 3.89 0 01-1.084-.153v-2.354c.302.218.68.346 1.084.346 1.033 0 1.877-.858 1.877-1.907a1.95 1.95 0 00-.403-1.177l5.872-4.337a.405.405 0 00.089-.576c-.139-.179-.391-.23-.567-.09l-6.264 4.632c-.012 0-.012.013-.012.013-.013.013-.025.013-.038.026-.013.012-.025.025-.025.038 0 .013-.013.013-.013.026 0 0 0 .012-.012.012-.013.013-.013.026-.025.039 0 .013-.013.025-.013.038 0 .013-.013.026-.013.038 0 .013-.012.026-.012.039v.153c0 .013.012.026.012.039 0 .013.013.025.013.038 0 .013.013.026.013.039.012.012.012.025.025.038v.013l.012.013a.176.176 0 01.038.05l.025.026.013.013c.29.205.454.538.454.883 0 .601-.48 1.075-1.059 1.075a1.076 1.076 0 01-1.071-1.075c0-.038-.013-.077-.013-.115v-.09a.41.41 0 00-.403-.41h-.995c.037-1.79.453-2.98 1.234-3.53.05.204.126.409.265.588.24.294.567.486.945.525h.05a.41.41 0 00.404-.371.416.416 0 00-.366-.46.606.606 0 01-.39-.218.61.61 0 01-.126-.384c.97-.166 1.966.332 1.978.332.025.013.038.013.063.026h.013a.273.273 0 00.1.013h.088c.013 0 .026 0 .039-.013a.095.095 0 00.05-.026c.013 0 .013 0 .025-.012h.013c.013-.013.025-.013.038-.026.012-.013.025-.013.025-.026.013-.012.025-.012.025-.025l.025-.026.026-.025c.012-.013.012-.026.025-.039v-.013c0-.012 0-.012.012-.025 0-.013.013-.026.013-.038 0-.013 0-.026.013-.039 0-.013 0-.025.012-.038v-.039-.038c0-.013 0-.026-.012-.038 0-.013 0-.026-.013-.039 0-.013-.013-.025-.013-.038 0-.013 0-.013-.012-.026-.038-.077-.996-1.983-2.571-1.983-1.462 0-2.52.5-3.276 1.523-.14.179-.101.447.088.575a.39.39 0 00.567-.09c.58-.792 1.436-1.189 2.608-1.189.441 0 .832.256 1.147.563-.668-.115-1.5-.102-2.243.358-1.084.678-1.65 2.124-1.701 4.286h-.29c-.114-4.056-1.563-6.039-4.436-6.039-1.575 0-2.533 1.894-2.57 1.983 0 .013 0 .013-.013.026 0 .013-.013.026-.013.038 0 .013 0 .026-.013.039 0 .013 0 .025-.012.038v.077c0 .013 0 .026.012.038 0 .013 0 .026.013.039 0 .013.013.025.013.038 0 .013 0 .013.012.026v.013c.013.012.013.025.026.038.012.013.012.026.025.038l.025.026.038.038c.012 0 .012.013.025.013.012.013.025.026.05.026.013 0 .013 0 .026.012.012.013.037.013.05.026h.025c.013 0 .038.013.05.013h.101c.013 0 .038-.013.05-.013.013 0 .013-.013.026-.013s.025-.013.038-.013c.012 0 1.008-.498 1.978-.332a.61.61 0 01-.126.384.556.556 0 01-.39.217.416.416 0 00-.366.46.41.41 0 00.403.372h.05c.379-.039.706-.23.946-.525.139-.179.227-.37.265-.588.78.55 1.197 1.727 1.234 3.53h-.882a.41.41 0 00-.403.41v.205a1.065 1.065 0 11-2.13 0c0-.358.177-.691.454-.883l.013-.013.025-.025a.176.176 0 00.038-.051l.012-.013v-.013c.013-.013.013-.026.026-.038 0-.013.012-.026.012-.039 0-.013.013-.025.013-.038 0-.013.012-.026.012-.038v-.039-.038-.039-.038c0-.013 0-.026-.012-.038 0-.013-.013-.026-.013-.039 0-.013-.012-.025-.012-.038-.013-.013-.013-.026-.026-.039 0 0 0-.012-.012-.012 0-.013-.013-.013-.013-.026-.013-.013-.013-.026-.025-.038-.013-.013-.025-.026-.038-.026-.013 0-.013-.013-.013-.013l-6.225-4.657a.398.398 0 00-.567.09.412.412 0 00.088.575l5.873 4.338a1.873 1.873 0 00-.403 1.177c0 1.049.844 1.906 1.877 1.906.39 0 .756-.128 1.071-.333v2.355c-.34.102-.705.153-1.07.153-2.143 0-3.882-1.766-3.882-3.94 0-.205.012-.41.05-.602l.567.384a.402.402 0 00.227.077.416.416 0 00.34-.18.417.417 0 00-.113-.575l-4.511-3.122a.404.404 0 00-.567.115.415.415 0 00.1.576zm14.29 7.792h-1.108c-.492 0-.907.447-1.185.882-.302-.435-.718-.882-1.184-.882h-1.147V63.55h4.612v4.376h.013zm-5.015-9.494c-.743-.46-1.575-.473-2.243-.358.303-.307.693-.563 1.147-.563 1.625 0 3.49.602 3.617 5.207h-.82c-.05-2.162-.617-3.608-1.7-4.286z" stroke="#fff" stroke-width=".5"/><path d="M56.137 63.282a.394.394 0 00.542-.218.426.426 0 00-.215-.55l-1.89-.793a.415.415 0 00-.542.218.426.426 0 00.214.55l1.89.793zM57.019 67.914a.352.352 0 00.189-.051l.668-.346a.423.423 0 00.176-.563.41.41 0 00-.554-.179l-.668.346a.423.423 0 00-.177.563c.063.14.215.23.366.23zM59.4 67.952a.41.41 0 00-.58.013l-.365.397a.426.426 0 00.013.588.407.407 0 00.58-.013l.365-.396a.426.426 0 00-.012-.589zM57.182 65.624a.404.404 0 00-.516-.269l-1.348.422a.407.407 0 00-.265.525c.05.179.214.294.39.294.038 0 .076 0 .127-.013l1.348-.422c.214-.09.34-.32.264-.537zM56.288 64.728a.41.41 0 000-.819h-1.689a.41.41 0 000 .82h1.689zM78.316 61.939c-.088-.218-.328-.307-.542-.218l-1.878.794c-.214.09-.302.332-.214.55a.413.413 0 00.378.256c.05 0 .1-.013.164-.039l1.877-.793a.426.426 0 00.215-.55zM75.53 67.12l-.667-.345a.41.41 0 00-.555.18c-.1.204-.025.46.177.562l.668.346a.521.521 0 00.189.05.423.423 0 00.189-.793zM72.96 67.952a.414.414 0 00-.013.589l.366.396c.075.09.189.128.302.128.101 0 .202-.038.278-.115a.414.414 0 00.012-.588l-.365-.397a.423.423 0 00-.58-.013zM77.03 65.777l-1.348-.422a.42.42 0 00-.517.269.428.428 0 00.265.524l1.348.422a.383.383 0 00.126.013c.177 0 .34-.115.391-.294a.399.399 0 00-.265-.512zM77.749 63.897H76.06a.41.41 0 000 .818h1.689a.41.41 0 00.403-.41c.013-.217-.177-.409-.403-.409zM64.945 55.76a.41.41 0 000 .818h2.344a.41.41 0 000-.819h-2.344zM65.21 55.312H67a1.4 1.4 0 001.385-1.408c0-.767-.617-1.407-1.386-1.407-.327 0-.642.192-.907.422-.214-.205-.492-.422-.882-.422-.756 0-1.386.627-1.386 1.407.012.78.63 1.408 1.386 1.408zm0-1.97c.113 0 .265.14.403.28.076.078.151.154.227.206.076.05.164.09.252.09.164 0 .265-.09.353-.18.365-.358.517-.397.554-.397a.57.57 0 01.567.576.57.57 0 01-.567.576h-1.79a.57.57 0 01-.566-.576c.012-.32.264-.576.567-.576zM66.105 52.126a.564.564 0 000-1.126.564.564 0 000 1.126zM75.279 70.537a.564.564 0 000 1.125.564.564 0 000-1.125zM74.737 72.251c-.945 0-1.752.563-2.117 1.382l-2.974-1.203v-.96a.41.41 0 00-.404-.409.41.41 0 00-.403.41v1.24c0 .167.101.32.252.385l3.327 1.343c0 .051-.013.115-.013.166 0 1.305 1.046 2.367 2.332 2.367 1.285 0 2.331-1.062 2.331-2.367 0-1.292-1.046-2.354-2.331-2.354zm0 3.902c-.832 0-1.512-.69-1.512-1.535 0-.844.68-1.535 1.512-1.535s1.512.69 1.512 1.535c0 .844-.68 1.535-1.512 1.535zM59.514 74.58l3.692-1.472a.431.431 0 00.265-.384v-1.24a.41.41 0 00-.403-.41.41.41 0 00-.404.41v.959l-3.591 1.446-3.869-5.86a.404.404 0 00-.567-.115.417.417 0 00-.113.576l3.742 5.693-.113.051a.407.407 0 00-.227.538.406.406 0 00.378.268c.05 0 .1-.013.151-.025l.278-.116.642.973c.076.115.215.179.34.179a.507.507 0 00.227-.064.417.417 0 00.114-.576l-.542-.831z" stroke="#fff" stroke-width=".5"/></svg><svg fill="none" viewBox="0 0 132 132" id="icon_docs-2" xmlns="http://www.w3.org/2000/svg"><circle cx="66" cy="66" r="66" fill="#3498DB"/><path d="M94.192 88H36.808C34.152 88 32 85.817 32 83.123V47.877C32 45.183 34.152 43 36.808 43h57.384C96.848 43 99 45.183 99 47.877v35.246C99 85.817 96.848 88 94.192 88zM36.808 44.333c-1.929 0-3.494 1.588-3.494 3.544v35.246c0 1.956 1.565 3.544 3.494 3.544h57.384c1.929 0 3.494-1.588 3.494-3.544V47.877c0-1.956-1.565-3.544-3.494-3.544H36.808z" fill="#fff"/><path d="M56.331 69.154a.56.56 0 01-.544-.458c-.071-.313.142-.602.45-.674l.378-.073c.331-.072.591-.289.733-.602l.71-1.711c.047-.096.024-.217-.024-.313-.07-.097-.189-.145-.33-.12-.308.071-.592-.121-.663-.435a.557.557 0 01.426-.674 1.402 1.402 0 011.466.578c.284.41.355.94.166 1.422l-.71 1.71c-.33.651-.899 1.133-1.585 1.254l-.378.072c-.024.024-.071.024-.095.024zM45.685 69.154h-.118l-.355-.096a2.137 2.137 0 01-1.538-1.277l-.71-1.711a1.462 1.462 0 01.166-1.422 1.402 1.402 0 011.467-.578.557.557 0 01.426.674c-.071.314-.355.506-.663.434a.344.344 0 00-.33.12.3.3 0 00-.024.314l.71 1.71c.118.314.401.53.733.603l.378.073a.591.591 0 01.45.674c-.095.29-.331.482-.592.482z" fill="#fff"/><path d="M44.502 65.202a.56.56 0 01-.544-.458c-.331-1.783-.639-4.41-.118-6.747.331-1.47 1.112-2.7 2.366-3.687 1.348-1.085 3.051-1.663 4.802-1.663 1.75 0 3.454.602 4.803 1.663 1.254.988 2.034 2.217 2.365 3.687.544 2.458.166 5.253-.118 6.723-.047.314-.355.506-.662.458-.308-.048-.497-.361-.45-.675.26-1.373.615-4 .119-6.265-.26-1.205-.923-2.217-1.94-3.036-2.319-1.832-5.915-1.832-8.233 0-1.041.819-1.68 1.83-1.94 3.036-.52 2.265-.142 4.916.118 6.29a.591.591 0 01-.45.674h-.118zM51.008 74.528c-.402 0-.78-.048-1.16-.169-.567-.168-1.631-1.084-1.939-1.35-.97-.987-1.963-2.53-2.72-4.168-.119-.29 0-.627.26-.747.284-.12.615 0 .733.265.686 1.518 1.609 2.94 2.46 3.808.568.505 1.278 1.036 1.467 1.084a3.01 3.01 0 001.727 0c.19-.048.9-.578 1.49-1.109.829-.843 1.751-2.265 2.437-3.783.119-.29.45-.41.734-.265.284.12.402.458.26.747-.733 1.639-1.75 3.18-2.697 4.145-.331.313-1.396 1.229-1.964 1.373a3.693 3.693 0 01-1.088.17z" fill="#fff"/><path d="M51.008 78.167c-2.531 0-4.518-1.23-4.518-2.82v-.072l-3.691 1.253a.573.573 0 01-.71-.361.589.589 0 01.355-.723l4.85-1.639a.568.568 0 01.639.241.588.588 0 01-.048.699c-.189.217-.283.41-.283.626 0 .796 1.395 1.687 3.406 1.687s3.407-.891 3.407-1.687c0-.216-.095-.433-.284-.626a.553.553 0 01.047-.795.53.53 0 01.781.048c.378.41.568.892.568 1.398 0 1.542-1.988 2.77-4.519 2.77zM46.82 64.238c-1.49 0-2.554-.289-2.672-.313-.308-.072-.474-.386-.403-.699.071-.313.379-.482.686-.41.237.073 5.655 1.47 9.274-2.795a.53.53 0 01.78-.048c.237.217.261.554.048.795-2.39 2.868-5.512 3.47-7.712 3.47z" fill="#fff"/><path d="M55.408 63.154a.62.62 0 01-.283-.073l-2.13-1.3a.563.563 0 01-.189-.772c.166-.265.497-.361.757-.193l2.13 1.302c.26.168.354.506.189.77a.543.543 0 01-.474.266zM59.383 76.528c-.047 0-.118 0-.166-.024l-4.85-1.639a.578.578 0 01-.354-.722.563.563 0 01.71-.362l4.85 1.639c.283.096.449.41.354.723a.584.584 0 01-.544.385zM85.998 60.503h-18.43c-1.514 0-2.744-1.253-2.744-2.795 0-1.543 1.23-2.796 2.744-2.796h18.43c1.514 0 2.744 1.253 2.744 2.796 0 1.542-1.23 2.795-2.745 2.795zm-18.43-4.458c-.899 0-1.632.747-1.632 1.663 0 .915.733 1.662 1.632 1.662h18.43c.898 0 1.632-.747 1.632-1.662 0-.916-.733-1.663-1.632-1.663h-18.43zM74.831 68.214h-7.263c-1.514 0-2.744-1.253-2.744-2.795s1.23-2.795 2.744-2.795h7.263c1.514 0 2.745 1.253 2.745 2.795s-1.23 2.795-2.745 2.795zm-7.263-4.458c-.899 0-1.632.747-1.632 1.663s.733 1.663 1.632 1.663h7.263c.9 0 1.633-.747 1.633-1.663s-.734-1.663-1.633-1.663h-7.263zM81.526 75.902H67.568c-1.514 0-2.744-1.253-2.744-2.796 0-1.542 1.23-2.795 2.744-2.795h13.958c1.514 0 2.745 1.253 2.745 2.795 0 1.543-1.23 2.796-2.745 2.796zm-13.958-4.458c-.899 0-1.632.747-1.632 1.662 0 .916.733 1.663 1.632 1.663h13.958c.9 0 1.633-.747 1.633-1.663 0-.915-.734-1.662-1.633-1.662H67.568z" fill="#fff"/><path d="M94.192 88H36.808C34.152 88 32 85.817 32 83.123V47.877C32 45.183 34.152 43 36.808 43h57.384C96.848 43 99 45.183 99 47.877v35.246C99 85.817 96.848 88 94.192 88zM36.808 44.333c-1.929 0-3.494 1.588-3.494 3.544v35.246c0 1.956 1.565 3.544 3.494 3.544h57.384c1.929 0 3.494-1.588 3.494-3.544V47.877c0-1.956-1.565-3.544-3.494-3.544H36.808z" stroke="#fff"/><path d="M56.331 69.154a.56.56 0 01-.544-.458c-.071-.313.142-.602.45-.674l.378-.073c.331-.072.591-.289.733-.602l.71-1.711c.047-.096.024-.217-.024-.313-.07-.097-.189-.145-.33-.12-.308.071-.592-.121-.663-.435a.557.557 0 01.426-.674 1.402 1.402 0 011.466.578c.284.41.355.94.166 1.422l-.71 1.71c-.33.651-.899 1.133-1.585 1.254l-.378.072c-.024.024-.071.024-.095.024zM45.685 69.154h-.118l-.355-.096a2.137 2.137 0 01-1.538-1.277l-.71-1.711a1.462 1.462 0 01.166-1.422 1.402 1.402 0 011.467-.578.557.557 0 01.426.674c-.071.314-.355.506-.663.434a.344.344 0 00-.33.12.3.3 0 00-.024.314l.71 1.71c.118.314.401.53.733.603l.378.073a.591.591 0 01.45.674c-.095.29-.331.482-.592.482z" stroke="#fff"/><path d="M44.502 65.202a.56.56 0 01-.544-.458c-.331-1.783-.639-4.41-.118-6.747.331-1.47 1.112-2.7 2.366-3.687 1.348-1.085 3.051-1.663 4.802-1.663 1.75 0 3.454.602 4.803 1.663 1.254.988 2.034 2.217 2.365 3.687.544 2.458.166 5.253-.118 6.723-.047.314-.355.506-.662.458-.308-.048-.497-.361-.45-.675.26-1.373.615-4 .119-6.265-.26-1.205-.923-2.217-1.94-3.036-2.319-1.832-5.915-1.832-8.233 0-1.041.819-1.68 1.83-1.94 3.036-.52 2.265-.142 4.916.118 6.29a.591.591 0 01-.45.674h-.118zM51.008 74.528c-.402 0-.78-.048-1.16-.169-.567-.168-1.631-1.084-1.939-1.35-.97-.987-1.963-2.53-2.72-4.168-.119-.29 0-.627.26-.747.284-.12.615 0 .733.265.686 1.518 1.609 2.94 2.46 3.808.568.505 1.278 1.036 1.467 1.084a3.01 3.01 0 001.727 0c.19-.048.9-.578 1.49-1.109.829-.843 1.751-2.265 2.437-3.783.119-.29.45-.41.734-.265.284.12.402.458.26.747-.733 1.639-1.75 3.18-2.697 4.145-.331.313-1.396 1.229-1.964 1.373a3.693 3.693 0 01-1.088.17z" stroke="#fff"/><path d="M51.008 78.167c-2.531 0-4.518-1.23-4.518-2.82v-.072l-3.691 1.253a.573.573 0 01-.71-.361.589.589 0 01.355-.723l4.85-1.639a.568.568 0 01.639.241.588.588 0 01-.048.699c-.189.217-.283.41-.283.626 0 .796 1.395 1.687 3.406 1.687s3.407-.891 3.407-1.687c0-.216-.095-.433-.284-.626a.553.553 0 01.047-.795.53.53 0 01.781.048c.378.41.568.892.568 1.398 0 1.542-1.988 2.77-4.519 2.77zM46.82 64.238c-1.49 0-2.554-.289-2.672-.313-.308-.072-.474-.386-.403-.699.071-.313.379-.482.686-.41.237.073 5.655 1.47 9.274-2.795a.53.53 0 01.78-.048c.237.217.261.554.048.795-2.39 2.868-5.512 3.47-7.712 3.47z" stroke="#fff"/><path d="M55.408 63.154a.62.62 0 01-.283-.073l-2.13-1.3a.563.563 0 01-.189-.772c.166-.265.497-.361.757-.193l2.13 1.302c.26.168.354.506.189.77a.543.543 0 01-.474.266zM59.383 76.528c-.047 0-.118 0-.166-.024l-4.85-1.639a.578.578 0 01-.354-.722.563.563 0 01.71-.362l4.85 1.639c.283.096.449.41.354.723a.584.584 0 01-.544.385zM85.998 60.503h-18.43c-1.514 0-2.744-1.253-2.744-2.795 0-1.543 1.23-2.796 2.744-2.796h18.43c1.514 0 2.744 1.253 2.744 2.796 0 1.542-1.23 2.795-2.745 2.795zm-18.43-4.458c-.899 0-1.632.747-1.632 1.663 0 .915.733 1.662 1.632 1.662h18.43c.898 0 1.632-.747 1.632-1.662 0-.916-.733-1.663-1.632-1.663h-18.43zM74.831 68.214h-7.263c-1.514 0-2.744-1.253-2.744-2.795s1.23-2.795 2.744-2.795h7.263c1.514 0 2.745 1.253 2.745 2.795s-1.23 2.795-2.745 2.795zm-7.263-4.458c-.899 0-1.632.747-1.632 1.663s.733 1.663 1.632 1.663h7.263c.9 0 1.633-.747 1.633-1.663s-.734-1.663-1.633-1.663h-7.263zM81.526 75.902H67.568c-1.514 0-2.744-1.253-2.744-2.796 0-1.542 1.23-2.795 2.744-2.795h13.958c1.514 0 2.745 1.253 2.745 2.795 0 1.543-1.23 2.796-2.745 2.796zm-13.958-4.458c-.899 0-1.632.747-1.632 1.662 0 .916.733 1.663 1.632 1.663h13.958c.9 0 1.633-.747 1.633-1.663 0-.915-.734-1.662-1.633-1.662H67.568z" stroke="#fff"/></svg><svg fill="none" viewBox="0 0 133 132" id="icon_docs-3" xmlns="http://www.w3.org/2000/svg"><ellipse cx="66.995" cy="66" rx="66.003" ry="66" fill="#3498DB"/><path d="M49.911 73.881c-4.29 0-7.788-3.54-7.788-7.882 0-4.34 3.499-7.882 7.788-7.882 4.29 0 7.789 3.541 7.789 7.882 0 4.342-3.499 7.882-7.789 7.882zm0-14.286c-3.498 0-6.328 2.894-6.328 6.404 0 3.541 2.86 6.404 6.328 6.404 3.5 0 6.328-2.894 6.328-6.404.03-3.54-2.829-6.404-6.328-6.404zM86.602 73.881c-4.29 0-7.788-3.54-7.788-7.882 0-4.34 3.498-7.882 7.788-7.882S94.39 61.658 94.39 66c0 4.342-3.499 7.882-7.788 7.882zm0-14.286c-3.499 0-6.328 2.894-6.328 6.404 0 3.541 2.86 6.404 6.328 6.404 3.498 0 6.328-2.894 6.328-6.404 0-3.54-2.83-6.404-6.328-6.404z" fill="#fff"/><path d="M44.283 71.049a.608.608 0 01-.335-.093l-5.963-3.17a7.34 7.34 0 01-1.916-1.448A7.69 7.69 0 0134 61.073v-5.911c0-1.509.943-2.833 2.373-3.295a34.154 34.154 0 015.507-1.324c2.494-.4 5.05-.554 7.575-.4.395.03.7.37.67.77-.031.4-.305.708-.761.677-2.434-.123-4.868 0-7.271.4a31.63 31.63 0 00-5.294 1.293 2.013 2.013 0 00-1.37 1.91v5.91a6.19 6.19 0 001.674 4.219c.456.462.974.862 1.552 1.17l5.963 3.202c.365.185.486.616.304.985a.74.74 0 01-.639.37zM97.28 71.049H92.2a.745.745 0 01-.73-.74c0-.4.334-.738.73-.738h5.08c1.126 0 2.221-.462 3.012-1.263a4.31 4.31 0 001.248-3.048v-3.14c0-.708-.365-1.355-1.004-1.693l-1.217-.678a55.241 55.241 0 00-13.386-5.296c-.396-.092-.609-.492-.518-.892.092-.4.487-.616.883-.524a56.538 56.538 0 0113.751 5.45l1.217.677A3.376 3.376 0 01103 62.12v3.171c0 1.54-.578 2.987-1.673 4.064a5.628 5.628 0 01-4.047 1.694z" fill="#fff"/><path d="M76.47 54.484a.687.687 0 01-.334-.092c-.365-.185-.486-.616-.304-.985.76-1.447 2.373-2.217 3.955-1.848l3.407.77-5.202-4.187c-2.92-2.371-6.571-3.695-10.313-3.695h-15.76c-1.125 0-2.16.431-2.981 1.2l-6.45 6.128c-.274.277-.73.246-1.004-.03a.731.731 0 01.03-1.017l6.45-6.127A5.582 5.582 0 0151.92 43h15.76c4.076 0 8.062 1.416 11.226 4.003l7.636 6.188c.274.216.335.585.213.893a.753.753 0 01-.822.4l-6.48-1.478c-.943-.215-1.916.247-2.373 1.109-.09.215-.365.37-.608.37zM80.974 71.049H55.54a.745.745 0 01-.73-.74c0-.4.334-.738.73-.738h25.434c.395 0 .73.339.73.739-.03.4-.335.739-.73.739zM39.902 64.614h-.091a9.503 9.503 0 01-5.598-2.74.731.731 0 010-1.016.685.685 0 011.004-.031c1.278 1.293 2.981 2.093 4.776 2.309.396.062.67.4.64.8-.062.4-.366.678-.73.678zM95.82 67.508a.745.745 0 01-.73-.739c0-.4.335-.739.73-.739 4.564 0 5.659-1.262 5.72-1.724-.031-.4.273-.708.669-.739a.79.79 0 01.761.708c0 .123 0 .8-.639 1.478-1.096 1.17-3.286 1.755-6.51 1.755zM76.47 66.738l-16.428-.462c-.395 0-.7-.338-.7-.739 0-.4.366-.708.73-.708l16.43.462c.395 0 .7.339.7.74-.031.4-.336.707-.731.707zM49.911 69.848a.745.745 0 01-.73-.739c0-.4.335-.739.73-.739 1.309 0 2.343-1.078 2.343-2.37a2.358 2.358 0 00-2.343-2.371.693.693 0 01-.7-.709c0-.4.335-.739.73-.739 2.1 0 3.773 1.725 3.773 3.818 0 2.125-1.703 3.849-3.803 3.849zM86.602 69.848a.745.745 0 01-.73-.739c0-.4.334-.739.73-.739 1.308 0 2.342-1.078 2.342-2.37a2.358 2.358 0 00-2.342-2.371.745.745 0 01-.73-.74c0-.4.334-.738.73-.738 2.099 0 3.772 1.724 3.772 3.818 0 2.155-1.703 3.879-3.772 3.879zM39.08 91C36.283 91 34 88.69 34 85.858c0-2.832 2.282-5.142 5.08-5.142 2.8 0 5.081 2.31 5.081 5.142A5.082 5.082 0 0139.081 91zm0-8.836c-2.007 0-3.65 1.662-3.65 3.694s1.643 3.695 3.65 3.695c2.009 0 3.651-1.663 3.651-3.695a3.626 3.626 0 00-3.65-3.694zM97.859 91c-2.8 0-5.081-2.31-5.081-5.142 0-2.832 2.281-5.142 5.08-5.142s5.081 2.31 5.081 5.142A5.081 5.081 0 0197.859 91zm0-8.836c-2.008 0-3.651 1.662-3.651 3.694s1.642 3.695 3.65 3.695 3.651-1.663 3.651-3.695a3.625 3.625 0 00-3.65-3.694zM50.216 86.566h-2.921a.745.745 0 01-.73-.739c0-.4.335-.739.73-.739h2.92c.396 0 .73.34.73.74a.725.725 0 01-.73.738zM58.095 86.566h-2.92a.745.745 0 01-.73-.739c0-.4.334-.739.73-.739h2.92c.396 0 .73.34.73.74 0 .43-.304.738-.73.738zM66.005 86.566h-2.92a.745.745 0 01-.73-.739c0-.4.334-.739.73-.739h2.92c.396 0 .73.34.73.74-.03.43-.334.738-.73.738zM73.885 86.566h-2.92a.745.745 0 01-.73-.739c0-.4.334-.739.73-.739h2.92c.395 0 .73.34.73.74a.725.725 0 01-.73.738zM81.764 86.566h-2.92a.745.745 0 01-.73-.739c0-.4.334-.739.73-.739h2.92c.396 0 .73.34.73.74a.725.725 0 01-.73.738zM89.675 86.566h-2.921a.745.745 0 01-.73-.739c0-.4.335-.739.73-.739h2.92c.396 0 .73.34.73.74-.03.43-.334.738-.73.738zM62.628 73.881H34.73a.745.745 0 01-.73-.739c0-.4.335-.739.73-.739h27.898c.396 0 .73.34.73.74-.03.4-.334.738-.73.738zM73.885 73.881h-5.628a.745.745 0 01-.73-.739c0-.4.334-.739.73-.739h5.628c.395 0 .73.34.73.74 0 .4-.335.738-.73.738zM102.239 73.881H80.304a.745.745 0 01-.73-.739c0-.4.335-.739.73-.739h21.935c.396 0 .731.34.731.74 0 .4-.335.738-.731.738z" fill="#fff"/><path d="M49.911 73.881c-4.29 0-7.788-3.54-7.788-7.882 0-4.34 3.499-7.882 7.788-7.882 4.29 0 7.789 3.541 7.789 7.882 0 4.342-3.499 7.882-7.789 7.882zm0-14.286c-3.498 0-6.328 2.894-6.328 6.404 0 3.541 2.86 6.404 6.328 6.404 3.5 0 6.328-2.894 6.328-6.404.03-3.54-2.829-6.404-6.328-6.404zM86.602 73.881c-4.29 0-7.788-3.54-7.788-7.882 0-4.34 3.498-7.882 7.788-7.882S94.39 61.658 94.39 66c0 4.342-3.499 7.882-7.788 7.882zm0-14.286c-3.499 0-6.328 2.894-6.328 6.404 0 3.541 2.86 6.404 6.328 6.404 3.498 0 6.328-2.894 6.328-6.404 0-3.54-2.83-6.404-6.328-6.404z" stroke="#fff"/><path d="M44.283 71.049a.608.608 0 01-.335-.093l-5.963-3.17a7.34 7.34 0 01-1.916-1.448A7.69 7.69 0 0134 61.073v-5.911c0-1.509.943-2.833 2.373-3.295a34.154 34.154 0 015.507-1.324c2.494-.4 5.05-.554 7.575-.4.395.03.7.37.67.77-.031.4-.305.708-.761.677-2.434-.123-4.868 0-7.271.4a31.63 31.63 0 00-5.294 1.293 2.013 2.013 0 00-1.37 1.91v5.91a6.19 6.19 0 001.674 4.219c.456.462.974.862 1.552 1.17l5.963 3.202c.365.185.486.616.304.985a.74.74 0 01-.639.37zM97.28 71.049H92.2a.745.745 0 01-.73-.74c0-.4.334-.738.73-.738h5.08c1.126 0 2.221-.462 3.012-1.263a4.31 4.31 0 001.248-3.048v-3.14c0-.708-.365-1.355-1.004-1.693l-1.217-.678a55.241 55.241 0 00-13.386-5.296c-.396-.092-.609-.492-.518-.892.092-.4.487-.616.883-.524a56.538 56.538 0 0113.751 5.45l1.217.677A3.376 3.376 0 01103 62.12v3.171c0 1.54-.578 2.987-1.673 4.064a5.628 5.628 0 01-4.047 1.694z" stroke="#fff"/><path d="M76.47 54.484a.687.687 0 01-.334-.092c-.365-.185-.486-.616-.304-.985.76-1.447 2.373-2.217 3.955-1.848l3.407.77-5.202-4.187c-2.92-2.371-6.571-3.695-10.313-3.695h-15.76c-1.125 0-2.16.431-2.981 1.2l-6.45 6.128c-.274.277-.73.246-1.004-.03a.731.731 0 01.03-1.017l6.45-6.127A5.582 5.582 0 0151.92 43h15.76c4.076 0 8.062 1.416 11.226 4.003l7.636 6.188c.274.216.335.585.213.893a.753.753 0 01-.822.4l-6.48-1.478c-.943-.215-1.916.247-2.373 1.109-.09.215-.365.37-.608.37zM80.974 71.049H55.54a.745.745 0 01-.73-.74c0-.4.334-.738.73-.738h25.434c.395 0 .73.339.73.739-.03.4-.335.739-.73.739zM39.902 64.614h-.091a9.503 9.503 0 01-5.598-2.74.731.731 0 010-1.016.685.685 0 011.004-.031c1.278 1.293 2.981 2.093 4.776 2.309.396.062.67.4.64.8-.062.4-.366.678-.73.678zM95.82 67.508a.745.745 0 01-.73-.739c0-.4.335-.739.73-.739 4.564 0 5.659-1.262 5.72-1.724-.031-.4.273-.708.669-.739a.79.79 0 01.761.708c0 .123 0 .8-.639 1.478-1.096 1.17-3.286 1.755-6.51 1.755zM76.47 66.738l-16.428-.462c-.395 0-.7-.338-.7-.739 0-.4.366-.708.73-.708l16.43.462c.395 0 .7.339.7.74-.031.4-.336.707-.731.707zM49.911 69.848a.745.745 0 01-.73-.739c0-.4.335-.739.73-.739 1.309 0 2.343-1.078 2.343-2.37a2.358 2.358 0 00-2.343-2.371.693.693 0 01-.7-.709c0-.4.335-.739.73-.739 2.1 0 3.773 1.725 3.773 3.818 0 2.125-1.703 3.849-3.803 3.849zM86.602 69.848a.745.745 0 01-.73-.739c0-.4.334-.739.73-.739 1.308 0 2.342-1.078 2.342-2.37a2.358 2.358 0 00-2.342-2.371.745.745 0 01-.73-.74c0-.4.334-.738.73-.738 2.099 0 3.772 1.724 3.772 3.818 0 2.155-1.703 3.879-3.772 3.879zM39.08 91C36.283 91 34 88.69 34 85.858c0-2.832 2.282-5.142 5.08-5.142 2.8 0 5.081 2.31 5.081 5.142A5.082 5.082 0 0139.081 91zm0-8.836c-2.007 0-3.65 1.662-3.65 3.694s1.643 3.695 3.65 3.695c2.009 0 3.651-1.663 3.651-3.695a3.626 3.626 0 00-3.65-3.694zM97.859 91c-2.8 0-5.081-2.31-5.081-5.142 0-2.832 2.281-5.142 5.08-5.142s5.081 2.31 5.081 5.142A5.081 5.081 0 0197.859 91zm0-8.836c-2.008 0-3.651 1.662-3.651 3.694s1.642 3.695 3.65 3.695 3.651-1.663 3.651-3.695a3.625 3.625 0 00-3.65-3.694zM50.216 86.566h-2.921a.745.745 0 01-.73-.739c0-.4.335-.739.73-.739h2.92c.396 0 .73.34.73.74a.725.725 0 01-.73.738zM58.095 86.566h-2.92a.745.745 0 01-.73-.739c0-.4.334-.739.73-.739h2.92c.396 0 .73.34.73.74 0 .43-.304.738-.73.738zM66.005 86.566h-2.92a.745.745 0 01-.73-.739c0-.4.334-.739.73-.739h2.92c.396 0 .73.34.73.74-.03.43-.334.738-.73.738zM73.885 86.566h-2.92a.745.745 0 01-.73-.739c0-.4.334-.739.73-.739h2.92c.395 0 .73.34.73.74a.725.725 0 01-.73.738zM81.764 86.566h-2.92a.745.745 0 01-.73-.739c0-.4.334-.739.73-.739h2.92c.396 0 .73.34.73.74a.725.725 0 01-.73.738zM89.675 86.566h-2.921a.745.745 0 01-.73-.739c0-.4.335-.739.73-.739h2.92c.396 0 .73.34.73.74-.03.43-.334.738-.73.738zM62.628 73.881H34.73a.745.745 0 01-.73-.739c0-.4.335-.739.73-.739h27.898c.396 0 .73.34.73.74-.03.4-.334.738-.73.738zM73.885 73.881h-5.628a.745.745 0 01-.73-.739c0-.4.334-.739.73-.739h5.628c.395 0 .73.34.73.74 0 .4-.335.738-.73.738zM102.239 73.881H80.304a.745.745 0 01-.73-.739c0-.4.335-.739.73-.739h21.935c.396 0 .731.34.731.74 0 .4-.335.738-.731.738z" stroke="#fff"/></svg><svg fill="none" viewBox="0 0 132 132" id="icon_docs-4" xmlns="http://www.w3.org/2000/svg"><circle cx="66" cy="66" r="66" fill="#3498DB"/><path d="M37.75 72.805c-.236 0-.474-.135-.553-.379l-1.134-2.565a.624.624 0 01-.026-.486l4.746-13.205c-2.294-2.484-3.006-6.076-1.872-9.316 1.688-4.618 6.751-7.021 11.313-5.293 2.215.837 3.956 2.484 4.958 4.672.975 2.187 1.081 4.645.264 6.886a8.772 8.772 0 01-3.007 4.104.598.598 0 01-.87-.135.632.632 0 01.132-.89c1.187-.892 2.057-2.107 2.584-3.511a7.911 7.911 0 00-.237-5.914 7.566 7.566 0 00-4.246-4.024c-3.929-1.485-8.28.567-9.73 4.591-1.029 2.89-.317 6.103 1.845 8.236.185.162.238.432.159.675l-4.8 13.34.844 1.917 3.507-.297-.263-2.025a.65.65 0 01.29-.621l1.371-.864-.185-2.62a.624.624 0 01.185-.513l1.846-1.89-.37-2.133a.66.66 0 01.423-.73l1.213-.404a.638.638 0 01.79.405.66.66 0 01-.395.81l-.712.243.343 1.917a.653.653 0 01-.184.567l-1.873 1.917.211 2.7c.026.244-.105.46-.29.595l-1.345.837.29 2.268a.654.654 0 01-.132.486.681.681 0 01-.422.243l-4.614.406h-.053zM74.907 97c-.237 0-.475-.027-.712-.108a2.396 2.396 0 01-1.371-1.188l-4.457-8.911c-.58-1.162-.132-2.62 1.002-3.214l18.776-9.883a2.32 2.32 0 013.138 1.026l4.457 8.911a2.28 2.28 0 01.132 1.81 2.423 2.423 0 01-1.16 1.404L75.935 96.73c-.29.189-.66.27-1.029.27zm14.32-22.278a.88.88 0 00-.502.135L69.95 84.74c-.527.27-.738.945-.474 1.513l4.456 8.91c.132.27.37.46.633.54.264.082.58.055.818-.08l18.776-9.857c.263-.135.448-.378.527-.648.08-.27.053-.594-.08-.837L90.15 75.37a.956.956 0 00-.923-.648z" fill="#fff"/><path d="M57.529 56.116a3.698 3.698 0 01-2.215-.729 2.448 2.448 0 01-.607-.675l-.21.027c-.344.027-.634-.243-.66-.594a.63.63 0 01.58-.675l.607-.054a.624.624 0 01.633.405c.079.216.237.405.421.54.66.486 1.477.621 2.242.378l5.353-1.404a4.008 4.008 0 00-2.136-1.107.639.639 0 01-.527-.73.628.628 0 01.712-.54 5.243 5.243 0 013.533 2.377.615.615 0 01.053.567.658.658 0 01-.422.378l-6.25 1.647c-.369.135-.738.19-1.107.19z" fill="#fff"/><path d="M70.398 84.39a.521.521 0 01-.343-.109c-.132-.08-.185-.135-.264-.189l-12.368-9.505c-2.426-2.026-12.183-14.393-13.238-16.77-.29-.675-.29-1.43-.026-2.16a3.834 3.834 0 012.004-2.133c.95-.432 2.057-.405 3.033.108.158.08.448.324 1.846 1.458 2.32 1.917 9.361 7.75 10.733 7.804 1.239.081 2.373-.756 2.742-1.971.132-.405 1.187-3.97-.08-6.508-.58-1.161-1.687-1.971-2.926-2.16l-6.276-1.216c-.343-.053-.554-.405-.502-.729a.622.622 0 01.713-.513l6.25 1.189c1.634.27 3.058 1.323 3.823 2.835 1.477 2.916.396 6.75.158 7.48-.553 1.755-2.188 2.916-3.982 2.862-1.45-.08-5.432-3.16-11.418-8.1-.791-.649-1.503-1.243-1.662-1.351a2.108 2.108 0 00-1.925-.054 2.76 2.76 0 00-1.37 1.431c-.106.297-.212.73 0 1.188.975 2.215 10.574 14.393 12.842 16.284l12.262 9.424 17.721-9.316a.779.779 0 01.264-.108L77.359 51.58a3.545 3.545 0 00-1.318-1.27l-5.88-3.618a12.17 12.17 0 00-6.462-1.512l-10.548-.432a.67.67 0 01-.606-.675c.026-.352.316-.595.659-.622l10.495.432c2.427-.108 4.906.486 7.068 1.675l5.88 3.618c.712.378 1.345 1 1.794 1.755L89.91 73.75c.106.216.08.459-.025.648a.613.613 0 01-.58.27c-.212 0-.396.027-.58.108l-18.038 9.478c-.106.135-.185.135-.29.135z" fill="#fff"/><path d="M51.543 83.363c-1.53 0-2.901-1.134-3.191-2.727l-2.61-14.366a3.321 3.321 0 01.527-2.485 3.264 3.264 0 012.083-1.377.609.609 0 01.712.513c.053.351-.158.675-.501.73a2.045 2.045 0 00-1.292.863c-.317.46-.422 1-.317 1.54l2.584 14.393c.212 1.107 1.24 1.863 2.348 1.647l7.225-1.35a2.045 2.045 0 001.292-.864c.317-.46.422-1 .317-1.54l-.29-1.593a.662.662 0 01.5-.756.648.648 0 01.739.513l.29 1.593a3.322 3.322 0 01-.527 2.485 3.264 3.264 0 01-2.084 1.377l-7.225 1.377c-.185.027-.396.027-.58.027z" fill="#fff"/><path d="M37.75 72.805c-.236 0-.474-.135-.553-.379l-1.134-2.565a.624.624 0 01-.026-.486l4.746-13.205c-2.294-2.484-3.006-6.076-1.872-9.316 1.688-4.618 6.751-7.021 11.313-5.293 2.215.837 3.956 2.484 4.958 4.672.975 2.187 1.081 4.645.264 6.886a8.772 8.772 0 01-3.007 4.104.598.598 0 01-.87-.135.632.632 0 01.132-.89c1.187-.892 2.057-2.107 2.584-3.511a7.911 7.911 0 00-.237-5.914 7.566 7.566 0 00-4.246-4.024c-3.929-1.485-8.28.567-9.73 4.591-1.029 2.89-.317 6.103 1.845 8.236.185.162.238.432.159.675l-4.8 13.34.844 1.917 3.507-.297-.263-2.025a.65.65 0 01.29-.621l1.371-.864-.185-2.62a.624.624 0 01.185-.513l1.846-1.89-.37-2.133a.66.66 0 01.423-.73l1.213-.404a.638.638 0 01.79.405.66.66 0 01-.395.81l-.712.243.343 1.917a.653.653 0 01-.184.567l-1.873 1.917.211 2.7c.026.244-.105.46-.29.595l-1.345.837.29 2.268a.654.654 0 01-.132.486.681.681 0 01-.422.243l-4.614.406h-.053zM74.907 97c-.237 0-.475-.027-.712-.108a2.396 2.396 0 01-1.371-1.188l-4.457-8.911c-.58-1.162-.132-2.62 1.002-3.214l18.776-9.883a2.32 2.32 0 013.138 1.026l4.457 8.911a2.28 2.28 0 01.132 1.81 2.423 2.423 0 01-1.16 1.404L75.935 96.73c-.29.189-.66.27-1.029.27zm14.32-22.278a.88.88 0 00-.502.135L69.95 84.74c-.527.27-.738.945-.474 1.513l4.456 8.91c.132.27.37.46.633.54.264.082.58.055.818-.08l18.776-9.857c.263-.135.448-.378.527-.648.08-.27.053-.594-.08-.837L90.15 75.37a.956.956 0 00-.923-.648z" stroke="#fff"/><path d="M57.529 56.116a3.698 3.698 0 01-2.215-.729 2.448 2.448 0 01-.607-.675l-.21.027c-.344.027-.634-.243-.66-.594a.63.63 0 01.58-.675l.607-.054a.624.624 0 01.633.405c.079.216.237.405.421.54.66.486 1.477.621 2.242.378l5.353-1.404a4.008 4.008 0 00-2.136-1.107.639.639 0 01-.527-.73.628.628 0 01.712-.54 5.243 5.243 0 013.533 2.377.615.615 0 01.053.567.658.658 0 01-.422.378l-6.25 1.647c-.369.135-.738.19-1.107.19z" stroke="#fff"/><path d="M70.398 84.39a.521.521 0 01-.343-.109c-.132-.08-.185-.135-.264-.189l-12.368-9.505c-2.426-2.026-12.183-14.393-13.238-16.77-.29-.675-.29-1.43-.026-2.16a3.834 3.834 0 012.004-2.133c.95-.432 2.057-.405 3.033.108.158.08.448.324 1.846 1.458 2.32 1.917 9.361 7.75 10.733 7.804 1.239.081 2.373-.756 2.742-1.971.132-.405 1.187-3.97-.08-6.508-.58-1.161-1.687-1.971-2.926-2.16l-6.276-1.216c-.343-.053-.554-.405-.502-.729a.622.622 0 01.713-.513l6.25 1.189c1.634.27 3.058 1.323 3.823 2.835 1.477 2.916.396 6.75.158 7.48-.553 1.755-2.188 2.916-3.982 2.862-1.45-.08-5.432-3.16-11.418-8.1-.791-.649-1.503-1.243-1.662-1.351a2.108 2.108 0 00-1.925-.054 2.76 2.76 0 00-1.37 1.431c-.106.297-.212.73 0 1.188.975 2.215 10.574 14.393 12.842 16.284l12.262 9.424 17.721-9.316a.779.779 0 01.264-.108L77.359 51.58a3.545 3.545 0 00-1.318-1.27l-5.88-3.618a12.17 12.17 0 00-6.462-1.512l-10.548-.432a.67.67 0 01-.606-.675c.026-.352.316-.595.659-.622l10.495.432c2.427-.108 4.906.486 7.068 1.675l5.88 3.618c.712.378 1.345 1 1.794 1.755L89.91 73.75c.106.216.08.459-.025.648a.613.613 0 01-.58.27c-.212 0-.396.027-.58.108l-18.038 9.478c-.106.135-.185.135-.29.135z" stroke="#fff"/><path d="M51.543 83.363c-1.53 0-2.901-1.134-3.191-2.727l-2.61-14.366a3.321 3.321 0 01.527-2.485 3.264 3.264 0 012.083-1.377.609.609 0 01.712.513c.053.351-.158.675-.501.73a2.045 2.045 0 00-1.292.863c-.317.46-.422 1-.317 1.54l2.584 14.393c.212 1.107 1.24 1.863 2.348 1.647l7.225-1.35a2.045 2.045 0 001.292-.864c.317-.46.422-1 .317-1.54l-.29-1.593a.662.662 0 01.5-.756.648.648 0 01.739.513l.29 1.593a3.322 3.322 0 01-.527 2.485 3.264 3.264 0 01-2.084 1.377l-7.225 1.377c-.185.027-.396.027-.58.027z" stroke="#fff"/></svg><svg fill="none" viewBox="0 0 39 38" id="icon_fb" xmlns="http://www.w3.org/2000/svg"><path d="M19.14 38c10.494 0 19-8.507 19-19s-8.506-19-19-19C8.648 0 .14 8.507.14 19s8.507 19 19 19z" fill="currentColor"/><path d="M22.766 18.936h-2.889v10.6h-4.39v-10.6h-2.08V15.21h2.08v-2.397c0-1.733.809-4.42 4.42-4.42h3.234v3.61h-2.368c-.376 0-.924.203-.924 1.012v2.195h3.263l-.346 3.726z" fill="#fff"/></svg><svg fill="none" viewBox="0 0 38 38" id="icon_ig" xmlns="http://www.w3.org/2000/svg"><circle cx="19" cy="19" r="19" fill="currentColor"/><path d="M23.517 29.359h-9.034a5.973 5.973 0 01-5.965-5.966V14.36a5.973 5.973 0 015.965-5.965h9.034a5.973 5.973 0 015.966 5.965v9.034c0 3.282-2.684 5.966-5.966 5.966zm-9.034-19.172a4.179 4.179 0 00-4.172 4.172v9.034a4.179 4.179 0 004.172 4.172h9.034a4.179 4.179 0 004.172-4.172V14.36a4.179 4.179 0 00-4.172-4.172h-9.034z" fill="#fff"/><path d="M19 24.244a5.37 5.37 0 01-5.367-5.368A5.37 5.37 0 0119 13.51a5.37 5.37 0 015.368 5.367c0 2.95-2.418 5.368-5.368 5.368zm0-8.942a3.575 3.575 0 000 7.148 3.584 3.584 0 003.574-3.574A3.584 3.584 0 0019 15.302zM25.882 13.19c0 .718-.571 1.289-1.289 1.289a1.282 1.282 0 01-1.288-1.289c0-.717.571-1.289 1.288-1.289a1.29 1.29 0 011.29 1.29z" fill="#fff"/></svg><svg fill="none" viewBox="0 0 193 39" id="icon_logo" xmlns="http://www.w3.org/2000/svg"><path fill-rule="evenodd" clip-rule="evenodd" d="M56.7 5.13c-.562.802-1.1 1.875-1.529 3.111-1.356 3.916-2.58 9.34-3.127 14.24l-.05.456c.437-.19.915-.391 1.423-.597 2.077-.84 4.715-1.763 7.114-2.162-.22-5.955-.456-11.48-.618-12.882-.204-1.76-.573-2.758-.936-3.248-.17-.232-.313-.314-.404-.344-.086-.029-.2-.036-.372.024-.385.136-.92.575-1.501 1.402zm3.892 16.744c-2.154.385-4.562 1.223-6.549 2.027a58.36 58.36 0 00-2.228.956 95.596 95.596 0 00-.291 9.706h-1.677c0-.032 0-.102-.003-.206a97.25 97.25 0 01.24-8.861l-.305-.602-.38-.75.007-.003.015-.008.06-.03a32.317 32.317 0 01.749-.364c.045-.475.094-.958.148-1.445.56-5.014 1.81-10.563 3.21-14.605.47-1.353 1.072-2.572 1.741-3.526.651-.93 1.438-1.711 2.315-2.021.46-.163.961-.2 1.457-.035.492.164.898.5 1.223.939.629.85 1.04 2.208 1.254 4.055.203 1.747.5 9.279.746 16.308a2856.635 2856.635 0 01.436 13.393l.009.298-.838.026-.838.025v-.001l-.009-.297a2435.242 2435.242 0 00-.12-3.898 2867.624 2867.624 0 00-.372-11.081zm-17.615-9.762l-.19-9.57 1.675-.033.177 8.869c.374-.174.734-.348 1.06-.516.352-.182.656-.352.897-.504.252-.16.387-.272.44-.328l1.228 1.145c-.205.22-.489.425-.774.605-.297.189-.648.384-1.025.578-.546.281-1.166.572-1.79.85l.419 21.069-1.676.033-.405-20.39a90.023 90.023 0 01-2.256.896l-.054.02-.018.007-.295-.787-.294-.788.016-.006.051-.02a80.313 80.313 0 00.91-.353c.517-.204 1.19-.475 1.904-.777zM79.238 34.31L78.61 2.543l1.676-.034.63 31.768-1.677.033zM1.391 10.33c.01 2.447.022 5.405.03 8.381.01 3.607.015 7.24.008 10.025-.004 1.393-.01 2.572-.021 3.428-.006.429-.012.773-.02 1.022a13.005 13.005 0 01-.012.346v.002l-.007.014a.293.293 0 01-.052.06c-.065.06-.168.127-.306.188a2.502 2.502 0 01-.524.165l.136.83.137.83H.76l.003-.001.007-.001a1.174 1.174 0 00.083-.016 4.165 4.165 0 00.84-.27c.42-.188 1.173-.623 1.33-1.5.025-.133.033-.375.04-.597.008-.263.014-.619.02-1.05.01-.866.018-2.05.021-3.445.006-2.065.005-4.593 0-7.23a10.03 10.03 0 011.88 2.881c.563 1.328 1.156 2.966 1.774 4.673.17.47.342.945.516 1.421.795 2.174 1.63 4.358 2.468 5.93a5.672 5.672 0 001.81 2.037c.286.195.541.327.73.413a3.67 3.67 0 00.306.123l.024.008.01.002.003.002h.002l.244-.804.244-.805h.002l.002.001h.002a3.26 3.26 0 01-.629-.333 3.988 3.988 0 01-1.272-1.436c-.774-1.453-1.572-3.529-2.372-5.717l-.504-1.388c-.62-1.714-1.235-3.412-1.819-4.786a11.713 11.713 0 00-2.048-3.207c.293-.204.644-.46 1.033-.77a21.391 21.391 0 003.91-4.072c1.99-2.729 3.032-5.104 3.308-7.043.276-1.947-.218-3.559-1.435-4.5-1.195-.924-2.856-1.018-4.531-.46-1.213.403-2.484 1.16-3.717 2.273a5902.868 5902.868 0 00-.006-1.251l-.002-.32-.838.005-.838.005.002.319a4590.814 4590.814 0 01.015 3.004l-.406.497C.668 8.587.368 8.957 0 9.367l1.246 1.125.145-.163zM3.1 19.426l.104-.068c.307-.201.746-.508 1.264-.92a19.714 19.714 0 003.601-3.75c1.898-2.6 2.777-4.717 3-6.286.222-1.56-.21-2.474-.798-2.93-.61-.47-1.633-.644-2.98-.196-1.288.429-2.783 1.407-4.233 3.056l.002.506a5375.125 5375.125 0 01.04 10.588zm31.862-4.8c-.335-.075-.86-.022-1.659.426-.274.154-.606.52-.95 1.207-.333.668-.632 1.546-.894 2.584-.523 2.073-.868 4.666-1.095 7.224-.225 2.552-.33 5.04-.378 6.892a120.117 120.117 0 00-.039 2.523v.537l-1.676.006.838-.006-.838.006V35.967a31.783 31.783 0 010-.488l-.002-21.161h1.676v3.686c.255-.933.554-1.787.91-2.5.401-.801.924-1.525 1.63-1.92.996-.559 1.955-.8 2.844-.6.907.205 1.556.824 2.008 1.59.87 1.471 1.2 3.795 1.304 6.214.108 2.467-.014 5.214-.162 7.651-.044.724-.09 1.416-.133 2.065-.104 1.568-.19 2.886-.195 3.793l-1.677-.008c.005-.962.098-2.365.204-3.963.042-.637.086-1.305.127-1.989.148-2.43.265-5.102.162-7.475-.105-2.42-.437-4.356-1.072-5.43-.3-.509-.615-.735-.933-.806zm-10.297.965c.415 1.324.302 3.053-.454 5.077-.346.928-.94 1.955-1.66 2.877-.717.92-1.597 1.787-2.54 2.351-.934.558-2.062.893-3.164.476a2.895 2.895 0 01-.169-.07l.002.055c.064 2.421.433 4.708 1.083 6.303.326.799.697 1.36 1.077 1.69.354.309.712.419 1.124.352.456-.075 1.08-.382 1.879-1.146.792-.758 1.698-1.912 2.716-3.565l1.426.884c-1.06 1.723-2.053 3.006-2.985 3.898-.925.885-1.847 1.44-2.767 1.589-.963.157-1.81-.147-2.49-.74-.656-.57-1.153-1.398-1.531-2.325-.758-1.857-1.141-4.37-1.208-6.895a30.72 30.72 0 01.004-1.747 7.536 7.536 0 01-.584-1.36l.674-.221c.119-1.408.338-2.761.657-3.951 1.122-4.191 3.812-6.418 6.266-5.997 1.247.214 2.221 1.113 2.644 2.465zm-7.961 8.604c.081-1.675.308-3.288.67-4.635 1.04-3.884 3.212-4.974 4.364-4.776.556.095 1.07.488 1.328 1.31.266.85.25 2.176-.424 3.984-.276.738-.777 1.617-1.411 2.43-.636.817-1.368 1.518-2.079 1.943-.72.431-1.29.507-1.714.347-.22-.083-.476-.26-.734-.603zm57.584-6.788v-.628h-1.676v.8l.018.085v.003l.003.014.012.06.046.25c.038.22.09.544.146.958.11.828.23 2.005.266 3.397.071 2.793-.197 6.393-1.517 9.74-.684 1.733-1.393 2.006-1.696 2.001-.348-.004-.934-.359-1.361-1.413-.783-1.93-1.236-4.861-1.422-7.78-.184-2.91-.096-5.689.15-7.274l-1.657-.258c-.27 1.75-.355 4.66-.166 7.638.189 2.967.655 6.119 1.542 8.308.52 1.283 1.526 2.442 2.89 2.461 1.409.02 2.532-1.173 3.279-3.064 1.434-3.637 1.708-7.49 1.633-10.403a33.916 33.916 0 00-.28-3.576 25.683 25.683 0 00-.21-1.319z" fill="currentColor"/><path fill-rule="evenodd" clip-rule="evenodd" d="M76.505 14.843l-.295-.787-.294-.788.017-.006.05-.02c.046-.016.112-.042.197-.075a83.014 83.014 0 002.945-1.196c.836-.358 1.691-.746 2.395-1.11.352-.18.656-.35.896-.503.253-.16.388-.272.44-.328l1.228 1.145c-.204.22-.489.425-.773.605a13.62 13.62 0 01-1.025.578c-.754.389-1.65.794-2.5 1.16a84.404 84.404 0 01-3.209 1.298l-.053.02-.02.007zM87.871 18.582c-.613 1.604-.978 3.73-.843 6.16.242 4.33.889 6.89 1.622 8.186.363.642.688.868.891.935.171.057.399.048.729-.174.726-.488 1.57-1.783 2.196-3.748.611-1.92.964-4.327.83-6.85-.184-3.43-.797-5.516-1.501-6.612-.346-.538-.678-.784-.94-.88-.246-.091-.516-.085-.833.062-.69.318-1.523 1.278-2.15 2.921zm7.098 4.419c-.188-3.527-.823-5.968-1.766-7.434-.477-.743-1.068-1.288-1.769-1.547-.716-.265-1.448-.194-2.113.113-1.273.588-2.323 2.038-3.015 3.846-.706 1.847-1.1 4.214-.951 6.856.244 4.383.903 7.273 1.838 8.924.47.831 1.07 1.453 1.824 1.702.787.26 1.55.054 2.187-.375 1.208-.813 2.2-2.566 2.86-4.633.672-2.115 1.05-4.727.905-7.452z" fill="currentColor"/><path d="M116.361 17.622l9.405-9.46h28.35l.132.067c.021.01 6.904 3.392 8.485 9.785 1.534 6.212.924 14.846.922 14.871l-.008.098-.798 1.944h-2.613l.151-.736c.326-1.6.124-3.22-.463-4.635-.603-1.45-1.613-2.676-2.88-3.434-1.004-.598-2.086-.945-3.281-.96-1.217-.012-2.57.318-4.096 1.067-4.542 2.232-3.36 7.954-3.358 7.97l.141.728h-25.189l.116-.709c0-.008.531-2.95-.753-5.24-1.074-1.915-2.53-3-4.064-3.481-1.869-.584-3.868-.284-5.459.502-4.722 2.445-3.548 8.39-3.546 8.407l.135.724h-3.223l-.172-.15c-.009-.007-2.783-2.295-2.219-5.585.58-3.39 1.837-5.638 3.755-7.284 1.886-1.619 4.381-2.618 7.487-3.538l3.043-.95zm39.053-5.876l-2.24-1.356h-11.373l-1.668 7.405h15.71l-.429-6.049zm-34.922 6.05h15.473l1.825-7.406h-10.902l-6.622 6.66.226.745z" fill="currentColor"/><path d="M114.318 26.853c1.528 0 2.912.623 3.915 1.633a5.565 5.565 0 011.626 3.94c0 1.54-.622 2.933-1.624 3.94A5.506 5.506 0 01114.318 38a5.501 5.501 0 01-3.918-1.633 5.566 5.566 0 01-1.626-3.94 5.58 5.58 0 011.624-3.941 5.516 5.516 0 013.92-1.633zm39.09 0c1.529 0 2.916.623 3.918 1.63a5.588 5.588 0 011.624 3.943 5.58 5.58 0 01-1.624 3.94 5.515 5.515 0 01-7.835 0 5.566 5.566 0 01-1.626-3.94 5.58 5.58 0 011.624-3.94 5.516 5.516 0 013.919-1.633zM163.288 8.306c-.533.113-5.769 1.319-7.526 4.875v.002a8.538 8.538 0 00-.784 2.652c-.149 1.15-.074 2.348.307 3.385.359.978 1.004 1.815 2.014 2.32a5.11 5.11 0 001.64.481c1.827.24 3.725-.118 5.419-.92 1.728-.815 3.24-2.087 4.258-3.656.322-.497.865-2.026 1.023-3.755.099-1.1.035-2.255-.361-3.219-.367-.894-1.041-1.637-2.178-2.019-.929-.313-2.173-.394-3.812-.146zm-8.98 4.15c2.211-4.467 8.675-5.754 8.694-5.758l.046-.008c1.902-.288 3.399-.176 4.566.216 1.645.553 2.626 1.638 3.163 2.946.506 1.237.595 2.657.475 3.984-.182 2.009-.867 3.865-1.275 4.495-1.185 1.826-2.937 3.305-4.932 4.245-1.964.929-4.171 1.342-6.309 1.062a6.744 6.744 0 01-2.163-.636c-1.414-.71-2.316-1.867-2.814-3.219-.475-1.291-.568-2.758-.388-4.153.147-1.147.479-2.25.937-3.175z" fill="currentColor"/><path fill-rule="evenodd" clip-rule="evenodd" d="M163.954 6.788c.574-.434 8.468-5.98 8.468-5.98s1.75-1.169 3.084-.101c1.86 1.483 6.806 9.011 8.99 11.771.547.688 1.012 1.859-.635 3.029-2.571 1.823-2.924 2.332-2.924 2.332l2.016 1.573v2.176l2.488.84-.437 2.099 2.586 1.178v2.574l2.302.61-.187 2.989 2.477.803-.394 1.723.941.767s-.083 1.206.004 1.358c.087.15-.582.376-.582.376l-1.278-.883-.189-1.301-1.754.271-.069-2.745-2.534-.565-.135-2.95-2.269-1.066-.101-2.33-2.35.37-.637-3.2-2.065.3-1.952-2.33c-.848.634-1.661 1.641-2.633 2.067-1 .438-2.215.688-2.974-.657-1.23-2.182-4.37-6.702-4.37-6.702l-3.673-5.612s-1.031-1.808.786-2.784zm3.042.886l6.029-4.39a.607.607 0 01.85.135l.882 1.224a.619.619 0 01-.135.855l-6.029 4.391a.61.61 0 01-.85-.135l-.881-1.225a.616.616 0 01.134-.855z" fill="currentColor"/><path d="M163.815 6.573c.655-.49 8.437-5.96 8.459-5.977l.013-.008c.006-.002 1.9-1.266 3.378-.081 1.251.995 3.814 4.593 6.05 7.73 1.165 1.636 2.24 3.144 2.982 4.08l.114.155c.263.373.477.849.444 1.385-.033.536-.309 1.116-1.018 1.688-.073.058-.15.114-.231.173-1.717 1.218-2.418 1.825-2.692 2.09l1.894 1.479v2.117l2.53.853-.442 2.122 2.549 1.162v2.54l2.315.611-.187 3.002 2.509.814-.41 1.798.921.75-.009.134c0 .004-.079 1.127-.031 1.208.27.463-.711.745-.713.747l-.125.046-1.48-1.02-.166-1.156-1.788.275-.069-2.837-2.532-.565-.137-2.99-2.268-1.065-.096-2.199-2.312.363-.635-3.204-1.964.288-1.887-2.25c-.232.187-.462.398-.695.613-.56.515-1.134 1.043-1.8 1.335-.531.233-1.126.415-1.703.36-.601-.058-1.167-.369-1.594-1.126-1.226-2.174-4.349-6.669-4.358-6.683-1.175-1.848-2.441-3.834-3.685-5.63-.004-.005-1.151-2.024.869-3.127zm8.752-5.557c-.021.016-7.877 5.536-8.46 5.978l-.033.021c-1.584.851-.686 2.426-.684 2.43l3.658 5.593c.011.012 3.15 4.532 4.384 6.72.332.589.755.827 1.199.87.471.046.985-.116 1.452-.32.587-.255 1.13-.756 1.659-1.242.309-.284.614-.565.923-.797l.193-.144 2.016 2.407 2.165-.317.636 3.2 2.389-.375.108 2.461 2.267 1.064.133 2.908 2.54.567.065 2.654 1.723-.267.209 1.447 1.187.818-.015.021c.137.025.282.033.23-.054-.099-.178-.064-1.037-.045-1.37l-.965-.787.38-1.65-2.443-.79.184-2.98-2.289-.605v-2.605l-2.621-1.195.433-2.078-2.447-.826v-2.236l-2.107-1.644.132-.198c0-.002.38-.546 2.991-2.399.073-.05.141-.102.203-.154.581-.465.803-.914.828-1.314.025-.399-.145-.766-.351-1.06l-.097-.131c-.759-.958-1.834-2.466-2.997-4.1-2.219-3.112-4.762-6.679-5.952-7.63-1.128-.9-2.628.013-2.781.109zm-5.72 6.45l6.029-4.391a.863.863 0 011.207.194l.881 1.224a.873.873 0 01-.193 1.214l-6.026 4.391a.863.863 0 01-1.209-.194l-.88-1.224a.872.872 0 01.191-1.214zm6.328-3.976l-6.027 4.39a.354.354 0 00-.079.497l.881 1.227a.358.358 0 00.231.142.365.365 0 00.263-.063l6.027-4.393a.362.362 0 00.081-.496l-.884-1.225a.354.354 0 00-.493-.08z" fill="currentColor"/></svg><svg fill="none" viewBox="0 0 179 36" id="icon_logo--white" xmlns="http://www.w3.org/2000/svg"><path fill-rule="evenodd" clip-rule="evenodd" d="M52.336 4.737c-.519.74-1.015 1.73-1.411 2.872-1.252 3.614-2.382 8.62-2.886 13.143l-.046.422c.403-.176.844-.362 1.313-.552 1.917-.775 4.351-1.627 6.566-1.996-.202-5.496-.42-10.597-.57-11.89-.189-1.624-.53-2.545-.864-2.998-.158-.214-.29-.29-.373-.318-.08-.026-.185-.033-.343.023-.356.125-.85.53-1.386 1.294zm3.593 15.455c-1.988.356-4.211 1.13-6.045 1.87-.782.317-1.485.624-2.057.883-.353 4.301-.289 7.822-.272 8.747l.003.213h-1.547l-.003-.19c-.016-.84-.077-4.106.221-8.18l-.281-.555-.35-.692.005-.003.015-.008.055-.027a30.972 30.972 0 01.691-.336c.041-.44.087-.885.137-1.334.516-4.629 1.67-9.75 2.963-13.481.433-1.249.99-2.374 1.607-3.255.6-.857 1.327-1.58 2.137-1.866.424-.15.886-.184 1.345-.031.454.15.828.46 1.128.866.58.785.96 2.038 1.158 3.743.187 1.612.461 8.565.688 15.053a2653.23 2653.23 0 01.379 11.58l.024.782.008.275-.773.024-.774.023-.008-.275-.024-.782a2469.899 2469.899 0 00-.378-11.572l-.052-1.472zm-16.26-9.01l-.175-8.833 1.547-.031.162 8.186c.346-.16.678-.321.979-.477.325-.167.606-.324.827-.465a2.3 2.3 0 00.407-.302l1.133 1.056c-.188.204-.451.393-.714.56a12.55 12.55 0 01-.946.532c-.504.26-1.076.528-1.652.785l.386 19.447-1.547.031-.374-18.821a83.196 83.196 0 01-2.082.827l-.05.019-.017.006-.272-.726-.271-.727.015-.006.047-.018a61.451 61.451 0 00.84-.326 78.57 78.57 0 001.757-.718zm33.47 20.49l-.58-29.323 1.547-.031.58 29.322-1.546.031zM1.285 9.534c.01 2.26.02 4.99.028 7.737.01 3.33.014 6.682.007 9.253-.003 1.286-.01 2.374-.02 3.164-.005.396-.01.714-.017.944-.005.156-.01.247-.012.29-.002.031-.002.038 0 .03 0 0-.001.005-.007.014a.267.267 0 01-.048.056c-.06.055-.155.116-.282.173a2.292 2.292 0 01-.458.147l-.026.005.126.766.126.766h.002l.002-.001.007-.001a.745.745 0 00.076-.015 3.836 3.836 0 00.775-.25c.388-.173 1.083-.574 1.229-1.383.022-.123.03-.346.036-.551.007-.243.013-.571.018-.97.01-.799.017-1.892.02-3.18.005-1.905.004-4.239 0-6.673a9.26 9.26 0 011.735 2.66c.52 1.225 1.067 2.737 1.638 4.312l.476 1.312c.734 2.007 1.505 4.023 2.278 5.475a5.235 5.235 0 001.67 1.88c.265.179.5.301.675.38a3.37 3.37 0 00.282.114l.023.007.008.002.003.002h.002l.226-.743.225-.742h.003l.002.001a2.997 2.997 0 01-.58-.307 3.683 3.683 0 01-1.175-1.327c-.714-1.34-1.45-3.256-2.19-5.276l-.464-1.282c-.573-1.582-1.14-3.149-1.679-4.417a10.81 10.81 0 00-1.89-2.96 19.74 19.74 0 004.563-4.47c1.837-2.518 2.798-4.71 3.052-6.5.255-1.798-.201-3.285-1.324-4.154-1.104-.853-2.637-.94-4.183-.425-1.119.372-2.292 1.07-3.43 2.099l-.002-.321-.004-.835-.002-.294-.773.004-.774.004.002.295a4056.362 4056.362 0 01.014 2.773c-.13.156-.253.308-.375.458C.617 7.928.339 8.27 0 8.647l1.15 1.04.134-.152zm1.577 8.398l.097-.063c.282-.186.688-.469 1.166-.85a18.193 18.193 0 003.324-3.46c1.752-2.402 2.564-4.355 2.77-5.803.204-1.44-.194-2.283-.738-2.704-.562-.435-1.507-.595-2.75-.181-1.189.395-2.569 1.298-3.907 2.82a5439.074 5439.074 0 01.038 10.24zm29.41-4.431c-.309-.07-.794-.02-1.531.393-.253.142-.56.48-.876 1.114-.309.617-.585 1.427-.826 2.385-.483 1.914-.802 4.307-1.01 6.669a104.635 104.635 0 00-.35 6.361 110.462 110.462 0 00-.036 2.329v.495l-1.547.006.774-.005-.774.005V33.2v-.154-.296l-.002-19.533h1.548v3.403c.235-.862.51-1.65.84-2.307.37-.74.852-1.408 1.504-1.774.92-.515 1.805-.737 2.625-.552.837.188 1.436.76 1.853 1.466.803 1.359 1.107 3.504 1.204 5.737.1 2.277-.013 4.812-.15 7.062-.04.668-.083 1.307-.122 1.906-.096 1.447-.177 2.664-.18 3.501l-1.548-.007c.005-.888.09-2.184.188-3.659.039-.588.08-1.204.118-1.835.136-2.243.244-4.71.149-6.9-.097-2.234-.403-4.02-.99-5.013-.277-.469-.567-.677-.86-.743zm-9.504.89c.383 1.223.279 2.819-.42 4.687-.319.856-.867 1.804-1.531 2.656-.662.849-1.474 1.649-2.346 2.17-.861.515-1.902.823-2.92.439a2.682 2.682 0 01-.155-.065l.001.051c.059 2.235.4 4.346 1 5.818.301.737.643 1.255.994 1.56.327.285.657.386 1.038.324.42-.068.997-.352 1.734-1.057.73-.7 1.567-1.765 2.507-3.291l1.316.816c-.979 1.59-1.895 2.775-2.755 3.598-.854.817-1.705 1.329-2.554 1.467-.889.145-1.67-.136-2.3-.683-.604-.527-1.063-1.29-1.412-2.146-.7-1.714-1.053-4.034-1.115-6.365a28.407 28.407 0 01.004-1.612 6.95 6.95 0 01-.539-1.255l.622-.205c.11-1.299.312-2.548.606-3.646 1.036-3.869 3.519-5.924 5.784-5.536 1.151.198 2.05 1.028 2.441 2.275zm-7.349 7.942c.075-1.546.285-3.035.618-4.278.96-3.585 2.966-4.59 4.03-4.408.512.088.987.45 1.225 1.21.245.784.231 2.008-.392 3.676-.254.682-.716 1.493-1.302 2.244-.587.754-1.263 1.4-1.919 1.793-.665.397-1.191.468-1.582.32-.203-.077-.44-.24-.678-.557zM68.57 16.07v-.58h-1.547v.738l.017.08v.002l.003.013.011.056.042.23c.035.202.084.502.135.884.102.764.212 1.851.245 3.135.066 2.579-.181 5.902-1.4 8.99-.63 1.6-1.285 1.852-1.565 1.848-.321-.004-.862-.331-1.256-1.304-.723-1.782-1.142-4.487-1.313-7.182-.17-2.685-.088-5.25.138-6.714l-1.53-.238c-.249 1.615-.326 4.302-.152 7.05.174 2.74.604 5.648 1.423 7.67.48 1.183 1.41 2.253 2.668 2.271 1.3.018 2.337-1.083 3.026-2.829 1.324-3.357 1.577-6.913 1.508-9.602a31.314 31.314 0 00-.258-3.3 24.031 24.031 0 00-.192-1.205l-.003-.013z" fill="#fff"/><path fill-rule="evenodd" clip-rule="evenodd" d="M70.617 13.703l-.272-.727-.272-.727.016-.006.047-.018a61.451 61.451 0 00.84-.326 76.87 76.87 0 002.06-.847c.77-.332 1.56-.69 2.21-1.025.325-.167.605-.324.827-.465.233-.148.358-.25.406-.302l1.134 1.056c-.189.204-.451.393-.714.56-.274.173-.599.353-.946.532-.696.36-1.523.734-2.308 1.071a78.454 78.454 0 01-2.961 1.198l-.05.019-.017.007zM81.108 17.154c-.566 1.48-.903 3.443-.778 5.685.223 3.997.82 6.36 1.497 7.556.336.593.635.802.823.864.158.052.368.044.672-.161.67-.451 1.45-1.646 2.028-3.46.564-1.772.89-3.994.765-6.323-.169-3.165-.735-5.091-1.385-6.103-.32-.496-.626-.723-.868-.813-.227-.083-.476-.077-.769.058-.637.294-1.405 1.18-1.985 2.697zm6.552 4.078c-.174-3.255-.76-5.508-1.63-6.862-.44-.686-.986-1.188-1.633-1.427-.661-.245-1.337-.18-1.95.104-1.176.542-2.145 1.88-2.783 3.55-.652 1.705-1.015 3.89-.879 6.329.226 4.045.835 6.712 1.697 8.236.434.768.988 1.341 1.684 1.571.726.24 1.43.05 2.018-.346 1.115-.75 2.032-2.368 2.64-4.277.621-1.951.97-4.362.836-6.878z" fill="#fff"/><path d="M107.404 16.266l8.681-8.732h26.168l.122.062c.02.01 6.373 3.13 7.832 9.032 1.416 5.734.853 13.703.852 13.726l-.008.09-.737 1.795h-2.412l.14-.68a7.367 7.367 0 00-.427-4.278c-.557-1.338-1.49-2.47-2.659-3.169-.927-.553-1.926-.872-3.028-.886-1.124-.011-2.372.293-3.781.984-4.192 2.06-3.101 7.342-3.099 7.357l.13.672h-23.251l.107-.654c0-.008.49-2.723-.695-4.837-.991-1.768-2.335-2.769-3.751-3.214-1.725-.539-3.571-.261-5.039.464-4.359 2.257-3.275 7.744-3.273 7.76l.124.668h-2.975l-.159-.139c-.007-.005-2.568-2.118-2.048-5.154.536-3.129 1.696-5.204 3.467-6.724 1.74-1.494 4.043-2.416 6.911-3.265l2.808-.878zm36.047-5.424l-2.067-1.252h-10.498l-1.539 6.836h14.501l-.397-5.584zm-32.234 5.584h14.282l1.685-6.836h-10.063l-6.113 6.148.209.688z" fill="#fff"/><path d="M105.518 24.786c1.411 0 2.688.576 3.614 1.508a5.135 5.135 0 011.501 3.637 5.143 5.143 0 01-1.499 3.637 5.082 5.082 0 01-3.616 1.507 5.077 5.077 0 01-3.616-1.507 5.14 5.14 0 01-1.501-3.637c0-1.42.575-2.706 1.499-3.637a5.092 5.092 0 013.618-1.508zm36.082 0c1.411 0 2.692.576 3.616 1.505a5.158 5.158 0 011.499 3.64 5.15 5.15 0 01-1.499 3.637 5.09 5.09 0 01-7.232 0 5.14 5.14 0 01-1.501-3.637c0-1.42.575-2.706 1.499-3.637a5.092 5.092 0 013.618-1.508zM150.72 7.667c-.492.104-5.326 1.217-6.947 4.5v.002a7.854 7.854 0 00-.724 2.447c-.138 1.063-.069 2.168.284 3.125.331.903.926 1.675 1.858 2.14.431.216.934.37 1.514.446 1.687.221 3.439-.11 5.002-.85 1.595-.752 2.991-1.927 3.93-3.375.297-.458.799-1.87.944-3.466.092-1.014.033-2.081-.333-2.97-.339-.827-.961-1.512-2.01-1.864-.857-.29-2.006-.364-3.518-.135zm-8.289 3.83c2.041-4.123 8.007-5.31 8.025-5.315l.042-.007c1.755-.266 3.137-.162 4.215.2 1.518.51 2.423 1.511 2.919 2.719.467 1.141.55 2.453.438 3.677-.168 1.854-.8 3.568-1.177 4.15-1.093 1.684-2.71 3.05-4.552 3.918-1.813.857-3.849 1.238-5.823.98a6.226 6.226 0 01-1.997-.587c-1.305-.655-2.138-1.724-2.597-2.971-.439-1.192-.525-2.546-.358-3.834a9.383 9.383 0 01.865-2.93z" fill="#fff"/><path fill-rule="evenodd" clip-rule="evenodd" d="M151.334 6.265c.53-.4 7.816-5.52 7.816-5.52s1.616-1.078 2.847-.092c1.717 1.369 6.282 8.317 8.298 10.865.505.635.934 1.715-.586 2.795-2.373 1.683-2.699 2.153-2.699 2.153l1.861 1.452v2.008l2.297.776-.404 1.937 2.387 1.088v2.376l2.125.562-.172 2.76 2.285.74-.363 1.59.869.71s-.077 1.112.003 1.253c.081.138-.537.346-.537.346l-1.18-.814-.174-1.201-1.619.25-.063-2.534-2.34-.522-.124-2.722-2.094-.984-.094-2.15-2.169.34-.588-2.954-1.906.277-1.802-2.15c-.783.585-1.533 1.515-2.431 1.908-.922.404-2.044.635-2.745-.607-1.135-2.014-4.033-6.186-4.033-6.186l-3.39-5.18s-.952-1.669.725-2.57zm2.808.818l5.565-4.053a.561.561 0 01.785.126l.814 1.13a.571.571 0 01-.125.79l-5.565 4.052a.561.561 0 01-.784-.125l-.814-1.13a.569.569 0 01.124-.79z" fill="#fff"/><path d="M151.206 6.067c.605-.453 7.787-5.501 7.808-5.516l.012-.008c.005-.002 1.753-1.169 3.118-.075 1.154.918 3.52 4.24 5.584 7.135 1.076 1.51 2.067 2.902 2.753 3.767l.105.142c.243.345.44.784.41 1.278-.031.495-.286 1.03-.94 1.558a4.922 4.922 0 01-.213.16c-1.585 1.124-2.232 1.685-2.484 1.93l1.747 1.364v1.955l2.336.787-.408 1.958 2.353 1.073v2.345l2.136.564-.172 2.77 2.316.752-.379 1.66.85.693-.008.123c0 .004-.073 1.04-.029 1.115.249.427-.656.687-.658.689l-.115.042-1.367-.941-.153-1.067-1.65.254-.063-2.618-2.338-.522-.126-2.76-2.094-.983-.088-2.03-2.135.335-.585-2.957-1.813.266-1.742-2.078c-.214.173-.427.368-.641.566-.517.476-1.047.963-1.662 1.233-.49.215-1.039.383-1.572.333-.555-.054-1.077-.341-1.472-1.04-1.131-2.006-4.014-6.156-4.021-6.17-1.086-1.705-2.254-3.538-3.402-5.196-.004-.004-1.063-1.868.802-2.886zm8.078-5.13c-.019.016-7.27 5.11-7.808 5.519l-.031.02c-1.462.785-.633 2.238-.631 2.242l3.376 5.162c.01.012 2.908 4.184 4.047 6.204.306.543.697.762 1.106.803.435.042.91-.108 1.34-.297.542-.235 1.044-.697 1.532-1.145.285-.262.566-.522.852-.736l.178-.133 1.86 2.222 1.999-.292.588 2.953 2.205-.346.099 2.272 2.093.982.122 2.684 2.345.523.059 2.45 1.591-.247.194 1.336 1.095.755-.014.02c.126.023.26.03.213-.05-.092-.164-.06-.958-.043-1.266l-.89-.726.351-1.523-2.255-.73.17-2.749-2.113-.558V23.88l-2.42-1.103.4-1.918-2.259-.762v-2.065l-1.945-1.517.123-.183c0-.002.35-.504 2.76-2.214.067-.046.13-.094.188-.143.536-.429.741-.843.764-1.213.023-.367-.134-.706-.324-.978l-.09-.12c-.7-.885-1.692-2.277-2.766-3.784-2.048-2.873-4.395-6.166-5.494-7.044-1.041-.831-2.425.012-2.567.1zm-5.279 5.954l5.564-4.053a.79.79 0 011.114.179l.814 1.13a.808.808 0 01-.178 1.12l-5.563 4.054a.801.801 0 01-1.116-.18l-.812-1.13a.803.803 0 01.177-1.12zm5.84-3.67l-5.563 4.053a.33.33 0 00-.073.458l.814 1.133c.052.07.13.117.212.13a.339.339 0 00.244-.057l5.562-4.055a.332.332 0 00.075-.458l-.815-1.13a.328.328 0 00-.456-.073z" fill="#fff"/></svg><svg fill="none" viewBox="0 0 109 15" id="icon_made-logo" xmlns="http://www.w3.org/2000/svg"><path fill-rule="evenodd" clip-rule="evenodd" d="M3.475 12.373H.906V0h5.562v2.278H3.471l.004 10.095zM12.305 0h5.99v2.278H14.98v2.387h2.57v2.279h-2.57v3.154h3.53v2.279h-6.204V0zM29.21 6.944h-2.46v5.424h-2.674V0h2.674v4.665h2.46V0h2.57v12.373h-2.57v-5.43zM37.58 0h5.99v2.278h-3.316v2.387h2.569v2.279h-2.57v3.154h3.531v2.279H37.58V0zM54.16 3.579c0-.562-.375-1.3-.961-1.3h-1.196v4.014h1.212c.59 0 .961-1.05.961-1.518l-.016-1.196zm-.323 4.904h-1.834v3.906H49.33V0h4.387a3.058 3.058 0 012.993 3.147v1.955c.016 1.361-.751 3.38-2.872 3.38zm11.068-5.207l-.856 4.556h1.712l-.856-4.556zm1.284 6.62h-2.569l-.428 2.497H60.52L63.193 0h3.426l2.674 12.373h-2.674l-.428-2.477zm14.276 2.497h-6.65V0h2.675v10.098h2.355V0h2.674v10.098h1.07v4.444h-2.14l.016-2.15zm12.243-6.62l-2.674 5.315v1.3H87.36V0h2.674v6.62l2.674-5.315V0h2.674v12.373h-2.674v-6.6zm12.97-3.475h-1.284c-.465 0-.857.614-.857.978v1.41c0 .404.34 1.3.748 1.3h1.389l.004-3.688zm0 10.099V8.03h-.856l-1.713 4.343h-2.888l2.355-4.884s-1.616-.723-1.616-2.929V2.945c0-1.685 1.176-2.929 3.103-2.929h4.289V12.39l-2.674.008z" fill="#000"/></svg><svg fill="none" viewBox="0 0 38 38" id="icon_tt" xmlns="http://www.w3.org/2000/svg"><circle cx="19" cy="19" r="19" fill="currentColor"/><path fill-rule="evenodd" clip-rule="evenodd" d="M29.794 11.91a8.97 8.97 0 01-2.568.702 4.471 4.471 0 001.963-2.474 8.957 8.957 0 01-2.838 1.086 4.472 4.472 0 00-7.618 4.077 12.685 12.685 0 01-9.215-4.672 4.457 4.457 0 00-.604 2.246c0 1.551.79 2.92 1.99 3.72a4.46 4.46 0 01-2.026-.56v.056a4.472 4.472 0 003.586 4.383 4.529 4.529 0 01-2.019.075 4.477 4.477 0 004.175 3.105 8.968 8.968 0 01-5.554 1.915c-.36 0-.715-.023-1.066-.062a12.653 12.653 0 006.854 2.01c8.223 0 12.72-6.812 12.72-12.72 0-.195-.004-.387-.014-.579a9.044 9.044 0 002.23-2.315l.004.007z" fill="#fff"/></svg><svg fill="none" viewBox="0 0 26 26" id="icon_viber" xmlns="http://www.w3.org/2000/svg"><path d="M12.348.004c-2.087.025-6.572.368-9.081 2.67C1.4 4.523.749 7.257.672 10.638.61 14.006.532 20.332 6.63 22.055v2.624s-.038 1.05.656 1.265c.855.27 1.342-.537 2.154-1.405l1.515-1.714c4.173.347 7.368-.452 7.736-.57.847-.271 5.615-.88 6.395-7.208.8-6.534-.39-10.65-2.535-12.513h-.013C21.89 1.938 19.288.04 13.473.02c0 0-.431-.03-1.125-.017zm.071 1.837c.593-.004.953.021.953.021 4.921.013 7.27 1.494 7.824 1.993 1.807 1.549 2.738 5.26 2.057 10.715-.648 5.29-4.515 5.624-5.231 5.853-.305.097-3.12.791-6.665.563 0 0-2.64 3.186-3.466 4.007-.131.144-.284.186-.381.165-.14-.034-.182-.207-.174-.445l.025-4.354c-5.172-1.43-4.867-6.826-4.812-9.644.064-2.819.593-5.124 2.167-6.686 2.12-1.917 5.929-2.175 7.702-2.188h.002zm.39 2.818a.322.322 0 00-.325.321c0 .182.148.326.325.326a6.104 6.104 0 014.368 1.723c1.18 1.146 1.756 2.687 1.777 4.7 0 .179.144.327.326.327v-.013a.325.325 0 00.326-.322 6.998 6.998 0 00-1.964-5.159c-1.286-1.257-2.916-1.904-4.832-1.904zm-4.282.745a1.017 1.017 0 00-.665.13h-.017a5.1 5.1 0 00-1.24 1.02c-.296.343-.457.69-.5 1.024-.025.199-.008.398.052.588l.02.013c.335.982.771 1.926 1.304 2.815a16.558 16.558 0 002.514 3.436l.03.042.046.034.029.034.034.03a16.792 16.792 0 003.445 2.526c1.43.778 2.298 1.146 2.819 1.299v.008c.152.046.291.067.431.067a1.992 1.992 0 001.194-.512 4.924 4.924 0 001.007-1.243v-.009c.25-.47.165-.914-.195-1.214-.72-.63-1.5-1.19-2.328-1.672-.554-.3-1.117-.118-1.345.186l-.487.614c-.25.305-.703.262-.703.262l-.013.008c-3.38-.863-4.282-4.286-4.282-4.286s-.043-.466.27-.703l.61-.49c.291-.238.494-.8.181-1.355a14.623 14.623 0 00-1.667-2.328.926.926 0 00-.546-.326l.002.002zm4.845.965c-.432 0-.432.652.004.652a4.084 4.084 0 012.869 1.243 3.786 3.786 0 01.973 2.785.327.327 0 00.326.322l.013.017a.328.328 0 00.326-.326c.029-1.291-.372-2.374-1.16-3.242-.791-.868-1.895-1.354-3.305-1.451h-.046zm.534 1.752c-.445-.013-.462.651-.022.664 1.071.056 1.591.597 1.66 1.71a.324.324 0 00.321.318h.013a.329.329 0 00.313-.348c-.076-1.45-.868-2.268-2.272-2.344h-.013z" fill="#8C47C4"/></svg><svg fill="none" viewBox="0 0 26 26" id="icon_wa" xmlns="http://www.w3.org/2000/svg"><path fill-rule="evenodd" clip-rule="evenodd" d="M18.866 15.58c-.323-.16-1.905-.939-2.2-1.047-.295-.107-.51-.16-.725.162-.214.321-.83 1.047-1.018 1.261-.189.216-.376.242-.698.082-.322-.163-1.36-.502-2.589-1.598-.956-.854-1.603-1.908-1.79-2.23-.188-.323-.021-.497.14-.657.145-.144.322-.376.483-.564.162-.188.215-.323.322-.538.108-.215.054-.402-.027-.563-.08-.162-.724-1.747-.992-2.391-.261-.628-.527-.542-.724-.553-.188-.008-.403-.01-.617-.01-.215 0-.564.08-.858.402-.296.322-1.127 1.101-1.127 2.686 0 1.584 1.152 3.114 1.314 3.33.161.215 2.27 3.467 5.499 4.861.77.331 1.368.53 1.835.677.771.246 1.473.211 2.028.128.618-.092 1.905-.779 2.173-1.53.268-.753.268-1.397.188-1.531-.08-.135-.295-.215-.618-.377h.001zm-5.874 8.02h-.004c-1.918 0-3.8-.515-5.451-1.492l-.39-.232-4.054 1.064 1.082-3.952-.254-.405a10.683 10.683 0 01-1.637-5.699C2.286 6.98 7.089 2.176 12.997 2.176c2.86 0 5.549 1.116 7.57 3.14a10.644 10.644 0 013.133 7.576C23.698 18.796 18.894 23.6 12.992 23.6zM22.105 3.78A12.799 12.799 0 0012.991 0C5.891 0 .111 5.78.108 12.883a12.853 12.853 0 001.72 6.44L0 26l6.83-1.792a12.872 12.872 0 006.157 1.569h.005c7.1 0 12.881-5.78 12.883-12.884a12.805 12.805 0 00-3.77-9.114z" fill="#29992D"/></svg></svg>